<svg version="1.1" id="Icons" xmlns="http://www.w3.org/2000/svg" xmlns:xlink="http://www.w3.org/1999/xlink" viewBox="0 0 32 32" xml:space="preserve">
<style type="text/css">
	.st0{fill:none;stroke:#000000;stroke-width:2;stroke-linecap:round;stroke-linejoin:round;stroke-miterlimit:10;}
</style>
<polygon points="20,2.6 20,8 25.4,8 "></polygon>
<path d="M23.5,10H19c-0.6,0-1-0.4-1-1V2H7C6.4,2,6,2.4,6,3v26c0,0.6,0.4,1,1,1h18c0.6,0,1-0.4,1-1V12.5C26,11.1,24.9,10,23.5,10z
	 M17.7,22.7l-1.5,1.5c-0.9,0.9-2,1.3-3.2,1.3s-2.3-0.4-3.2-1.3c-1.8-1.8-1.8-4.6,0-6.4l1.5-1.5c0.4-0.4,1-0.4,1.4,0s0.4,1,0,1.4
	l-1.5,1.5c-1,1-1,2.6,0,3.6c1,1,2.6,1,3.6,0l1.5-1.5c0.4-0.4,1-0.4,1.4,0S18.1,22.3,17.7,22.7z M13.3,19.3l3-3c0.4-0.4,1-0.4,1.4,0
	s0.4,1,0,1.4l-3,3C14.5,20.9,14.3,21,14,21s-0.5-0.1-0.7-0.3C12.9,20.3,12.9,19.7,13.3,19.3z M21.2,19.2l-1.5,1.5
	C19.5,20.9,19.3,21,19,21s-0.5-0.1-0.7-0.3c-0.4-0.4-0.4-1,0-1.4l1.5-1.5c1-1,1-2.6,0-3.6c-1-1-2.6-1-3.6,0l-1.5,1.5
	c-0.4,0.4-1,0.4-1.4,0s-0.4-1,0-1.4l1.5-1.5c1.8-1.8,4.6-1.8,6.4,0S23,17.4,21.2,19.2z"></path>
</svg>