<?xml version="1.0" encoding="UTF-8"?>
<svg width="800px" height="800px" viewBox="0 0 24 24" fill="none" xmlns="http://www.w3.org/2000/svg">
<path d="M8.4641 2.9371H5.9771C4.4294 2.9371 3.655 2.9371 3.064 3.2383 2.5439 3.5032 2.1215 3.9258 1.8566 4.4457 1.5554 5.0367 1.5554 5.811 1.5554 7.3587V17.8595C1.5554 19.4072 1.5554 20.1805 1.8566 20.7717 2.1215 21.2914 2.5439 21.7149 3.064 21.9797 3.6545 22.2806 4.4279 22.2806 5.9725 22.2806H16.4818C18.0264 22.2806 18.7987 22.2806 19.3893 21.9797 19.9092 21.7149 20.333 21.2913 20.5978 20.7714 20.8989 20.1807 20.8989 19.4081 20.8989 17.8635V15.3722M22.2806 8.4638V1.5554M22.2806 1.5554H15.3722M22.2806 1.5554 12.6088 11.2272" stroke="#000" stroke-width="3" stroke-linecap="round"/>
</svg>