<!DOCTYPE svg PUBLIC "-//W3C//DTD SVG 1.1//EN" "http://www.w3.org/Graphics/SVG/1.1/DTD/svg11.dtd">
<svg width="256" height="256" viewBox="18 18 219 219" xmlns="http://www.w3.org/2000/svg" xmlns:xlink="http://www.w3.org/1999/xlink" stroke="rgb(249,130,50)">
<circle cx="127" cy="127" r="100" fill="none" stroke-width="16"/><g fill="rgb(249,130,50)">
<path d="M124.18,81.01 Q128.11,81.01 132.04,81.01 Q137.06,81.01 137.06,86.01 Q137.06,126.02 137.06,166.03 Q137.06,171.03 132.04,171.03 Q128.11,171.03 124.18,171.03 Q119.16,171.03 119.16,166.03 Q119.16,126.02 119.16,86.01 Q119.16,81.01 124.18,81.01M164.01,98.63 Q166.13,101.94 168.25,105.25 Q170.96,109.48 166.73,112.18 Q132.92,133.83 99.11,155.48 Q94.89,158.19 92.18,153.96 Q90.06,150.65 87.94,147.34 Q85.24,143.11 89.46,140.41 Q123.27,118.76 157.08,97.11 Q161.30,94.40 164.01,98.63 Z"/>
<path d="M92.11,98.47 Q89.98,101.77 87.84,105.07 Q85.12,109.29 89.33,112.01 Q123.04,133.81 156.76,155.61 Q160.97,158.33 163.70,154.12 Q165.83,150.82 167.96,147.52 Q170.69,143.30 166.48,140.58 Q132.76,118.78 99.05,96.98 Q94.84,94.25 92.11,98.47 Z"/></g></svg>