<!DOCTYPE svg PUBLIC "-//W3C//DTD SVG 1.1//EN" "http://www.w3.org/Graphics/SVG/1.1/DTD/svg11.dtd">
<svg width="256" height="256" viewBox="0 0 256 256" xmlns="http://www.w3.org/2000/svg" xmlns:xlink="http://www.w3.org/1999/xlink" fill="none" stroke-width="7" color="rgb(249,130,50)" stroke="currentcolor" stroke-linecap="round" stroke-linejoin="round">
<g transform="translate(-728.00, -805.00)">
<path d="M855.83,813.91 C862.41,813.93 878.29,815.99 885.56,817.77 C892.79,819.57 906.63,825.20 913.33,828.84 C920.69,832.86 931.34,840.60 937.44,846.36 C942.97,851.60 952.60,863.02 956.55,869.34 C960.49,875.71 967.36,890.17 969.40,896.43 C971.43,902.70 974.37,918.43 974.93,925.90 C975.45,933.33 974.37,948.24 972.98,955.73 C971.43,963.97 967.36,976.50 963.77,984.08 C960.49,990.96 952.60,1003.65 947.81,1009.35 C942.97,1015.07 931.34,1026.07 926.02,1029.95 C920.69,1033.81 906.63,1041.47 899.70,1044.31 C892.79,1047.10 878.29,1050.68 870.73,1051.67 C862.41,1052.74 849.24,1052.74 840.92,1051.67 C833.37,1050.68 818.86,1047.10 811.96,1044.31 C805.02,1041.47 790.97,1033.81 785.63,1029.95 C780.31,1026.07 768.68,1015.07 763.84,1009.35 C759.05,1003.65 751.16,990.96 747.89,984.08 C744.30,976.50 740.23,963.97 738.67,955.73 C737.28,948.24 736.21,933.33 736.73,925.90 C737.28,918.43 740.23,902.70 742.25,896.43 C744.30,890.17 751.16,875.71 755.11,869.34 C759.05,863.02 768.68,851.60 774.21,846.36 C780.31,840.60 790.97,832.86 798.33,828.84 C805.02,825.20 818.86,819.57 826.09,817.77 C833.37,815.99 849.24,813.93 855.83,813.91 Z" stroke-dasharray="40 22.3" stroke-dashoffset="51" stroke-width="15"/>
<path d="M864.71,917.33 L873.79,933.07 L864.71,948.80 L846.54,948.80 L837.45,933.07 L846.54,917.33 L864.71,917.33 Z"/>
<path d="M875.30,899.32 L894.83,933.15 L875.30,966.98 L836.24,966.98 L816.70,933.15 L836.24,899.32 L875.30,899.32 ZM855.72,858.03 C858.41,858.07 867.37,859.06 871.14,859.78 C875.46,860.62 882.67,862.86 886.48,864.56 C889.88,866.11 897.29,870.43 900.02,872.42 C902.82,874.48 909.01,880.11 911.69,883.05 C914.72,886.39 918.66,891.81 920.90,895.72 C922.86,899.18 926.35,906.92 927.40,910.10 C928.43,913.30 930.15,921.60 930.60,925.56 C931.08,930.04 931.08,936.75 930.60,941.22 C930.15,945.18 928.43,953.49 927.40,956.68 C926.35,959.87 922.86,967.60 920.90,971.06 C918.66,974.97 914.72,980.40 911.69,983.74 C909.01,986.67 902.73,992.38 900.02,994.36 C897.30,996.33 889.93,1000.53 886.31,1002.18 C882.20,1004.02 875.82,1006.09 871.41,1007.02 C867.51,1007.82 859.08,1008.75 855.72,1008.76 C852.37,1008.75 843.94,1007.82 840.03,1007.02 C835.63,1006.09 829.25,1004.02 825.14,1002.18 C821.51,1000.53 814.32,996.43 811.43,994.36 C808.67,992.37 802.21,986.68 799.77,984.01 C791.02,974.30 782.93,953.83 781.52,948.95 C781.52,948.95 796.98,919.21 796.98,919.21 C796.98,919.21 796.27,904.72 796.27,904.72 C796.27,904.72 826.04,889.42 826.04,889.42 C826.04,889.42 841.74,859.43 841.74,859.43 C844.39,859.00 851.25,857.98 855.72,858.03 Z" fill="currentcolor" fill-rule="evenodd"/>
</g>
</svg>