<?xml version="1.0" encoding="UTF-8"?><!DOCTYPE svg PUBLIC "-//W3C//DTD SVG 1.1//EN" "http://www.w3.org/Graphics/SVG/1.1/DTD/svg11.dtd">
<svg xmlns="http://www.w3.org/2000/svg" version="1.1" width="180px" height="180px" style="fill-rule:evenodd;fill:rgb(255,104,104);filter:drop-shadow(0 0 1px #000)" xmlns:xlink="http://www.w3.org/1999/xlink">
<path d="M 26.5,0.5 C 29.8333,0.5 33.1667,0.5 36.5,0.5C 36.1816,10.0834 36.5149,19.5834 37.5,29C 43.7376,32.5601 50.4042,33.8935 57.5,33C 66.8333,28 76.1667,23 85.5,18C 87.5,17.3333 89.5,17.3333 91.5,18C 98.6835,20.8379 105.85,23.6713 113,26.5C 115.984,31.9102 117.151,37.5769 116.5,43.5C 109.938,45.2216 104.605,43.3883 100.5,38C 95.5329,36.0666 90.5329,34.2333 85.5,32.5C 79.1629,34.6833 73.1629,37.5166 67.5,41C 62.0257,43.2957 56.359,44.2957 50.5,44C 41.4821,40.0809 32.3155,37.9142 23,37.5C 20.8333,37.8333 18.6667,38.1667 16.5,38.5C 15.4875,41.2029 13.9875,43.5362 12,45.5C 9.94233,44.8883 8.10899,43.8883 6.5,42.5C 9.13052,37.9621 11.4639,33.2954 13.5,28.5C 18.1667,27.8333 22.8333,27.1667 27.5,26.5C 26.5289,17.888 26.1956,9.22137 26.5,0.5 Z"/>
<path d="M 113.5,11.5 C 114.978,11.238 116.311,11.5713 117.5,12.5C 120.833,15.5 124.167,18.5 127.5,21.5C 129.64,25.6124 131.64,29.7791 133.5,34C 128.835,35.611 124.168,37.111 119.5,38.5C 118.293,34.0452 116.793,29.7119 115,25.5C 109.279,23.1041 103.779,20.4374 98.5,17.5C 103.357,15.9322 108.357,13.9322 113.5,11.5 Z"/>
<path d="M 136.5,34.5 C 141.796,35.2655 147.129,36.0989 152.5,37C 153.614,38.5699 154.947,39.9032 156.5,41C 152.938,44.0584 149.938,47.5584 147.5,51.5C 151.167,54 154.833,56.5 158.5,59C 157.235,60.3374 156.735,61.8374 157,63.5C 161.692,69.3586 166.192,75.3586 170.5,81.5C 169.399,83.6416 168.399,85.8083 167.5,88C 168.977,90.4449 170.81,92.6116 173,94.5C 173.667,95.5 173.667,96.5 173,97.5C 167.084,100.874 161.25,104.374 155.5,108C 154.668,108.688 154.002,108.521 153.5,107.5C 159.284,103.558 164.95,99.3914 170.5,95C 166.43,92.3317 164.43,88.8317 164.5,84.5C 159.358,83.2855 158.691,84.2855 162.5,87.5C 162.167,87.8333 161.833,88.1667 161.5,88.5C 156.386,86.9908 155.386,84.1575 158.5,80C 160.9,79.8142 163.234,79.3142 165.5,78.5C 161.522,73.3539 157.355,68.3539 153,63.5C 153.195,61.8739 153.195,60.2072 153,58.5C 149.377,56.2775 145.877,53.9442 142.5,51.5C 146.805,48.7281 149.638,45.0614 151,40.5C 150.25,39.8742 149.416,39.3742 148.5,39C 143.845,38.5008 139.179,38.3342 134.5,38.5C 134.527,36.8007 135.194,35.4674 136.5,34.5 Z"/>
<path d="M 85.5,36.5 C 91.3998,36.7033 96.5664,38.7033 101,42.5C 100.771,45.8103 102.271,47.6437 105.5,48C 106.359,52.4716 105.692,56.8049 103.5,61C 106.557,61.2565 109.557,61.7565 112.5,62.5C 112.528,72.4745 107.528,76.3078 97.5,74C 95.0213,70.6868 92.3546,67.5202 89.5,64.5C 77.5139,63.3341 65.5139,63.1674 53.5,64C 51.9626,66.3128 51.4626,68.8128 52,71.5C 58.544,75.2491 62.044,80.9158 62.5,88.5C 57.8215,88.6658 53.1548,88.4992 48.5,88C 44.135,83.4422 40.635,78.2755 38,72.5C 35.1842,70.6833 32.6842,68.5166 30.5,66C 28.3775,59.932 26.7108,53.7654 25.5,47.5C 29.4903,48.1634 33.4903,48.8301 37.5,49.5C 52.3529,47.62 67.0196,44.7867 81.5,41C 83.0414,39.6288 84.3747,38.1288 85.5,36.5 Z"/>
<path d="M 154.5,44.5 C 158.413,46.3699 158.413,48.3699 154.5,50.5C 157.853,51.3807 158.353,53.0474 156,55.5C 153.572,54.37 151.405,52.87 149.5,51C 151.054,48.7131 152.721,46.5465 154.5,44.5 Z"/>
<path d="M 134.5,56.5 C 144.084,58.663 148.584,64.663 148,74.5C 144.281,72.209 142.615,68.8757 143,64.5C 138.489,59.8727 133.322,59.206 127.5,62.5C 124.26,61.9634 123.26,60.2967 124.5,57.5C 125.5,58.1667 126.5,58.8333 127.5,59.5C 130.016,58.6701 132.35,57.6701 134.5,56.5 Z"/>
<path d="M 133.5,61.5 C 140.129,62.4434 142.795,66.11 141.5,72.5C 137.641,73.9619 134.141,73.2952 131,70.5C 128.4,66.2615 129.233,63.2615 133.5,61.5 Z M 133.5,64.5 C 135.636,65.4026 137.636,66.5693 139.5,68C 138.725,69.2295 137.725,69.5628 136.5,69C 135.167,68 133.833,67 132.5,66C 133.056,65.6174 133.389,65.1174 133.5,64.5 Z"/>
<path d="M 125.5,68.5 C 128.176,70.8697 131.176,73.0363 134.5,75C 137.167,75.3333 139.833,75.6667 142.5,76C 134.521,79.6932 128.854,77.1932 125.5,68.5 Z"/>
<path d="M 65.5,72.5 C 72.175,72.3337 78.8417,72.5004 85.5,73C 87.5,74.6667 89.5,76.3333 91.5,78C 88.8333,81.3333 86.1667,84.6667 83.5,88C 78.8439,89.0034 74.8439,87.8368 71.5,84.5C 69.4734,80.4469 67.4734,76.4469 65.5,72.5 Z"/>
<path d="M 29.5,76.5 C 30.8734,76.3433 32.2068,76.51 33.5,77C 37.5,81.6667 41.5,86.3333 45.5,91C 58.8458,91.8327 72.1792,91.666 85.5,90.5C 88.8333,86.1667 92.1667,81.8333 95.5,77.5C 103.584,76.0656 111.584,76.2323 119.5,78C 120.667,79.1667 121.833,80.3333 123,81.5C 123.781,82.9437 123.614,84.277 122.5,85.5C 115.446,89.7775 107.779,91.6108 99.5,91C 97.4129,94.5082 95.0796,97.8416 92.5,101C 82.8391,101.5 73.1724,101.666 63.5,101.5C 63.4385,106.878 63.2719,112.212 63,117.5C 64.2547,118.211 65.4214,119.044 66.5,120C 71.7503,120.193 76.917,120.693 82,121.5C 82.769,124.099 82.6023,126.599 81.5,129C 70.0538,132.04 60.5538,129.206 53,120.5C 52.6541,114.143 52.1541,107.81 51.5,101.5C 46.4645,102.498 42.2978,101.165 39,97.5C 34.5,92 30,86.5 25.5,81C 27.0414,79.6288 28.3747,78.1288 29.5,76.5 Z"/>
<path d="M 130.5,81.5 C 136.559,83.5746 142.559,85.7412 148.5,88C 150,90.1667 149.5,91.6667 147,92.5C 141.332,90.749 135.832,88.5823 130.5,86C 129.272,84.5098 129.272,83.0098 130.5,81.5 Z"/>
<path d="M 101.5,92.5 C 109.167,92.5 116.833,92.5 124.5,92.5C 124.998,98.5255 123.665,104.026 120.5,109C 124.158,108.917 127.825,108.417 131.5,107.5C 133.621,110.862 134.955,114.529 135.5,118.5C 138.435,118.283 141.269,117.617 144,116.5C 144.833,116.833 145.667,117.167 146.5,117.5C 147.577,119.912 148.744,122.246 150,124.5C 151.973,123.36 153.807,122.027 155.5,120.5C 157,122.833 158.5,125.167 160,127.5C 161.644,124.689 163.81,122.356 166.5,120.5C 167.914,121.624 169.414,122.624 171,123.5C 169.68,127.834 168.013,132.167 166,136.5C 161.919,137.971 157.919,139.638 154,141.5C 153.727,143.101 153.227,144.601 152.5,146C 154.004,147.788 155.671,148.288 157.5,147.5C 155.896,145.821 155.229,143.821 155.5,141.5C 157.936,141.683 160.103,141.016 162,139.5C 164.459,142.245 166.293,145.411 167.5,149C 163.521,152.656 159.188,155.822 154.5,158.5C 150.978,155.149 147.144,152.149 143,149.5C 142.825,145.789 142.325,142.122 141.5,138.5C 136.327,144.659 133.16,151.659 132,159.5C 127.261,154.918 124.594,149.251 124,142.5C 123.337,145.869 123.504,149.203 124.5,152.5C 120.102,159.887 114.102,165.721 106.5,170C 102.5,170.333 98.5,170.667 94.5,171C 93.6523,173.671 93.319,176.171 93.5,178.5C 70.3903,161.878 48.0569,144.378 26.5,126C 28.0238,124.806 29.1904,123.306 30,121.5C 30.4988,117.514 30.6655,113.514 30.5,109.5C 37.2028,109.441 43.8695,109.274 50.5,109C 48.9189,114.022 49.4189,118.855 52,123.5C 55.6667,126.5 59.3333,129.5 63,132.5C 70.0787,131.52 77.2454,131.187 84.5,131.5C 84.5,127.167 84.5,122.833 84.5,118.5C 78.8236,118.666 73.1569,118.499 67.5,118C 66.5,117.167 65.5,116.333 64.5,115.5C 65.4259,111.906 65.7592,108.24 65.5,104.5C 74.5062,104.666 83.5062,104.5 92.5,104C 96.5025,100.845 99.5025,97.0115 101.5,92.5 Z"/>
<path d="M 169.5,103.5 C 170.239,103.369 170.906,103.536 171.5,104C 169.282,107.984 167.449,112.15 166,116.5C 164.327,119.001 162.493,121.334 160.5,123.5C 162.257,116.624 165.257,109.957 169.5,103.5 Z"/>
<path d="M 158.5,120.5 C 159.833,121.167 159.833,121.167 158.5,120.5 Z"/>
</svg>