<!DOCTYPE svg PUBLIC "-//W3C//DTD SVG 1.1//EN" "http://www.w3.org/Graphics/SVG/1.1/DTD/svg11.dtd">
<svg width="480.00" height="480.00" viewBox="0.00 0.00 2000.00 2000.00" xmlns="http://www.w3.org/2000/svg" xmlns:xlink="http://www.w3.org/1999/xlink" style="filter:drop-shadow(0 0 1px #000)">
<g stroke-linecap="round" transform="translate(-49.00, -488.00)" id="STG">
<path d="M1099.87,503.92 C1102.18,513.99 1109.59,546.15 1111.58,555.73 C1113.23,564.68 1116.08,583.35 1117.27,593.07 C1118.53,604.59 1119.89,639.86 1119.92,655.52 C1119.54,675.66 1117.89,704.39 1116.12,720.09 C1115.12,727.85 1112.10,747.16 1111.40,750.60 C1110.57,754.68 1105.53,774.28 1103.26,782.02 C1100.83,789.67 1095.49,804.72 1092.59,812.13 C1089.53,819.45 1082.87,833.82 1079.27,840.84 C1075.48,847.77 1067.35,861.31 1063.01,867.93 C1056.56,877.20 1051.53,883.76 1044.92,891.69 C1035.63,902.37 1014.99,922.94 1003.63,932.84 C991.77,942.73 965.14,963.71 951.21,974.47 C922.37,995.63 871.61,1031.04 844.94,1049.43 C816.68,1068.67 763.21,1105.63 738.00,1123.34 C724.51,1133.24 697.97,1153.14 684.93,1163.14 C673.07,1172.70 650.16,1191.54 639.09,1201.11 C627.88,1211.22 605.25,1232.14 593.83,1242.95 C586.79,1249.82 562.85,1275.24 552.65,1286.28 C542.24,1298.03 521.25,1322.20 510.66,1334.63 C500.33,1347.34 480.54,1373.05 471.09,1386.07 C461.93,1399.18 449.15,1418.32 437.36,1438.67 C429.98,1452.02 415.96,1479.22 409.32,1493.07 C402.94,1507.10 392.10,1533.02 385.48,1551.25 C380.27,1566.92 370.76,1599.69 366.47,1616.79 C364.08,1626.92 357.85,1661.99 355.56,1677.18 C353.46,1692.72 349.96,1725.00 348.35,1741.40 C347.15,1758.43 345.19,1792.40 344.75,1809.09 C344.63,1825.55 345.40,1857.73 346.28,1873.45 C346.88,1881.19 348.25,1896.55 349.01,1904.17 C349.49,1908.49 352.92,1929.16 354.42,1937.57 C357.76,1954.20 365.97,1986.51 370.84,2002.19 C375.94,2017.73 387.64,2047.76 393.77,2062.33 C400.07,2076.56 413.22,2104.03 420.05,2117.27 C423.56,2123.72 432.33,2139.49 434.65,2143.15 C443.62,2156.96 462.35,2183.45 472.12,2196.12 C484.15,2210.87 502.99,2231.88 513.72,2243.23 C524.64,2254.40 547.03,2276.20 558.49,2286.83 C572.78,2299.65 594.17,2316.68 606.51,2326.14 C619.18,2335.43 644.93,2353.77 658.01,2362.83 C671.41,2371.74 699.01,2388.14 713.29,2395.68 C720.50,2399.35 735.14,2406.37 742.51,2409.80 C754.39,2415.04 760.27,2417.39 772.19,2421.70 C787.17,2426.79 817.99,2436.05 833.85,2440.21 C849.99,2444.05 882.83,2450.74 899.22,2453.89 C914.93,2456.63 945.66,2461.71 960.67,2464.04 C981.29,2466.93 1007.53,2469.32 1023.84,2470.50 C1039.72,2471.41 1070.23,2472.37 1084.95,2472.41 C1099.90,2472.08 1130.82,2470.27 1146.78,2468.79 C1169.22,2466.23 1192.95,2462.09 1207.74,2459.22 C1223.00,2455.92 1254.14,2448.74 1270.02,2444.86 C1286.28,2440.57 1317.85,2431.28 1333.08,2426.29 C1347.93,2421.08 1381.91,2407.82 1390.96,2403.54 C1408.65,2394.80 1434.10,2380.82 1447.57,2372.50 C1460.66,2364.14 1486.05,2345.96 1498.58,2336.84 C1510.84,2327.44 1542.53,2302.60 1547.13,2298.71 C1551.89,2294.67 1582.16,2266.91 1593.73,2256.06 C1605.13,2244.83 1627.82,2222.09 1638.35,2210.24 C1648.67,2198.21 1667.70,2173.19 1676.41,2160.20 C1678.82,2156.55 1688.42,2139.69 1692.18,2132.64 C1699.47,2118.37 1712.52,2088.60 1718.26,2073.11 C1723.69,2057.50 1733.30,2026.76 1737.49,2011.65 C1739.37,2004.17 1742.94,1989.31 1744.62,1981.92 C1746.66,1972.57 1751.38,1933.55 1752.43,1917.57 C1753.23,1901.66 1753.05,1870.23 1752.08,1854.73 C1751.47,1847.00 1749.88,1831.64 1748.89,1824.00 C1747.16,1812.11 1745.97,1805.71 1743.36,1794.08 C1739.82,1779.38 1731.11,1750.05 1725.94,1735.44 C1723.23,1728.13 1717.27,1713.62 1713.96,1706.43 C1710.44,1699.27 1702.73,1685.10 1698.54,1678.07 C1688.01,1661.36 1672.79,1641.48 1660.19,1627.22 C1649.67,1615.72 1628.74,1595.19 1613.61,1581.61 C1600.76,1570.50 1575.89,1548.70 1563.88,1538.02 C1552.75,1527.79 1529.10,1505.58 1516.58,1493.61 C1503.80,1480.76 1480.78,1455.96 1470.52,1444.04 C1461.02,1432.49 1440.90,1405.98 1437.05,1400.16 C1431.91,1392.35 1423.12,1376.68 1419.75,1369.31 C1416.58,1362.34 1411.62,1347.91 1409.58,1340.93 C1407.66,1333.96 1404.22,1318.21 1403.61,1313.10 C1402.79,1305.85 1401.94,1291.31 1401.91,1284.02 C1402.01,1274.79 1403.85,1261.71 1406.26,1253.77 C1408.92,1245.14 1415.17,1231.82 1420.12,1223.51 C1424.40,1216.35 1433.83,1202.83 1440.89,1193.54 C1451.28,1180.39 1465.79,1161.99 1469.92,1156.74 C1465.65,1158.24 1449.81,1163.72 1448.01,1164.41 C1440.47,1167.34 1423.94,1176.30 1417.05,1181.00 C1411.70,1184.77 1400.48,1193.23 1394.61,1197.91 C1385.58,1205.36 1376.32,1213.59 1370.52,1219.72 C1364.78,1225.82 1353.51,1239.98 1349.08,1246.66 C1346.35,1250.78 1338.15,1265.39 1334.82,1272.14 C1331.58,1279.05 1325.49,1293.52 1322.65,1301.07 C1319.52,1309.85 1315.42,1324.38 1313.83,1332.29 C1312.25,1340.20 1310.34,1356.07 1309.97,1364.33 C1309.68,1371.15 1310.44,1387.46 1311.32,1395.22 C1312.10,1401.98 1315.10,1418.78 1316.98,1426.77 C1318.58,1433.14 1323.85,1450.82 1326.46,1458.61 C1329.20,1466.24 1335.10,1481.05 1338.24,1488.23 C1341.53,1495.25 1347.22,1506.55 1352.63,1516.10 C1356.76,1522.98 1365.45,1536.32 1370.00,1542.77 C1377.92,1553.40 1429.72,1615.34 1449.74,1639.58 C1454.68,1645.80 1464.53,1658.33 1469.44,1664.64 C1474.88,1671.84 1482.92,1683.99 1486.63,1690.63 C1490.32,1697.28 1496.48,1710.74 1499.05,1717.82 C1501.49,1724.56 1505.31,1739.90 1506.50,1747.61 C1507.67,1755.33 1508.67,1771.27 1508.49,1779.39 C1508.38,1784.14 1506.98,1803.60 1506.15,1811.37 C1505.16,1818.99 1502.71,1833.78 1501.25,1840.95 C1499.92,1847.21 1494.07,1865.15 1490.92,1872.93 C1487.76,1880.70 1481.91,1892.51 1476.42,1902.39 C1472.48,1909.21 1464.49,1922.15 1460.45,1928.27 C1454.49,1936.90 1445.82,1947.14 1441.19,1952.05 C1435.86,1957.67 1424.20,1968.42 1419.21,1972.15 C1413.23,1976.59 1399.56,1984.31 1391.52,1987.79 C1386.18,1990.09 1371.06,1994.41 1363.86,1996.08 C1356.46,1997.64 1340.78,2000.32 1332.52,2001.43 C1324.21,2002.42 1307.62,2003.19 1299.39,2002.97 C1291.17,2002.73 1274.94,2000.98 1267.26,1999.43 C1259.68,1997.83 1244.59,1993.57 1237.07,1990.90 C1230.53,1988.57 1214.63,1981.76 1207.21,1978.12 C1199.97,1974.43 1186.04,1966.42 1179.36,1962.10 C1172.76,1957.68 1161.07,1949.02 1153.95,1942.63 C1147.90,1937.11 1136.38,1925.36 1130.90,1919.14 C1125.51,1912.82 1115.38,1899.54 1110.67,1892.92 C1106.22,1886.35 1097.34,1872.00 1094.47,1866.84 C1089.92,1858.35 1084.45,1845.21 1081.98,1837.72 C1079.44,1829.97 1075.94,1815.06 1074.74,1806.96 C1073.70,1799.39 1072.13,1784.48 1071.60,1777.14 C1071.04,1765.78 1071.08,1759.16 1071.78,1747.25 C1072.42,1739.62 1074.63,1721.67 1075.44,1717.07 C1076.77,1709.62 1080.92,1694.11 1083.72,1686.10 C1086.85,1677.18 1092.91,1663.89 1096.25,1657.06 C1099.82,1650.12 1107.67,1635.90 1111.95,1628.63 C1122.75,1611.21 1141.61,1583.63 1149.05,1574.42 C1155.20,1566.98 1167.52,1553.08 1173.70,1546.62 C1184.25,1536.25 1198.06,1522.67 1201.31,1519.47 C1196.88,1519.73 1186.08,1520.35 1179.71,1520.71 C1167.81,1521.36 1154.67,1522.97 1145.14,1525.23 C1135.33,1527.58 1122.01,1532.09 1112.61,1535.77 C1099.54,1541.22 1074.17,1553.77 1056.35,1563.67 C1049.07,1567.97 1034.64,1576.79 1027.49,1581.29 C1009.69,1593.21 987.12,1610.22 974.46,1620.51 C962.02,1631.20 938.04,1653.49 927.03,1664.50 C921.90,1669.92 911.91,1680.67 907.24,1685.97 C902.39,1691.61 891.93,1705.23 886.99,1712.14 C881.43,1720.35 874.00,1732.44 870.36,1739.14 C866.84,1745.85 860.19,1759.58 857.05,1766.60 C854.03,1773.72 849.52,1785.08 845.98,1795.65 C841.23,1810.70 832.96,1843.20 830.21,1858.16 C829.00,1865.68 826.86,1883.68 826.68,1887.19 C826.23,1895.99 826.96,1914.72 828.07,1923.02 C828.63,1927.16 832.24,1946.13 833.69,1952.89 C838.12,1971.82 846.38,1990.52 848.58,1995.54 C836.81,1996.82 815.56,1999.16 807.59,1998.66 C798.49,1998.03 782.22,1994.03 774.62,1991.00 C768.25,1988.45 755.03,1981.84 748.18,1977.78 C740.87,1973.42 727.47,1964.15 720.96,1958.87 C714.46,1953.58 701.63,1941.41 696.42,1935.60 C692.21,1930.89 682.49,1918.16 678.16,1911.86 C673.90,1905.45 665.88,1891.84 662.05,1884.75 C658.40,1877.52 651.73,1862.85 648.72,1855.41 C645.92,1847.90 639.85,1829.14 638.78,1824.94 C637.80,1821.07 634.23,1802.28 633.09,1794.56 C632.13,1786.77 630.77,1770.96 630.38,1762.93 C630.04,1746.81 630.52,1715.31 631.32,1699.96 C632.14,1688.06 637.47,1652.42 640.63,1636.82 C644.10,1621.36 651.86,1591.12 656.14,1576.34 C658.85,1567.43 672.23,1532.75 678.35,1518.36 C684.97,1503.51 699.56,1475.35 708.12,1460.96 C713.38,1452.35 732.71,1424.63 741.58,1412.76 C753.34,1397.64 771.22,1376.49 783.10,1364.12 C795.45,1351.68 821.65,1328.06 832.72,1318.64 C844.30,1309.10 869.27,1289.58 882.13,1279.72 C909.35,1259.77 961.73,1220.77 985.24,1202.41 C998.59,1191.57 1024.87,1169.16 1037.02,1158.24 C1042.77,1152.88 1053.95,1142.23 1059.38,1136.93 C1064.62,1131.54 1074.77,1120.41 1079.68,1114.68 C1084.48,1108.84 1093.74,1096.83 1098.20,1090.65 C1104.49,1081.57 1109.09,1074.37 1114.73,1064.77 C1118.54,1057.97 1125.86,1043.97 1129.37,1036.76 C1132.77,1029.43 1139.26,1014.35 1142.35,1006.61 C1148.20,990.89 1158.38,959.98 1162.71,944.85 C1164.67,937.36 1168.98,919.32 1169.81,914.79 C1172.67,898.43 1176.34,866.34 1177.13,850.62 C1177.54,835.01 1177.64,803.92 1177.56,788.40 C1177.14,769.40 1175.26,739.84 1174.11,723.12 C1172.64,706.31 1169.45,673.43 1167.56,658.27 C1164.53,637.31 1160.19,614.65 1154.75,595.19 C1152.46,587.61 1147.09,572.81 1144.66,567.19 C1141.85,560.74 1134.88,547.37 1130.69,541.03 C1123.68,530.49 1104.39,508.97 1099.87,503.92 Z" fill="#17C78E"/></g></svg>