<?xml version="1.0" encoding="UTF-8"?>
<!DOCTYPE svg PUBLIC "-//W3C//DTD SVG 1.1//EN" "http://www.w3.org/Graphics/SVG/1.1/DTD/svg11.dtd">
<svg xmlns="http://www.w3.org/2000/svg" version="1.1" width="540px" height="540px" style="fill-rule:evenodd;filter:drop-shadow(0 0 1px #000)" xmlns:xlink="http://www.w3.org/1999/xlink">
<path fill="#33acd6" d="M 263.5,77.5 C 270.473,76.5358 276.807,78.0358 282.5,82C 297.121,92.9525 311.454,104.286 325.5,116C 361.158,147.859 383.492,187.359 392.5,234.5C 410.559,225.971 428.559,217.138 446.5,208C 471.039,196.321 496.705,188.154 523.5,183.5C 524.737,183.556 525.737,184.056 526.5,185C 479.205,240.736 437.705,300.569 402,364.5C 400.048,366.894 397.548,368.394 394.5,369C 388.754,369.07 383.087,368.736 377.5,368C 356.597,404.237 328.264,433.237 292.5,455C 281.216,462.26 269.216,463.927 256.5,460C 215.374,438.875 183.374,408.208 160.5,368C 156.059,368.283 151.559,368.783 147,369.5C 142.607,369.371 138.94,367.705 136,364.5C 100.295,300.569 58.7947,240.736 11.5,185C 12.263,184.056 13.263,183.556 14.5,183.5C 41.2948,188.154 66.9614,196.321 91.5,208C 109.441,217.138 127.441,225.971 145.5,234.5C 155.516,183.623 180.516,141.79 220.5,109C 234.58,97.9793 248.914,87.4793 263.5,77.5 Z M 65.5,208.5 C 98.7632,222.269 125.597,243.936 146,273.5C 154.242,289.39 160.408,306.057 164.5,323.5C 163.349,324.731 162.183,324.731 161,323.5C 150.639,292.817 133.472,266.651 109.5,245C 95.2269,232.215 80.5602,220.048 65.5,208.5 Z M 472.5,208.5 C 450.674,225.479 429.84,243.813 410,263.5C 395.389,281.379 384.389,301.379 377,323.5C 375.817,324.731 374.651,324.731 373.5,323.5C 379.191,293.277 392.858,267.444 414.5,246C 431.581,230.099 450.914,217.599 472.5,208.5 Z M 199.5,291.5 C 212.487,289.882 223.32,293.882 232,303.5C 237.941,311.126 237.774,318.626 231.5,326C 217.317,332.553 204.483,330.386 193,319.5C 184.22,307.38 186.387,298.046 199.5,291.5 Z M 325.5,291.5 C 329.846,291.334 334.179,291.501 338.5,292C 348.496,295.491 351.996,302.324 349,312.5C 340.008,328.049 326.841,333.216 309.5,328C 302.09,322.286 300.256,315.12 304,306.5C 309.438,298.875 316.605,293.875 325.5,291.5 Z M 214.5,347.5 C 221.808,347.572 227.974,350.238 233,355.5C 237.347,364.799 234.347,370.133 224,371.5C 215.331,371.186 209.331,367.186 206,359.5C 204.776,352.565 207.61,348.565 214.5,347.5 Z M 319.5,347.5 C 332.825,348.651 335.825,354.817 328.5,366C 321.218,371.365 313.551,372.198 305.5,368.5C 301.497,362.281 302.497,356.781 308.5,352C 312.053,349.879 315.72,348.379 319.5,347.5 Z M 246.5,368.5 C 253.746,368.746 259.913,371.413 265,376.5C 265.664,381.496 263.498,383.33 258.5,382C 254.479,378.547 249.812,376.547 244.5,376C 242.84,372.777 243.506,370.277 246.5,368.5 Z M 289.5,368.5 C 294.266,369.158 295.6,371.658 293.5,376C 288.188,376.547 283.521,378.547 279.5,382C 271.502,381.713 270.502,378.713 276.5,373C 280.715,370.763 285.048,369.263 289.5,368.5 Z"/>
</svg>
