<?xml version="1.0" encoding="iso-8859-1"?><!DOCTYPE svg PUBLIC "-//W3C//DTD SVG 1.1//EN" "http://www.w3.org/Graphics/SVG/1.1/DTD/svg11.dtd">
<svg fill="#000" height="800px" width="800px" version="1.1" xmlns="http://www.w3.org/2000/svg" xmlns:xlink="http://www.w3.org/1999/xlink" viewBox="0 0 297 297" fill-rule="evenodd">
<path d="M148.5,0C87.43,0,37.747,49.703,37.747,110.797c0,91.026,99.729,179.905,103.976,183.645c1.936,1.705,4.356,2.559,6.777,2.559c2.421,0,4.841-0.853,6.778-2.559c4.245-3.739,103.975-92.618,103.975-183.645C259.253,49.703,209.57,0,148.5,0zM148.5,59.183c-28.273,0-51.274,23.154-51.274,51.614c0,28.461,23.001,51.614,51.274,51.614c28.273,0,51.274-23.153,51.274-51.614C199.774,82.337,176.773,59.183,148.5,59.183z"/></svg>