<?xml version="1.0" standalone="yes"?>
<svg viewBox="-891 0 11798 750" width="1179.8px" height="75px" xmlns="http://www.w3.org/2000/svg" xmlns:xlink="http://www.w3.org/1999/xlink">
<path d="M-891 500 10907 500" fill="none" stroke="#fff" stroke-width="10" />
<path d="M  900 250   900 500
M 1800 200  1800 500
M 2700 250  2700 500
M 4500 250  4500 500
M 5400 200  5400 500
M 6300 250  6300 500
M 8100 250  8100 500
M 9000 200  9000 500
M 9900 250  9900 500" fill="none" stroke="#fff" stroke-width="7"/>
<path d="
M -600 300  -600 500
M -300 300  -300 500
M  300 300   300 500
M  600 300   600 500
M 1200 300  1200 500
M 1500 300  1500 500
M 2100 300  2100 500
M 2400 300  2400 500
M 3000 300  3000 500
M 3300 300  3300 500
M 3900 300  3900 500
M 4200 300  4200 500
M 4800 300  4800 500
M 5100 300  5100 500
M 5700 300  5700 500
M 6000 300  6000 500
M 6600 300  6600 500
M 6900 300  6900 500
M 7500 300  7500 500
M 7800 300  7800 500
M 8400 300  8400 500
M 8700 300  8700 500
M 9300 300  9300 500
M 9600 300  9600 500
M10200 300 10200 500
M10500 300 10500 500
" fill="none" stroke="#fff" stroke-width="5"/>
<path d="
M-840 400 -840 500
M-780 400 -780 500
M-720 400 -720 500
M-660 400 -660 500
M-540 400 -540 500
M-480 400 -480 500
M-420 400 -420 500
M-360 400 -360 500
M-240 400 -240 500
M-180 400 -180 500
M-120 400 -120 500
M-60 400 -60 500
M60 400 60 500
M120 400 120 500
M180 400 180 500
M240 400 240 500
M360 400 360 500
M420 400 420 500
M480 400 480 500
M540 400 540 500
M660 400 660 500
M720 400 720 500
M780 400 780 500
M840 400 840 500
M960 400 960 500
M1020 400 1020 500
M1080 400 1080 500
M1140 400 1140 500
M1260 400 1260 500
M1320 400 1320 500
M1380 400 1380 500
M1440 400 1440 500
M1560 400 1560 500
M1620 400 1620 500
M1680 400 1680 500
M1740 400 1740 500
M1860 400 1860 500
M1920 400 1920 500
M1980 400 1980 500
M2040 400 2040 500
M2160 400 2160 500
M2220 400 2220 500
M2280 400 2280 500
M2340 400 2340 500
M2460 400 2460 500
M2520 400 2520 500
M2580 400 2580 500
M2640 400 2640 500
M2760 400 2760 500
M2820 400 2820 500
M2880 400 2880 500
M2940 400 2940 500
M3060 400 3060 500
M3120 400 3120 500
M3180 400 3180 500
M3240 400 3240 500
M3360 400 3360 500
M3420 400 3420 500
M3480 400 3480 500
M3540 400 3540 500
M3660 400 3660 500
M3720 400 3720 500
M3780 400 3780 500
M3840 400 3840 500
M3960 400 3960 500
M4020 400 4020 500
M4080 400 4080 500
M4140 400 4140 500
M4260 400 4260 500
M4320 400 4320 500
M4380 400 4380 500
M4440 400 4440 500
M4560 400 4560 500
M4620 400 4620 500
M4680 400 4680 500
M4740 400 4740 500
M4860 400 4860 500
M4920 400 4920 500
M4980 400 4980 500
M5040 400 5040 500
M5160 400 5160 500
M5220 400 5220 500
M5280 400 5280 500
M5340 400 5340 500
M5460 400 5460 500
M5520 400 5520 500
M5580 400 5580 500
M5640 400 5640 500
M5760 400 5760 500
M5820 400 5820 500
M5880 400 5880 500
M5940 400 5940 500
M6060 400 6060 500
M6120 400 6120 500
M6180 400 6180 500
M6240 400 6240 500
M6360 400 6360 500
M6420 400 6420 500
M6480 400 6480 500
M6540 400 6540 500
M6660 400 6660 500
M6720 400 6720 500
M6780 400 6780 500
M6840 400 6840 500
M6960 400 6960 500
M7020 400 7020 500
M7080 400 7080 500
M7140 400 7140 500
M7260 400 7260 500
M7320 400 7320 500
M7380 400 7380 500
M7440 400 7440 500
M7560 400 7560 500
M7620 400 7620 500
M7680 400 7680 500
M7740 400 7740 500
M7860 400 7860 500
M7920 400 7920 500
M7980 400 7980 500
M8040 400 8040 500
M8160 400 8160 500
M8220 400 8220 500
M8280 400 8280 500
M8340 400 8340 500
M8460 400 8460 500
M8520 400 8520 500
M8580 400 8580 500
M8640 400 8640 500
M8760 400 8760 500
M8820 400 8820 500
M8880 400 8880 500
M8940 400 8940 500
M9060 400 9060 500
M9120 400 9120 500
M9180 400 9180 500
M9240 400 9240 500
M9360 400 9360 500
M9420 400 9420 500
M9480 400 9480 500
M9540 400 9540 500
M9660 400 9660 500
M9720 400 9720 500
M9780 400 9780 500
M9840 400 9840 500
M9960 400 9960 500
M10020 400 10020 500
M10080 400 10080 500
M10140 400 10140 500
M10260 400 10260 500
M10320 400 10320 500
M10380 400 10380 500
M10440 400 10440 500
M10560 400 10560 500
M10620 400 10620 500
M10680 400 10680 500
M10740 400 10740 500
M10860 400 10860 500
" fill="none" stroke="#fff" stroke-width="3" />

<path d="M0 200 0 500M3600 200 3600 500M7200 200 7200 500M10800 200 10800 500" fill="none" stroke="#fff" stroke-width="10"/>
<text x="0" y="150" text-anchor="middle" font-family="Space Mono" font-size="200px" fill="#fff">06d04s</text>
<text x="3600" y="150" text-anchor="middle" font-family="Space Mono" font-size="200px" fill="#fff">06d05s</text>
<text x="7200" y="150" text-anchor="middle" font-family="Space Mono" font-size="200px" fill="#fff">06d06s</text>
<text x="10800" y="150" text-anchor="end" font-family="Space Mono" font-size="200px" fill="#fff">06d07s</text>

<circle cx="-891" cy="500" r="50" fill="rgb(104,255,172)" stroke="none"/>
<circle cx="10907" cy="500" r="50" fill="rgb(104,255,172)" stroke="none"/>

</svg>