<?xml version="1.0" standalone="yes"?>
<svg viewBox="0 0 75 6798" width="75px" height="6798px" xmlns="http://www.w3.org/2000/svg" xmlns:xlink="http://www.w3.org/1999/xlink">
<g transform="rotate(180)translate(-75,-6798)">
    <g style="opacity:.7">
    <rect x="0" width="75" height="309"          fill="rgb(254,225, 84)"/>
    <rect x="0" width="75" height="308" y="309"  fill="rgb(0, 67, 114)"/>
    <rect x="0" width="75" height="308" y="616"  fill="rgb(18, 161, 192)"/>
    <rect x="0" width="75" height="308" y="924"  fill="rgb(1, 36, 89)"/>
    <rect x="0" width="75" height="308" y="1232" fill="rgb(0, 67, 114)"/>
    <rect x="0" width="75" height="308" y="1540" fill="rgb(116, 212, 204)"/>
    <rect x="0" width="75" height="308" y="1848" fill="rgb(0, 57, 114)"/>
    <rect x="0" width="75" height="308" y="2156" fill="rgb(1, 103, 146)"/>
    <rect x="0" width="75" height="308" y="2464" fill="rgb(239, 238, 188)"/>
    <rect x="0" width="75" height="308" y="2772" fill="rgb(0, 57, 114)"/>
    <rect x="0" width="75" height="308" y="3080" fill="rgb(7, 114, 159)"/>
    <rect x="0" width="75" height="308" y="3388" fill="rgb(1, 36, 89)"/>
    <rect x="0" width="75" height="308" y="3696" fill="rgb(0, 67, 114)"/>
    <rect x="0" width="75" height="308" y="4004" fill="rgb(18, 161, 192)"/>
    <rect x="0" width="75" height="308" y="4312" fill="rgb(0, 57, 114)"/>
    <rect x="0" width="75" height="308" y="4620" fill="rgb(0, 67, 114)"/>
    <rect x="0" width="75" height="308" y="4928" fill="rgb(116, 212, 204)"/>
    <rect x="0" width="75" height="308" y="5236" fill="rgb(0, 57, 114)"/>
    <rect x="0" width="75" height="308" y="5544" fill="rgb(1, 103, 146)"/>
    <rect x="0" width="75" height="308" y="5852" fill="rgb(239, 238, 188)"/>
    <rect x="0" width="75" height="308" y="6160" fill="rgb(0, 67, 114)"/>
    <rect x="0" width="75" height="308" y="6468" fill="rgb(7, 114, 159)"/>
    </g>
    <g transform="rotate(90)">
    <text x="154" y="-57" font-family="Space Mono" font-size="20px" fill="#fff" text-anchor="middle">Week 1</text>
    <text x="462" y="-57" font-family="Space Mono" font-size="20px" fill="#fff" text-anchor="middle">Week 2</text>
    <text x="770" y="-57" font-family="Space Mono" font-size="20px" fill="#fff" text-anchor="middle">Week 3</text>
    <text x="1078" y="-57" font-family="Space Mono" font-size="20px" fill="#fff" text-anchor="middle">Week 4</text>
    <text x="1386" y="-57" font-family="Space Mono" font-size="20px" fill="#fff" text-anchor="middle">Week 5</text>
    <text x="1694" y="-57" font-family="Space Mono" font-size="20px" fill="#fff" text-anchor="middle">Week 6</text>
    <text x="2002" y="-57" font-family="Space Mono" font-size="20px" fill="#fff" text-anchor="middle">Week 7</text>
    <text x="2310" y="-57" font-family="Space Mono" font-size="20px" fill="#fff" text-anchor="middle">Week 8</text>
    <text x="2618" y="-57" font-family="Space Mono" font-size="20px" fill="#fff" text-anchor="middle">Week 9</text>
    <text x="2926" y="-57" font-family="Space Mono" font-size="20px" fill="#fff" text-anchor="middle">Week 10</text>
    <text x="3234" y="-57" font-family="Space Mono" font-size="20px" fill="#fff" text-anchor="middle">Week 11</text>
    <text x="3542" y="-57" font-family="Space Mono" font-size="20px" fill="#fff" text-anchor="middle">Week 12</text>
    <text x="3850" y="-57" font-family="Space Mono" font-size="20px" fill="#fff" text-anchor="middle">Week 13</text>
    <text x="4158" y="-57" font-family="Space Mono" font-size="20px" fill="#fff" text-anchor="middle">Week 14</text>
    <text x="4466" y="-57" font-family="Space Mono" font-size="20px" fill="#fff" text-anchor="middle">Week 15</text>
    <text x="4774" y="-57" font-family="Space Mono" font-size="20px" fill="#fff" text-anchor="middle">Week 16</text>
    <text x="5082" y="-57" font-family="Space Mono" font-size="20px" fill="#fff" text-anchor="middle">Week 17</text>
    <text x="5390" y="-57" font-family="Space Mono" font-size="20px" fill="#fff" text-anchor="middle">Week 18</text>
    <text x="5698" y="-57" font-family="Space Mono" font-size="20px" fill="#fff" text-anchor="middle">Week 19</text>
    <text x="6006" y="-57" font-family="Space Mono" font-size="20px" fill="#fff" text-anchor="middle">Week 20</text>
    <text x="6314" y="-57" font-family="Space Mono" font-size="20px" fill="#fff" text-anchor="middle">Week 21</text>
    <text x="6622" y="-57" font-family="Space Mono" font-size="20px" fill="#fff" text-anchor="middle">Week 22</text>
    </g>
    <rect x="0" width="75" height="22" y="6776" fill="rgb(88,120,182)"/>
    <text x="0" y="6776" dx="9" dy="1.2em" font-family="Space Mono" font-size="12px" fill="#fff" transform="rotate(180)translate(-75,-13574)">Interday</text>
    <path d="M75 0 0 0 0 6798 75 6798" fill="none" stroke="#fff" stroke-width="5" />
    <path d="
    M0 308 60 308
    M0 616 60 616
    M0 924 60 924
    M0 1232 60 1232
    M0 1540 60 1540
    M0 1848 60 1848
    M0 2156 60 2156
    M0 2464 60 2464
    M0 2772 60 2772
    M0 3080 60 3080
    M0 3388 60 3388
    M0 3696 60 3696
    M0 4004 60 4004
    M0 4312 60 4312
    M0 4620 60 4620
    M0 4928 60 4928
    M0 5236 60 5236
    M0 5544 60 5544
    M0 5852 60 5852
    M0 6160 60 6160
    M0 6468 60 6468
    M0 6776 60 6776
    " fill="none" stroke="#fff" stroke-width="2"/>
    <path d="
    M0   22 50   22M0   44 50   44M0   66 50   66M0   88 50   88M0  110 50  110M0  132 50  132M0  154 50  154M0  176 50  176M0  198 50  198M0  220 50  220M0  242 50  242M0  264 50  264M0  286 50  286
    M0  330 50  330M0  352 50  352M0  374 50  374M0  396 50  396M0  418 50  418M0  440 50  440M0  462 50  462M0  484 50  484M0  506 50  506M0  528 50  528M0  550 50  550M0  572 50  572M0  594 50  594
    M0  638 50  638M0  660 50  660M0  682 50  682M0  704 50  704M0  726 50  726M0  748 50  748M0  770 50  770M0  792 50  792M0  814 50  814M0  836 50  836M0  858 50  858M0  880 50  880M0  902 50  902
    M0  946 50  946M0  968 50  968M0  990 50  990M0 1012 50 1012M0 1034 50 1034M0 1056 50 1056M0 1078 50 1078M0 1100 50 1100M0 1122 50 1122M0 1144 50 1144M0 1166 50 1166M0 1188 50 1188M0 1210 50 1210
    M0 1254 50 1254M0 1276 50 1276M0 1298 50 1298M0 1320 50 1320M0 1342 50 1342M0 1364 50 1364M0 1386 50 1386M0 1408 50 1408M0 1430 50 1430M0 1452 50 1452M0 1474 50 1474M0 1496 50 1496M0 1518 50 1518
    M0 1562 50 1562M0 1584 50 1584M0 1606 50 1606M0 1628 50 1628M0 1650 50 1650M0 1672 50 1672M0 1694 50 1694M0 1716 50 1716M0 1738 50 1738M0 1760 50 1760M0 1782 50 1782M0 1804 50 1804M0 1826 50 1826
    M0 1870 50 1870M0 1892 50 1892M0 1914 50 1914M0 1936 50 1936M0 1958 50 1958M0 1980 50 1980M0 2002 50 2002M0 2024 50 2024M0 2046 50 2046M0 2068 50 2068M0 2090 50 2090M0 2112 50 2112M0 2134 50 2134
    M0 2178 50 2178M0 2200 50 2200M0 2222 50 2222M0 2244 50 2244M0 2266 50 2266M0 2288 50 2288M0 2310 50 2310M0 2332 50 2332M0 2354 50 2354M0 2376 50 2376M0 2398 50 2398M0 2420 50 2420M0 2442 50 2442
    M0 2486 50 2486M0 2508 50 2508M0 2530 50 2530M0 2552 50 2552M0 2574 50 2574M0 2596 50 2596M0 2618 50 2618M0 2640 50 2640M0 2662 50 2662M0 2684 50 2684M0 2706 50 2706M0 2728 50 2728M0 2750 50 2750
    M0 2794 50 2794M0 2816 50 2816M0 2838 50 2838M0 2860 50 2860M0 2882 50 2882M0 2904 50 2904M0 2926 50 2926M0 2948 50 2948M0 2970 50 2970M0 2992 50 2992M0 3014 50 3014M0 3036 50 3036M0 3058 50 3058
    M0 3102 50 3102M0 3124 50 3124M0 3146 50 3146M0 3168 50 3168M0 3190 50 3190M0 3212 50 3212M0 3234 50 3234M0 3256 50 3256M0 3278 50 3278M0 3300 50 3300M0 3322 50 3322M0 3344 50 3344M0 3366 50 3366
    M0 3410 50 3410M0 3432 50 3432M0 3454 50 3454M0 3476 50 3476M0 3498 50 3498M0 3520 50 3520M0 3542 50 3542M0 3564 50 3564M0 3586 50 3586M0 3608 50 3608M0 3630 50 3630M0 3652 50 3652M0 3674 50 3674
    M0 3718 50 3718M0 3740 50 3740M0 3762 50 3762M0 3784 50 3784M0 3806 50 3806M0 3828 50 3828M0 3850 50 3850M0 3872 50 3872M0 3894 50 3894M0 3916 50 3916M0 3938 50 3938M0 3960 50 3960M0 3982 50 3982
    M0 4026 50 4026M0 4048 50 4048M0 4070 50 4070M0 4092 50 4092M0 4114 50 4114M0 4136 50 4136M0 4158 50 4158M0 4180 50 4180M0 4202 50 4202M0 4224 50 4224M0 4246 50 4246M0 4268 50 4268M0 4290 50 4290
    M0 4334 50 4334M0 4356 50 4356M0 4378 50 4378M0 4400 50 4400M0 4422 50 4422M0 4444 50 4444M0 4466 50 4466M0 4488 50 4488M0 4510 50 4510M0 4532 50 4532M0 4554 50 4554M0 4576 50 4576M0 4598 50 4598
    M0 4642 50 4642M0 4664 50 4664M0 4686 50 4686M0 4708 50 4708M0 4730 50 4730M0 4752 50 4752M0 4774 50 4774M0 4796 50 4796M0 4818 50 4818M0 4840 50 4840M0 4862 50 4862M0 4884 50 4884M0 4906 50 4906
    M0 4950 50 4950M0 4972 50 4972M0 4994 50 4994M0 5016 50 5016M0 5038 50 5038M0 5060 50 5060M0 5082 50 5082M0 5104 50 5104M0 5126 50 5126M0 5148 50 5148M0 5170 50 5170M0 5192 50 5192M0 5214 50 5214
    M0 5258 50 5258M0 5280 50 5280M0 5302 50 5302M0 5324 50 5324M0 5346 50 5346M0 5368 50 5368M0 5390 50 5390M0 5412 50 5412M0 5434 50 5434M0 5456 50 5456M0 5478 50 5478M0 5500 50 5500M0 5522 50 5522
    M0 5566 50 5566M0 5588 50 5588M0 5610 50 5610M0 5632 50 5632M0 5654 50 5654M0 5676 50 5676M0 5698 50 5698M0 5720 50 5720M0 5742 50 5742M0 5764 50 5764M0 5786 50 5786M0 5808 50 5808M0 5830 50 5830
    M0 5874 50 5874M0 5896 50 5896M0 5918 50 5918M0 5940 50 5940M0 5962 50 5962M0 5984 50 5984M0 6006 50 6006M0 6028 50 6028M0 6050 50 6050M0 6072 50 6072M0 6094 50 6094M0 6116 50 6116M0 6138 50 6138
    M0 6182 50 6182M0 6204 50 6204M0 6226 50 6226M0 6248 50 6248M0 6270 50 6270M0 6292 50 6292M0 6314 50 6314M0 6336 50 6336M0 6358 50 6358M0 6380 50 6380M0 6402 50 6402M0 6424 50 6424M0 6446 50 6446
    M0 6490 50 6490M0 6512 50 6512M0 6534 50 6534M0 6556 50 6556M0 6578 50 6578M0 6600 50 6600M0 6622 50 6622M0 6644 50 6644M0 6666 50 6666M0 6688 50 6688M0 6710 50 6710M0 6732 50 6732M0 6754 50 6754
    " fill="none" stroke="#fff" stroke-width="1"/>
</g>
</svg>