<?xml version="1.0" standalone="yes"?><svg viewBox='-900 0 14600 11020' width="2500px" height="auto" xmlns="http://www.w3.org/2000/svg" xmlns:xlink="http://www.w3.org/1999/xlink">
<style>*{--midd:128,84,52;--white:207,207,209;--orng:255,125,36}text{text-anchor:end}</style><g transform='translate(0,10600) scale(1,-1)'>
<path d="M0 0 0 10500 13600 10500 13600 0 0 0 0 10500 13600 10500" fill="none" stroke="rgb(var(--midd))" stroke-width="50" />
<path d="
M0 100 13600 100
M0 200 13600 200
M0 300 13600 300
M0 400 13600 400
M0 600 13600 600
M0 700 13600 700
M0 800 13600 800
M0 900 13600 900
M0 1100 13600 1100
M0 1200 13600 1200
M0 1300 13600 1300
M0 1400 13600 1400
M0 1600 13600 1600
M0 1700 13600 1700
M0 1800 13600 1800
M0 1900 13600 1900
M0 2100 13600 2100
M0 2200 13600 2200
M0 2300 13600 2300
M0 2400 13600 2400
M0 2600 13600 2600
M0 2700 13600 2700
M0 2800 13600 2800
M0 2900 13600 2900
M0 3100 13600 3100
M0 3200 13600 3200
M0 3300 13600 3300
M0 3400 13600 3400
M0 3600 13600 3600
M0 3700 13600 3700
M0 3800 13600 3800
M0 3900 13600 3900
M0 4100 13600 4100
M0 4200 13600 4200
M0 4300 13600 4300
M0 4400 13600 4400
M0 4600 13600 4600
M0 4700 13600 4700
M0 4800 13600 4800
M0 4900 13600 4900
M0 5100 13600 5100
M0 5200 13600 5200
M0 5300 13600 5300
M0 5400 13600 5400
M0 5600 13600 5600
M0 5700 13600 5700
M0 5800 13600 5800
M0 5900 13600 5900
M0 6100 13600 6100
M0 6200 13600 6200
M0 6300 13600 6300
M0 6400 13600 6400
M0 6600 13600 6600
M0 6700 13600 6700
M0 6800 13600 6800
M0 6900 13600 6900
M0 7100 13600 7100
M0 7200 13600 7200
M0 7300 13600 7300
M0 7400 13600 7400
M0 7600 13600 7600
M0 7700 13600 7700
M0 7800 13600 7800
M0 7900 13600 7900
M0 8100 13600 8100
M0 8200 13600 8200
M0 8300 13600 8300
M0 8400 13600 8400
M0 8600 13600 8600
M0 8700 13600 8700
M0 8800 13600 8800
M0 8900 13600 8900
M0 9100 13600 9100
M0 9200 13600 9200
M0 9300 13600 9300
M0 9400 13600 9400
M0 9600 13600 9600
M0 9700 13600 9700
M0 9800 13600 9800
M0 9900 13600 9900
M0 10100 13600 10100
M0 10200 13600 10200
M0 10300 13600 10300
M0 10400 13600 10400
M100 0 100 10500
M200 0 200 10500
M300 0 300 10500
M400 0 400 10500
M500 0 500 10500
M700 0 700 10500
M800 0 800 10500
M900 0 900 10500
M1000 0 1000 10500
M1100 0 1100 10500
M1300 0 1300 10500
M1400 0 1400 10500
M1500 0 1500 10500
M1600 0 1600 10500
M1700 0 1700 10500
M1900 0 1900 10500
M2000 0 2000 10500
M2100 0 2100 10500
M2200 0 2200 10500
M2300 0 2300 10500
M2500 0 2500 10500
M2600 0 2600 10500
M2700 0 2700 10500
M2800 0 2800 10500
M2900 0 2900 10500
M3100 0 3100 10500
M3200 0 3200 10500
M3300 0 3300 10500
M3400 0 3400 10500
M3500 0 3500 10500
M3700 0 3700 10500
M3800 0 3800 10500
M3900 0 3900 10500
M4000 0 4000 10500
M4100 0 4100 10500
M4300 0 4300 10500
M4400 0 4400 10500
M4500 0 4500 10500
M4600 0 4600 10500
M4700 0 4700 10500
M4900 0 4900 10500
M5000 0 5000 10500
M5100 0 5100 10500
M5200 0 5200 10500
M5300 0 5300 10500
M5500 0 5500 10500
M5600 0 5600 10500
M5700 0 5700 10500
M5800 0 5800 10500
M5900 0 5900 10500
M6100 0 6100 10500
M6200 0 6200 10500
M6300 0 6300 10500
M6400 0 6400 10500
M6500 0 6500 10500
M6700 0 6700 10500
M6800 0 6800 10500
M6900 0 6900 10500
M7000 0 7000 10500
M7100 0 7100 10500
M7300 0 7300 10500
M7400 0 7400 10500
M7500 0 7500 10500
M7600 0 7600 10500
M7700 0 7700 10500
M7900 0 7900 10500
M8000 0 8000 10500
M8100 0 8100 10500
M8200 0 8200 10500
M8300 0 8300 10500
M8500 0 8500 10500
M8600 0 8600 10500
M8700 0 8700 10500
M8800 0 8800 10500
M8900 0 8900 10500
M9100 0 9100 10500
M9200 0 9200 10500
M9300 0 9300 10500
M9400 0 9400 10500
M9500 0 9500 10500
M9700 0 9700 10500
M9800 0 9800 10500
M9900 0 9900 10500
M10000 0 10000 10500
M10100 0 10100 10500
M10300 0 10300 10500
M10400 0 10400 10500
M10500 0 10500 10500
M10600 0 10600 10500
M10700 0 10700 10500
M10900 0 10900 10500
M11000 0 11000 10500
M11100 0 11100 10500
M11200 0 11200 10500
M11300 0 11300 10500
M11500 0 11500 10500
M11600 0 11600 10500
M11700 0 11700 10500
M11800 0 11800 10500
M11900 0 11900 10500
M12100 0 12100 10500
M12200 0 12200 10500
M12300 0 12300 10500
M12400 0 12400 10500
M12500 0 12500 10500
M12700 0 12700 10500
M12800 0 12800 10500
M12900 0 12900 10500
M13000 0 13000 10500
M13100 0 13100 10500
M13300 0 13300 10500
M13400 0 13400 10500
M13500 0 13500 10500
M13600 0 13600 10500" fill="none" stroke="rgb(var(--midd))" stroke-width="10" />
<path d="
M0 500 13600 500
M0 1000 13600 1000
M0 1500 13600 1500
M0 2000 13600 2000
M0 2500 13600 2500
M0 3000 13600 3000
M0 3500 13600 3500
M0 4000 13600 4000
M0 4500 13600 4500
M0 5000 13600 5000
M0 5500 13600 5500
M0 6000 13600 6000
M0 6500 13600 6500
M0 7000 13600 7000
M0 7500 13600 7500
M0 8000 13600 8000
M0 8500 13600 8500
M0 9000 13600 9000
M0 9500 13600 9500
M0 10000 13600 10000
M600 0 600 10500
M1200 0 1200 10500
M1800 0 1800 10500
M2400 0 2400 10500
M3000 0 3000 10500
M3600 0 3600 10500
M4200 0 4200 10500
M4800 0 4800 10500
M5400 0 5400 10500
M6000 0 6000 10500
M6600 0 6600 10500
M7200 0 7200 10500
M7800 0 7800 10500
M8400 0 8400 10500
M9000 0 9000 10500
M9600 0 9600 10500
M10200 0 10200 10500
M10800 0 10800 10500
M11400 0 11400 10500
M12000 0 12000 10500
M12600 0 12600 10500
M13200 0 13200 10500" fill="none" stroke="rgb(var(--midd))" stroke-width="30" />
<path d="M0,1189.4537 4051,1189.4537" fill="none" stroke="rgb(var(--orng))" stroke-width="30"/>
<path d="M13600,   10309.7036866   Q8825,1189.4537 4050,1189.4537" fill="none" stroke="rgb(var(--orng))" stroke-width="30"/>
</g><g transform='translate(0,10600)'>
<text x="0" y="350" dx="140" font-family="Space Mono" font-size="240px" fill="rgb(var(--white))">00</text>
<text x="600" y="350" dx="140" font-family="Space Mono" font-size="240px" fill="rgb(var(--white))">01</text>
<text x="1200" y="350" dx="140" font-family="Space Mono" font-size="240px" fill="rgb(var(--white))">02</text>
<text x="1800" y="350" dx="140" font-family="Space Mono" font-size="240px" fill="rgb(var(--white))">03</text>
<text x="2400" y="350" dx="140" font-family="Space Mono" font-size="240px" fill="rgb(var(--white))">04</text>
<text x="3000" y="350" dx="140" font-family="Space Mono" font-size="240px" fill="rgb(var(--white))">05</text>
<text x="3600" y="350" dx="140" font-family="Space Mono" font-size="240px" fill="rgb(var(--white))">06</text>
<text x="4200" y="350" dx="140" font-family="Space Mono" font-size="240px" fill="rgb(var(--white))">07</text>
<text x="4800" y="350" dx="140" font-family="Space Mono" font-size="240px" fill="rgb(var(--white))">08</text>
<text x="5400" y="350" dx="140" font-family="Space Mono" font-size="240px" fill="rgb(var(--white))">09</text>
<text x="6000" y="350" dx="140" font-family="Space Mono" font-size="240px" fill="rgb(var(--white))">10</text>
<text x="6600" y="350" dx="140" font-family="Space Mono" font-size="240px" fill="rgb(var(--white))">11</text>
<text x="7200" y="350" dx="140" font-family="Space Mono" font-size="240px" fill="rgb(var(--white))">12</text>
<text x="7800" y="350" dx="140" font-family="Space Mono" font-size="240px" fill="rgb(var(--white))">13</text>
<text x="8400" y="350" dx="140" font-family="Space Mono" font-size="240px" fill="rgb(var(--white))">14</text>
<text x="9000" y="350" dx="140" font-family="Space Mono" font-size="240px" fill="rgb(var(--white))">15</text>
<text x="9600" y="350" dx="140" font-family="Space Mono" font-size="240px" fill="rgb(var(--white))">16</text>
<text x="10200" y="350" dx="140" font-family="Space Mono" font-size="240px" fill="rgb(var(--white))">17</text>
<text x="10800" y="350" dx="140" font-family="Space Mono" font-size="240px" fill="rgb(var(--white))">18</text>
<text x="11400" y="350" dx="140" font-family="Space Mono" font-size="240px" fill="rgb(var(--white))">19</text>
<text x="12000" y="350" dx="140" font-family="Space Mono" font-size="240px" fill="rgb(var(--white))">20</text>
<text x="12600" y="350" dx="140" font-family="Space Mono" font-size="240px" fill="rgb(var(--white))">21</text>
<text x="13200" y="350" dx="140" font-family="Space Mono" font-size="240px" fill="rgb(var(--white))">22</text>
<text x="-120" y="0" dy="10" font-family="Space Mono" font-size="240px" fill="rgb(var(--white))">0&#8239;km</text>
<text x="-120" y="-1000" dy="70" font-family="Space Mono" font-size="240px" fill="rgb(var(--white))">10&#8239;km</text>
<text x="-120" y="-2000" dy="70" font-family="Space Mono" font-size="240px" fill="rgb(var(--white))">20&#8239;km</text>
<text x="-120" y="-3000" dy="70" font-family="Space Mono" font-size="240px" fill="rgb(var(--white))">30&#8239;km</text>
<text x="-120" y="-4000" dy="70" font-family="Space Mono" font-size="240px" fill="rgb(var(--white))">40&#8239;km</text>
<text x="-120" y="-5000" dy="70" font-family="Space Mono" font-size="240px" fill="rgb(var(--white))">50&#8239;km</text>
<text x="-120" y="-6000" dy="70" font-family="Space Mono" font-size="240px" fill="rgb(var(--white))">60&#8239;km</text>
<text x="-120" y="-7000" dy="70" font-family="Space Mono" font-size="240px" fill="rgb(var(--white))">70&#8239;km</text>
<text x="-120" y="-8000" dy="70" font-family="Space Mono" font-size="240px" fill="rgb(var(--white))">80&#8239;km</text>
<text x="-120" y="-9000" dy="70" font-family="Space Mono" font-size="240px" fill="rgb(var(--white))">90&#8239;km</text>
<text x="-120" y="-10000" dy="70" font-family="Space Mono" font-size="240px" fill="rgb(var(--white))">100&#8239;km</text>
</g></svg>