<?xml version="1.0" standalone="yes"?><svg viewBox='-650 -300 14250 4500' width="2500px" height="780px" xmlns="http://www.w3.org/2000/svg" xmlns:xlink="http://www.w3.org/1999/xlink">
<style>*{--midd:128,84,52;--white:207,207,209;--orng:255,125,36}text{text-anchor:end}</style><g transform='translate(0,3500) scale(1,-1)'>
<path d="M0 -200 0 3600 13600 3600 13600 0 0 0 0 3600 13600 3600" fill="none" stroke="rgb(var(--midd))" stroke-width="50" />
<path d="M0 -200 13600 -200M0 -100 13600 -100M0 100 13600 100M0 200 13600 200M0 300 13600 300M0 400 13600 400M0 500 13600 500M0 700 13600 700M0 800 13600 800M0 900 13600 900M0 1000 13600 1000M0 1100 13600 1100M0 1300 13600 1300M0 1400 13600 1400M0 1500 13600 1500M0 1600 13600 1600M0 1700 13600 1700M0 1900 13600 1900M0 2000 13600 2000M0 2100 13600 2100M0 2200 13600 2200M0 2300 13600 2300M0 2500 13600 2500M0 2600 13600 2600M0 2700 13600 2700M0 2800 13600 2800M0 2900 13600 2900M0 3100 13600 3100M0 3200 13600 3200M0 3300 13600 3300M0 3400 13600 3400M0 3500 13600 3500M100 -200 100 3600M200 -200 200 3600M300 -200 300 3600M400 -200 400 3600M500 -200 500 3600M700 -200 700 3600M800 -200 800 3600M900 -200 900 3600M1000 -200 1000 3600M1100 -200 1100 3600M1300 -200 1300 3600M1400 -200 1400 3600M1500 -200 1500 3600M1600 -200 1600 3600M1700 -200 1700 3600M1900 -200 1900 3600M2000 -200 2000 3600M2100 -200 2100 3600M2200 -200 2200 3600M2300 -200 2300 3600M2500 -200 2500 3600M2600 -200 2600 3600M2700 -200 2700 3600M2800 -200 2800 3600M2900 -200 2900 3600M3100 -200 3100 3600M3200 -200 3200 3600M3300 -200 3300 3600M3400 -200 3400 3600M3500 -200 3500 3600M3700 -200 3700 3600M3800 -200 3800 3600M3900 -200 3900 3600M4000 -200 4000 3600M4100 -200 4100 3600M4300 -200 4300 3600M4400 -200 4400 3600M4500 -200 4500 3600M4600 -200 4600 3600M4700 -200 4700 3600M4900 -200 4900 3600M5000 -200 5000 3600M5100 -200 5100 3600M5200 -200 5200 3600M5300 -200 5300 3600M5500 -200 5500 3600M5600 -200 5600 3600M5700 -200 5700 3600M5800 -200 5800 3600M5900 -200 5900 3600M6100 -200 6100 3600M6200 -200 6200 3600M6300 -200 6300 3600M6400 -200 6400 3600M6500 -200 6500 3600M6700 -200 6700 3600M6800 -200 6800 3600M6900 -200 6900 3600M7000 -200 7000 3600M7100 -200 7100 3600M7300 -200 7300 3600M7400 -200 7400 3600M7500 -200 7500 3600M7600 -200 7600 3600M7700 -200 7700 3600M7900 -200 7900 3600M8000 -200 8000 3600M8100 -200 8100 3600M8200 -200 8200 3600M8300 -200 8300 3600M8500 -200 8500 3600M8600 -200 8600 3600M8700 -200 8700 3600M8800 -200 8800 3600M8900 -200 8900 3600M9100 -200 9100 3600M9200 -200 9200 3600M9300 -200 9300 3600M9400 -200 9400 3600M9500 -200 9500 3600M9700 -200 9700 3600M9800 -200 9800 3600M9900 -200 9900 3600M10000 -200 10000 3600M10100 -200 10100 3600M10300 -200 10300 3600M10400 -200 10400 3600M10500 -200 10500 3600M10600 -200 10600 3600M10700 -200 10700 3600M10900 -200 10900 3600M11000 -200 11000 3600M11100 -200 11100 3600M11200 -200 11200 3600M11300 -200 11300 3600M11500 -200 11500 3600M11600 -200 11600 3600M11700 -200 11700 3600M11800 -200 11800 3600M11900 -200 11900 3600M12100 -200 12100 3600M12200 -200 12200 3600M12300 -200 12300 3600M12400 -200 12400 3600M12500 -200 12500 3600M12700 -200 12700 3600M12800 -200 12800 3600M12900 -200 12900 3600M13000 -200 13000 3600M13100 -200 13100 3600M13300 -200 13300 3600M13400 -200 13400 3600M13500 -200 13500 3600M13600 -200 13600 3600" fill="none" stroke="rgb(var(--midd))" stroke-width="10" />
<path d="M0 600 13600 600M0 1200 13600 1200M0 1800 13600 1800M0 2400 13600 2400M0 3000 13600 3000M600 -200 600 3600M1200 -200 1200 3600M1800 -200 1800 3600M2400 -200 2400 3600M3000 -200 3000 3600M3600 -200 3600 3600M4200 -200 4200 3600M4800 -200 4800 3600M5400 -200 5400 3600M6000 -200 6000 3600M6600 -200 6600 3600M7200 -200 7200 3600M7800 -200 7800 3600M8400 -200 8400 3600M9000 -200 9000 3600M9600 -200 9600 3600M10200 -200 10200 3600M10800 -200 10800 3600M11400 -200 11400 3600M12000 -200 12000 3600M12600 -200 12600 3600M13200 -200 13200 3600" fill="none" stroke="rgb(var(--midd))" stroke-width="30" />
<path d="M0 -150.086 13600 3566.02" fill="none" stroke="rgb(var(--orng))" stroke-width="30" />
<circle cx="1650" cy="300" r="50" fill="rgb(var(--orng))" />
<circle cx="1830" cy="350" r="50" fill="rgb(var(--orng))" />
<circle cx="2010" cy="400" r="50" fill="rgb(104,255,172)" />
<circle cx="2200" cy="450" r="50" fill="rgb(var(--orng))" />
<circle cx="2380" cy="500" r="50" fill="rgb(var(--orng))" />
<circle cx="2750" cy="600" r="50" fill="rgb(var(--orng))" />
<circle cx="3120" cy="700" r="50" fill="rgb(var(--orng))" />
<circle cx="3480" cy="800" r="50" fill="rgb(var(--orng))" />
<circle cx="4760" cy="1150" r="50" fill="rgb(var(--orng))" />
<circle cx="4940" cy="1200" r="50" fill="rgb(var(--orng))" />
<circle cx="5310" cy="1300" r="50" fill="rgb(var(--orng))" />
<circle cx="5680" cy="1400" r="50" fill="rgb(var(--orng))" />
<circle cx="6040" cy="1500" r="50" fill="rgb(var(--orng))" />
<circle cx="6410" cy="1600" r="50" fill="rgb(var(--orng))" />
<circle cx="6770" cy="1700" r="50" fill="rgb(var(--orng))" />
<circle cx="7140" cy="1800" r="50" fill="rgb(var(--orng))" />
<circle cx="7500" cy="1900" r="50" fill="rgb(var(--orng))" />
<circle cx="7870" cy="2000" r="50" fill="rgb(var(--orng))" />
</g><g transform='translate(0,3500)'>
<text x="0" y="500" dx="140" font-family="Space Mono" font-size="240px" fill="rgb(var(--white))">00</text>
<text x="600" y="500" dx="140" font-family="Space Mono" font-size="240px" fill="rgb(var(--white))">01</text>
<text x="1200" y="500" dx="140" font-family="Space Mono" font-size="240px" fill="rgb(var(--white))">02</text>
<text x="1800" y="500" dx="140" font-family="Space Mono" font-size="240px" fill="rgb(var(--white))">03</text>
<text x="2400" y="500" dx="140" font-family="Space Mono" font-size="240px" fill="rgb(var(--white))">04</text>
<text x="3000" y="500" dx="140" font-family="Space Mono" font-size="240px" fill="rgb(var(--white))">05</text>
<text x="3600" y="500" dx="140" font-family="Space Mono" font-size="240px" fill="rgb(var(--white))">06</text>
<text x="4200" y="500" dx="140" font-family="Space Mono" font-size="240px" fill="rgb(var(--white))">07</text>
<text x="4800" y="500" dx="140" font-family="Space Mono" font-size="240px" fill="rgb(var(--white))">08</text>
<text x="5400" y="500" dx="140" font-family="Space Mono" font-size="240px" fill="rgb(var(--white))">09</text>
<text x="6000" y="500" dx="140" font-family="Space Mono" font-size="240px" fill="rgb(var(--white))">10</text>
<text x="6600" y="500" dx="140" font-family="Space Mono" font-size="240px" fill="rgb(var(--white))">11</text>
<text x="7200" y="500" dx="140" font-family="Space Mono" font-size="240px" fill="rgb(var(--white))">12</text>
<text x="7800" y="500" dx="140" font-family="Space Mono" font-size="240px" fill="rgb(var(--white))">13</text>
<text x="8400" y="500" dx="140" font-family="Space Mono" font-size="240px" fill="rgb(var(--white))">14</text>
<text x="9000" y="500" dx="140" font-family="Space Mono" font-size="240px" fill="rgb(var(--white))">15</text>
<text x="9600" y="500" dx="140" font-family="Space Mono" font-size="240px" fill="rgb(var(--white))">16</text>
<text x="10200" y="500" dx="140" font-family="Space Mono" font-size="240px" fill="rgb(var(--white))">17</text>
<text x="10800" y="500" dx="140" font-family="Space Mono" font-size="240px" fill="rgb(var(--white))">18</text>
<text x="11400" y="500" dx="140" font-family="Space Mono" font-size="240px" fill="rgb(var(--white))">19</text>
<text x="12000" y="500" dx="140" font-family="Space Mono" font-size="240px" fill="rgb(var(--white))">20</text>
<text x="12600" y="500" dx="140" font-family="Space Mono" font-size="240px" fill="rgb(var(--white))">21</text>
<text x="13200" y="500" dx="140" font-family="Space Mono" font-size="240px" fill="rgb(var(--white))">22</text>
<text x="-50" y="0" dy="70" font-family="Space Mono" font-size="240px" fill="rgb(var(--white))">0°</text>
<text x="-50" y="-600" dy="70" font-family="Space Mono" font-size="240px" fill="rgb(var(--white))">60°</text>
<text x="-50" y="-1200" dy="70" font-family="Space Mono" font-size="240px" fill="rgb(var(--white))">120°</text>
<text x="-50" y="-1800" dy="70" font-family="Space Mono" font-size="240px" fill="rgb(var(--white))">180°</text>
<text x="-50" y="-2400" dy="70" font-family="Space Mono" font-size="240px" fill="rgb(var(--white))">240°</text>
<text x="-50" y="-3000" dy="70" font-family="Space Mono" font-size="240px" fill="rgb(var(--white))">300°</text>
<text x="-50" y="-3600" dy="70" font-family="Space Mono" font-size="240px" fill="rgb(var(--white))">360°</text>
</g></svg>