<svg xmlns="http://www.w3.org/2000/svg" width="20px" height="20px">
    <path d="M0 2C0 .8.8 0 2 0H6.5C7.5 0 8.2 1 10 3H8A1 1 0 007 2L1 2A1 1 0 002 3L18 3C19.2 3 20 3.8 20 5V16A2 2 0 0118 18H2A2 2 0 010 16Z" style="fill:#DC461E;stroke:none"/>
    <path d="m10.24 3.7c.25 0 .9.06 1.2.12.3.05.88.2 1.16.31.28.11.83.38 1.09.53.29.17.7.47.96.7.23.2.65.64.84.87.19.24.52.74.66 1.01.14.27.4.86.48 1.1.08.24.22.88.26 1.18.04.3.08.9.06 1.2-.02.3-.1.9-.17 1.2-.07.34-.23.82-.37 1.14-.12.27-.4.81-.57 1.06-.16.25-.54.72-.75.94-.21.22-.7.65-.9.8-.21.15-.76.47-1.04.61-.27.13-.83.35-1.12.42-.29.08-.89.19-1.19.22-.35.03-.85.03-1.2 0-.3-.03-.9-.14-1.19-.22-.29-.07-.85-.29-1.12-.42-.28-.14-.83-.46-1.04-.61-.2-.15-.69-.58-.9-.8-.21-.22-.59-.69-.75-.94-.17-.25-.45-.79-.57-1.06-.14-.32-.3-.8-.37-1.14-.07-.3-.15-.9-.17-1.2-.02-.3.02-.9.06-1.2.04-.3.18-.94.26-1.18.08-.24.34-.83.48-1.1.14-.27.47-.77.66-1.01.19-.23.61-.67.84-.87.26-.23.67-.53.96-.7.26-.15.81-.42 1.09-.53.28-.11.86-.26 1.16-.31.3-.06.95-.12 1.2-.12z" style="fill:#400000;stroke:none"/>
    <path d="M7.46 15.21C7.79 15.21 8.38 15.14 8.53 15.11 8.78 15.06 9.41 14.84 9.78 14.69 10.37 14.45 11.33 14.01 11.48 13.97 11.61 13.93 11.9 13.91 12.06 13.93 12.2 13.94 12.5 14.02 12.62 14.1 12.68 14.14 12.97 14.39 13.09 14.45 13.12 14.47 13.24 14.52 13.28 14.53 13.1 14.67 12.58 15.08 12.35 15.23 12.07 15.41 11.47 15.69 11.17 15.79 10.85 15.9 10.22 16 9.91 15.99 9.6 15.99 8.95 15.85 8.66 15.76 8.25 15.63 7.5 15.23 7.46 15.21Z" style="fill:#FAEB50;stroke:none"/>
    <path d="m14.89 13.47c-.07-.1-.23-.35-.35-.45-.09-.08-.37-.22-.53-.27-.26-.08-.91-.14-1.17-.11-.27.04-.84.25-1.09.39-.17.1-.82.52-.97.61-.35.21-.82.45-1.1.57-.24.1-.9.31-1.18.37-.17.03-.42.06-.6.06-.15 0-.45-.03-.59-.05-.14-.03-.43-.11-.57-.17-.13-.06-.4-.21-.52-.3-.13-.09-.38-.32-.48-.44-.15-.19-.48-.76-.62-1.09-.14-.33-.31-.92-.36-1.23-.05-.31-.09-.94-.07-1.25.02-.32.13-.95.21-1.26.08-.26.34-.89.5-1.17.17-.31.5-.76.74-1.02.22-.23.73-.68.96-.83.27-.18.83-.48 1.12-.59.3-.12.91-.28 1.23-.32.31-.05.91-.07 1.26-.04.32.03.99.16 1.25.25.26.08.88.37 1.15.53.31.18.78.55 1 .77.23.23.64.71.81.98.17.27.45.84.56 1.14.1.26.25.92.29 1.23.04.34.04.93 0 1.27-.04.34-.18.96-.3 1.25-.12.32-.56 1.14-.58 1.17z" style="fill:#FAEB50;stroke:none"/>
    <path d="m11.9 5.63c.33.1.97.4 1.27.6.26.18.77.58.82.64.05.06.11.2.12.25 0 .02-.23.71-.3.95-.12.41-.24.9-.29 1.29-.09.68-.18 2.01-.21 2.66-.01.1-.01.25-.02.29-.22.02-.81.07-1.09.17-.28.1-.63.31-1.07.63-.28.2-.78.51-1.08.65-.28.14-.86.36-1.13.43-.3.08-.9.14-1.18.14-.14 0-.44-.05-.58-.09-.13-.04-.39-.14-.51-.21-.12-.07-.36-.26-.45-.38-.09-.11-.23-.36-.26-.5-.02-.14.02-.42.08-.51.03-.04.11-.13.16-.16.06-.03.18-.07.26-.07.25 0 .68.18 1.21.42.02-.19.07-.68.1-.97.04-.41.07-1.11.05-1.51-.02-.37-.09-1.05-.14-1.41-.05-.36-.18-1.06-.24-1.39-.05-.25-.21-1-.21-1.01-.01-.07.03-.19.08-.25.04-.05.68-.41.91-.5.34-.12.96-.24 1.3-.27.26-.03 1.05-.06 1.3-.05.33.02.9.11 1.1.16z" style="fill:#400000;stroke:none"/>
    <path d="m9.81 6.63c.09-.02.25-.03.33-.01.07.01.23.07.29.11.07.04.16.12.2.18.03.05.06.17.06.23 0 .13-.09.23-.23.34-.02-.06-.05-.24-.07-.27-.04-.07-.15-.14-.22-.14-.13-.02-.44.05-.55.1-.05.02-.16.1-.2.15-.06.06-.11.17-.13.27-.02.22.06.82.15 1.22.08.43.17 1.01.18 1.29 0 .16-.03.44-.07.57-.07.31-.27.62-.54.99 0 0 .04.07.04.07.1-.05.43-.19.52-.22.16-.05.47-.04.59.01.05.02.38.2.53.25.13.04.46.1.58.09.07-.01.2-.05.26-.08.11-.07.29-.32.35-.47.02-.07.05-.23.06-.29 0-.08-.03-.25-.06-.33-.02-.07-.11-.22-.16-.28-.05-.06-.17-.15-.24-.18-.07-.03-.22-.05-.31-.05-.08 0-.21.05-.27.09-.05.04-.13.18-.14.23 0 .06.02.16.06.22.06.09.26.1.34.09-.03.08-.12.16-.22.19-.03.01-.25-.02-.29-.03-.1-.03-.22-.11-.27-.17-.03-.05-.07-.18-.07-.25-.01-.16.08-.44.16-.54.08-.08.33-.19.49-.2.11-.01.45.03.59.07.16.05.4.19.5.3.08.1.2.38.22.54.02.15 0 .53-.03.64-.04.16-.2.43-.31.53-.07.07-.35.25-.47.29-.13.03-.43.03-.6 0-.32-.06-1.02-.27-1.11-.27-.14 0-.44.06-.64.14-.14.06-.33.14-.38.16 0 0-.29-.41-.29-.41.08-.09.31-.34.38-.46.08-.15.17-.43.19-.55.04-.22.09-.85.09-1.21 0-.32-.03-.98-.06-1.19-.03-.21-.1-.46-.15-.61-.07-.17-.17-.34-.26-.45.16-.04.3-.11.46-.22.14-.11.39-.32.48-.37.05-.03.19-.09.24-.11z" style="fill:#FAEB50;stroke:none"/>
</svg>
