<?xml version="1.0" encoding="UTF-8" standalone="no"?>
<!DOCTYPE svg PUBLIC "-//W3C//DTD SVG 1.1//EN" "http://www.w3.org/Graphics/SVG/1.1/DTD/svg11.dtd">
<svg xmlns="http://www.w3.org/2000/svg" version="1.1" viewBox="0 0 708 253">
<g stroke-width="2.00" fill="none" stroke-linecap="butt">
<path stroke="#9f7bac" vector-effect="non-scaling-stroke" d="
  M 66.19 52.06
  Q 70.08 52.64 73.07 55.75
  A 1.01 1.00 -51.3 0 0 74.65 55.57
  Q 81.71 43.80 78.88 31.43
  C 73.83 9.47 50.43 -2.09 30.25 8.81
  C 13.79 17.71 8.14 38.08 17.15 54.32
  C 23.69 66.12 38.11 64.98 47.81 58.82
  C 54.08 54.84 60.07 51.16 66.19 52.06"
/>
<path stroke="#9f7bac" vector-effect="non-scaling-stroke" d="
  M 68.69 61.32
  Q 63.79 56.54 57.27 57.97
  Q 54.90 58.50 43.19 63.72
  Q 38.59 65.78 31.42 65.86
  Q 27.80 65.90 30.93 67.72
  Q 33.59 69.27 36.27 69.98
  Q 54.32 74.76 68.63 62.80
  A 1.00 1.00 0.0 0 0 68.69 61.32"
/>
<path stroke="#9f7bac" vector-effect="non-scaling-stroke" d="
  M 28.77 52.05
  Q 27.31 51.38 25.72 51.04
  C 15.67 48.88 20.50 59.96 26.01 61.55
  Q 36.78 64.66 46.52 57.75
  Q 54.99 51.73 63.69 49.31
  A 1.01 1.00 84.3 0 0 64.42 48.41
  C 65.10 37.99 65.93 28.66 69.19 18.77
  Q 70.02 16.23 67.72 14.85
  C 56.88 8.37 42.78 6.57 30.78 11.81
  C 27.47 13.25 28.05 15.21 28.60 18.20
  Q 31.62 34.61 30.18 51.22
  A 1.00 1.00 0.0 0 1 28.77 52.05"
/>
<path stroke="#9f7bac" vector-effect="non-scaling-stroke" d="
  M 51.33 36.40
  A 1.02 1.01 34.7 0 1 52.45 36.20
  C 60.22 39.67 57.35 50.46 48.24 45.88
  Q 44.84 44.17 41.00 45.04
  Q 39.27 45.44 40.12 43.88
  Q 42.62 39.29 41.96 33.85
  Q 41.24 27.99 40.60 22.01
  A 1.01 1.00 -29.2 0 1 40.81 21.29
  Q 44.33 16.76 46.84 19.52
  A 1.00 0.99 33.4 0 0 48.52 19.18
  Q 49.24 17.09 45.70 15.22
  A 1.00 1.00 0.0 0 0 44.76 15.22
  L 37.25 19.20
  A 1.00 1.00 0.0 0 0 36.90 20.66
  Q 38.57 23.04 38.63 26.06
  C 38.73 31.52 39.59 41.95 35.63 46.10
  A 1.01 1.01 0.0 0 0 35.54 47.37
  L 36.50 48.73
  A 1.01 1.00 -31.1 0 0 37.78 49.04
  Q 42.55 46.55 47.34 48.40
  C 58.13 52.57 62.36 37.85 53.52 34.83
  Q 49.94 33.60 46.87 36.90
  A 1.00 0.93 -22.1 0 0 46.60 37.48
  Q 46.06 43.03 50.39 41.58
  Q 51.96 41.06 50.57 40.15
  Q 48.76 38.97 51.33 36.40"
/>
</g>
<path fill="#6f3278" d="
  M 47.82 0.02
  L 453.56 0.00
  Q 456.31 1.57 458.05 4.20
  Q 459.08 5.75 457.22 5.75
  L 70.61 5.75
  A 1.00 0.99 -5.1 0 0 69.63 6.92
  Q 69.85 8.21 71.40 9.59
  C 87.56 24.09 88.46 48.37 73.63 64.40
  Q 71.79 66.38 69.90 68.35
  Q 68.35 69.97 70.59 70.04
  Q 73.07 70.13 75.54 70.29
  Q 78.69 70.49 81.10 70.49
  Q 256.72 70.51 432.33 70.50
  C 436.95 70.50 453.13 68.66 456.54 72.20
  Q 457.67 73.38 458.76 74.59
  Q 460.26 76.25 458.01 76.25
  Q 257.79 76.24 57.50 76.26
  Q 42.98 76.27 37.58 75.04
  C 21.71 71.45 9.61 58.01 8.36 41.48
  C 6.52 17.25 23.84 0.62 47.82 0.02
  Z
  M 66.19 52.06
  Q 70.08 52.64 73.07 55.75
  A 1.01 1.00 -51.3 0 0 74.65 55.57
  Q 81.71 43.80 78.88 31.43
  C 73.83 9.47 50.43 -2.09 30.25 8.81
  C 13.79 17.71 8.14 38.08 17.15 54.32
  C 23.69 66.12 38.11 64.98 47.81 58.82
  C 54.08 54.84 60.07 51.16 66.19 52.06
  Z
  M 68.69 61.32
  Q 63.79 56.54 57.27 57.97
  Q 54.90 58.50 43.19 63.72
  Q 38.59 65.78 31.42 65.86
  Q 27.80 65.90 30.93 67.72
  Q 33.59 69.27 36.27 69.98
  Q 54.32 74.76 68.63 62.80
  A 1.00 1.00 0.0 0 0 68.69 61.32
  Z"
/>
<path fill="#cec4df" d="
  M 66.19 52.06
  C 60.07 51.16 54.08 54.84 47.81 58.82
  C 38.11 64.98 23.69 66.12 17.15 54.32
  C 8.14 38.08 13.79 17.71 30.25 8.81
  C 50.43 -2.09 73.83 9.47 78.88 31.43
  Q 81.71 43.80 74.65 55.57
  A 1.01 1.00 -51.3 0 1 73.07 55.75
  Q 70.08 52.64 66.19 52.06
  Z
  M 28.77 52.05
  Q 27.31 51.38 25.72 51.04
  C 15.67 48.88 20.50 59.96 26.01 61.55
  Q 36.78 64.66 46.52 57.75
  Q 54.99 51.73 63.69 49.31
  A 1.01 1.00 84.3 0 0 64.42 48.41
  C 65.10 37.99 65.93 28.66 69.19 18.77
  Q 70.02 16.23 67.72 14.85
  C 56.88 8.37 42.78 6.57 30.78 11.81
  C 27.47 13.25 28.05 15.21 28.60 18.20
  Q 31.62 34.61 30.18 51.22
  A 1.00 1.00 0.0 0 1 28.77 52.05
  Z"
/>
<path fill="#6f3278" d="
  M 28.77 52.05
  A 1.00 1.00 0.0 0 0 30.18 51.22
  Q 31.62 34.61 28.60 18.20
  C 28.05 15.21 27.47 13.25 30.78 11.81
  C 42.78 6.57 56.88 8.37 67.72 14.85
  Q 70.02 16.23 69.19 18.77
  C 65.93 28.66 65.10 37.99 64.42 48.41
  A 1.01 1.00 84.3 0 1 63.69 49.31
  Q 54.99 51.73 46.52 57.75
  Q 36.78 64.66 26.01 61.55
  C 20.50 59.96 15.67 48.88 25.72 51.04
  Q 27.31 51.38 28.77 52.05
  Z
  M 51.33 36.40
  A 1.02 1.01 34.7 0 1 52.45 36.20
  C 60.22 39.67 57.35 50.46 48.24 45.88
  Q 44.84 44.17 41.00 45.04
  Q 39.27 45.44 40.12 43.88
  Q 42.62 39.29 41.96 33.85
  Q 41.24 27.99 40.60 22.01
  A 1.01 1.00 -29.2 0 1 40.81 21.29
  Q 44.33 16.76 46.84 19.52
  A 1.00 0.99 33.4 0 0 48.52 19.18
  Q 49.24 17.09 45.70 15.22
  A 1.00 1.00 0.0 0 0 44.76 15.22
  L 37.25 19.20
  A 1.00 1.00 0.0 0 0 36.90 20.66
  Q 38.57 23.04 38.63 26.06
  C 38.73 31.52 39.59 41.95 35.63 46.10
  A 1.01 1.01 0.0 0 0 35.54 47.37
  L 36.50 48.73
  A 1.01 1.00 -31.1 0 0 37.78 49.04
  Q 42.55 46.55 47.34 48.40
  C 58.13 52.57 62.36 37.85 53.52 34.83
  Q 49.94 33.60 46.87 36.90
  A 1.00 0.93 -22.1 0 0 46.60 37.48
  Q 46.06 43.03 50.39 41.58
  Q 51.96 41.06 50.57 40.15
  Q 48.76 38.97 51.33 36.40
  Z"
/>
<path fill="#6f3278" d="
  M 330.21 44.93
  C 327.80 44.35 322.65 45.13 323.26 41.27
  A 1.01 1.01 0.0 0 1 324.18 40.43
  L 329.76 40.03
  A 0.99 0.99 0.0 0 0 330.69 39.05
  L 330.91 26.66
  A 1.01 1.00 -3.7 0 0 329.76 25.65
  C 327.97 25.92 322.59 26.13 323.68 22.74
  A 1.00 1.00 0.0 0 1 324.59 22.04
  L 329.53 21.85
  A 1.00 0.99 -90.0 0 0 330.49 20.88
  C 330.70 13.56 332.73 15.84 338.07 15.75
  A 1.01 1.01 0.0 0 1 339.05 17.05
  Q 337.26 22.81 342.59 21.96
  A 0.99 0.98 -25.9 0 1 343.48 22.26
  Q 347.95 27.08 339.89 25.49
  A 1.01 1.00 5.1 0 0 338.69 26.49
  L 338.87 39.15
  A 1.01 1.00 1.2 0 0 339.81 40.13
  L 342.92 40.34
  Q 343.16 40.36 343.36 40.47
  Q 345.27 41.59 345.17 43.80
  A 1.00 0.99 1.2 0 1 344.17 44.75
  L 340.00 44.75
  A 1.00 1.00 0.0 0 0 339.00 45.69
  Q 338.58 52.32 338.78 59.50
  C 338.95 65.22 328.75 63.17 325.16 62.61
  Q 321.29 62.02 323.81 59.40
  A 1.01 0.98 22.4 0 1 324.58 59.09
  L 328.24 59.27
  Q 330.93 59.40 330.94 56.76
  L 330.98 45.91
  A 1.01 1.01 0.0 0 0 330.21 44.93
  Z"
/>
<path fill="#cec4df" d="
  M 51.33 36.40
  Q 48.76 38.97 50.57 40.15
  Q 51.96 41.06 50.39 41.58
  Q 46.06 43.03 46.60 37.48
  A 1.00 0.93 -22.1 0 1 46.87 36.90
  Q 49.94 33.60 53.52 34.83
  C 62.36 37.85 58.13 52.57 47.34 48.40
  Q 42.55 46.55 37.78 49.04
  A 1.01 1.00 -31.1 0 1 36.50 48.73
  L 35.54 47.37
  A 1.01 1.01 0.0 0 1 35.63 46.10
  C 39.59 41.95 38.73 31.52 38.63 26.06
  Q 38.57 23.04 36.90 20.66
  A 1.00 1.00 0.0 0 1 37.25 19.20
  L 44.76 15.22
  A 1.00 1.00 0.0 0 1 45.70 15.22
  Q 49.24 17.09 48.52 19.18
  A 1.00 0.99 33.4 0 1 46.84 19.52
  Q 44.33 16.76 40.81 21.29
  A 1.01 1.00 -29.2 0 0 40.60 22.01
  Q 41.24 27.99 41.96 33.85
  Q 42.62 39.29 40.12 43.88
  Q 39.27 45.44 41.00 45.04
  Q 44.84 44.17 48.24 45.88
  C 57.35 50.46 60.22 39.67 52.45 36.20
  A 1.02 1.01 34.7 0 0 51.33 36.40
  Z"
/>
<path fill="#6f3278" d="
  M 284.45 33.76
  L 287.63 34.01
  Q 290.00 34.19 288.21 35.76
  C 285.32 38.29 282.09 40.53 283.38 45.03
  A 1.00 1.00 0.0 0 0 284.34 45.75
  L 289.91 45.75
  A 0.99 0.98 62.8 0 1 290.49 45.94
  Q 292.13 47.12 291.85 48.90
  A 1.00 1.00 0.0 0 1 290.86 49.75
  L 284.31 49.75
  A 1.00 1.00 0.0 0 0 283.31 50.73
  L 283.09 59.51
  Q 283.03 62.30 279.64 62.82
  C 278.74 62.96 260.84 63.47 266.84 58.76
  A 1.00 0.99 33.6 0 1 267.71 58.59
  C 275.82 60.76 275.87 57.25 275.40 50.67
  A 1.00 0.99 -2.4 0 0 274.39 49.75
  C 272.27 49.76 265.84 50.33 264.23 49.00
  Q 263.25 48.19 263.13 46.84
  A 1.01 1.00 87.6 0 1 264.13 45.75
  L 274.38 45.75
  A 1.01 1.00 3.2 0 0 275.38 44.86
  L 275.69 42.07
  A 1.01 0.98 -14.4 0 1 276.12 41.36
  L 281.09 38.01
  A 0.80 0.80 0.0 0 0 281.14 36.72
  Q 280.62 36.30 279.78 36.44
  Q 279.16 36.54 278.23 37.18
  Q 272.25 41.36 265.79 43.27
  A 0.98 0.97 57.0 0 1 264.86 43.07
  L 263.21 41.66
  A 1.00 0.99 -35.9 0 1 263.48 39.98
  Q 269.73 37.44 275.21 33.57
  Q 277.82 31.73 274.63 31.75
  Q 270.77 31.78 266.60 31.72
  Q 265.31 31.70 264.72 31.22
  Q 264.17 30.77 264.09 30.12
  A 1.01 1.00 -3.3 0 1 265.09 29.00
  L 272.28 29.00
  A 1.01 1.00 -80.7 0 0 273.23 28.31
  Q 275.33 21.92 268.40 23.45
  Q 265.57 24.07 265.10 22.01
  A 1.01 1.00 83.1 0 1 266.05 20.79
  L 272.47 20.62
  A 1.01 1.00 1.3 0 0 273.44 19.70
  L 273.67 16.92
  A 1.00 0.99 -87.8 0 1 274.66 16.00
  L 280.43 16.00
  A 1.00 1.00 0.0 0 1 281.42 16.89
  L 281.71 19.37
  A 0.98 0.97 -77.7 0 0 282.18 20.11
  Q 285.51 22.14 286.08 18.37
  A 1.00 1.00 0.0 0 1 287.15 17.53
  Q 289.28 17.70 290.91 19.02
  A 1.00 1.00 0.0 0 1 291.23 20.10
  Q 289.96 24.09 287.78 27.68
  A 1.01 1.00 31.8 0 0 288.11 29.05
  L 290.41 30.49
  A 0.99 0.99 0.0 0 0 291.90 29.91
  Q 293.65 23.47 293.77 16.78
  A 1.00 1.00 0.0 0 1 294.76 15.80
  L 299.34 15.73
  A 1.00 0.99 0.8 0 1 300.35 16.76
  L 300.22 21.00
  A 1.00 1.00 0.0 0 0 301.23 22.03
  L 317.80 21.92
  A 1.00 1.00 0.0 0 1 318.72 23.32
  Q 317.64 25.77 315.10 25.85
  A 1.00 1.00 0.0 0 0 314.14 26.72
  C 312.85 36.22 311.87 42.22 307.10 49.87
  A 1.00 1.00 0.0 0 0 307.29 51.15
  Q 311.24 54.64 316.24 56.32
  A 1.01 1.00 9.2 0 1 316.92 57.25
  L 317.02 61.81
  A 1.00 1.00 0.0 0 1 315.77 62.80
  Q 308.31 60.88 303.07 55.23
  A 1.01 1.00 -40.6 0 0 301.71 55.13
  Q 295.64 59.95 288.00 61.41
  A 1.00 1.00 0.0 0 1 286.81 60.43
  L 286.81 58.35
  A 1.01 0.98 83.0 0 1 287.55 57.38
  Q 294.14 55.66 299.09 51.06
  A 1.01 1.00 -32.0 0 0 299.35 49.98
  L 295.05 38.16
  Q 294.37 36.31 293.28 37.94
  Q 291.79 40.16 289.29 40.92
  Q 287.17 41.58 288.09 39.55
  L 291.00 33.18
  A 1.01 1.00 13.6 0 0 290.13 31.76
  Q 287.89 31.67 285.09 31.82
  Q 284.16 31.87 283.80 32.61
  A 0.80 0.80 0.0 0 0 284.45 33.76
  Z
  M 281.95 27.24
  C 282.49 27.18 283.03 25.56 283.58 24.81
  A 1.03 1.00 58.8 0 0 283.76 24.02
  Q 283.47 22.63 281.96 23.59
  A 1.02 1.01 73.5 0 0 281.50 24.44
  L 281.50 26.83
  A 0.41 0.41 0.0 0 0 281.95 27.24
  Z
  M 304.32 42.62
  Q 307.11 35.00 307.17 26.81
  A 1.01 1.00 -89.7 0 0 306.18 25.80
  L 300.99 25.74
  Q 298.28 25.71 298.65 29.03
  Q 299.46 36.18 302.47 42.70
  Q 303.48 44.89 304.32 42.62
  Z"
/>
<path fill="#6f3278" d="
  M 111.26 55.90
  Q 122.91 55.24 129.00 45.34
  C 130.32 43.20 131.98 41.58 134.31 41.45
  A 1.00 1.00 0.0 0 1 135.28 42.84
  C 128.35 59.14 112.77 61.74 96.73 61.40
  A 1.01 1.00 0.9 0 1 95.75 60.40
  L 95.75 18.23
  A 1.00 0.99 -89.4 0 1 96.76 17.23
  L 103.72 17.32
  A 1.00 1.00 0.0 0 1 104.71 18.31
  Q 104.76 34.67 104.78 50.92
  C 104.79 54.83 107.70 56.10 111.26 55.90
  Z"
/>
<path fill="#6f3278" d="
  M 154.75 38.70
  A 0.99 0.99 0.0 0 0 153.66 37.71
  Q 147.01 38.33 140.50 38.58
  Q 138.79 38.64 137.16 38.18
  Q 134.96 37.57 136.90 36.37
  Q 137.98 35.70 139.51 35.60
  C 151.72 34.80 163.43 32.15 166.31 18.22
  A 0.99 0.98 -84.8 0 1 167.25 17.43
  L 173.62 17.22
  A 1.00 0.99 7.3 0 1 174.61 18.50
  Q 171.64 28.32 163.58 34.81
  A 1.01 0.98 -20.7 0 0 163.21 35.60
  L 163.56 60.48
  A 1.00 1.00 0.0 0 1 162.56 61.50
  L 155.75 61.50
  A 1.00 1.00 0.0 0 1 154.75 60.50
  L 154.75 38.70
  Z"
/>
<path fill="#6f3278" d="
  M 195.11 39.73
  C 199.90 41.06 209.64 40.00 214.78 40.00
  A 1.00 1.00 0.0 0 1 215.73 41.32
  C 214.91 43.78 213.20 44.46 210.60 44.47
  Q 203.70 44.50 196.80 44.53
  Q 193.79 44.55 193.95 47.79
  C 194.16 51.99 194.00 56.31 193.96 60.52
  A 1.01 1.00 -89.7 0 1 192.96 61.52
  L 185.00 61.48
  A 1.00 1.00 0.0 0 1 184.00 60.48
  L 184.00 18.30
  A 1.00 0.99 -90.0 0 1 184.99 17.30
  L 192.49 17.27
  A 0.99 0.99 0.0 0 1 193.49 18.26
  L 193.52 37.49
  A 2.37 2.16 -83.0 0 0 195.11 39.73
  Z"
/>
<path fill="#6f3278" d="
  M 218.01 61.34
  A 1.00 0.99 87.4 0 1 217.11 60.51
  Q 216.34 56.18 219.12 54.19
  Q 220.74 53.03 225.05 52.99
  C 246.76 52.83 249.42 39.52 251.72 21.54
  Q 252.17 18.08 255.59 17.24
  A 1.01 1.00 83.2 0 1 256.83 18.22
  C 256.77 34.59 251.74 57.86 232.42 60.80
  Q 225.29 61.89 218.01 61.34
  Z"
/>
<path fill="#6f3278" d="
  M 346.07 18.30
  A 1.00 0.99 -1.6 0 1 347.07 17.25
  L 377.14 17.25
  A 1.01 1.00 -77.8 0 1 378.05 18.67
  Q 377.74 19.33 377.10 19.83
  C 374.68 21.71 351.45 20.78 347.11 20.66
  A 1.01 1.00 89.4 0 1 346.14 19.71
  L 346.07 18.30
  Z"
/>
<path fill="#6f3278" d="
  M 216.33 23.48
  Q 217.90 20.83 219.83 20.76
  Q 228.19 20.46 236.61 20.51
  A 1.00 0.99 5.3 0 1 237.59 21.68
  Q 237.27 23.50 235.82 24.38
  C 233.32 25.90 220.48 25.00 217.19 24.99
  Q 215.44 24.98 216.33 23.48
  Z"
/>
<path fill="#6f3278" d="
  M 355.23 29.56
  C 352.57 30.12 347.65 30.96 348.47 26.45
  Q 348.51 26.20 348.43 25.96
  L 347.52 23.21
  A 1.00 1.00 0.0 0 1 348.29 21.91
  Q 356.18 20.47 356.02 28.60
  A 1.00 0.99 -5.9 0 1 355.23 29.56
  Z"
/>
<path fill="#6f3278" d="
  M 357.85 21.92
  Q 365.60 20.81 364.95 28.80
  A 0.99 0.99 0.0 0 1 364.01 29.71
  L 359.00 29.98
  A 1.01 1.00 84.0 0 1 357.96 29.13
  L 357.00 23.07
  A 1.00 1.00 0.0 0 1 357.85 21.92
  Z"
/>
<path fill="#6f3278" d="
  M 368.94 23.14
  A 1.01 1.01 0.0 0 1 369.84 22.56
  L 375.79 22.48
  A 1.00 1.00 0.0 0 1 376.77 23.72
  Q 374.98 31.01 367.30 29.68
  A 1.00 1.00 0.0 0 1 366.56 28.27
  L 368.94 23.14
  Z"
/>
<path fill="#6f3278" d="
  M 395.57 45.82
  Q 396.58 44.55 397.92 43.67
  C 399.39 42.71 393.37 32.84 392.56 31.36
  A 1.00 1.00 0.0 0 1 393.10 29.93
  C 399.97 27.57 401.13 34.81 403.32 39.05
  A 1.00 1.00 0.0 0 0 404.59 39.52
  Q 410.87 36.96 417.19 34.57
  Q 421.54 32.93 418.93 39.91
  A 0.98 0.97 -85.2 0 1 418.19 40.54
  Q 411.08 41.92 403.30 45.56
  C 398.65 47.74 394.36 55.95 402.84 57.41
  Q 411.75 58.94 420.20 55.57
  A 1.00 1.00 0.0 0 1 421.50 56.14
  C 422.45 58.59 421.43 60.76 418.86 61.62
  C 412.27 63.84 397.58 65.47 393.40 57.71
  Q 390.47 52.26 395.57 45.82
  Z"
/>
<path fill="#6f3278" d="
  M 367.63 55.74
  L 376.14 57.01
  A 1.00 1.00 0.0 0 1 376.99 58.00
  L 377.01 62.31
  A 1.00 1.00 0.0 0 1 375.88 63.30
  Q 367.73 62.23 360.42 58.49
  A 1.03 1.02 48.8 0 0 359.62 58.43
  Q 352.43 61.02 344.84 61.83
  A 1.01 1.00 -3.4 0 1 343.73 60.85
  L 343.70 59.26
  A 1.01 1.00 -9.7 0 1 344.40 58.28
  L 354.02 55.30
  A 1.00 1.00 0.0 0 0 354.47 53.68
  Q 349.92 48.59 348.53 41.73
  C 348.03 39.23 347.17 37.59 344.19 38.95
  A 1.00 1.00 0.0 0 1 342.82 38.35
  C 341.36 33.80 342.55 30.92 347.57 30.87
  Q 369.96 30.66 374.69 30.81
  Q 380.90 31.01 379.63 37.59
  A 1.01 1.01 0.0 0 1 378.78 38.39
  L 375.33 38.86
  A 0.99 0.98 -88.3 0 0 374.49 39.66
  Q 372.90 48.01 367.06 54.06
  Q 365.71 55.46 367.63 55.74
  Z
  M 371.4418 35.2492
  A 1.20 1.20 0.0 0 0 370.2439 34.0471
  L 350.6839 34.0129
  A 1.20 1.20 0.0 0 0 349.4818 35.2108
  L 349.4782 37.2908
  A 1.20 1.20 0.0 0 0 350.6761 38.4929
  L 370.2361 38.5271
  A 1.20 1.20 0.0 0 0 371.4382 37.3292
  L 371.4418 35.2492
  Z
  M 360.83 51.44
  Q 364.96 48.11 365.81 42.91
  A 1.00 1.00 0.0 0 0 364.82 41.75
  L 355.93 41.75
  A 1.01 1.00 82.6 0 0 354.96 43.01
  Q 356.20 47.69 359.46 51.32
  A 1.00 1.00 0.0 0 0 360.83 51.44
  Z"
/>
<path fill="#8e1a89" d="
  M 634.12 79.05
  A 1.00 1.00 0.0 0 0 635.12 80.00
  L 678.81 80.00
  A 1.01 1.00 -81.8 0 1 679.77 81.29
  Q 672.99 103.90 675.26 127.41
  A 0.99 0.99 0.0 0 1 674.27 128.50
  L 663.97 128.50
  A 1.01 1.01 0.0 0 0 662.97 129.37
  Q 660.45 149.20 661.58 169.17
  A 1.01 1.00 -1.9 0 1 660.58 170.23
  L 608.00 170.26
  A 1.00 1.00 0.0 0 0 607.00 171.26
  L 607.00 177.50
  A 1.00 1.00 0.0 0 0 608.00 178.50
  L 645.25 178.50
  A 1.00 0.99 -10.2 0 1 646.18 179.14
  C 649.07 186.65 652.13 190.50 661.35 189.94
  Q 663.57 189.80 663.75 191.99
  Q 666.15 221.04 677.60 247.77
  A 1.00 0.99 78.3 0 1 676.69 249.16
  L 635.49 249.28
  A 1.00 1.00 0.0 0 1 634.49 248.28
  L 634.52 241.77
  A 1.01 1.00 -90.0 0 0 633.52 240.76
  L 610.50 240.76
  A 1.00 1.00 0.0 0 0 609.50 241.76
  L 609.50 248.27
  A 1.00 1.00 0.0 0 1 608.50 249.27
  L 548.77 249.27
  A 1.01 1.00 82.5 0 1 547.80 248.52
  L 541.77 225.60
  A 1.00 0.99 -16.6 0 0 540.49 224.91
  Q 528.65 228.82 530.49 241.48
  A 1.00 1.00 0.0 0 1 529.62 242.62
  L 465.10 250.15
  A 0.66 0.63 -25.1 0 1 464.59 249.98
  Q 464.17 249.59 464.66 249.17
  Q 478.19 237.56 481.26 218.88
  A 1.01 1.01 0.0 0 1 482.18 218.04
  L 489.78 217.55
  A 1.01 1.00 6.3 0 0 490.67 216.84
  Q 493.78 206.58 494.83 196.48
  Q 498.73 158.87 492.19 121.60
  A 1.00 1.00 0.0 0 0 490.62 120.96
  Q 486.79 123.70 482.35 126.02
  Q 465.52 134.79 448.21 139.04
  Q 444.10 140.05 447.56 137.61
  Q 462.88 126.81 475.10 112.61
  C 491.87 93.13 500.59 70.78 504.34 46.24
  A 1.00 1.00 0.0 0 1 505.33 45.39
  L 549.05 45.55
  A 1.00 1.00 0.0 0 1 550.04 46.43
  C 551.71 60.35 557.82 72.81 570.52 79.84
  Q 570.74 79.97 571.00 79.97
  Q 584.62 80.02 598.96 80.00
  C 602.39 79.99 602.92 79.33 602.98 75.99
  Q 603.33 57.89 596.91 40.99
  A 1.00 0.99 83.7 0 1 597.98 39.65
  L 640.64 45.68
  A 1.01 1.00 18.5 0 1 641.38 47.15
  Q 633.29 61.99 634.12 79.05
  Z
  M 530.18 78.77
  Q 524.81 87.92 517.69 95.82
  Q 516.19 97.49 518.43 97.49
  L 544.73 97.53
  Q 547.52 97.53 545.36 95.76
  Q 536.85 88.74 531.94 78.83
  Q 531.12 77.18 530.18 78.77
  Z
  M 513.66 100.59
  Q 508.33 107.05 501.99 112.49
  Q 499.94 114.25 502.64 114.25
  L 516.48 114.25
  A 1.01 1.00 -5.1 0 0 517.47 113.08
  L 515.42 101.06
  Q 515.06 98.90 513.66 100.59
  Z
  M 550.01 100.45
  Q 546.88 106.45 545.55 113.10
  A 1.00 1.00 0.0 0 0 546.55 114.29
  L 564.30 113.94
  A 1.01 1.01 0.0 0 0 565.19 113.37
  Q 566.11 111.38 565.92 109.20
  A 1.02 1.00 -77.6 0 0 565.44 108.43
  L 551.41 100.05
  A 1.00 1.00 0.0 0 0 550.01 100.45
  Z
  M 644.25 105.18
  A 1.17 1.17 0.0 0 0 643.08 104.01
  L 597.44 104.01
  A 1.17 1.17 0.0 0 0 596.27 105.18
  L 596.27 114.08
  A 1.17 1.17 0.0 0 0 597.44 115.25
  L 643.08 115.25
  A 1.17 1.17 0.0 0 0 644.25 114.08
  L 644.25 105.18
  Z
  M 571.40 121.96
  C 564.68 144.43 564.33 167.08 565.28 190.21
  A 1.00 1.00 0.0 0 1 564.28 191.25
  L 520.75 191.25
  A 1.00 1.00 0.0 0 0 519.75 192.25
  L 519.76 213.94
  A 1.00 1.00 0.0 0 0 520.91 214.93
  L 538.08 212.29
  A 1.01 1.00 80.3 0 0 538.91 211.11
  L 536.24 196.94
  A 1.00 1.00 0.0 0 1 537.22 195.76
  L 564.45 195.75
  A 1.00 0.99 -3.2 0 1 565.44 196.63
  C 565.80 199.70 571.17 231.94 573.43 231.76
  A 0.34 0.33 -86.5 0 0 573.73 231.49
  Q 582.66 177.09 577.65 122.15
  A 1.00 0.98 87.2 0 0 576.66 121.24
  L 572.36 121.25
  A 1.01 1.00 -81.4 0 0 571.40 121.96
  Z
  M 544.4947 135.6784
  A 1.21 1.21 0.0 0 0 543.2826 134.4705
  L 520.9826 134.5095
  A 1.21 1.21 0.0 0 0 519.7747 135.7216
  L 519.7853 141.8016
  A 1.21 1.21 0.0 0 0 520.9974 143.0095
  L 543.2974 142.9705
  A 1.21 1.21 0.0 0 0 544.5053 141.7584
  L 544.4947 135.6784
  Z
  M 637.50 138.40
  A 0.90 0.90 0.0 0 0 636.60 137.50
  L 607.90 137.50
  A 0.90 0.90 0.0 0 0 607.00 138.40
  L 607.00 148.36
  A 0.90 0.90 0.0 0 0 607.90 149.26
  L 636.60 149.26
  A 0.90 0.90 0.0 0 0 637.50 148.36
  L 637.50 138.40
  Z
  M 544.5152 161.0716
  A 1.27 1.27 0.0 0 0 543.2474 159.7994
  L 521.0474 159.7606
  A 1.27 1.27 0.0 0 0 519.7752 161.0284
  L 519.7648 166.9684
  A 1.27 1.27 0.0 0 0 521.0326 168.2406
  L 543.2326 168.2794
  A 1.27 1.27 0.0 0 0 544.5048 167.0116
  L 544.5152 161.0716
  Z
  M 637.49 201.14
  A 0.88 0.88 0.0 0 0 636.61 200.26
  L 607.87 200.26
  A 0.88 0.88 0.0 0 0 606.99 201.14
  L 606.99 214.62
  A 0.88 0.88 0.0 0 0 607.87 215.50
  L 636.61 215.50
  A 0.88 0.88 0.0 0 0 637.49 214.62
  L 637.49 201.14
  Z"
/>
<path fill="#cec4df" d="
  M 68.69 61.32
  A 1.00 1.00 0.0 0 1 68.63 62.80
  Q 54.32 74.76 36.27 69.98
  Q 33.59 69.27 30.93 67.72
  Q 27.80 65.90 31.42 65.86
  Q 38.59 65.78 43.19 63.72
  Q 54.90 58.50 57.27 57.97
  Q 63.79 56.54 68.69 61.32
  Z"
/>
<path fill="#6f3278" d="
  M 326.07 106.98
  L 361.14 107.01
  Q 363.26 107.01 361.91 108.64
  Q 356.56 115.12 356.58 123.73
  A 1.00 1.00 0.0 0 1 355.59 124.74
  L 340.12 124.76
  A 0.99 0.99 0.0 0 0 339.25 125.28
  Q 335.22 132.60 335.02 140.93
  A 1.00 1.00 0.0 0 0 336.01 141.96
  L 362.82 142.09
  Q 364.52 142.10 363.43 143.41
  Q 357.94 149.97 355.04 158.09
  A 1.00 0.98 9.4 0 1 354.10 158.75
  L 272.36 158.75
  A 1.00 1.00 0.0 0 1 271.42 158.09
  C 270.98 156.88 267.89 148.36 266.76 148.82
  A 0.41 0.41 0.0 0 0 266.50 149.20
  L 266.50 157.50
  A 1.00 1.00 0.0 0 1 265.50 158.50
  L 242.77 158.50
  Q 240.24 158.50 242.09 160.23
  Q 244.60 162.58 248.10 163.29
  A 0.99 0.99 0.0 0 1 248.90 164.22
  L 249.11 168.92
  A 1.00 1.00 0.0 0 0 250.12 169.88
  L 268.16 169.70
  A 1.00 1.00 0.0 0 1 269.10 171.06
  Q 266.70 177.37 267.90 184.06
  A 1.01 1.00 -5.0 0 1 266.91 185.24
  L 250.05 185.25
  A 1.01 1.01 0.0 0 0 249.05 186.27
  L 249.32 213.40
  A 1.00 1.00 0.0 0 0 250.50 214.38
  L 253.16 213.89
  A 1.00 0.99 -4.8 0 0 253.99 212.91
  L 254.00 191.00
  A 1.01 1.00 -89.7 0 1 255.00 190.00
  L 268.25 190.00
  Q 270.58 190.00 268.98 191.68
  Q 260.49 200.66 255.59 211.99
  Q 254.87 213.66 256.67 213.38
  L 269.05 211.42
  Q 271.15 211.09 270.07 212.92
  Q 266.05 219.73 269.02 227.39
  A 1.01 1.00 68.0 0 1 268.48 228.67
  C 245.70 238.48 222.12 243.86 197.81 249.27
  Q 194.81 249.93 196.85 247.63
  Q 206.21 237.03 200.75 223.72
  A 1.01 1.00 74.1 0 1 201.51 222.35
  L 221.18 219.04
  A 1.00 1.00 0.0 0 0 221.91 217.61
  Q 214.69 202.84 202.55 191.74
  Q 200.65 190.00 203.23 190.00
  L 222.74 190.00
  A 1.00 1.00 0.0 0 1 223.74 191.00
  L 223.75 217.41
  A 1.01 1.00 -2.4 0 0 224.84 218.41
  L 227.81 218.15
  A 1.00 1.00 0.0 0 0 228.72 217.15
  L 228.76 186.25
  A 1.00 1.00 0.0 0 0 227.76 185.25
  L 204.02 185.25
  A 1.01 1.00 7.7 0 1 203.05 183.98
  Q 203.80 181.29 202.61 178.12
  Q 201.21 174.37 198.28 171.66
  Q 196.51 170.03 194.36 171.11
  Q 186.63 174.97 177.83 178.17
  C 177.17 178.41 176.10 178.24 177.29 177.31
  C 192.60 165.47 203.45 150.54 210.34 132.49
  Q 217.09 114.82 219.16 95.90
  A 1.00 1.00 0.0 0 1 220.15 95.01
  L 254.78 95.00
  A 1.00 1.00 0.0 0 1 255.77 95.86
  C 257.13 105.87 260.58 116.40 268.27 123.40
  Q 270.16 125.12 269.94 122.57
  Q 269.23 114.51 263.98 108.66
  Q 262.49 107.00 264.73 107.00
  L 299.25 107.00
  A 1.00 1.00 0.0 0 0 300.25 106.00
  L 300.25 87.20
  A 1.00 1.00 0.0 0 1 301.73 86.33
  Q 313.80 92.86 327.64 93.35
  Q 329.49 93.41 328.42 94.92
  Q 324.93 99.85 325.07 106.00
  A 1.00 1.00 0.0 0 0 326.07 106.98
  Z
  M 233.70 142.19
  Q 240.46 142.78 246.97 142.26
  A 1.00 1.00 0.0 0 0 247.75 140.74
  Q 243.35 133.51 240.14 125.67
  Q 239.27 123.54 238.63 125.75
  Q 236.25 134.03 231.12 140.97
  Q 229.97 142.52 231.88 142.23
  Q 232.74 142.10 233.70 142.19
  Z
  M 272.30 125.46
  L 267.66 140.65
  A 1.01 1.00 8.7 0 0 268.61 141.94
  L 287.30 142.21
  A 1.00 1.00 0.0 0 0 288.31 141.24
  Q 288.59 132.68 284.50 125.27
  A 1.00 0.98 -14.2 0 0 283.63 124.76
  L 273.26 124.75
  A 1.01 1.00 -81.4 0 0 272.30 125.46
  Z
  M 314.80 142.06
  A 0.72 0.72 0.0 0 0 315.52 141.44
  L 317.61 125.58
  A 0.72 0.72 0.0 0 0 316.90 124.77
  L 305.34 124.74
  A 0.72 0.72 0.0 0 0 304.63 125.59
  L 307.45 141.37
  A 0.72 0.72 0.0 0 0 308.14 141.97
  L 314.80 142.06
  Z
  M 227.78 158.53
  L 215.51 158.48
  A 1.06 1.01 -62.3 0 0 214.89 158.69
  Q 207.80 164.19 199.80 168.23
  Q 196.81 169.74 200.16 169.75
  L 227.66 169.75
  A 1.00 1.00 0.0 0 0 228.66 168.76
  L 228.77 159.54
  A 1.00 0.99 -89.7 0 0 227.78 158.53
  Z"
/>
<path fill="#6f3278" d="
  M 134.97 172.07
  Q 147.42 166.41 155.61 155.35
  Q 161.69 147.15 166.30 136.80
  Q 166.69 135.92 167.22 136.53
  A 0.77 0.76 24.8 0 1 167.42 137.07
  Q 166.84 160.07 174.62 181.66
  A 1.00 1.00 0.0 0 1 174.15 182.88
  Q 155.24 193.05 133.75 194.24
  A 1.01 1.01 0.0 0 0 132.80 195.20
  C 132.42 204.28 135.35 219.68 145.08 223.87
  C 155.51 228.36 166.23 222.72 170.83 212.64
  Q 175.61 202.19 176.64 190.70
  Q 176.92 187.58 178.17 190.45
  Q 184.96 206.05 191.04 221.95
  C 202.80 252.73 152.00 252.69 136.65 247.28
  C 119.61 241.27 109.67 224.95 109.45 206.94
  Q 108.98 166.97 108.30 126.98
  A 1.00 0.99 -0.3 0 0 107.30 126.00
  L 56.47 126.00
  Q 54.38 126.00 55.69 127.63
  Q 59.07 131.83 64.52 133.47
  Q 66.43 134.04 71.55 134.45
  A 1.00 1.00 0.0 0 1 72.45 135.60
  L 70.62 147.60
  A 1.00 1.00 0.0 0 0 71.61 148.75
  L 99.81 148.75
  A 1.00 1.00 0.0 0 1 100.69 150.23
  Q 99.94 151.58 99.25 152.93
  C 95.44 160.34 99.96 165.54 104.70 171.67
  A 1.03 1.02 32.4 0 1 104.89 172.49
  C 98.43 204.35 80.50 234.57 47.44 243.44
  Q 25.35 249.36 1.56 249.13
  Q 1.31 249.13 1.11 249.08
  Q -0.74 248.67 1.07 248.10
  C 26.15 240.20 51.71 228.00 66.65 204.26
  A 1.00 1.00 0.0 0 0 66.25 202.83
  L 49.99 194.77
  A 1.01 0.99 33.9 0 0 48.81 194.99
  Q 31.00 214.39 4.49 217.35
  C 3.61 217.45 2.50 216.90 3.79 216.03
  C 23.42 202.84 36.01 179.39 40.23 156.57
  Q 42.77 142.89 40.51 128.02
  Q 40.20 125.99 38.01 125.99
  L 28.60 126.00
  A 1.00 1.00 0.0 0 1 27.60 125.01
  Q 27.47 110.50 16.39 101.68
  Q 14.60 100.25 16.89 100.25
  L 182.30 100.25
  A 0.20 0.20 0.0 0 1 182.50 100.46
  L 182.50 100.75
  A 0.31 0.31 0.0 0 1 182.34 101.02
  C 173.56 106.20 169.55 115.39 168.23 125.13
  A 1.01 1.00 -86.0 0 1 167.24 126.00
  L 120.97 126.00
  Q 118.42 126.00 120.28 127.73
  Q 129.70 136.49 142.59 134.47
  Q 144.47 134.18 143.64 135.89
  Q 135.60 152.61 133.57 171.05
  Q 133.37 172.80 134.97 172.07
  Z
  M 59.80 181.70
  L 73.03 187.34
  A 1.00 1.00 0.0 0 0 74.35 186.80
  Q 78.12 177.54 79.24 167.61
  A 1.00 0.99 3.3 0 0 78.25 166.50
  L 66.71 166.51
  A 0.99 0.99 0.0 0 0 65.78 167.16
  Q 63.20 174.04 59.34 180.25
  A 1.01 1.00 27.4 0 0 59.80 181.70
  Z"
/>
<path fill="#6f3278" d="
  M 427.39 177.28
  C 427.36 203.68 419.01 244.47 384.63 245.46
  A 1.00 0.98 77.9 0 1 383.67 244.83
  C 379.87 234.99 371.84 221.60 363.99 216.22
  A 0.98 0.97 18.7 0 1 363.56 215.36
  C 364.73 185.52 380.67 156.28 411.99 150.76
  C 427.49 148.03 446.46 150.88 459.24 160.47
  C 473.96 171.51 482.85 191.01 477.10 209.61
  C 470.96 229.47 457.45 242.71 439.43 252.32
  A 1.01 1.00 53.9 0 1 438.23 252.13
  C 431.71 245.21 425.31 239.46 415.59 236.59
  A 0.51 0.50 -77.9 0 1 415.23 236.02
  L 415.28 235.67
  A 0.66 0.64 86.3 0 1 415.71 235.17
  C 426.45 231.60 439.00 224.71 444.90 214.68
  C 455.29 197.00 453.34 175.32 430.59 169.29
  Q 425.69 168.00 420.71 168.79
  A 1.00 1.00 0.0 0 0 419.96 170.21
  Q 422.04 174.62 426.73 176.34
  A 1.00 1.00 0.0 0 1 427.39 177.28
  Z
  M 393.63 180.88
  C 386.81 188.59 382.89 200.03 385.48 210.18
  C 386.55 214.39 389.77 219.97 394.52 219.29
  C 401.30 218.30 405.33 211.86 406.96 205.49
  Q 411.14 189.15 409.98 172.30
  A 1.00 0.99 -9.7 0 0 408.71 171.41
  Q 399.79 173.92 393.63 180.88
  Z"
/>
<path fill="#6f3278" d="
  M 327.21 214.18
  Q 327.78 214.79 328.84 214.94
  Q 331.38 215.28 332.79 215.59
  A 0.99 0.99 0.0 0 1 333.57 216.64
  Q 332.71 227.87 342.63 230.82
  C 348.98 232.72 353.11 229.45 353.78 223.09
  Q 353.98 221.22 354.02 219.40
  Q 354.08 217.29 355.43 218.90
  Q 363.55 228.55 370.34 239.17
  Q 371.87 241.55 372.07 244.27
  C 372.71 252.63 345.95 250.08 340.43 250.00
  Q 331.68 249.88 328.38 248.55
  C 315.61 243.41 314.22 224.73 312.85 213.37
  A 1.01 1.00 -3.5 0 0 311.85 212.49
  L 301.52 212.51
  A 1.00 1.00 0.0 0 0 300.53 213.63
  Q 301.35 220.22 307.76 222.03
  A 1.00 0.99 16.1 0 1 308.45 223.28
  C 299.74 251.66 261.20 250.69 238.32 250.13
  Q 237.81 250.12 237.49 249.88
  Q 236.67 249.31 237.66 249.15
  C 257.54 245.95 279.75 234.61 285.79 213.78
  A 1.01 1.00 8.0 0 0 284.82 212.50
  L 273.31 212.50
  A 1.00 0.99 -86.5 0 1 272.32 211.37
  Q 275.58 187.35 272.13 163.39
  A 1.00 1.00 0.0 0 1 273.12 162.25
  L 352.20 162.25
  A 1.01 1.00 7.7 0 1 353.17 163.52
  Q 346.68 187.15 350.70 211.33
  A 1.01 1.00 85.4 0 1 349.71 212.50
  L 327.94 212.50
  Q 325.65 212.50 327.21 214.18
  Z
  M 326.77 177.13
  A 0.88 0.88 0.0 0 0 325.89 176.25
  L 297.15 176.25
  A 0.88 0.88 0.0 0 0 296.27 177.13
  L 296.27 179.87
  A 0.88 0.88 0.0 0 0 297.15 180.75
  L 325.89 180.75
  A 0.88 0.88 0.0 0 0 326.77 179.87
  L 326.77 177.13
  Z
  M 326.76 192.49
  A 0.99 0.99 0.0 0 0 325.77 191.50
  L 297.77 191.50
  A 0.99 0.99 0.0 0 0 296.78 192.49
  L 296.78 194.77
  A 0.99 0.99 0.0 0 0 297.77 195.76
  L 325.77 195.76
  A 0.99 0.99 0.0 0 0 326.76 194.77
  L 326.76 192.49
  Z"
/>
<path fill="#6f3278" d="
  M 707.04 240.55
  A 12.28 12.28 0.0 0 1 694.76 252.83
  A 12.28 12.28 0.0 0 1 682.48 240.55
  A 12.28 12.28 0.0 0 1 694.76 228.27
  A 12.28 12.28 0.0 0 1 707.04 240.55
  Z
  M 704.79 240.53
  A 9.87 9.87 0.0 0 0 694.92 230.66
  A 9.87 9.87 0.0 0 0 685.05 240.53
  A 9.87 9.87 0.0 0 0 694.92 250.40
  A 9.87 9.87 0.0 0 0 704.79 240.53
  Z"
/>
<path fill="#6f3278" d="
  M 689.28 234.23
  A 1.00 1.00 0.0 0 1 690.31 233.23
  C 692.90 233.31 696.93 232.60 698.97 234.24
  Q 702.40 237.00 698.73 240.99
  A 1.01 1.00 -39.6 0 0 698.61 242.19
  L 700.77 245.75
  A 1.01 1.01 0.0 0 1 700.21 247.23
  Q 699.47 247.46 698.69 247.19
  C 696.43 246.39 696.54 242.60 694.50 241.89
  Q 694.12 241.76 693.74 241.77
  A 1.00 1.00 0.0 0 0 692.77 242.75
  L 692.68 246.71
  A 1.00 1.00 0.0 0 1 691.65 247.69
  L 690.20 247.64
  A 0.99 0.99 0.0 0 1 689.24 246.64
  L 689.28 234.23
  Z
  M 692.81 236.40
  Q 691.77 240.41 696.16 239.11
  C 698.99 238.26 696.47 234.49 693.40 235.72
  A 0.99 0.98 -4.2 0 0 692.81 236.40
  Z"
/>
</svg>
