<?xml version="1.0" encoding="UTF-8" standalone="no"?>
<!DOCTYPE svg PUBLIC "-//W3C//DTD SVG 1.1//EN" "http://www.w3.org/Graphics/SVG/1.1/DTD/svg11.dtd">
<svg xmlns="http://www.w3.org/2000/svg" version="1.1" viewBox="0 0 5000 5000">
<g>
    <path fill="rgb(var(--fore))" d=" M 821.13 160.13 Q 820.92 161.81 821.92 160.45 Q 828.10 151.99 834.54 143.85 C 853.06 120.39 877.62 107.74 906.89 104.02 Q 940.42 99.75 974.74 107.07 C 1008.55 114.28 1039.42 125.04 1067.86 143.61 Q 1103.13 166.65 1138.56 189.45 Q 1151.93 198.06 1161.41 203.25 C 1191.31 219.61 1223.46 227.72 1257.50 227.60 Q 1298.08 227.45 1337.35 216.66 C 1354.81 211.87 1374.23 202.84 1384.83 188.21 C 1400.22 166.99 1407.58 141.45 1403.78 115.41 C 1402.12 104.01 1398.42 96.19 1386.27 95.21 Q 1385.26 95.12 1385.82 95.97 C 1392.41 105.88 1389.20 122.79 1383.44 131.94 C 1374.77 145.71 1361.32 153.35 1344.99 152.31 C 1322.50 150.87 1298.59 142.87 1291.61 118.53 Q 1284.68 94.34 1294.70 70.46 C 1301.58 54.08 1312.51 44.24 1329.03 37.84 C 1369.03 22.34 1415.01 37.32 1438.39 73.51 C 1452.79 95.80 1462.06 123.28 1461.53 150.06 C 1460.91 180.63 1452.65 213.33 1432.85 237.38 C 1408.58 266.88 1374.45 283.16 1336.50 288.10 Q 1295.46 293.45 1251.50 289.74 C 1205.95 285.90 1164.89 274.06 1127.63 247.85 Q 1111.42 236.44 1096.96 226.18 Q 1094.40 224.37 1094.79 227.48 Q 1097.64 250.48 1087.90 269.65 C 1075.30 294.42 1056.48 310.09 1031.54 321.16 C 989.30 339.90 937.06 339.77 900.08 309.26 C 879.91 292.62 870.84 271.70 874.74 244.74 C 877.73 224.06 888.28 211.35 905.97 201.43 C 926.32 190.01 949.26 185.78 971.74 191.76 C 987.79 196.02 1004.92 207.83 1011.46 223.55 C 1014.94 231.93 1012.55 240.73 1008.26 248.31 A 0.89 0.88 30.6 0 0 1008.57 249.50 C 1015.55 253.80 1024.46 250.58 1031.32 247.42 C 1040.67 243.12 1044.19 235.86 1044.24 225.69 Q 1044.41 193.99 1016.51 177.72 C 994.81 165.06 967.09 156.56 941.75 155.93 C 894.99 154.76 854.18 171.44 827.76 211.27 Q 824.20 216.64 817.95 228.69 C 802.84 257.86 789.06 284.88 759.31 302.97 C 733.79 318.48 704.75 328.05 674.75 331.51 C 632.09 336.42 590.91 334.75 554.82 309.95 C 532.71 294.76 512.12 272.75 500.67 248.07 Q 499.51 245.57 494.29 233.20 C 482.75 205.85 459.35 180.69 427.85 179.47 C 416.43 179.03 402.50 181.84 390.93 182.66 C 380.25 183.41 364.25 182.96 367.99 166.98 C 376.49 130.69 409.11 106.92 445.74 105.34 C 487.57 103.54 526.52 118.83 560.34 142.40 Q 574.97 152.60 585.60 166.91 Q 589.03 171.53 597.55 188.45 Q 608.35 209.92 619.16 231.39 C 632.97 258.84 654.38 272.14 685.01 273.90 C 704.19 275.00 722.85 269.45 740.04 260.52 C 757.53 251.43 765.94 237.57 769.77 218.79 C 776.32 186.75 758.47 156.29 732.20 139.54 C 725.90 135.53 712.99 130.90 706.08 122.18 C 696.65 110.25 702.77 95.54 714.20 87.94 C 727.51 79.09 744.45 72.05 760.28 71.54 C 788.80 70.62 815.73 90.33 821.43 118.67 C 823.90 130.94 822.79 146.83 821.13 160.13 Z" />
    <path fill="rgb(var(--fore))" d=" M 254.56 105.19 C 287.40 108.64 316.57 120.36 337.06 146.47 C 345.44 157.14 350.18 168.35 352.76 181.50 C 355.66 196.29 354.90 212.34 337.24 216.48 C 334.56 217.11 329.59 215.51 326.94 213.92 C 314.25 206.31 312.27 193.57 305.60 181.67 C 290.65 155.00 268.88 140.33 237.60 141.06 Q 191.86 142.13 158.50 173.98 C 148.47 183.56 135.88 198.51 121.25 206.18 Q 107.19 213.56 96.76 203.01 C 87.03 193.17 89.76 175.13 94.62 163.52 C 101.82 146.32 118.40 134.75 134.45 126.71 C 157.29 115.25 181.69 105.49 207.21 103.91 Q 229.29 102.53 254.56 105.19 Z" />
    <path fill="rgb(var(--fore))" d=" M 238.27 937.25 A 0.92 0.92 78.3 0 0 237.48 938.46 C 240.46 947.20 244.10 956.91 245.83 965.09 Q 250.39 986.64 245.24 1007.75 C 231.77 1062.93 191.98 1101.59 135.49 1110.93 C 99.75 1116.85 68.07 1100.85 46.36 1073.12 C 28.19 1049.93 27.39 1021.50 38.90 995.10 C 48.53 973.01 66.67 963.95 90.06 962.20 Q 111.85 960.58 126.19 976.57 C 137.05 988.68 143.06 1007.04 141.65 1023.01 C 140.12 1040.29 123.53 1060.32 106.18 1064.42 Q 104.99 1064.70 105.96 1065.44 C 116.65 1073.63 133.13 1072.24 145.47 1068.92 C 170.33 1062.24 180.72 1044.89 185.85 1020.96 Q 194.58 980.26 182.47 938.75 C 176.72 919.03 169.34 904.63 157.69 887.87 C 143.29 867.13 129.92 845.06 121.90 821.08 C 115.07 800.65 115.33 776.23 119.63 754.92 Q 123.11 737.65 132.74 722.93 Q 148.58 698.72 164.78 674.73 Q 165.64 673.45 164.19 673.96 Q 148.66 679.48 132.22 679.35 C 111.73 679.20 95.99 675.37 85.32 656.23 C 74.57 636.95 69.74 610.77 83.18 591.68 C 91.31 580.13 104.11 569.01 118.43 567.63 C 139.35 565.61 160.72 576.26 163.29 599.01 C 164.59 610.46 162.63 621.23 153.70 628.95 Q 153.18 629.40 153.85 629.53 C 180.92 634.91 195.22 616.44 195.43 591.56 C 195.79 548.74 165.37 510.65 139.73 478.77 Q 116.20 449.52 102.35 417.92 C 90.85 391.68 89.44 360.68 92.54 331.18 C 97.35 285.44 113.63 249.92 146.40 217.55 C 168.67 195.55 195.04 175.87 226.49 171.97 C 247.13 169.41 269.88 169.02 286.83 180.42 C 298.07 187.98 294.61 199.01 284.77 205.04 Q 264.68 217.33 244.56 229.57 Q 233.66 236.19 227.97 240.69 C 202.13 261.10 182.35 292.04 178.25 325.29 C 174.40 356.55 177.54 390.78 185.82 421.48 C 189.85 436.40 195.16 447.93 203.43 462.69 C 216.30 485.66 227.50 509.08 235.06 534.36 C 243.25 561.76 243.29 591.71 237.07 619.45 C 234.32 631.72 229.35 643.09 223.39 654.10 Q 205.86 686.49 188.37 718.90 C 172.00 749.21 165.06 783.17 179.53 815.99 C 193.75 848.24 212.77 875.11 243.49 893.43 C 259.25 902.82 278.53 907.93 296.38 902.24 C 305.75 899.26 307.06 894.03 309.49 885.48 A 1.23 1.23 12.2 0 0 308.49 883.93 C 301.67 882.92 294.20 880.92 289.42 875.38 C 281.87 866.62 280.20 851.42 284.26 840.74 C 289.10 828.02 304.71 817.72 318.12 816.76 C 338.91 815.27 356.66 830.12 362.60 849.08 C 370.13 873.17 362.42 898.51 347.94 918.21 C 323.69 951.20 273.58 951.43 239.41 937.60 Q 238.51 937.23 238.27 937.25 Z" />
    <path fill="rgb(var(--fore))" d=" M 609.08 575.80 C 546.01 566.54 491.80 524.97 452.84 475.82 C 420.36 434.84 389.28 388.79 371.21 338.98 C 360.06 308.25 351.72 245.72 392.13 229.66 C 415.18 220.49 436.13 226.85 449.65 247.59 C 464.49 270.37 471.70 297.98 480.11 323.54 C 500.46 385.49 525.89 449.14 564.79 501.20 C 584.94 528.16 613.27 545.59 647.20 548.28 C 658.65 549.19 668.43 547.63 679.14 543.82 C 682.94 542.46 700.38 534.37 700.51 543.28 C 700.57 547.57 695.28 551.64 692.65 554.45 C 669.83 578.81 640.24 580.38 609.08 575.80 Z" />
    <path fill="rgb(var(--fore))" d=" M 746.44 466.06 Q 745.77 464.58 745.42 465.93 C 742.38 477.74 733.13 486.40 722.78 491.99 C 709.90 498.94 693.75 500.13 679.42 497.07 C 649.23 490.63 630.45 453.53 635.81 424.91 C 644.44 378.96 696.57 361.22 736.82 378.24 C 759.15 387.68 776.08 410.18 784.30 432.70 C 798.83 472.52 803.58 516.44 783.73 555.45 C 774.50 573.58 762.67 591.23 748.37 605.72 C 720.91 633.54 688.30 649.47 650.54 658.90 C 593.97 673.03 537.35 675.55 479.48 668.94 C 430.05 663.30 382.81 641.96 343.08 611.42 C 320.68 594.21 300.86 576.15 283.57 552.44 C 271.21 535.49 260.83 514.18 251.85 493.67 Q 225.68 433.84 219.58 368.45 C 216.08 330.86 220.55 298.48 244.11 268.10 C 253.65 255.80 264.77 243.79 277.93 235.74 Q 294.29 225.73 309.43 235.82 C 324.09 245.58 328.83 260.06 330.15 276.86 C 332.12 301.80 335.77 324.11 340.90 348.74 C 352.07 402.27 377.54 456.26 409.20 501.30 Q 443.59 550.24 492.89 583.54 C 511.04 595.80 531.97 605.13 552.99 609.28 C 568.72 612.39 587.40 614.80 604.58 613.80 C 630.57 612.30 656.37 606.41 680.15 595.99 C 702.49 586.20 722.68 568.53 736.93 549.20 C 751.30 529.71 754.85 500.96 750.15 477.56 Q 748.95 471.63 746.44 466.06 Z" />
    <circle fill="rgb(var(--fore))" cx="309.89" cy="714.82" r="75.80"/>
    <line x1="140" y1="1200" x2="140" y2="3800" style="stroke:rgb(var(--fore));stroke-width:50;stroke-linecap:round" />
    <line x1="200" y1="1250" x2="200" y2="3750" style="stroke:rgb(var(--fore));stroke-width:20;stroke-linecap:round" />
</g>
<g transform="translate(5000,0) scale(-1,1)">
    <path fill="rgb(var(--fore))" d=" M 821.13 160.13 Q 820.92 161.81 821.92 160.45 Q 828.10 151.99 834.54 143.85 C 853.06 120.39 877.62 107.74 906.89 104.02 Q 940.42 99.75 974.74 107.07 C 1008.55 114.28 1039.42 125.04 1067.86 143.61 Q 1103.13 166.65 1138.56 189.45 Q 1151.93 198.06 1161.41 203.25 C 1191.31 219.61 1223.46 227.72 1257.50 227.60 Q 1298.08 227.45 1337.35 216.66 C 1354.81 211.87 1374.23 202.84 1384.83 188.21 C 1400.22 166.99 1407.58 141.45 1403.78 115.41 C 1402.12 104.01 1398.42 96.19 1386.27 95.21 Q 1385.26 95.12 1385.82 95.97 C 1392.41 105.88 1389.20 122.79 1383.44 131.94 C 1374.77 145.71 1361.32 153.35 1344.99 152.31 C 1322.50 150.87 1298.59 142.87 1291.61 118.53 Q 1284.68 94.34 1294.70 70.46 C 1301.58 54.08 1312.51 44.24 1329.03 37.84 C 1369.03 22.34 1415.01 37.32 1438.39 73.51 C 1452.79 95.80 1462.06 123.28 1461.53 150.06 C 1460.91 180.63 1452.65 213.33 1432.85 237.38 C 1408.58 266.88 1374.45 283.16 1336.50 288.10 Q 1295.46 293.45 1251.50 289.74 C 1205.95 285.90 1164.89 274.06 1127.63 247.85 Q 1111.42 236.44 1096.96 226.18 Q 1094.40 224.37 1094.79 227.48 Q 1097.64 250.48 1087.90 269.65 C 1075.30 294.42 1056.48 310.09 1031.54 321.16 C 989.30 339.90 937.06 339.77 900.08 309.26 C 879.91 292.62 870.84 271.70 874.74 244.74 C 877.73 224.06 888.28 211.35 905.97 201.43 C 926.32 190.01 949.26 185.78 971.74 191.76 C 987.79 196.02 1004.92 207.83 1011.46 223.55 C 1014.94 231.93 1012.55 240.73 1008.26 248.31 A 0.89 0.88 30.6 0 0 1008.57 249.50 C 1015.55 253.80 1024.46 250.58 1031.32 247.42 C 1040.67 243.12 1044.19 235.86 1044.24 225.69 Q 1044.41 193.99 1016.51 177.72 C 994.81 165.06 967.09 156.56 941.75 155.93 C 894.99 154.76 854.18 171.44 827.76 211.27 Q 824.20 216.64 817.95 228.69 C 802.84 257.86 789.06 284.88 759.31 302.97 C 733.79 318.48 704.75 328.05 674.75 331.51 C 632.09 336.42 590.91 334.75 554.82 309.95 C 532.71 294.76 512.12 272.75 500.67 248.07 Q 499.51 245.57 494.29 233.20 C 482.75 205.85 459.35 180.69 427.85 179.47 C 416.43 179.03 402.50 181.84 390.93 182.66 C 380.25 183.41 364.25 182.96 367.99 166.98 C 376.49 130.69 409.11 106.92 445.74 105.34 C 487.57 103.54 526.52 118.83 560.34 142.40 Q 574.97 152.60 585.60 166.91 Q 589.03 171.53 597.55 188.45 Q 608.35 209.92 619.16 231.39 C 632.97 258.84 654.38 272.14 685.01 273.90 C 704.19 275.00 722.85 269.45 740.04 260.52 C 757.53 251.43 765.94 237.57 769.77 218.79 C 776.32 186.75 758.47 156.29 732.20 139.54 C 725.90 135.53 712.99 130.90 706.08 122.18 C 696.65 110.25 702.77 95.54 714.20 87.94 C 727.51 79.09 744.45 72.05 760.28 71.54 C 788.80 70.62 815.73 90.33 821.43 118.67 C 823.90 130.94 822.79 146.83 821.13 160.13 Z" />
    <path fill="rgb(var(--fore))" d=" M 254.56 105.19 C 287.40 108.64 316.57 120.36 337.06 146.47 C 345.44 157.14 350.18 168.35 352.76 181.50 C 355.66 196.29 354.90 212.34 337.24 216.48 C 334.56 217.11 329.59 215.51 326.94 213.92 C 314.25 206.31 312.27 193.57 305.60 181.67 C 290.65 155.00 268.88 140.33 237.60 141.06 Q 191.86 142.13 158.50 173.98 C 148.47 183.56 135.88 198.51 121.25 206.18 Q 107.19 213.56 96.76 203.01 C 87.03 193.17 89.76 175.13 94.62 163.52 C 101.82 146.32 118.40 134.75 134.45 126.71 C 157.29 115.25 181.69 105.49 207.21 103.91 Q 229.29 102.53 254.56 105.19 Z" />
    <path fill="rgb(var(--fore))" d=" M 238.27 937.25 A 0.92 0.92 78.3 0 0 237.48 938.46 C 240.46 947.20 244.10 956.91 245.83 965.09 Q 250.39 986.64 245.24 1007.75 C 231.77 1062.93 191.98 1101.59 135.49 1110.93 C 99.75 1116.85 68.07 1100.85 46.36 1073.12 C 28.19 1049.93 27.39 1021.50 38.90 995.10 C 48.53 973.01 66.67 963.95 90.06 962.20 Q 111.85 960.58 126.19 976.57 C 137.05 988.68 143.06 1007.04 141.65 1023.01 C 140.12 1040.29 123.53 1060.32 106.18 1064.42 Q 104.99 1064.70 105.96 1065.44 C 116.65 1073.63 133.13 1072.24 145.47 1068.92 C 170.33 1062.24 180.72 1044.89 185.85 1020.96 Q 194.58 980.26 182.47 938.75 C 176.72 919.03 169.34 904.63 157.69 887.87 C 143.29 867.13 129.92 845.06 121.90 821.08 C 115.07 800.65 115.33 776.23 119.63 754.92 Q 123.11 737.65 132.74 722.93 Q 148.58 698.72 164.78 674.73 Q 165.64 673.45 164.19 673.96 Q 148.66 679.48 132.22 679.35 C 111.73 679.20 95.99 675.37 85.32 656.23 C 74.57 636.95 69.74 610.77 83.18 591.68 C 91.31 580.13 104.11 569.01 118.43 567.63 C 139.35 565.61 160.72 576.26 163.29 599.01 C 164.59 610.46 162.63 621.23 153.70 628.95 Q 153.18 629.40 153.85 629.53 C 180.92 634.91 195.22 616.44 195.43 591.56 C 195.79 548.74 165.37 510.65 139.73 478.77 Q 116.20 449.52 102.35 417.92 C 90.85 391.68 89.44 360.68 92.54 331.18 C 97.35 285.44 113.63 249.92 146.40 217.55 C 168.67 195.55 195.04 175.87 226.49 171.97 C 247.13 169.41 269.88 169.02 286.83 180.42 C 298.07 187.98 294.61 199.01 284.77 205.04 Q 264.68 217.33 244.56 229.57 Q 233.66 236.19 227.97 240.69 C 202.13 261.10 182.35 292.04 178.25 325.29 C 174.40 356.55 177.54 390.78 185.82 421.48 C 189.85 436.40 195.16 447.93 203.43 462.69 C 216.30 485.66 227.50 509.08 235.06 534.36 C 243.25 561.76 243.29 591.71 237.07 619.45 C 234.32 631.72 229.35 643.09 223.39 654.10 Q 205.86 686.49 188.37 718.90 C 172.00 749.21 165.06 783.17 179.53 815.99 C 193.75 848.24 212.77 875.11 243.49 893.43 C 259.25 902.82 278.53 907.93 296.38 902.24 C 305.75 899.26 307.06 894.03 309.49 885.48 A 1.23 1.23 12.2 0 0 308.49 883.93 C 301.67 882.92 294.20 880.92 289.42 875.38 C 281.87 866.62 280.20 851.42 284.26 840.74 C 289.10 828.02 304.71 817.72 318.12 816.76 C 338.91 815.27 356.66 830.12 362.60 849.08 C 370.13 873.17 362.42 898.51 347.94 918.21 C 323.69 951.20 273.58 951.43 239.41 937.60 Q 238.51 937.23 238.27 937.25 Z" />
    <path fill="rgb(var(--fore))" d=" M 609.08 575.80 C 546.01 566.54 491.80 524.97 452.84 475.82 C 420.36 434.84 389.28 388.79 371.21 338.98 C 360.06 308.25 351.72 245.72 392.13 229.66 C 415.18 220.49 436.13 226.85 449.65 247.59 C 464.49 270.37 471.70 297.98 480.11 323.54 C 500.46 385.49 525.89 449.14 564.79 501.20 C 584.94 528.16 613.27 545.59 647.20 548.28 C 658.65 549.19 668.43 547.63 679.14 543.82 C 682.94 542.46 700.38 534.37 700.51 543.28 C 700.57 547.57 695.28 551.64 692.65 554.45 C 669.83 578.81 640.24 580.38 609.08 575.80 Z" />
    <path fill="rgb(var(--fore))" d=" M 746.44 466.06 Q 745.77 464.58 745.42 465.93 C 742.38 477.74 733.13 486.40 722.78 491.99 C 709.90 498.94 693.75 500.13 679.42 497.07 C 649.23 490.63 630.45 453.53 635.81 424.91 C 644.44 378.96 696.57 361.22 736.82 378.24 C 759.15 387.68 776.08 410.18 784.30 432.70 C 798.83 472.52 803.58 516.44 783.73 555.45 C 774.50 573.58 762.67 591.23 748.37 605.72 C 720.91 633.54 688.30 649.47 650.54 658.90 C 593.97 673.03 537.35 675.55 479.48 668.94 C 430.05 663.30 382.81 641.96 343.08 611.42 C 320.68 594.21 300.86 576.15 283.57 552.44 C 271.21 535.49 260.83 514.18 251.85 493.67 Q 225.68 433.84 219.58 368.45 C 216.08 330.86 220.55 298.48 244.11 268.10 C 253.65 255.80 264.77 243.79 277.93 235.74 Q 294.29 225.73 309.43 235.82 C 324.09 245.58 328.83 260.06 330.15 276.86 C 332.12 301.80 335.77 324.11 340.90 348.74 C 352.07 402.27 377.54 456.26 409.20 501.30 Q 443.59 550.24 492.89 583.54 C 511.04 595.80 531.97 605.13 552.99 609.28 C 568.72 612.39 587.40 614.80 604.58 613.80 C 630.57 612.30 656.37 606.41 680.15 595.99 C 702.49 586.20 722.68 568.53 736.93 549.20 C 751.30 529.71 754.85 500.96 750.15 477.56 Q 748.95 471.63 746.44 466.06 Z" />
    <circle fill="rgb(var(--fore))" cx="309.89" cy="714.82" r="75.80"/>
    <line x1="1550" y1="140" x2="3450" y2="140" style="stroke:rgb(var(--fore));stroke-width:50;stroke-linecap:round" />
    <line x1="1600" y1="200" x2="3400" y2="200" style="stroke:rgb(var(--fore));stroke-width:20;stroke-linecap:round" />
</g>
<g transform="translate(0,5000) scale(1,-1)">
    <path fill="rgb(var(--fore))" d=" M 821.13 160.13 Q 820.92 161.81 821.92 160.45 Q 828.10 151.99 834.54 143.85 C 853.06 120.39 877.62 107.74 906.89 104.02 Q 940.42 99.75 974.74 107.07 C 1008.55 114.28 1039.42 125.04 1067.86 143.61 Q 1103.13 166.65 1138.56 189.45 Q 1151.93 198.06 1161.41 203.25 C 1191.31 219.61 1223.46 227.72 1257.50 227.60 Q 1298.08 227.45 1337.35 216.66 C 1354.81 211.87 1374.23 202.84 1384.83 188.21 C 1400.22 166.99 1407.58 141.45 1403.78 115.41 C 1402.12 104.01 1398.42 96.19 1386.27 95.21 Q 1385.26 95.12 1385.82 95.97 C 1392.41 105.88 1389.20 122.79 1383.44 131.94 C 1374.77 145.71 1361.32 153.35 1344.99 152.31 C 1322.50 150.87 1298.59 142.87 1291.61 118.53 Q 1284.68 94.34 1294.70 70.46 C 1301.58 54.08 1312.51 44.24 1329.03 37.84 C 1369.03 22.34 1415.01 37.32 1438.39 73.51 C 1452.79 95.80 1462.06 123.28 1461.53 150.06 C 1460.91 180.63 1452.65 213.33 1432.85 237.38 C 1408.58 266.88 1374.45 283.16 1336.50 288.10 Q 1295.46 293.45 1251.50 289.74 C 1205.95 285.90 1164.89 274.06 1127.63 247.85 Q 1111.42 236.44 1096.96 226.18 Q 1094.40 224.37 1094.79 227.48 Q 1097.64 250.48 1087.90 269.65 C 1075.30 294.42 1056.48 310.09 1031.54 321.16 C 989.30 339.90 937.06 339.77 900.08 309.26 C 879.91 292.62 870.84 271.70 874.74 244.74 C 877.73 224.06 888.28 211.35 905.97 201.43 C 926.32 190.01 949.26 185.78 971.74 191.76 C 987.79 196.02 1004.92 207.83 1011.46 223.55 C 1014.94 231.93 1012.55 240.73 1008.26 248.31 A 0.89 0.88 30.6 0 0 1008.57 249.50 C 1015.55 253.80 1024.46 250.58 1031.32 247.42 C 1040.67 243.12 1044.19 235.86 1044.24 225.69 Q 1044.41 193.99 1016.51 177.72 C 994.81 165.06 967.09 156.56 941.75 155.93 C 894.99 154.76 854.18 171.44 827.76 211.27 Q 824.20 216.64 817.95 228.69 C 802.84 257.86 789.06 284.88 759.31 302.97 C 733.79 318.48 704.75 328.05 674.75 331.51 C 632.09 336.42 590.91 334.75 554.82 309.95 C 532.71 294.76 512.12 272.75 500.67 248.07 Q 499.51 245.57 494.29 233.20 C 482.75 205.85 459.35 180.69 427.85 179.47 C 416.43 179.03 402.50 181.84 390.93 182.66 C 380.25 183.41 364.25 182.96 367.99 166.98 C 376.49 130.69 409.11 106.92 445.74 105.34 C 487.57 103.54 526.52 118.83 560.34 142.40 Q 574.97 152.60 585.60 166.91 Q 589.03 171.53 597.55 188.45 Q 608.35 209.92 619.16 231.39 C 632.97 258.84 654.38 272.14 685.01 273.90 C 704.19 275.00 722.85 269.45 740.04 260.52 C 757.53 251.43 765.94 237.57 769.77 218.79 C 776.32 186.75 758.47 156.29 732.20 139.54 C 725.90 135.53 712.99 130.90 706.08 122.18 C 696.65 110.25 702.77 95.54 714.20 87.94 C 727.51 79.09 744.45 72.05 760.28 71.54 C 788.80 70.62 815.73 90.33 821.43 118.67 C 823.90 130.94 822.79 146.83 821.13 160.13 Z" />
    <path fill="rgb(var(--fore))" d=" M 254.56 105.19 C 287.40 108.64 316.57 120.36 337.06 146.47 C 345.44 157.14 350.18 168.35 352.76 181.50 C 355.66 196.29 354.90 212.34 337.24 216.48 C 334.56 217.11 329.59 215.51 326.94 213.92 C 314.25 206.31 312.27 193.57 305.60 181.67 C 290.65 155.00 268.88 140.33 237.60 141.06 Q 191.86 142.13 158.50 173.98 C 148.47 183.56 135.88 198.51 121.25 206.18 Q 107.19 213.56 96.76 203.01 C 87.03 193.17 89.76 175.13 94.62 163.52 C 101.82 146.32 118.40 134.75 134.45 126.71 C 157.29 115.25 181.69 105.49 207.21 103.91 Q 229.29 102.53 254.56 105.19 Z" />
    <path fill="rgb(var(--fore))" d=" M 238.27 937.25 A 0.92 0.92 78.3 0 0 237.48 938.46 C 240.46 947.20 244.10 956.91 245.83 965.09 Q 250.39 986.64 245.24 1007.75 C 231.77 1062.93 191.98 1101.59 135.49 1110.93 C 99.75 1116.85 68.07 1100.85 46.36 1073.12 C 28.19 1049.93 27.39 1021.50 38.90 995.10 C 48.53 973.01 66.67 963.95 90.06 962.20 Q 111.85 960.58 126.19 976.57 C 137.05 988.68 143.06 1007.04 141.65 1023.01 C 140.12 1040.29 123.53 1060.32 106.18 1064.42 Q 104.99 1064.70 105.96 1065.44 C 116.65 1073.63 133.13 1072.24 145.47 1068.92 C 170.33 1062.24 180.72 1044.89 185.85 1020.96 Q 194.58 980.26 182.47 938.75 C 176.72 919.03 169.34 904.63 157.69 887.87 C 143.29 867.13 129.92 845.06 121.90 821.08 C 115.07 800.65 115.33 776.23 119.63 754.92 Q 123.11 737.65 132.74 722.93 Q 148.58 698.72 164.78 674.73 Q 165.64 673.45 164.19 673.96 Q 148.66 679.48 132.22 679.35 C 111.73 679.20 95.99 675.37 85.32 656.23 C 74.57 636.95 69.74 610.77 83.18 591.68 C 91.31 580.13 104.11 569.01 118.43 567.63 C 139.35 565.61 160.72 576.26 163.29 599.01 C 164.59 610.46 162.63 621.23 153.70 628.95 Q 153.18 629.40 153.85 629.53 C 180.92 634.91 195.22 616.44 195.43 591.56 C 195.79 548.74 165.37 510.65 139.73 478.77 Q 116.20 449.52 102.35 417.92 C 90.85 391.68 89.44 360.68 92.54 331.18 C 97.35 285.44 113.63 249.92 146.40 217.55 C 168.67 195.55 195.04 175.87 226.49 171.97 C 247.13 169.41 269.88 169.02 286.83 180.42 C 298.07 187.98 294.61 199.01 284.77 205.04 Q 264.68 217.33 244.56 229.57 Q 233.66 236.19 227.97 240.69 C 202.13 261.10 182.35 292.04 178.25 325.29 C 174.40 356.55 177.54 390.78 185.82 421.48 C 189.85 436.40 195.16 447.93 203.43 462.69 C 216.30 485.66 227.50 509.08 235.06 534.36 C 243.25 561.76 243.29 591.71 237.07 619.45 C 234.32 631.72 229.35 643.09 223.39 654.10 Q 205.86 686.49 188.37 718.90 C 172.00 749.21 165.06 783.17 179.53 815.99 C 193.75 848.24 212.77 875.11 243.49 893.43 C 259.25 902.82 278.53 907.93 296.38 902.24 C 305.75 899.26 307.06 894.03 309.49 885.48 A 1.23 1.23 12.2 0 0 308.49 883.93 C 301.67 882.92 294.20 880.92 289.42 875.38 C 281.87 866.62 280.20 851.42 284.26 840.74 C 289.10 828.02 304.71 817.72 318.12 816.76 C 338.91 815.27 356.66 830.12 362.60 849.08 C 370.13 873.17 362.42 898.51 347.94 918.21 C 323.69 951.20 273.58 951.43 239.41 937.60 Q 238.51 937.23 238.27 937.25 Z" />
    <path fill="rgb(var(--fore))" d=" M 609.08 575.80 C 546.01 566.54 491.80 524.97 452.84 475.82 C 420.36 434.84 389.28 388.79 371.21 338.98 C 360.06 308.25 351.72 245.72 392.13 229.66 C 415.18 220.49 436.13 226.85 449.65 247.59 C 464.49 270.37 471.70 297.98 480.11 323.54 C 500.46 385.49 525.89 449.14 564.79 501.20 C 584.94 528.16 613.27 545.59 647.20 548.28 C 658.65 549.19 668.43 547.63 679.14 543.82 C 682.94 542.46 700.38 534.37 700.51 543.28 C 700.57 547.57 695.28 551.64 692.65 554.45 C 669.83 578.81 640.24 580.38 609.08 575.80 Z" />
    <path fill="rgb(var(--fore))" d=" M 746.44 466.06 Q 745.77 464.58 745.42 465.93 C 742.38 477.74 733.13 486.40 722.78 491.99 C 709.90 498.94 693.75 500.13 679.42 497.07 C 649.23 490.63 630.45 453.53 635.81 424.91 C 644.44 378.96 696.57 361.22 736.82 378.24 C 759.15 387.68 776.08 410.18 784.30 432.70 C 798.83 472.52 803.58 516.44 783.73 555.45 C 774.50 573.58 762.67 591.23 748.37 605.72 C 720.91 633.54 688.30 649.47 650.54 658.90 C 593.97 673.03 537.35 675.55 479.48 668.94 C 430.05 663.30 382.81 641.96 343.08 611.42 C 320.68 594.21 300.86 576.15 283.57 552.44 C 271.21 535.49 260.83 514.18 251.85 493.67 Q 225.68 433.84 219.58 368.45 C 216.08 330.86 220.55 298.48 244.11 268.10 C 253.65 255.80 264.77 243.79 277.93 235.74 Q 294.29 225.73 309.43 235.82 C 324.09 245.58 328.83 260.06 330.15 276.86 C 332.12 301.80 335.77 324.11 340.90 348.74 C 352.07 402.27 377.54 456.26 409.20 501.30 Q 443.59 550.24 492.89 583.54 C 511.04 595.80 531.97 605.13 552.99 609.28 C 568.72 612.39 587.40 614.80 604.58 613.80 C 630.57 612.30 656.37 606.41 680.15 595.99 C 702.49 586.20 722.68 568.53 736.93 549.20 C 751.30 529.71 754.85 500.96 750.15 477.56 Q 748.95 471.63 746.44 466.06 Z" />
    <circle fill="rgb(var(--fore))" cx="309.89" cy="714.82" r="75.80"/>
    <line x1="1550" y1="140" x2="3450" y2="140" style="stroke:rgb(var(--fore));stroke-width:50;stroke-linecap:round" />
    <line x1="1600" y1="200" x2="3400" y2="200" style="stroke:rgb(var(--fore));stroke-width:20;stroke-linecap:round" />
</g>
<g transform="translate(5000,5000) scale(-1,-1)">
    <path fill="rgb(var(--fore))" d=" M 821.13 160.13 Q 820.92 161.81 821.92 160.45 Q 828.10 151.99 834.54 143.85 C 853.06 120.39 877.62 107.74 906.89 104.02 Q 940.42 99.75 974.74 107.07 C 1008.55 114.28 1039.42 125.04 1067.86 143.61 Q 1103.13 166.65 1138.56 189.45 Q 1151.93 198.06 1161.41 203.25 C 1191.31 219.61 1223.46 227.72 1257.50 227.60 Q 1298.08 227.45 1337.35 216.66 C 1354.81 211.87 1374.23 202.84 1384.83 188.21 C 1400.22 166.99 1407.58 141.45 1403.78 115.41 C 1402.12 104.01 1398.42 96.19 1386.27 95.21 Q 1385.26 95.12 1385.82 95.97 C 1392.41 105.88 1389.20 122.79 1383.44 131.94 C 1374.77 145.71 1361.32 153.35 1344.99 152.31 C 1322.50 150.87 1298.59 142.87 1291.61 118.53 Q 1284.68 94.34 1294.70 70.46 C 1301.58 54.08 1312.51 44.24 1329.03 37.84 C 1369.03 22.34 1415.01 37.32 1438.39 73.51 C 1452.79 95.80 1462.06 123.28 1461.53 150.06 C 1460.91 180.63 1452.65 213.33 1432.85 237.38 C 1408.58 266.88 1374.45 283.16 1336.50 288.10 Q 1295.46 293.45 1251.50 289.74 C 1205.95 285.90 1164.89 274.06 1127.63 247.85 Q 1111.42 236.44 1096.96 226.18 Q 1094.40 224.37 1094.79 227.48 Q 1097.64 250.48 1087.90 269.65 C 1075.30 294.42 1056.48 310.09 1031.54 321.16 C 989.30 339.90 937.06 339.77 900.08 309.26 C 879.91 292.62 870.84 271.70 874.74 244.74 C 877.73 224.06 888.28 211.35 905.97 201.43 C 926.32 190.01 949.26 185.78 971.74 191.76 C 987.79 196.02 1004.92 207.83 1011.46 223.55 C 1014.94 231.93 1012.55 240.73 1008.26 248.31 A 0.89 0.88 30.6 0 0 1008.57 249.50 C 1015.55 253.80 1024.46 250.58 1031.32 247.42 C 1040.67 243.12 1044.19 235.86 1044.24 225.69 Q 1044.41 193.99 1016.51 177.72 C 994.81 165.06 967.09 156.56 941.75 155.93 C 894.99 154.76 854.18 171.44 827.76 211.27 Q 824.20 216.64 817.95 228.69 C 802.84 257.86 789.06 284.88 759.31 302.97 C 733.79 318.48 704.75 328.05 674.75 331.51 C 632.09 336.42 590.91 334.75 554.82 309.95 C 532.71 294.76 512.12 272.75 500.67 248.07 Q 499.51 245.57 494.29 233.20 C 482.75 205.85 459.35 180.69 427.85 179.47 C 416.43 179.03 402.50 181.84 390.93 182.66 C 380.25 183.41 364.25 182.96 367.99 166.98 C 376.49 130.69 409.11 106.92 445.74 105.34 C 487.57 103.54 526.52 118.83 560.34 142.40 Q 574.97 152.60 585.60 166.91 Q 589.03 171.53 597.55 188.45 Q 608.35 209.92 619.16 231.39 C 632.97 258.84 654.38 272.14 685.01 273.90 C 704.19 275.00 722.85 269.45 740.04 260.52 C 757.53 251.43 765.94 237.57 769.77 218.79 C 776.32 186.75 758.47 156.29 732.20 139.54 C 725.90 135.53 712.99 130.90 706.08 122.18 C 696.65 110.25 702.77 95.54 714.20 87.94 C 727.51 79.09 744.45 72.05 760.28 71.54 C 788.80 70.62 815.73 90.33 821.43 118.67 C 823.90 130.94 822.79 146.83 821.13 160.13 Z" />
    <path fill="rgb(var(--fore))" d=" M 254.56 105.19 C 287.40 108.64 316.57 120.36 337.06 146.47 C 345.44 157.14 350.18 168.35 352.76 181.50 C 355.66 196.29 354.90 212.34 337.24 216.48 C 334.56 217.11 329.59 215.51 326.94 213.92 C 314.25 206.31 312.27 193.57 305.60 181.67 C 290.65 155.00 268.88 140.33 237.60 141.06 Q 191.86 142.13 158.50 173.98 C 148.47 183.56 135.88 198.51 121.25 206.18 Q 107.19 213.56 96.76 203.01 C 87.03 193.17 89.76 175.13 94.62 163.52 C 101.82 146.32 118.40 134.75 134.45 126.71 C 157.29 115.25 181.69 105.49 207.21 103.91 Q 229.29 102.53 254.56 105.19 Z" />
    <path fill="rgb(var(--fore))" d=" M 238.27 937.25 A 0.92 0.92 78.3 0 0 237.48 938.46 C 240.46 947.20 244.10 956.91 245.83 965.09 Q 250.39 986.64 245.24 1007.75 C 231.77 1062.93 191.98 1101.59 135.49 1110.93 C 99.75 1116.85 68.07 1100.85 46.36 1073.12 C 28.19 1049.93 27.39 1021.50 38.90 995.10 C 48.53 973.01 66.67 963.95 90.06 962.20 Q 111.85 960.58 126.19 976.57 C 137.05 988.68 143.06 1007.04 141.65 1023.01 C 140.12 1040.29 123.53 1060.32 106.18 1064.42 Q 104.99 1064.70 105.96 1065.44 C 116.65 1073.63 133.13 1072.24 145.47 1068.92 C 170.33 1062.24 180.72 1044.89 185.85 1020.96 Q 194.58 980.26 182.47 938.75 C 176.72 919.03 169.34 904.63 157.69 887.87 C 143.29 867.13 129.92 845.06 121.90 821.08 C 115.07 800.65 115.33 776.23 119.63 754.92 Q 123.11 737.65 132.74 722.93 Q 148.58 698.72 164.78 674.73 Q 165.64 673.45 164.19 673.96 Q 148.66 679.48 132.22 679.35 C 111.73 679.20 95.99 675.37 85.32 656.23 C 74.57 636.95 69.74 610.77 83.18 591.68 C 91.31 580.13 104.11 569.01 118.43 567.63 C 139.35 565.61 160.72 576.26 163.29 599.01 C 164.59 610.46 162.63 621.23 153.70 628.95 Q 153.18 629.40 153.85 629.53 C 180.92 634.91 195.22 616.44 195.43 591.56 C 195.79 548.74 165.37 510.65 139.73 478.77 Q 116.20 449.52 102.35 417.92 C 90.85 391.68 89.44 360.68 92.54 331.18 C 97.35 285.44 113.63 249.92 146.40 217.55 C 168.67 195.55 195.04 175.87 226.49 171.97 C 247.13 169.41 269.88 169.02 286.83 180.42 C 298.07 187.98 294.61 199.01 284.77 205.04 Q 264.68 217.33 244.56 229.57 Q 233.66 236.19 227.97 240.69 C 202.13 261.10 182.35 292.04 178.25 325.29 C 174.40 356.55 177.54 390.78 185.82 421.48 C 189.85 436.40 195.16 447.93 203.43 462.69 C 216.30 485.66 227.50 509.08 235.06 534.36 C 243.25 561.76 243.29 591.71 237.07 619.45 C 234.32 631.72 229.35 643.09 223.39 654.10 Q 205.86 686.49 188.37 718.90 C 172.00 749.21 165.06 783.17 179.53 815.99 C 193.75 848.24 212.77 875.11 243.49 893.43 C 259.25 902.82 278.53 907.93 296.38 902.24 C 305.75 899.26 307.06 894.03 309.49 885.48 A 1.23 1.23 12.2 0 0 308.49 883.93 C 301.67 882.92 294.20 880.92 289.42 875.38 C 281.87 866.62 280.20 851.42 284.26 840.74 C 289.10 828.02 304.71 817.72 318.12 816.76 C 338.91 815.27 356.66 830.12 362.60 849.08 C 370.13 873.17 362.42 898.51 347.94 918.21 C 323.69 951.20 273.58 951.43 239.41 937.60 Q 238.51 937.23 238.27 937.25 Z" />
    <path fill="rgb(var(--fore))" d=" M 609.08 575.80 C 546.01 566.54 491.80 524.97 452.84 475.82 C 420.36 434.84 389.28 388.79 371.21 338.98 C 360.06 308.25 351.72 245.72 392.13 229.66 C 415.18 220.49 436.13 226.85 449.65 247.59 C 464.49 270.37 471.70 297.98 480.11 323.54 C 500.46 385.49 525.89 449.14 564.79 501.20 C 584.94 528.16 613.27 545.59 647.20 548.28 C 658.65 549.19 668.43 547.63 679.14 543.82 C 682.94 542.46 700.38 534.37 700.51 543.28 C 700.57 547.57 695.28 551.64 692.65 554.45 C 669.83 578.81 640.24 580.38 609.08 575.80 Z" />
    <path fill="rgb(var(--fore))" d=" M 746.44 466.06 Q 745.77 464.58 745.42 465.93 C 742.38 477.74 733.13 486.40 722.78 491.99 C 709.90 498.94 693.75 500.13 679.42 497.07 C 649.23 490.63 630.45 453.53 635.81 424.91 C 644.44 378.96 696.57 361.22 736.82 378.24 C 759.15 387.68 776.08 410.18 784.30 432.70 C 798.83 472.52 803.58 516.44 783.73 555.45 C 774.50 573.58 762.67 591.23 748.37 605.72 C 720.91 633.54 688.30 649.47 650.54 658.90 C 593.97 673.03 537.35 675.55 479.48 668.94 C 430.05 663.30 382.81 641.96 343.08 611.42 C 320.68 594.21 300.86 576.15 283.57 552.44 C 271.21 535.49 260.83 514.18 251.85 493.67 Q 225.68 433.84 219.58 368.45 C 216.08 330.86 220.55 298.48 244.11 268.10 C 253.65 255.80 264.77 243.79 277.93 235.74 Q 294.29 225.73 309.43 235.82 C 324.09 245.58 328.83 260.06 330.15 276.86 C 332.12 301.80 335.77 324.11 340.90 348.74 C 352.07 402.27 377.54 456.26 409.20 501.30 Q 443.59 550.24 492.89 583.54 C 511.04 595.80 531.97 605.13 552.99 609.28 C 568.72 612.39 587.40 614.80 604.58 613.80 C 630.57 612.30 656.37 606.41 680.15 595.99 C 702.49 586.20 722.68 568.53 736.93 549.20 C 751.30 529.71 754.85 500.96 750.15 477.56 Q 748.95 471.63 746.44 466.06 Z" />
    <circle fill="rgb(var(--fore))" cx="309.89" cy="714.82" r="75.80"/>
    <line x1="140" y1="1200" x2="140" y2="3800" style="stroke:rgb(var(--fore));stroke-width:50;stroke-linecap:round" />
    <line x1="200" y1="1250" x2="200" y2="3750" style="stroke:rgb(var(--fore));stroke-width:20;stroke-linecap:round" />
</g>
</svg>
