<?xml version="1.0" encoding="UTF-8" standalone="no"?>
<!DOCTYPE svg PUBLIC "-//W3C//DTD SVG 1.1//EN" "http://www.w3.org/Graphics/SVG/1.1/DTD/svg11.dtd">
<svg xmlns="http://www.w3.org/2000/svg" version="1.1" viewBox="0 0 2600 800">
<path fill="#774411" d="
  M 245.20 314.09
  Q 243.54 315.25 245.50 315.25
  L 1514.25 315.25
  A 1.29 1.26 -18.2 0 1 1515.27 315.75
  C 1518.20 319.63 1529.82 332.11 1530.03 336.16
  A 1.77 1.77 88.6 0 1 1528.26 338.02
  Q 942.50 337.56 356.75 337.87
  Q 356.49 337.87 356.28 337.78
  Q 355.67 337.50 355.48 337.50
  C 296.73 337.50 237.74 336.54 179.02 337.82
  Q 159.68 338.25 142.31 334.18
  C 95.89 323.32 58.45 285.41 48.26 238.99
  C 39.48 199.02 49.85 157.63 77.06 126.97
  C 102.96 97.79 139.48 83.26 178.40 84.16
  Q 193.11 84.50 193.24 84.50
  Q 394.37 84.50 595.50 84.50
  Q 595.70 84.50 595.84 84.55
  Q 596.32 84.75 596.38 84.75
  Q 898.31 84.75 1200.25 84.75
  Q 1200.45 84.75 1200.59 84.80
  Q 1201.07 85.00 1201.12 85.00
  L 1513.11 85.00
  A 2.97 2.96 69.9 0 1 1515.38 86.06
  C 1518.66 89.96 1529.62 101.51 1530.27 105.45
  Q 1530.65 107.75 1528.25 107.75
  L 246.00 107.75
  Q 245.15 107.75 245.79 108.22
  C 273.26 128.30 291.62 157.87 296.89 191.56
  C 304.26 238.69 283.87 287.04 245.20 314.09
  Z
  M 86.26 142.65
  Q 86.05 142.78 85.88 142.96
  Q 85.49 143.36 86.07 143.30
  Q 93.63 142.51 106.25 142.32
  Q 179.85 141.23 230.44 141.58
  C 243.84 141.67 242.31 155.65 241.70 166.00
  Q 241.67 166.49 241.94 166.09
  C 247.34 158.25 256.14 155.47 265.26 155.47
  Q 265.78 155.46 265.51 155.03
  C 225.70 90.34 135.92 82.87 86.99 142.07
  Q 86.80 142.30 86.26 142.65
  Z
  M 77.38 156.27
  C 53.48 196.24 59.55 248.42 90.19 283.11
  A 0.71 0.68 -31.1 0 0 90.98 283.29
  C 92.28 282.75 93.44 282.24 94.89 282.13
  Q 112.11 280.77 131.36 280.42
  A 3.66 3.64 22.8 0 0 133.81 279.43
  C 135.21 278.13 133.28 276.46 131.98 275.75
  C 126.58 272.80 120.98 269.91 116.29 266.30
  Q 91.96 247.54 84.87 218.09
  C 80.10 198.24 79.45 176.85 78.36 156.51
  Q 78.27 154.77 77.38 156.27
  Z
  M 145.63 241.80
  Q 149.51 237.08 153.38 232.41
  C 160.90 223.36 159.43 208.80 156.56 197.85
  C 154.40 189.59 152.81 181.64 153.02 173.05
  A 1.21 1.17 70.6 0 1 153.40 172.22
  C 158.75 167.40 165.07 163.17 171.97 167.30
  Q 173.01 167.92 173.57 170.46
  A 0.56 0.51 78.4 0 0 174.16 170.89
  C 176.99 170.40 178.33 168.04 177.24 165.30
  C 173.58 156.17 161.24 156.04 154.36 161.01
  C 150.00 164.16 148.28 167.00 142.55 168.26
  C 137.60 169.35 142.84 172.84 144.23 174.24
  C 146.97 177.01 146.85 181.08 146.93 185.00
  Q 147.37 208.15 147.09 219.51
  C 146.87 228.38 145.93 235.08 139.43 240.54
  C 134.80 244.42 138.82 247.66 142.33 249.82
  A 0.86 0.84 -44.4 0 0 143.20 249.82
  Q 151.86 244.82 156.67 244.11
  C 168.29 242.38 176.87 251.68 188.71 249.15
  C 196.52 247.48 203.69 242.50 205.76 234.60
  C 213.02 206.91 167.32 201.86 171.29 223.82
  C 173.15 234.11 186.99 231.11 185.83 225.09
  A 0.60 0.43 -10.6 0 0 185.16 224.78
  Q 179.96 225.82 179.25 220.44
  A 1.26 0.61 -43.8 0 1 179.55 219.63
  C 184.20 213.38 193.24 215.94 197.69 221.05
  Q 200.08 223.79 201.15 228.16
  C 204.48 241.76 188.51 246.95 178.78 241.71
  C 174.95 239.65 171.18 237.03 166.99 236.43
  C 157.95 235.14 153.36 237.96 145.76 241.95
  Q 145.31 242.19 145.63 241.80
  Z
  M 251.32 174.76
  C 245.70 187.71 254.72 198.53 268.11 197.09
  Q 270.60 196.83 272.36 195.14
  C 279.02 188.81 277.40 180.72 273.82 172.89
  C 270.01 164.54 254.53 167.36 251.32 174.76
  Z
  M 256.14 207.18
  Q 242.53 202.55 238.95 188.50
  Q 238.77 187.80 238.63 188.52
  L 232.82 219.27
  Q 232.65 220.17 233.48 219.78
  Q 245.30 214.22 256.46 207.43
  Q 256.60 207.34 256.14 207.18
  Z
  M 280.55 206.16
  Q 264.54 218.56 247.20 228.17
  C 244.54 229.64 242.25 231.48 240.13 233.43
  A 0.94 0.93 -40.4 0 0 240.02 234.70
  Q 244.03 239.77 249.30 243.44
  C 260.26 251.07 238.63 264.17 229.72 251.80
  Q 227.40 248.59 225.25 245.39
  Q 224.79 244.71 224.47 245.47
  C 219.70 256.99 212.60 264.81 201.97 273.33
  C 200.54 274.48 198.94 275.18 197.33 275.91
  Q 196.00 276.51 197.40 276.89
  C 211.53 280.75 228.02 280.44 242.64 281.07
  C 246.00 281.21 248.86 282.18 251.70 283.59
  A 1.20 1.13 33.1 0 0 253.10 283.34
  Q 281.69 250.36 280.73 206.25
  Q 280.72 206.02 280.55 206.16
  Z
  M 102.42 295.10
  C 143.18 327.22 197.94 328.11 239.19 296.44
  Q 240.61 295.34 238.75 295.46
  Q 170.71 299.90 102.75 294.46
  Q 101.48 294.36 102.42 295.10
  Z"
/>
<path fill="#f8c4a2" d="
  M 86.99 142.07
  C 135.92 82.87 225.70 90.34 265.51 155.03
  Q 265.78 155.46 265.26 155.47
  C 256.14 155.47 247.34 158.25 241.94 166.09
  Q 241.67 166.49 241.70 166.00
  C 242.31 155.65 243.84 141.67 230.44 141.58
  Q 179.85 141.23 106.25 142.32
  Q 93.63 142.51 86.07 143.30
  Q 85.49 143.36 85.88 142.96
  Q 86.05 142.78 86.26 142.65
  Q 86.80 142.30 86.99 142.07
  Z"
/>
<path fill="#774411" d="
  M 990.07 209.54
  L 977.13 224.13
  A 1.41 0.53 -54.0 0 1 976.25 224.71
  L 956.75 224.52
  Q 956.01 224.51 956.59 223.97
  C 969.31 212.23 975.32 206.30 979.59 190.82
  C 984.88 171.71 985.24 154.78 983.73 136.14
  A 0.99 0.97 82.7 0 1 984.53 135.08
  Q 997.43 133.01 1008.59 139.79
  A 0.88 0.55 -80.3 0 1 1008.88 140.50
  L 1008.44 156.76
  A 0.56 0.43 -1.3 0 0 1009.03 157.19
  C 1029.37 156.50 1049.81 155.09 1070.14 156.09
  A 0.62 0.61 86.5 0 1 1070.72 156.61
  C 1072.09 165.74 1068.64 170.18 1061.15 175.74
  A 1.46 1.19 23.6 0 1 1060.25 175.99
  L 1055.50 175.78
  A 0.70 0.58 -85.1 0 0 1054.88 176.41
  C 1052.14 201.02 1046.14 229.48 1032.23 250.06
  A 0.68 0.67 43.0 0 0 1032.26 250.86
  C 1040.01 260.40 1051.44 270.63 1064.38 271.03
  A 1.52 1.46 -85.4 0 1 1065.78 272.74
  Q 1064.35 284.10 1065.01 295.49
  A 1.16 1.14 -83.4 0 1 1063.54 296.68
  C 1057.96 294.95 1051.81 293.26 1046.70 291.01
  Q 1028.70 283.06 1014.80 268.92
  A 0.62 0.61 46.7 0 0 1013.96 268.89
  C 1000.45 280.78 983.67 287.31 966.48 291.88
  A 1.13 0.80 52.5 0 1 965.58 291.60
  Q 959.02 285.84 962.01 277.11
  A 0.95 0.83 0.7 0 1 962.67 276.55
  C 977.23 273.08 991.61 264.08 1002.93 254.40
  A 1.15 1.14 -33.6 0 0 1003.21 253.03
  C 997.03 240.64 994.23 228.36 990.54 209.81
  Q 990.41 209.16 990.07 209.54
  Z
  M 1005.48 174.51
  C 1004.88 176.95 1004.19 179.06 1004.57 181.61
  C 1006.99 197.83 1010.31 215.64 1018.02 230.28
  Q 1018.39 230.98 1018.66 230.22
  Q 1028.27 203.22 1028.56 174.51
  A 0.56 0.51 0.0 0 0 1028.00 174.00
  L 1006.00 174.00
  A 0.67 0.49 -80.7 0 0 1005.48 174.51
  Z"
/>
<path fill="#774411" d="
  M 949.68 197.81
  Q 956.18 198.01 962.03 195.35
  A 0.99 0.67 -34.1 0 1 962.91 195.35
  L 970.37 200.86
  A 0.51 0.43 -57.2 0 1 970.45 201.48
  Q 963.51 213.71 951.89 221.61
  A 2.61 1.74 -24.4 0 0 950.71 223.50
  L 951.30 234.50
  A 0.70 0.55 -1.8 0 0 952.00 235.02
  L 974.75 234.69
  A 1.37 0.87 -15.9 0 1 975.59 234.94
  Q 983.66 242.08 984.48 252.98
  A 0.49 0.47 88.8 0 1 984.00 253.51
  L 952.93 252.46
  A 0.67 0.54 1.0 0 0 952.24 253.00
  Q 952.45 270.65 950.88 288.24
  A 1.14 1.10 -18.4 0 1 950.49 288.99
  L 940.81 297.55
  A 1.17 1.07 -60.3 0 1 939.94 297.83
  C 928.15 296.58 916.40 295.83 904.74 293.52
  Q 899.44 292.47 893.52 288.90
  A 1.03 0.70 19.0 0 1 893.03 288.25
  L 892.13 278.18
  Q 891.94 276.04 894.00 276.46
  C 898.75 277.41 924.54 282.78 923.56 273.53
  Q 922.45 262.92 922.85 253.40
  A 1.59 1.42 1.2 0 0 921.25 251.91
  L 888.25 251.93
  A 0.89 0.88 -12.7 0 1 887.45 251.43
  Q 883.81 243.90 884.01 235.49
  A 0.81 0.74 -89.2 0 1 884.75 234.70
  L 923.50 235.05
  A 0.56 0.52 2.7 0 0 924.07 234.57
  L 925.07 223.01
  A 1.28 0.46 -28.3 0 1 925.74 222.26
  L 943.69 210.44
  Q 944.73 209.76 943.50 209.78
  L 933.50 209.95
  A 1.68 1.64 -62.2 0 0 932.60 210.24
  C 920.31 218.43 909.51 225.46 894.18 226.22
  Q 889.46 226.45 884.73 226.79
  A 1.39 1.30 -2.1 0 1 883.25 225.50
  L 883.24 218.50
  A 1.18 1.15 78.7 0 1 883.94 217.42
  Q 905.97 207.95 925.41 193.90
  Q 926.52 193.10 925.00 193.05
  Q 910.24 192.58 895.50 193.44
  A 0.96 0.79 -14.6 0 1 894.68 193.06
  L 886.81 180.19
  A 0.39 0.37 -23.3 0 1 887.05 179.63
  C 890.38 178.72 894.61 179.04 896.99 178.86
  Q 907.24 178.10 917.51 177.77
  A 0.76 0.51 -1.1 0 0 918.25 177.25
  L 918.24 165.75
  A 1.26 1.01 0.6 0 0 917.00 164.74
  Q 905.11 164.64 893.25 165.57
  A 1.19 1.07 -2.5 0 1 891.96 164.51
  L 892.00 152.76
  A 0.90 0.54 -6.5 0 1 892.77 152.17
  Q 905.08 150.20 917.51 149.32
  A 0.57 0.53 87.8 0 0 918.00 148.75
  L 918.00 136.75
  A 0.91 0.89 -2.8 0 1 918.82 135.86
  Q 932.41 134.56 945.99 136.19
  A 1.33 1.27 -86.3 0 1 947.10 137.51
  L 946.95 150.75
  A 0.63 0.61 -83.6 0 0 947.42 151.36
  L 955.74 153.29
  A 1.06 0.90 -73.6 0 0 956.84 152.57
  L 961.23 139.53
  A 0.67 0.53 16.9 0 1 962.01 139.22
  L 981.20 144.76
  A 1.40 1.33 16.2 0 1 982.17 146.43
  Q 977.16 163.96 966.44 178.71
  Q 966.09 179.19 966.68 179.24
  L 971.86 179.72
  A 1.59 1.44 0.1 0 1 973.28 181.01
  L 974.56 192.25
  A 1.27 1.23 -2.2 0 1 973.26 193.61
  L 954.75 193.19
  A 1.17 1.08 -63.4 0 0 953.98 193.48
  L 949.57 197.31
  Q 949.01 197.79 949.68 197.81
  Z
  M 945.91 165.74
  L 945.77 173.75
  Q 945.76 174.89 946.38 173.89
  L 950.84 166.82
  A 0.61 0.41 -65.0 0 0 950.70 165.97
  L 946.49 165.31
  A 0.50 0.45 5.4 0 0 945.91 165.74
  Z"
/>
<path fill="#774411" d="
  M 1136.68 215.95
  C 1146.69 216.05 1152.78 214.91 1155.74 226.58
  Q 1156.77 230.65 1156.25 232.70
  C 1154.84 238.34 1140.75 236.79 1136.16 236.88
  A 0.54 0.53 0.6 0 0 1135.63 237.39
  C 1135.05 249.55 1135.97 261.39 1135.88 274.38
  C 1135.78 287.43 1132.41 296.60 1117.54 297.23
  C 1104.66 297.78 1088.65 297.46 1080.07 289.11
  A 1.02 0.99 27.2 0 1 1079.78 288.26
  C 1080.47 283.12 1083.48 279.42 1086.30 275.30
  A 1.02 1.01 -56.3 0 1 1087.69 275.02
  Q 1093.09 278.53 1099.52 279.01
  C 1107.21 279.59 1106.63 268.97 1106.17 262.81
  Q 1105.29 250.92 1104.87 237.11
  A 1.21 1.20 0.3 0 0 1103.70 235.94
  Q 1097.35 235.71 1090.26 235.10
  Q 1085.18 234.66 1082.95 229.56
  C 1080.22 223.31 1074.81 215.00 1086.37 215.00
  Q 1095.28 215.00 1103.96 215.00
  A 0.80 0.74 -0.4 0 0 1104.76 214.25
  L 1104.16 175.69
  A 0.73 0.73 0.4 0 0 1103.45 174.97
  Q 1097.03 174.78 1090.31 174.41
  C 1083.69 174.04 1080.60 164.58 1079.40 159.83
  C 1077.95 154.11 1084.06 153.84 1088.25 154.08
  Q 1095.87 154.52 1103.49 153.99
  A 0.54 0.53 87.7 0 0 1103.98 153.45
  C 1103.92 148.54 1101.96 135.35 1109.83 135.38
  Q 1121.20 135.42 1129.00 136.51
  C 1137.32 137.68 1135.56 148.25 1135.79 154.25
  A 0.75 0.74 -89.6 0 0 1136.50 154.98
  L 1146.75 155.47
  Q 1149.55 155.60 1151.16 158.05
  C 1154.69 163.44 1163.01 174.96 1149.06 175.16
  Q 1142.45 175.26 1135.82 175.37
  A 0.52 0.39 0.5 0 0 1135.30 175.75
  L 1135.00 214.24
  A 1.69 1.69 -89.5 0 0 1136.68 215.95
  Z"
/>
<path fill="#774411" d="
  M 1162.54 155.46
  C 1154.23 155.07 1151.81 139.56 1161.57 139.72
  C 1195.21 140.26 1232.45 140.19 1261.25 140.94
  Q 1265.09 141.04 1265.28 144.96
  C 1265.43 148.32 1259.83 153.43 1257.59 155.71
  A 1.16 1.15 -67.2 0 1 1256.74 156.06
  Q 1223.88 155.50 1191.00 155.94
  Q 1176.76 156.13 1162.54 155.46
  Z"
/>
<path fill="#774411" d="
  M 658.64 238.08
  C 657.15 254.35 657.96 271.46 658.02 287.86
  A 0.89 0.77 -90.0 0 1 657.25 288.75
  L 624.00 288.75
  A 0.75 0.75 0.0 0 1 623.25 288.00
  L 623.25 141.50
  A 1.29 1.20 0.7 0 1 624.57 140.30
  L 658.25 141.03
  A 1.00 0.88 -89.1 0 1 659.11 142.04
  Q 658.67 174.86 658.97 208.18
  C 658.98 210.26 659.60 212.32 660.02 214.35
  A 2.16 2.15 -3.5 0 0 661.98 216.07
  C 681.49 217.49 701.18 216.16 720.75 216.55
  Q 724.65 216.63 728.52 217.23
  Q 731.47 217.68 730.52 220.76
  C 725.87 235.86 716.60 235.36 703.09 235.24
  Q 682.58 235.06 662.05 234.98
  Q 658.93 234.97 658.64 238.08
  Z"
/>
<path fill="#774411" d="
  M 524.25 212.60
  Q 496.35 216.02 468.25 214.25
  A 1.52 1.33 -88.4 0 1 467.00 212.74
  L 467.00 201.74
  A 1.51 1.44 0.8 0 1 468.55 200.30
  C 492.02 200.92 513.46 198.33 535.05 187.30
  C 554.62 177.31 559.30 161.13 565.36 141.76
  A 0.69 0.65 7.5 0 1 566.00 141.30
  L 596.24 140.43
  A 1.21 1.06 1.4 0 1 597.49 141.57
  C 595.46 164.16 576.67 189.14 558.44 200.76
  A 0.90 0.86 74.1 0 0 558.03 201.53
  C 558.08 203.77 557.74 206.17 557.74 208.16
  Q 557.77 245.63 557.73 283.09
  C 557.73 284.82 558.36 287.22 557.44 289.29
  A 0.77 0.75 -78.0 0 1 556.75 289.75
  L 526.00 289.80
  A 1.31 1.25 89.8 0 1 524.75 288.50
  L 524.75 213.00
  A 0.45 0.41 -3.7 0 0 524.25 212.60
  Z"
/>
<path fill="#774411" d="
  M 732.67 288.80
  Q 730.25 287.39 730.22 284.59
  Q 730.15 276.84 732.54 268.51
  C 735.12 259.53 743.67 260.12 751.35 260.26
  Q 768.93 260.59 784.00 258.99
  C 812.22 256.00 833.00 228.00 839.00 202.00
  C 841.83 189.76 842.89 178.54 844.42 166.68
  C 845.89 155.37 846.32 148.01 853.70 141.74
  C 857.15 138.82 875.28 142.13 870.09 149.45
  Q 866.26 154.85 866.16 161.94
  Q 866.02 170.95 864.37 181.52
  Q 859.65 211.84 851.81 235.02
  C 841.40 265.83 810.99 286.12 778.73 288.47
  Q 755.92 290.14 738.56 289.84
  C 736.30 289.80 734.74 290.00 732.67 288.80
  Z"
/>
<path fill="#774411" d="
  M 446.83 258.58
  C 431.91 273.03 412.09 284.75 391.25 287.49
  C 372.96 289.91 353.88 289.47 335.21 288.87
  A 1.12 1.00 -89.2 0 1 334.24 287.75
  L 334.21 141.75
  A 0.84 0.79 89.6 0 1 335.00 140.90
  L 366.50 140.95
  A 1.30 1.25 -90.0 0 1 367.75 142.25
  L 367.75 263.00
  A 1.32 1.18 26.5 0 0 368.08 263.83
  C 374.51 271.10 391.74 268.58 400.40 266.53
  C 425.42 260.61 437.78 245.24 450.36 223.82
  A 0.88 0.63 -69.9 0 1 451.00 223.38
  L 469.50 223.60
  A 0.44 0.38 -74.9 0 1 469.80 224.23
  C 463.77 236.80 456.73 249.01 446.83 258.58
  Z"
/>
<path fill="#774411" d="
  M 739.34 151.27
  A 2.40 2.03 -66.3 0 1 741.00 150.46
  L 804.00 150.21
  A 0.51 0.43 -88.1 0 1 804.42 150.75
  Q 803.51 164.43 792.40 172.10
  A 1.63 0.75 -45.5 0 1 791.48 172.45
  Q 769.34 171.60 730.73 170.95
  Q 724.52 170.85 728.37 165.26
  Q 733.32 158.08 739.34 151.27
  Z"
/>
<path fill="#f8c4a2" d="
  M 90.19 283.11
  C 59.55 248.42 53.48 196.24 77.38 156.27
  Q 78.27 154.77 78.36 156.51
  C 79.45 176.85 80.10 198.24 84.87 218.09
  Q 91.96 247.54 116.29 266.30
  C 120.98 269.91 126.58 272.80 131.98 275.75
  C 133.28 276.46 135.21 278.13 133.81 279.43
  A 3.66 3.64 22.8 0 1 131.36 280.42
  Q 112.11 280.77 94.89 282.13
  C 93.44 282.24 92.28 282.75 90.98 283.29
  A 0.71 0.68 -31.1 0 1 90.19 283.11
  Z"
/>
<path fill="#f8c4a2" d="
  M 145.76 241.95
  C 153.36 237.96 157.95 235.14 166.99 236.43
  C 171.18 237.03 174.95 239.65 178.78 241.71
  C 188.51 246.95 204.48 241.76 201.15 228.16
  Q 200.08 223.79 197.69 221.05
  C 193.24 215.94 184.20 213.38 179.55 219.63
  A 1.26 0.61 -43.8 0 0 179.25 220.44
  Q 179.96 225.82 185.16 224.78
  A 0.60 0.43 -10.6 0 1 185.83 225.09
  C 186.99 231.11 173.15 234.11 171.29 223.82
  C 167.32 201.86 213.02 206.91 205.76 234.60
  C 203.69 242.50 196.52 247.48 188.71 249.15
  C 176.87 251.68 168.29 242.38 156.67 244.11
  Q 151.86 244.82 143.20 249.82
  A 0.86 0.84 -44.4 0 1 142.33 249.82
  C 138.82 247.66 134.80 244.42 139.43 240.54
  C 145.93 235.08 146.87 228.38 147.09 219.51
  Q 147.37 208.15 146.93 185.00
  C 146.85 181.08 146.97 177.01 144.23 174.24
  C 142.84 172.84 137.60 169.35 142.55 168.26
  C 148.28 167.00 150.00 164.16 154.36 161.01
  C 161.24 156.04 173.58 156.17 177.24 165.30
  C 178.33 168.04 176.99 170.40 174.16 170.89
  A 0.56 0.51 78.4 0 1 173.57 170.46
  Q 173.01 167.92 171.97 167.30
  C 165.07 163.17 158.75 167.40 153.40 172.22
  A 1.21 1.17 70.6 0 0 153.02 173.05
  C 152.81 181.64 154.40 189.59 156.56 197.85
  C 159.43 208.80 160.90 223.36 153.38 232.41
  Q 149.51 237.08 145.63 241.80
  Q 145.31 242.19 145.76 241.95
  Z"
/>
<path fill="#774411" d="
  M 1190.50 159.16
  C 1193.02 156.12 1209.40 158.47 1212.31 159.83
  C 1220.47 163.64 1221.01 173.80 1220.79 182.17
  A 0.62 0.54 -3.8 0 1 1220.25 182.70
  Q 1209.28 184.16 1198.26 183.48
  A 1.31 1.30 4.1 0 1 1197.03 182.07
  C 1197.53 176.27 1196.33 164.90 1190.81 161.25
  A 1.42 1.42 -53.5 0 1 1190.50 159.16
  Z"
/>
<path fill="#774411" d="
  M 1160.19 160.42
  Q 1160.70 158.34 1162.84 158.30
  C 1174.61 158.11 1186.38 155.28 1190.94 169.70
  Q 1192.96 176.07 1189.65 182.66
  A 0.78 0.59 9.9 0 1 1189.00 182.99
  L 1165.56 182.98
  A 0.78 0.76 89.6 0 1 1164.80 182.21
  C 1164.74 178.35 1165.14 170.83 1163.51 167.46
  C 1162.32 164.99 1159.43 163.52 1160.19 160.42
  Z"
/>
<path fill="#774411" d="
  M 1246.58 183.89
  A 1.81 1.77 -62.2 0 1 1245.36 184.28
  Q 1237.84 183.89 1230.40 184.00
  C 1227.27 184.04 1224.17 183.05 1225.46 179.22
  Q 1228.48 170.29 1229.74 164.76
  C 1230.59 161.00 1232.07 158.56 1236.07 158.61
  Q 1248.88 158.79 1257.29 159.41
  C 1272.51 160.52 1249.80 181.36 1246.58 183.89
  Z"
/>
<path fill="#f8c4a2" d="
  M 268.11 197.09
  C 254.72 198.53 245.70 187.71 251.32 174.76
  C 254.53 167.36 270.01 164.54 273.82 172.89
  C 277.40 180.72 279.02 188.81 272.36 195.14
  Q 270.60 196.83 268.11 197.09
  Z"
/>
<path fill="#774411" d="
  M 1347.98 215.66
  A 0.56 0.49 -21.0 0 0 1348.72 215.93
  Q 1375.06 204.21 1402.58 195.61
  A 0.50 0.48 76.5 0 1 1403.20 196.01
  Q 1405.66 210.06 1397.78 221.88
  A 1.36 0.98 3.8 0 1 1397.01 222.36
  Q 1378.98 226.66 1359.75 233.74
  C 1347.73 238.17 1335.60 244.57 1331.45 257.12
  C 1326.07 273.35 1347.66 276.63 1358.57 276.46
  Q 1381.66 276.08 1403.54 267.97
  A 1.59 1.43 -17.4 0 1 1405.59 268.91
  Q 1407.72 277.63 1406.61 286.49
  A 1.08 0.78 -13.0 0 1 1405.99 287.20
  Q 1379.82 299.08 1351.44 296.60
  C 1330.17 294.74 1307.95 289.42 1307.06 263.07
  C 1306.56 248.47 1316.11 235.47 1327.48 227.29
  A 0.66 0.55 -32.2 0 0 1327.72 226.54
  Q 1316.97 205.07 1307.45 183.02
  A 0.59 0.57 73.7 0 1 1307.88 182.20
  C 1320.32 180.28 1332.61 181.79 1339.07 193.94
  Q 1344.68 204.48 1347.98 215.66
  Z"
/>
<path fill="#774411" d="
  M 1162.94 215.31
  Q 1156.47 215.25 1149.98 214.80
  C 1141.18 214.19 1143.64 201.56 1144.45 195.17
  C 1145.39 187.76 1151.98 185.32 1158.75 185.32
  Q 1206.88 185.32 1255.00 186.30
  C 1259.65 186.39 1262.30 186.63 1265.34 190.47
  C 1269.37 195.55 1272.62 203.52 1271.22 210.09
  C 1269.98 215.89 1259.86 214.77 1255.03 214.80
  A 1.38 1.38 88.4 0 0 1253.66 216.25
  C 1254.51 233.87 1238.58 257.69 1224.59 267.56
  Q 1224.10 267.90 1224.67 268.07
  Q 1233.41 270.58 1242.45 270.97
  C 1245.63 271.10 1249.21 270.46 1252.60 270.29
  C 1258.31 270.00 1261.62 269.49 1261.78 276.16
  Q 1261.99 284.94 1261.06 291.76
  Q 1260.23 297.85 1253.75 296.77
  C 1236.48 293.91 1219.89 289.45 1204.43 281.03
  A 2.84 2.82 -44.4 0 0 1201.75 281.01
  C 1186.03 289.24 1170.10 293.19 1152.91 297.43
  A 1.28 1.19 -34.9 0 1 1151.99 297.30
  C 1147.29 294.41 1146.76 286.72 1146.24 281.49
  C 1145.68 275.89 1148.81 274.72 1153.81 274.07
  Q 1169.00 272.11 1183.48 266.37
  A 0.62 0.61 57.7 0 0 1183.70 265.38
  C 1171.25 252.02 1161.22 235.42 1163.39 215.81
  A 0.45 0.45 -87.1 0 0 1162.94 215.31
  Z
  M 1170.65 199.98
  Q 1169.37 205.82 1170.33 211.75
  A 0.66 0.48 -5.7 0 0 1171.00 212.14
  Q 1204.01 209.88 1236.99 212.37
  A 2.05 2.05 9.4 0 0 1239.13 210.84
  Q 1240.40 205.92 1239.17 201.01
  A 0.84 0.72 83.8 0 0 1238.52 200.40
  Q 1236.31 200.18 1231.50 200.06
  Q 1201.88 199.32 1171.88 199.20
  A 1.31 0.98 4.4 0 0 1170.65 199.98
  Z
  M 1203.64 255.52
  C 1214.67 248.21 1218.08 240.57 1219.87 227.72
  A 0.52 0.34 -84.6 0 0 1219.56 227.14
  L 1187.75 227.26
  A 0.63 0.47 84.0 0 0 1187.32 227.99
  Q 1190.13 244.52 1202.77 255.49
  A 0.75 0.70 -40.9 0 0 1203.64 255.52
  Z"
/>
<path fill="#f8c4a2" d="
  M 256.14 207.18
  Q 256.60 207.34 256.46 207.43
  Q 245.30 214.22 233.48 219.78
  Q 232.65 220.17 232.82 219.27
  L 238.63 188.52
  Q 238.77 187.80 238.95 188.50
  Q 242.53 202.55 256.14 207.18
  Z"
/>
<path fill="#f8c4a2" d="
  M 280.55 206.16
  Q 280.72 206.02 280.73 206.25
  Q 281.69 250.36 253.10 283.34
  A 1.20 1.13 33.1 0 1 251.70 283.59
  C 248.86 282.18 246.00 281.21 242.64 281.07
  C 228.02 280.44 211.53 280.75 197.40 276.89
  Q 196.00 276.51 197.33 275.91
  C 198.94 275.18 200.54 274.48 201.97 273.33
  C 212.60 264.81 219.70 256.99 224.47 245.47
  Q 224.79 244.71 225.25 245.39
  Q 227.40 248.59 229.72 251.80
  C 238.63 264.17 260.26 251.07 249.30 243.44
  Q 244.03 239.77 240.02 234.70
  A 0.94 0.93 -40.4 0 1 240.13 233.43
  C 242.25 231.48 244.54 229.64 247.20 228.17
  Q 264.54 218.56 280.55 206.16
  Z"
/>
<path fill="#bc7b46" d="
  M 2087.06 377.82
  C 2086.87 407.01 2088.73 436.31 2093.80 465.08
  Q 2103.05 517.69 2132.19 565.55
  C 2141.06 580.11 2149.52 590.78 2161.43 601.45
  C 2171.25 610.25 2178.74 618.51 2180.63 632.18
  C 2183.04 649.72 2181.93 668.07 2181.66 686.02
  A 0.90 0.90 4.8 0 1 2180.63 686.89
  C 2173.28 685.78 2165.10 684.87 2158.47 682.99
  C 2127.50 674.19 2100.11 653.16 2081.59 627.87
  C 2028.51 555.38 2021.63 464.00 2019.99 377.55
  A 0.60 0.49 89.4 0 0 2019.50 376.96
  L 2003.75 376.81
  A 0.71 0.69 0.4 0 0 2003.03 377.50
  L 2002.80 710.75
  A 0.58 0.55 -90.0 0 1 2002.25 711.33
  L 1930.75 711.77
  A 0.67 0.57 0.0 0 1 1930.08 711.20
  C 1930.29 600.14 1931.17 489.24 1931.49 378.01
  A 1.75 1.71 90.0 0 0 1929.78 376.26
  L 1918.50 376.25
  A 0.92 0.84 1.3 0 0 1917.58 377.05
  Q 1914.16 433.12 1906.70 488.78
  C 1900.71 533.51 1888.27 583.23 1860.93 619.68
  C 1844.98 640.96 1822.35 655.85 1798.60 667.40
  Q 1787.99 672.56 1776.32 675.26
  A 0.90 0.81 -7.1 0 0 1775.62 676.07
  L 1775.33 713.00
  A 1.07 0.96 0.6 0 1 1774.25 713.95
  L 1707.75 713.37
  A 0.68 0.67 0.8 0 1 1707.08 712.69
  L 1708.00 511.75
  Q 1708.00 511.08 1707.46 511.45
  C 1679.16 530.91 1643.81 545.62 1609.50 547.94
  A 0.63 0.63 -5.8 0 1 1608.83 547.40
  C 1606.45 530.47 1609.15 524.59 1622.18 514.43
  C 1631.72 506.98 1642.68 499.39 1650.80 491.96
  Q 1681.08 464.24 1698.14 426.44
  C 1718.94 380.37 1735.61 329.69 1739.98 278.77
  C 1740.72 270.18 1742.70 263.30 1747.69 257.19
  C 1765.39 235.51 1797.53 225.19 1824.48 223.87
  A 0.72 0.71 3.2 0 1 1825.23 224.69
  L 1812.69 303.24
  A 0.85 0.84 -88.1 0 0 1813.60 304.23
  C 1815.19 304.07 1817.09 304.44 1818.56 304.44
  Q 1869.90 304.23 1921.27 303.97
  A 0.34 0.27 -0.8 0 0 1921.61 303.69
  L 1920.67 228.75
  A 1.07 1.01 -0.2 0 1 1921.75 227.72
  L 2012.25 228.59
  A 1.63 1.52 -89.1 0 1 2013.75 230.25
  L 2012.29 302.75
  A 0.52 0.46 -89.4 0 0 2012.75 303.28
  L 2153.25 302.65
  A 1.16 1.14 -87.3 0 1 2154.39 303.93
  Q 2152.42 324.41 2149.45 345.43
  Q 2148.85 349.70 2147.01 355.15
  C 2144.89 361.46 2137.58 370.14 2131.52 372.81
  Q 2126.64 374.96 2121.17 375.39
  Q 2104.41 376.74 2087.56 377.30
  A 0.52 0.51 89.4 0 0 2087.06 377.82
  Z
  M 1777.95 629.66
  Q 1801.35 605.54 1815.88 575.19
  C 1831.46 542.67 1841.51 505.70 1847.09 470.16
  C 1851.98 439.10 1855.01 408.03 1855.29 376.56
  A 0.55 0.46 0.6 0 0 1854.75 376.10
  L 1800.24 375.79
  Q 1798.01 375.78 1797.41 377.76
  C 1792.42 394.33 1785.99 406.97 1776.20 426.04
  A 1.88 1.85 58.0 0 0 1775.99 426.98
  C 1776.15 430.07 1775.73 433.63 1775.73 436.17
  Q 1775.87 532.34 1775.24 628.50
  Q 1775.21 633.31 1776.82 631.09
  Q 1777.58 630.04 1777.95 629.66
  Z"
/>
<path fill="#bc7b46" d="
  M 2271.56 692.81
  C 2266.97 697.47 2267.11 704.82 2266.93 711.24
  A 1.19 1.13 0.5 0 1 2265.75 712.34
  L 2196.75 712.78
  A 0.69 0.57 0.4 0 1 2196.06 712.20
  C 2196.36 583.94 2197.27 452.70 2195.98 327.50
  C 2195.88 317.90 2195.07 308.35 2191.97 298.82
  Q 2186.03 280.57 2178.95 262.71
  A 0.55 0.49 -9.1 0 1 2179.50 262.04
  L 2555.00 263.08
  A 0.92 0.80 -89.7 0 1 2555.79 264.00
  L 2554.68 710.00
  A 0.95 0.95 -0.6 0 1 2553.75 710.95
  L 2483.94 712.35
  A 0.80 0.74 85.9 0 1 2483.18 711.64
  C 2481.64 697.77 2476.29 686.32 2460.57 685.85
  C 2407.45 684.28 2354.14 684.48 2301.00 684.90
  C 2291.52 684.97 2278.61 685.66 2271.56 692.81
  Z
  M 2474.97 429.24
  Q 2477.24 456.67 2465.12 480.77
  C 2456.96 497.02 2446.50 504.97 2427.92 504.93
  Q 2346.78 504.73 2265.51 504.06
  A 0.58 0.44 0.0 0 0 2264.93 504.50
  L 2265.30 628.50
  A 0.47 0.45 89.3 0 0 2265.75 628.96
  L 2481.75 629.20
  A 0.70 0.51 90.0 0 0 2482.26 628.50
  L 2483.34 332.00
  A 0.69 0.59 -90.0 0 0 2482.75 331.31
  L 2264.25 330.93
  A 0.47 0.41 88.1 0 0 2263.84 331.43
  Q 2264.16 336.22 2264.24 341.00
  Q 2264.93 384.62 2264.70 428.49
  A 1.73 1.72 -89.7 0 0 2266.40 430.22
  Q 2287.91 430.39 2310.75 430.16
  Q 2391.59 429.34 2474.37 428.70
  A 0.59 0.58 -2.6 0 1 2474.97 429.24
  Z"
/>
<path fill="#f8c4a2" d="
  M 102.42 295.10
  Q 101.48 294.36 102.75 294.46
  Q 170.71 299.90 238.75 295.46
  Q 240.61 295.34 239.19 296.44
  C 197.94 328.11 143.18 327.22 102.42 295.10
  Z"
/>
<path fill="#774411" d="
  M 1049.49 476.27
  C 1039.11 476.52 1026.10 461.01 1020.08 454.15
  Q 1004.51 436.38 989.27 418.10
  A 0.40 0.39 -33.5 0 1 989.40 417.49
  C 998.50 412.99 1011.04 408.07 1021.00 406.75
  C 1025.57 406.14 1029.10 408.12 1032.58 411.44
  C 1049.24 427.32 1064.20 446.68 1079.11 464.56
  A 0.41 0.40 56.3 0 1 1078.99 465.18
  C 1069.09 470.40 1058.51 476.05 1049.49 476.27
  Z"
/>
<path fill="#774411" d="
  M 987.09 496.80
  C 980.26 496.89 974.47 490.94 970.25 486.24
  Q 949.59 463.24 929.83 439.34
  A 0.39 0.39 57.7 0 1 929.96 438.74
  C 939.91 434.04 959.98 424.86 970.84 428.47
  C 976.08 430.21 978.52 433.24 983.25 438.38
  Q 1004.00 460.88 1024.16 483.93
  A 0.46 0.45 -37.8 0 1 1024.07 484.60
  Q 1007.43 496.54 987.09 496.80
  Z"
/>
<path fill="#774411" d="
  M 900.75 437.82
  C 900.75 471.60 899.78 505.09 900.04 538.75
  Q 900.08 543.64 901.07 548.41
  A 1.79 1.79 89.7 0 0 902.48 549.81
  Q 908.52 550.97 914.68 551.04
  C 960.55 551.53 1006.56 550.95 1052.35 550.71
  A 0.65 0.64 -84.9 0 1 1052.99 551.48
  C 1051.42 559.80 1050.17 569.59 1047.73 576.71
  Q 1042.58 591.69 1030.75 602.78
  C 1026.13 607.12 1006.68 606.83 1003.00 606.80
  Q 954.21 606.44 914.24 607.18
  Q 907.05 607.31 906.30 614.54
  Q 905.74 619.95 905.70 634.06
  Q 905.60 671.66 905.19 710.74
  A 1.03 0.94 -89.7 0 1 904.25 711.76
  L 833.00 711.32
  A 0.82 0.75 90.0 0 1 832.25 710.50
  L 832.25 437.50
  A 0.56 0.49 -0.0 0 1 832.81 437.01
  L 900.00 437.00
  A 0.82 0.75 -90.0 0 1 900.75 437.82
  Z"
/>
<path fill="#774411" d="
  M 398.80 694.97
  C 352.51 693.83 303.14 693.60 261.75 694.40
  C 251.70 694.60 250.38 702.89 248.69 711.45
  A 0.61 0.60 -84.8 0 1 248.10 711.95
  Q 217.45 712.00 186.90 712.31
  C 182.09 712.36 182.73 712.34 182.73 707.90
  C 182.77 637.51 182.90 567.13 182.34 496.74
  Q 182.12 470.11 173.80 444.26
  Q 173.08 442.00 175.50 442.00
  L 479.00 442.00
  A 0.75 0.71 90.0 0 1 479.71 442.75
  L 480.34 710.56
  A 1.46 1.33 90.0 0 1 479.00 712.03
  L 414.75 711.80
  A 0.72 0.65 79.2 0 1 414.12 711.32
  Q 413.20 708.82 413.09 706.32
  C 412.71 698.35 405.78 695.14 398.80 694.97
  Z
  M 239.60 502.00
  C 240.54 549.53 239.67 597.15 239.37 644.69
  A 0.38 0.37 -0.0 0 0 239.75 645.06
  L 423.75 644.30
  A 0.55 0.51 89.5 0 0 424.25 643.75
  L 424.25 492.50
  A 0.57 0.50 90.0 0 0 423.75 491.93
  L 239.75 492.31
  A 0.88 0.77 -4.1 0 0 238.86 493.21
  Q 239.51 497.38 239.60 502.00
  Z"
/>
<path fill="#774411" d="
  M 1069.39 711.03
  A 1.18 1.17 -85.9 0 1 1068.26 709.72
  C 1069.07 701.96 1069.66 693.18 1071.81 686.32
  C 1076.28 672.06 1086.21 657.70 1102.25 655.50
  C 1118.79 653.23 1140.32 653.32 1159.24 651.95
  C 1183.06 650.22 1206.44 644.25 1226.69 631.19
  C 1254.64 613.17 1277.70 588.42 1290.98 558.22
  C 1303.14 530.57 1309.26 498.44 1316.98 468.75
  Q 1319.61 458.66 1328.78 453.86
  Q 1347.36 444.13 1367.06 443.84
  A 1.17 1.17 13.1 0 1 1368.12 445.54
  C 1361.14 459.08 1358.19 469.42 1354.89 486.58
  Q 1351.78 502.77 1348.25 525.00
  C 1342.23 562.97 1329.72 598.10 1308.49 630.26
  C 1280.31 672.94 1238.34 696.07 1188.53 704.94
  C 1147.34 712.28 1109.66 712.34 1069.39 711.03
  Z"
/>
<path fill="#774411" d="
  M 1084.63 502.30
  A 0.76 0.76 9.4 0 1 1083.92 501.31
  C 1089.23 484.43 1094.99 469.20 1106.41 455.41
  C 1113.75 446.55 1124.54 445.80 1135.18 445.43
  C 1170.23 444.22 1200.00 444.44 1238.73 444.85
  A 0.37 0.37 7.7 0 1 1239.09 445.32
  C 1234.26 461.75 1228.33 481.48 1215.22 493.72
  C 1205.46 502.82 1189.89 502.49 1178.69 502.59
  Q 1132.19 503.00 1084.63 502.30
  Z"
/>
<path fill="#774411" d="
  M 621.80 501.88
  C 587.09 502.62 552.44 501.85 517.74 502.02
  A 0.47 0.47 6.7 0 1 517.28 501.44
  C 521.39 483.18 528.89 466.19 541.72 453.00
  C 548.35 446.19 562.28 446.30 571.55 446.09
  Q 620.75 445.00 669.97 445.08
  A 0.43 0.42 4.5 0 1 670.40 445.57
  C 667.12 466.50 660.01 482.77 643.25 496.29
  C 637.40 501.01 629.33 501.72 621.80 501.88
  Z"
/>
<path fill="#774411" d="
  M 620.20 648.48
  C 676.31 638.34 716.12 589.28 732.82 537.06
  C 740.30 513.65 745.10 490.89 750.66 467.68
  C 755.22 448.66 786.35 445.45 801.31 445.27
  A 0.51 0.51 12.1 0 1 801.78 445.99
  C 797.71 454.90 794.36 463.43 791.90 473.27
  C 784.61 502.38 779.98 531.87 772.45 558.62
  C 763.84 589.20 750.39 619.23 731.17 644.67
  C 709.16 673.81 674.52 693.52 638.43 701.44
  Q 595.74 710.81 551.99 710.15
  Q 535.01 709.89 516.67 709.68
  A 0.77 0.76 -87.2 0 1 515.92 708.85
  Q 516.51 701.61 517.16 695.49
  C 518.98 678.59 529.59 656.55 548.49 654.45
  C 572.85 651.74 597.68 652.55 620.20 648.48
  Z"
/>
<path fill="#774411" d="
  M 1501.43 552.55
  C 1507.64 578.07 1507.16 605.02 1502.31 630.72
  C 1497.02 658.75 1480.84 687.89 1455.99 703.15
  C 1436.41 715.17 1408.70 712.47 1390.07 700.90
  C 1369.22 687.96 1363.22 654.84 1364.62 632.45
  C 1366.93 595.82 1382.76 561.33 1414.58 541.20
  C 1444.11 522.51 1478.14 515.56 1512.83 518.98
  C 1567.86 524.42 1605.39 567.16 1606.12 622.04
  C 1606.44 646.12 1601.73 669.17 1586.45 688.20
  C 1576.20 700.96 1565.08 710.76 1548.70 714.57
  C 1542.69 715.97 1512.55 721.06 1509.16 715.04
  C 1505.65 708.81 1519.61 704.33 1523.16 702.84
  Q 1528.05 700.80 1531.33 698.34
  C 1552.99 682.08 1562.89 658.70 1564.45 632.26
  C 1565.49 614.58 1563.65 599.34 1554.18 584.58
  C 1541.87 565.38 1524.64 554.43 1501.81 552.11
  A 0.36 0.36 85.9 0 0 1501.43 552.55
  Z
  M 1421.46 672.75
  C 1434.87 677.71 1443.30 669.03 1450.33 658.05
  C 1464.60 635.75 1469.23 607.76 1469.84 581.49
  Q 1470.14 568.33 1466.23 555.87
  A 1.43 1.43 -16.9 0 0 1464.47 554.93
  Q 1435.61 563.25 1418.13 587.66
  C 1409.68 599.45 1405.57 614.62 1403.70 629.26
  C 1401.53 646.22 1402.40 665.71 1421.46 672.75
  Z"
/>
</svg>
