<?xml version="1.0" encoding="UTF-8" standalone="no"?>
<!DOCTYPE svg PUBLIC "-//W3C//DTD SVG 1.1//EN" "http://www.w3.org/Graphics/SVG/1.1/DTD/svg11.dtd">
<svg xmlns="http://www.w3.org/2000/svg" version="1.1" viewBox="0 0 2242 934">
<g stroke-width="2.00" fill="none" stroke-linecap="butt">
<path stroke="#e79a3a" vector-effect="non-scaling-stroke" d="
  M 2024.75 757.54
  Q 2015.86 758.16 2024.75 757.71"
/>
<path stroke="#e9a86b" vector-effect="non-scaling-stroke" d="
  M 272.06 282.87
  C 311.83 214.95 263.70 130.70 185.24 131.11
  Q 155.44 131.26 131.31 147.30
  C 80.41 181.12 70.44 250.48 110.43 297.30
  C 123.13 312.18 139.33 309.86 157.18 307.41
  C 179.90 304.29 196.26 292.51 215.29 280.03
  Q 220.76 276.44 230.46 274.08
  Q 245.34 270.45 258.28 278.25
  C 263.45 281.37 267.85 285.24 266.01 291.73
  Q 265.64 293.05 266.40 291.92
  Q 269.37 287.46 272.06 282.87"
/>
<path stroke="#e9a86b" vector-effect="non-scaling-stroke" d="
  M 133.37 316.93
  C 174.95 341.69 226.11 334.86 259.55 299.87
  Q 259.88 299.52 259.42 299.67
  Q 252.95 301.67 247.94 297.76
  Q 237.33 289.51 224.77 292.99
  C 211.20 296.75 198.35 304.91 184.65 310.09
  Q 167.00 316.76 146.73 317.62
  Q 139.42 317.92 134.01 316.30
  C 133.59 316.18 132.30 316.29 133.37 316.93"
/>
<path stroke="#e9a86b" vector-effect="non-scaling-stroke" d="
  M 138.46 278.50
  Q 138.36 279.25 137.78 278.77
  C 131.63 273.69 111.02 262.76 109.00 278.37
  Q 108.26 284.05 109.43 286.30
  C 117.61 302.00 133.23 306.35 149.94 303.91
  C 164.82 301.74 178.82 298.12 191.21 289.19
  C 205.96 278.57 221.72 267.84 240.23 265.81
  A 1.44 1.43 86.5 0 0 241.51 264.36
  C 241.04 231.30 243.81 198.75 256.90 168.74
  A 0.61 0.60 -60.9 0 0 256.70 168.00
  Q 241.06 157.22 235.71 154.53
  C 215.55 144.36 191.19 141.88 169.01 144.33
  C 155.27 145.85 145.23 150.87 131.87 157.52
  A 0.67 0.66 72.0 0 0 131.51 158.24
  C 136.39 186.95 141.98 216.84 141.15 244.93
  Q 140.65 261.89 138.46 278.50"
/>
<path stroke="#e9a86b" vector-effect="non-scaling-stroke" d="
  M 159.95 181.32
  Q 161.64 182.44 162.18 184.39
  Q 163.24 188.21 163.31 192.81
  Q 163.63 213.81 163.37 234.81
  Q 163.29 241.77 161.37 248.39
  C 160.27 252.19 156.97 255.06 154.39 258.04
  Q 152.79 259.88 153.71 261.75
  Q 155.47 265.31 158.99 267.02
  A 1.21 0.65 -37.4 0 0 159.93 266.87
  C 168.31 262.37 175.93 257.76 185.53 262.39
  C 195.00 266.96 205.00 268.96 213.95 262.68
  C 230.87 250.81 224.43 224.28 203.52 222.03
  C 197.74 221.40 189.23 224.90 188.22 231.59
  C 187.40 236.95 187.78 244.59 194.45 245.43
  C 198.73 245.97 202.23 243.82 202.70 239.33
  A 0.39 0.38 -1.3 0 0 202.26 238.92
  Q 195.82 239.81 196.30 233.12
  A 1.48 0.85 -31.5 0 1 196.74 232.31
  C 206.27 222.65 217.11 235.08 218.45 244.50
  C 219.91 254.73 210.12 262.04 200.66 259.95
  C 194.01 258.47 189.64 252.50 182.92 251.57
  C 174.84 250.45 169.69 253.02 162.70 258.26
  A 0.70 0.38 -43.5 0 1 162.12 258.42
  C 161.88 258.31 162.02 257.76 162.19 257.57
  C 171.80 246.26 176.44 238.24 175.52 222.73
  C 175.01 214.18 172.48 204.58 170.49 195.75
  Q 169.95 193.35 169.47 180.98
  A 1.19 1.17 65.8 0 1 169.79 180.12
  C 174.62 174.94 182.65 168.94 189.15 175.19
  A 1.72 1.04 27.0 0 1 189.61 175.93
  L 190.19 178.52
  A 0.64 0.42 -21.2 0 0 191.01 178.69
  Q 196.87 176.02 193.30 169.95
  C 189.76 163.93 182.27 162.28 176.00 164.23
  C 168.89 166.43 166.65 174.23 158.68 174.85
  A 1.69 1.10 13.2 0 0 157.79 175.17
  C 155.07 177.43 158.09 180.09 159.95 181.32"
/>
</g>
<path fill="#d36c1d" d="
  M 252.81 327.06
  Q 251.75 327.51 252.94 327.51
  C 509.32 327.49 765.72 327.82 1022.07 327.53
  C 1143.21 327.40 1264.36 327.91 1385.50 327.36
  Q 1385.79 327.36 1386.00 327.47
  Q 1386.63 327.82 1386.75 327.82
  L 1422.00 327.52
  A 2.15 1.53 64.5 0 1 1423.44 328.32
  L 1435.60 343.41
  Q 1436.68 344.76 1437.15 346.26
  C 1437.61 347.72 1436.81 348.50 1435.37 348.50
  Q 1139.06 348.50 842.75 348.50
  Q 842.54 348.50 842.41 348.44
  Q 841.92 348.24 841.88 348.24
  Q 549.48 348.27 257.07 348.23
  C 234.81 348.22 214.13 348.06 188.56 348.36
  C 111.07 349.27 53.22 276.77 73.54 201.11
  C 83.32 164.68 109.89 136.38 144.58 122.76
  C 159.91 116.74 176.72 114.56 193.14 114.94
  Q 206.40 115.25 206.50 115.25
  Q 511.75 115.25 817.00 115.25
  Q 817.20 115.25 817.34 115.30
  Q 817.83 115.50 818.00 115.50
  L 1421.75 115.50
  A 2.18 1.53 64.1 0 1 1423.20 116.30
  L 1437.07 133.44
  A 2.72 2.32 37.2 0 1 1437.60 135.86
  C 1437.54 136.03 1436.36 136.50 1436.01 136.50
  Q 845.16 136.50 254.62 136.50
  Q 253.82 136.50 254.45 136.98
  C 318.45 185.74 319.15 277.12 254.72 325.96
  Q 253.83 326.63 252.81 327.06
  Z
  M 272.06 282.87
  C 311.83 214.95 263.70 130.70 185.24 131.11
  Q 155.44 131.26 131.31 147.30
  C 80.41 181.12 70.44 250.48 110.43 297.30
  C 123.13 312.18 139.33 309.86 157.18 307.41
  C 179.90 304.29 196.26 292.51 215.29 280.03
  Q 220.76 276.44 230.46 274.08
  Q 245.34 270.45 258.28 278.25
  C 263.45 281.37 267.85 285.24 266.01 291.73
  Q 265.64 293.05 266.40 291.92
  Q 269.37 287.46 272.06 282.87
  Z
  M 133.37 316.93
  C 174.95 341.69 226.11 334.86 259.55 299.87
  Q 259.88 299.52 259.42 299.67
  Q 252.95 301.67 247.94 297.76
  Q 237.33 289.51 224.77 292.99
  C 211.20 296.75 198.35 304.91 184.65 310.09
  Q 167.00 316.76 146.73 317.62
  Q 139.42 317.92 134.01 316.30
  C 133.59 316.18 132.30 316.29 133.37 316.93
  Z"
/>
<path fill="#ffe3b8" d="
  M 185.24 131.11
  C 263.70 130.70 311.83 214.95 272.06 282.87
  Q 269.37 287.46 266.40 291.92
  Q 265.64 293.05 266.01 291.73
  C 267.85 285.24 263.45 281.37 258.28 278.25
  Q 245.34 270.45 230.46 274.08
  Q 220.76 276.44 215.29 280.03
  C 196.26 292.51 179.90 304.29 157.18 307.41
  C 139.33 309.86 123.13 312.18 110.43 297.30
  C 70.44 250.48 80.41 181.12 131.31 147.30
  Q 155.44 131.26 185.24 131.11
  Z
  M 138.46 278.50
  Q 138.36 279.25 137.78 278.77
  C 131.63 273.69 111.02 262.76 109.00 278.37
  Q 108.26 284.05 109.43 286.30
  C 117.61 302.00 133.23 306.35 149.94 303.91
  C 164.82 301.74 178.82 298.12 191.21 289.19
  C 205.96 278.57 221.72 267.84 240.23 265.81
  A 1.44 1.43 86.5 0 0 241.51 264.36
  C 241.04 231.30 243.81 198.75 256.90 168.74
  A 0.61 0.60 -60.9 0 0 256.70 168.00
  Q 241.06 157.22 235.71 154.53
  C 215.55 144.36 191.19 141.88 169.01 144.33
  C 155.27 145.85 145.23 150.87 131.87 157.52
  A 0.67 0.66 72.0 0 0 131.51 158.24
  C 136.39 186.95 141.98 216.84 141.15 244.93
  Q 140.65 261.89 138.46 278.50
  Z"
/>
<path fill="#d36c1d" d="
  M 138.46 278.50
  Q 140.65 261.89 141.15 244.93
  C 141.98 216.84 136.39 186.95 131.51 158.24
  A 0.67 0.66 72.0 0 1 131.87 157.52
  C 145.23 150.87 155.27 145.85 169.01 144.33
  C 191.19 141.88 215.55 144.36 235.71 154.53
  Q 241.06 157.22 256.70 168.00
  A 0.61 0.60 -60.9 0 1 256.90 168.74
  C 243.81 198.75 241.04 231.30 241.51 264.36
  A 1.44 1.43 86.5 0 1 240.23 265.81
  C 221.72 267.84 205.96 278.57 191.21 289.19
  C 178.82 298.12 164.82 301.74 149.94 303.91
  C 133.23 306.35 117.61 302.00 109.43 286.30
  Q 108.26 284.05 109.00 278.37
  C 111.02 262.76 131.63 273.69 137.78 278.77
  Q 138.36 279.25 138.46 278.50
  Z
  M 159.95 181.32
  Q 161.64 182.44 162.18 184.39
  Q 163.24 188.21 163.31 192.81
  Q 163.63 213.81 163.37 234.81
  Q 163.29 241.77 161.37 248.39
  C 160.27 252.19 156.97 255.06 154.39 258.04
  Q 152.79 259.88 153.71 261.75
  Q 155.47 265.31 158.99 267.02
  A 1.21 0.65 -37.4 0 0 159.93 266.87
  C 168.31 262.37 175.93 257.76 185.53 262.39
  C 195.00 266.96 205.00 268.96 213.95 262.68
  C 230.87 250.81 224.43 224.28 203.52 222.03
  C 197.74 221.40 189.23 224.90 188.22 231.59
  C 187.40 236.95 187.78 244.59 194.45 245.43
  C 198.73 245.97 202.23 243.82 202.70 239.33
  A 0.39 0.38 -1.3 0 0 202.26 238.92
  Q 195.82 239.81 196.30 233.12
  A 1.48 0.85 -31.5 0 1 196.74 232.31
  C 206.27 222.65 217.11 235.08 218.45 244.50
  C 219.91 254.73 210.12 262.04 200.66 259.95
  C 194.01 258.47 189.64 252.50 182.92 251.57
  C 174.84 250.45 169.69 253.02 162.70 258.26
  A 0.70 0.38 -43.5 0 1 162.12 258.42
  C 161.88 258.31 162.02 257.76 162.19 257.57
  C 171.80 246.26 176.44 238.24 175.52 222.73
  C 175.01 214.18 172.48 204.58 170.49 195.75
  Q 169.95 193.35 169.47 180.98
  A 1.19 1.17 65.8 0 1 169.79 180.12
  C 174.62 174.94 182.65 168.94 189.15 175.19
  A 1.72 1.04 27.0 0 1 189.61 175.93
  L 190.19 178.52
  A 0.64 0.42 -21.2 0 0 191.01 178.69
  Q 196.87 176.02 193.30 169.95
  C 189.76 163.93 182.27 162.28 176.00 164.23
  C 168.89 166.43 166.65 174.23 158.68 174.85
  A 1.69 1.10 13.2 0 0 157.79 175.17
  C 155.07 177.43 158.09 180.09 159.95 181.32
  Z"
/>
<path fill="#d36c1d" d="
  M 957.06 182.17
  C 982.48 181.16 997.77 179.42 1013.59 181.33
  A 0.63 0.61 1.2 0 1 1014.14 181.89
  Q 1015.05 193.25 1005.66 198.58
  C 1003.82 199.62 1002.45 199.16 1000.51 199.00
  A 1.13 1.12 5.7 0 0 999.29 199.99
  C 996.76 222.59 991.28 248.39 978.54 267.53
  A 0.69 0.68 42.6 0 0 978.58 268.33
  C 985.94 277.52 996.31 286.46 1008.72 287.08
  A 0.60 0.37 3.6 0 1 1009.31 287.50
  Q 1008.25 298.73 1008.61 310.00
  A 0.50 0.49 5.9 0 1 1007.99 310.49
  Q 981.65 304.47 962.71 285.28
  A 0.95 0.93 -42.0 0 0 961.43 285.23
  C 948.80 295.79 934.19 301.71 918.31 306.06
  A 1.52 1.30 55.5 0 1 916.99 305.71
  Q 910.96 300.41 913.85 292.54
  A 1.07 0.85 -0.8 0 1 914.56 291.96
  C 927.75 288.61 941.41 280.50 951.66 271.38
  A 0.66 0.66 -34.5 0 0 951.81 270.59
  C 945.65 258.56 942.74 244.32 940.33 231.21
  Q 940.10 229.97 939.21 230.96
  L 927.63 243.89
  A 1.39 0.84 10.0 0 1 926.75 244.23
  Q 918.03 244.73 909.32 244.12
  Q 908.50 244.06 909.06 243.49
  C 917.01 235.31 924.82 229.51 928.52 217.88
  Q 936.92 191.50 933.66 163.39
  A 1.58 1.52 -7.4 0 1 935.01 161.70
  Q 946.61 159.95 956.58 166.05
  A 0.85 0.75 18.6 0 1 956.99 166.76
  L 956.44 181.74
  A 0.60 0.43 -0.8 0 0 957.06 182.17
  Z
  M 953.77 198.40
  C 953.10 200.73 952.68 202.65 953.07 205.13
  C 955.24 219.18 958.29 236.19 965.47 249.27
  Q 965.75 249.79 965.96 249.20
  Q 974.66 224.60 975.07 198.48
  A 0.61 0.60 2.0 0 0 974.49 197.87
  Q 964.47 197.22 954.43 197.86
  A 0.76 0.75 -83.7 0 0 953.77 198.40
  Z"
/>
<path fill="#d36c1d" d="
  M 918.42 202.63
  L 922.25 202.73
  Q 924.09 202.78 924.30 204.50
  L 925.51 214.75
  A 0.70 0.64 86.4 0 1 924.88 215.53
  Q 916.18 215.50 909.17 215.51
  C 906.25 215.52 904.56 216.77 902.77 218.80
  Q 902.20 219.45 903.01 219.46
  Q 908.66 219.55 913.80 217.33
  A 1.05 0.55 -30.4 0 1 914.71 217.29
  L 921.35 222.14
  A 0.89 0.66 -57.8 0 1 921.43 223.19
  Q 914.76 234.63 903.73 241.95
  A 1.08 0.66 -25.6 0 0 903.21 242.75
  L 904.04 252.49
  A 1.03 0.77 0.5 0 0 905.00 253.22
  Q 915.40 253.79 925.81 253.32
  A 1.16 0.19 44.5 0 1 926.62 253.89
  Q 933.68 260.42 934.44 270.10
  A 0.61 0.45 87.6 0 1 934.00 270.76
  L 906.25 269.77
  A 1.08 1.03 2.5 0 0 905.13 270.75
  L 903.74 302.31
  A 1.26 1.06 73.0 0 1 903.39 303.13
  Q 899.79 306.45 896.10 309.73
  C 892.89 312.58 894.08 311.30 890.34 311.10
  C 877.76 310.40 862.27 309.65 851.02 303.61
  A 1.02 0.46 21.9 0 1 850.44 303.01
  L 849.43 292.51
  A 0.87 0.76 4.5 0 1 850.48 291.73
  C 856.14 292.93 874.42 296.59 878.14 291.23
  A 1.83 1.30 68.7 0 0 878.39 290.24
  L 877.76 269.75
  A 0.82 0.76 89.2 0 0 877.00 268.95
  L 845.75 269.32
  A 0.78 0.64 -9.5 0 1 845.07 268.93
  Q 841.92 261.84 841.78 254.07
  A 0.73 0.72 89.6 0 1 842.50 253.33
  L 877.25 253.34
  A 2.01 1.81 -87.1 0 0 879.07 251.52
  L 879.85 242.68
  A 1.17 0.40 -28.6 0 1 880.48 242.00
  L 896.39 231.62
  Q 897.93 230.61 896.10 230.53
  C 892.74 230.39 888.48 229.90 885.45 231.83
  C 876.57 237.48 867.79 243.34 856.55 245.28
  C 852.41 245.99 847.02 245.94 842.35 246.29
  A 0.84 0.81 -3.0 0 1 841.44 245.50
  L 841.28 238.25
  A 0.86 0.65 -15.1 0 1 841.81 237.57
  Q 862.17 228.81 880.14 215.87
  Q 881.22 215.09 880.00 215.04
  Q 866.32 214.45 852.68 215.62
  A 0.93 0.92 -18.4 0 1 851.81 215.19
  L 845.13 204.34
  Q 844.02 202.54 846.24 202.41
  L 872.75 200.94
  A 0.79 0.69 -1.7 0 0 873.50 200.25
  L 873.50 189.75
  A 1.19 1.06 -1.5 0 0 872.25 188.70
  L 849.75 189.75
  A 0.50 0.48 88.9 0 1 849.25 189.25
  L 849.25 178.25
  A 0.80 0.60 86.3 0 1 849.75 177.49
  Q 861.06 175.63 872.49 174.88
  A 1.12 0.77 87.9 0 0 873.21 173.75
  L 872.97 164.00
  A 1.55 1.41 87.0 0 1 874.25 162.44
  Q 887.02 161.32 899.74 162.85
  A 0.62 0.62 5.3 0 1 900.29 163.51
  L 899.46 175.75
  A 1.01 0.93 8.6 0 0 900.25 176.73
  L 907.99 178.51
  A 0.87 0.81 16.1 0 0 908.99 178.00
  L 913.11 165.91
  A 0.70 0.57 17.5 0 1 913.92 165.59
  L 931.52 170.67
  A 1.28 1.25 16.3 0 1 932.40 172.23
  Q 927.80 188.14 918.08 201.57
  Q 917.33 202.61 918.42 202.63
  Z
  M 899.64 197.15
  L 903.59 190.83
  A 0.55 0.38 -66.9 0 0 903.43 190.04
  L 899.25 189.78
  A 0.71 0.47 -88.9 0 0 898.75 190.50
  L 898.74 196.75
  Q 898.74 198.59 899.64 197.15
  Z"
/>
<path fill="#d36c1d" d="
  M 1073.57 255.81
  Q 1073.75 274.29 1074.01 292.74
  C 1074.17 304.80 1067.00 310.81 1055.76 311.09
  C 1046.06 311.34 1029.41 311.39 1022.32 303.10
  A 1.08 0.85 37.1 0 1 1022.08 302.19
  Q 1024.07 295.68 1028.63 290.61
  A 0.74 0.46 33.6 0 1 1029.42 290.63
  Q 1033.85 293.21 1038.75 294.02
  C 1047.61 295.46 1046.50 287.06 1046.51 281.57
  C 1046.52 272.80 1045.46 264.03 1045.47 255.25
  A 0.72 0.72 0.8 0 0 1044.77 254.53
  C 1038.24 254.34 1029.01 255.85 1025.32 249.13
  C 1022.24 243.52 1018.02 235.03 1028.50 235.30
  Q 1036.59 235.52 1044.69 235.40
  A 0.60 0.39 -1.1 0 0 1045.29 235.00
  L 1044.81 199.00
  A 0.80 0.75 -0.7 0 0 1044.00 198.26
  Q 1037.46 198.37 1030.75 197.73
  C 1025.53 197.23 1016.94 179.88 1025.83 179.53
  Q 1034.90 179.17 1044.01 179.59
  A 0.44 0.44 2.5 0 0 1044.48 179.16
  C 1044.51 175.55 1043.69 167.59 1045.35 164.72
  C 1047.72 160.64 1056.79 162.07 1061.61 162.48
  Q 1068.09 163.03 1069.30 163.50
  C 1074.97 165.70 1073.54 174.43 1073.49 179.51
  A 0.79 0.76 1.5 0 0 1074.25 180.28
  L 1083.94 180.60
  Q 1086.20 180.67 1087.75 182.77
  C 1101.24 200.97 1086.46 198.77 1074.53 198.78
  A 1.27 1.22 0.0 0 0 1073.26 200.00
  L 1073.25 235.75
  A 0.47 0.46 -89.4 0 0 1073.70 236.22
  C 1084.72 236.29 1090.14 235.22 1092.58 248.10
  C 1094.46 257.99 1079.65 255.26 1074.07 255.31
  A 0.50 0.49 -0.6 0 0 1073.57 255.81
  Z"
/>
<path fill="#ffe3b8" d="
  M 159.95 181.32
  C 158.09 180.09 155.07 177.43 157.79 175.17
  A 1.69 1.10 13.2 0 1 158.68 174.85
  C 166.65 174.23 168.89 166.43 176.00 164.23
  C 182.27 162.28 189.76 163.93 193.30 169.95
  Q 196.87 176.02 191.01 178.69
  A 0.64 0.42 -21.2 0 1 190.19 178.52
  L 189.61 175.93
  A 1.72 1.04 27.0 0 0 189.15 175.19
  C 182.65 168.94 174.62 174.94 169.79 180.12
  A 1.19 1.17 65.8 0 0 169.47 180.98
  Q 169.95 193.35 170.49 195.75
  C 172.48 204.58 175.01 214.18 175.52 222.73
  C 176.44 238.24 171.80 246.26 162.19 257.57
  C 162.02 257.76 161.88 258.31 162.12 258.42
  A 0.70 0.38 -43.5 0 0 162.70 258.26
  C 169.69 253.02 174.84 250.45 182.92 251.57
  C 189.64 252.50 194.01 258.47 200.66 259.95
  C 210.12 262.04 219.91 254.73 218.45 244.50
  C 217.11 235.08 206.27 222.65 196.74 232.31
  A 1.48 0.85 -31.5 0 0 196.30 233.12
  Q 195.82 239.81 202.26 238.92
  A 0.39 0.38 -1.3 0 1 202.70 239.33
  C 202.23 243.82 198.73 245.97 194.45 245.43
  C 187.78 244.59 187.40 236.95 188.22 231.59
  C 189.23 224.90 197.74 221.40 203.52 222.03
  C 224.43 224.28 230.87 250.81 213.95 262.68
  C 205.00 268.96 195.00 266.96 185.53 262.39
  C 175.93 257.76 168.31 262.37 159.93 266.87
  A 1.21 0.65 -37.4 0 1 158.99 267.02
  Q 155.47 265.31 153.71 261.75
  Q 152.79 259.88 154.39 258.04
  C 156.97 255.06 160.27 252.19 161.37 248.39
  Q 163.29 241.77 163.37 234.81
  Q 163.63 213.81 163.31 192.81
  Q 163.24 188.21 162.18 184.39
  Q 161.64 182.44 159.95 181.32
  Z"
/>
<path fill="#fbc757" d="
  M 2024.75 757.54
  Q 2015.86 758.16 2024.75 757.71
  Q 2065.01 757.09 2105.20 754.70
  C 2108.34 754.51 2111.29 753.70 2114.18 752.80
  Q 2116.26 752.16 2117.92 753.56
  C 2120.77 755.95 2123.24 758.39 2125.70 761.47
  C 2139.75 779.12 2153.64 796.40 2169.39 812.60
  Q 2170.76 814.01 2170.83 814.13
  Q 2171.92 815.97 2169.78 815.97
  C 2115.39 815.96 2061.70 817.20 2007.64 818.37
  C 1995.70 818.63 1989.50 819.96 1984.53 809.00
  Q 1971.27 779.76 1957.29 750.47
  A 0.75 0.75 50.1 0 0 1956.00 750.35
  C 1945.41 765.00 1933.69 780.89 1926.98 796.74
  Q 1923.36 805.29 1921.54 809.38
  C 1917.72 817.96 1915.44 817.87 1906.50 818.09
  Q 1843.88 819.63 1781.23 820.51
  Q 1780.74 820.52 1781.09 820.17
  C 1788.47 812.72 1796.24 805.25 1802.50 797.20
  Q 1812.54 784.31 1821.20 770.44
  A 0.41 0.40 -63.6 0 0 1821.01 769.84
  C 1795.53 760.22 1773.80 752.25 1755.26 735.05
  A 0.85 0.85 -60.3 0 0 1753.87 735.43
  C 1745.13 764.87 1737.07 789.29 1722.92 813.17
  C 1720.24 817.70 1716.19 819.04 1710.75 819.13
  Q 1637.75 820.28 1564.75 820.44
  Q 1560.74 820.45 1557.34 818.45
  Q 1553.61 816.24 1556.39 814.15
  C 1565.06 807.64 1575.28 802.47 1584.57 796.83
  Q 1601.47 786.57 1612.16 773.62
  A 0.94 0.94 -67.4 0 1 1612.98 773.28
  C 1641.01 776.00 1670.86 773.53 1699.45 770.92
  Q 1705.24 770.39 1699.47 769.67
  C 1673.94 766.46 1647.90 765.19 1622.23 763.36
  A 0.59 0.59 18.5 0 1 1621.77 762.45
  Q 1629.36 750.65 1638.56 739.97
  Q 1640.86 737.30 1641.39 735.60
  C 1642.88 730.82 1637.17 731.69 1634.06 731.63
  C 1597.63 730.99 1560.50 731.19 1524.38 736.40
  C 1509.94 738.48 1494.55 742.48 1479.96 745.76
  Q 1477.50 746.31 1474.98 746.32
  C 1467.67 746.33 1467.70 741.10 1468.80 735.40
  Q 1471.86 719.44 1478.35 704.70
  Q 1479.25 702.66 1481.47 702.48
  C 1512.15 700.07 1542.89 698.47 1573.51 695.64
  A 0.57 0.35 4.2 0 0 1573.92 695.43
  Q 1574.05 695.19 1573.57 695.17
  Q 1535.93 693.27 1498.25 692.92
  C 1494.84 692.89 1486.83 698.20 1486.77 690.60
  Q 1486.74 687.56 1487.58 684.64
  Q 1490.50 674.50 1492.35 662.38
  C 1494.20 650.21 1491.09 633.95 1507.74 630.81
  C 1520.84 628.34 1533.09 629.12 1547.23 627.96
  C 1553.37 627.46 1553.08 623.86 1552.18 618.81
  Q 1551.56 615.36 1550.84 609.73
  C 1549.70 600.96 1554.64 599.62 1562.20 598.61
  Q 1588.89 595.04 1615.70 592.78
  Q 1616.20 592.74 1615.71 592.68
  Q 1608.93 591.87 1602.14 591.97
  C 1590.35 592.14 1580.90 592.00 1570.25 591.90
  C 1564.56 591.84 1549.88 592.89 1550.41 586.79
  A 1.79 1.36 -29.5 0 1 1550.79 585.91
  C 1552.80 583.41 1554.81 581.16 1554.95 577.74
  Q 1555.41 566.62 1555.11 550.44
  Q 1554.54 519.58 1553.34 488.75
  Q 1553.23 485.72 1552.63 483.64
  Q 1551.84 480.86 1548.96 480.93
  C 1526.64 481.41 1506.43 482.40 1482.50 482.77
  C 1457.60 483.15 1479.18 467.78 1480.33 459.28
  C 1481.00 454.35 1477.82 449.43 1485.51 447.72
  Q 1499.21 444.68 1513.27 445.16
  Q 1513.66 445.17 1513.24 445.12
  Q 1505.08 444.19 1496.91 443.39
  C 1489.12 442.62 1483.00 442.90 1482.59 434.19
  Q 1481.90 419.73 1481.74 405.26
  C 1481.65 397.12 1489.16 398.30 1494.56 398.24
  C 1515.31 398.00 1536.60 398.89 1557.25 397.30
  A 0.64 0.63 -86.4 0 0 1557.83 396.78
  Q 1558.33 393.94 1558.26 392.25
  Q 1557.61 376.25 1557.23 359.95
  A 2.65 2.40 -19.9 0 1 1558.34 357.85
  L 1564.60 353.36
  A 0.53 0.37 48.0 0 0 1564.51 352.67
  C 1562.13 350.20 1560.11 348.21 1560.01 344.51
  C 1559.02 309.07 1557.54 273.51 1557.50 238.07
  C 1557.50 234.05 1556.79 231.12 1562.00 231.72
  Q 1621.52 238.60 1647.74 242.43
  C 1654.88 243.48 1657.15 248.95 1656.38 255.67
  C 1653.97 276.80 1650.56 297.01 1651.01 319.19
  C 1651.19 328.18 1652.94 339.21 1653.30 349.33
  C 1653.45 353.56 1651.46 355.72 1647.43 356.20
  Q 1620.74 359.35 1593.96 361.83
  Q 1593.12 361.91 1593.64 362.31
  Q 1593.84 362.46 1594.25 362.47
  Q 1621.00 363.15 1647.75 363.74
  Q 1652.62 363.84 1652.51 369.00
  Q 1652.25 380.89 1651.50 392.75
  Q 1651.35 395.11 1651.84 397.40
  A 0.81 0.75 85.9 0 0 1652.50 398.02
  Q 1664.85 399.40 1677.26 398.32
  A 1.80 1.75 86.0 0 0 1678.86 396.43
  Q 1678.05 381.99 1677.34 368.24
  Q 1677.22 366.02 1677.61 363.79
  Q 1678.06 361.23 1680.63 360.90
  Q 1704.97 357.72 1729.74 354.89
  Q 1730.76 354.78 1731.72 354.46
  Q 1732.23 354.29 1731.70 354.30
  Q 1705.46 354.77 1679.24 355.55
  Q 1673.63 355.72 1673.35 350.01
  Q 1673.02 343.51 1673.74 337.04
  A 0.61 0.58 -88.7 0 1 1674.27 336.51
  Q 1746.43 331.16 1818.75 333.50
  A 0.44 0.39 85.6 0 0 1819.13 332.99
  C 1814.75 305.05 1812.19 276.87 1809.09 248.77
  C 1805.90 219.86 1802.51 201.30 1798.70 177.52
  C 1797.66 171.03 1799.59 164.37 1807.25 164.63
  Q 1851.57 166.13 1895.77 169.53
  C 1905.38 170.27 1907.89 172.95 1908.87 182.26
  Q 1911.13 203.75 1912.83 224.40
  A 1.21 1.09 -8.6 0 0 1914.27 225.35
  L 1988.75 209.48
  Q 1992.14 208.76 1996.47 208.34
  Q 2003.82 207.62 2005.64 214.07
  C 2008.74 225.05 2009.28 234.73 2014.09 246.60
  Q 2027.52 279.78 2051.85 308.34
  Q 2053.12 309.83 2053.43 311.76
  C 2054.21 316.44 2050.16 317.63 2046.21 318.01
  C 2032.07 319.41 2020.35 320.10 2008.37 328.60
  Q 2005.28 330.79 2009.00 330.06
  Q 2022.58 327.38 2036.28 325.50
  C 2042.15 324.70 2044.46 327.71 2044.70 333.30
  Q 2046.09 366.62 2046.27 399.92
  C 2046.32 409.06 2041.57 410.32 2033.16 410.20
  C 2001.92 409.72 1967.75 411.65 1937.77 413.74
  A 0.47 0.47 84.9 0 0 1937.33 414.27
  C 1941.62 450.09 1946.25 489.40 1954.84 525.79
  C 1957.85 538.53 1962.15 551.41 1966.45 564.04
  Q 1966.58 564.41 1966.83 564.12
  Q 2003.82 521.20 2036.24 474.77
  C 2040.20 469.10 2050.27 465.10 2053.29 474.25
  Q 2055.98 482.43 2057.04 487.74
  Q 2064.85 526.64 2075.54 564.84
  Q 2076.32 567.62 2075.81 569.75
  C 2074.43 575.59 2061.73 596.25 2053.54 599.47
  A 1.76 1.59 38.0 0 1 2052.57 599.54
  Q 2049.51 598.89 2046.57 598.69
  C 2008.35 596.09 1970.05 600.40 1932.29 607.31
  Q 1931.79 607.41 1932.28 607.50
  Q 1935.89 608.21 1939.56 608.23
  Q 1989.79 608.54 2039.99 607.32
  C 2043.89 607.23 2051.37 608.62 2047.38 614.30
  Q 2032.20 635.91 2014.49 655.52
  Q 2012.65 657.56 2013.48 660.25
  Q 2021.45 686.03 2040.92 704.60
  A 0.53 0.51 45.4 0 0 2041.63 704.62
  Q 2055.51 691.71 2067.25 676.73
  C 2072.39 670.18 2075.08 660.71 2077.94 652.92
  Q 2078.48 651.47 2079.05 652.91
  Q 2095.94 695.41 2115.29 736.97
  C 2117.36 741.40 2117.71 745.70 2111.82 746.67
  C 2084.12 751.23 2053.76 753.73 2024.75 757.54
  Z
  M 1926.75 329.06
  L 1965.25 331.53
  Q 1966.17 331.59 1965.49 330.79
  Q 1941.97 303.27 1924.49 271.59
  Q 1919.78 263.06 1915.00 254.49
  Q 1914.68 253.92 1914.76 254.50
  L 1925.80 328.24
  A 1.03 0.97 -2.3 0 0 1926.75 329.06
  Z
  M 1921.40 439.42
  Q 1925.54 439.11 1921.41 438.69
  C 1893.88 435.87 1869.31 436.33 1836.85 436.81
  C 1833.65 436.85 1831.69 435.73 1831.54 432.42
  Q 1831.15 423.87 1830.86 415.09
  A 0.56 0.52 -3.1 0 0 1830.26 414.59
  L 1780.49 418.18
  A 0.71 0.65 83.7 0 0 1779.90 418.99
  C 1780.43 422.75 1782.47 434.76 1780.26 437.61
  Q 1778.73 439.59 1776.25 439.62
  Q 1704.37 440.61 1647.09 445.47
  C 1646.17 445.55 1644.74 446.15 1647.32 446.35
  C 1688.23 449.65 1724.30 450.37 1769.93 450.26
  C 1773.53 450.26 1782.21 449.19 1781.96 454.81
  Q 1781.23 471.37 1781.18 487.96
  A 0.61 0.60 3.1 0 0 1781.74 488.57
  Q 1816.17 491.62 1850.56 488.26
  A 0.49 0.47 75.0 0 0 1850.94 487.57
  Q 1843.01 469.75 1834.93 451.99
  C 1833.45 448.75 1832.31 444.43 1837.50 444.22
  Q 1878.51 442.56 1921.40 439.42
  Z
  M 1653.73 638.37
  C 1659.95 638.50 1666.07 638.99 1672.28 638.89
  A 0.61 0.60 -84.8 0 0 1672.87 638.39
  C 1676.62 617.35 1680.45 597.86 1681.57 575.19
  Q 1681.95 567.35 1681.97 555.18
  Q 1682.04 516.89 1681.63 477.89
  A 0.94 0.85 88.8 0 0 1680.75 476.96
  L 1648.74 478.06
  A 1.63 1.46 87.8 0 0 1647.34 479.75
  Q 1650.62 558.47 1649.60 637.25
  A 0.67 0.62 -84.0 0 0 1650.08 637.89
  Q 1651.95 638.33 1653.73 638.37
  Z
  M 1774.59 656.91
  Q 1791.31 669.91 1812.51 671.59
  A 0.52 0.50 -83.1 0 0 1813.04 671.16
  C 1818.67 636.17 1822.29 603.56 1820.93 568.31
  A 0.52 0.41 87.6 0 0 1820.50 567.81
  L 1782.50 569.52
  A 1.13 1.04 0.2 0 0 1781.43 570.50
  Q 1778.76 612.73 1773.65 654.74
  A 2.48 2.32 23.5 0 0 1774.59 656.91
  Z
  M 1881.44 588.69
  C 1882.71 619.96 1882.28 654.94 1878.74 688.39
  Q 1878.57 689.92 1879.49 688.76
  L 1906.32 654.57
  A 1.14 1.06 52.0 0 0 1906.42 653.42
  Q 1890.21 618.97 1882.18 581.98
  Q 1882.12 581.67 1881.99 581.47
  C 1880.80 579.50 1881.37 587.10 1881.44 588.69
  Z"
/>
<path fill="#d36c1d" d="
  M 1092.44 168.86
  Q 1093.54 165.94 1096.66 165.97
  Q 1141.25 166.51 1185.75 167.01
  Q 1188.50 167.04 1191.20 167.55
  Q 1193.94 168.07 1193.06 170.79
  Q 1191.06 176.95 1185.75 180.76
  A 1.88 1.26 18.1 0 1 1184.75 181.04
  Q 1147.95 180.80 1111.16 181.03
  C 1106.65 181.06 1102.09 180.68 1097.57 180.42
  C 1092.46 180.13 1091.06 172.51 1092.44 168.86
  Z"
/>
<path fill="#d36c1d" d="
  M 540.81 304.05
  L 512.00 304.01
  A 0.79 0.76 0.0 0 1 511.21 303.25
  L 511.10 234.25
  A 1.02 0.98 86.5 0 0 510.00 233.23
  Q 484.44 236.36 458.76 234.60
  A 0.77 0.69 -89.3 0 1 458.11 233.86
  L 457.73 222.81
  A 0.79 0.79 -3.5 0 1 458.49 221.99
  C 481.44 221.27 502.75 220.70 523.48 208.12
  C 539.31 198.52 543.35 185.01 548.33 168.42
  A 1.83 1.63 6.6 0 1 550.00 167.25
  L 577.69 166.61
  A 0.49 0.44 1.4 0 1 578.20 167.09
  C 576.09 188.13 559.85 211.17 542.16 222.27
  A 0.88 0.85 -16.8 0 0 541.75 223.00
  L 541.75 303.00
  A 1.05 0.94 90.0 0 1 540.81 304.05
  Z"
/>
<path fill="#d36c1d" d="
  M 702.41 303.22
  C 698.28 300.51 701.47 288.18 702.60 284.26
  C 704.40 278.06 708.37 277.45 714.32 277.27
  C 726.72 276.90 740.02 277.36 752.24 275.47
  C 770.45 272.65 788.79 254.99 795.66 238.18
  C 801.81 223.11 803.52 207.79 805.39 191.77
  C 806.36 183.40 807.32 171.04 815.23 167.38
  C 819.19 165.55 825.15 167.97 828.79 169.93
  Q 831.77 171.52 830.03 173.74
  C 824.31 181.06 825.83 189.65 824.72 197.99
  Q 820.49 229.92 812.05 254.51
  C 803.79 278.62 779.70 297.32 754.67 301.81
  C 739.87 304.47 721.67 304.55 705.32 304.13
  Q 703.74 304.08 702.41 303.22
  Z"
/>
<path fill="#d36c1d" d="
  M 634.37 255.81
  L 634.07 301.49
  A 1.78 1.57 -89.8 0 1 632.50 303.26
  L 602.50 303.25
  A 0.81 0.75 -90.0 0 1 601.75 302.44
  L 601.75 167.75
  A 1.06 0.98 -89.5 0 1 602.75 166.69
  L 634.25 167.31
  A 0.86 0.82 -89.0 0 1 635.05 168.18
  Q 634.58 197.87 634.86 226.25
  Q 634.90 229.75 635.29 233.26
  Q 635.61 236.12 638.48 236.29
  C 654.31 237.28 670.37 236.68 686.24 236.50
  C 689.01 236.47 696.26 236.35 698.74 237.48
  C 703.85 239.81 696.28 249.55 693.94 251.45
  C 690.68 254.10 683.76 253.71 677.43 253.76
  Q 659.30 253.93 641.15 253.69
  C 639.79 253.68 638.12 254.16 636.55 254.05
  Q 634.38 253.90 634.37 255.81
  Z"
/>
<path fill="#d36c1d" d="
  M 336.60 303.31
  A 0.92 0.81 1.1 0 1 335.71 302.50
  L 335.58 168.75
  A 1.73 1.71 0.0 0 1 337.31 167.04
  L 366.07 167.10
  A 0.46 0.44 -89.4 0 1 366.50 167.56
  L 366.50 279.75
  A 1.64 1.36 18.9 0 0 367.26 281.00
  C 373.64 284.98 379.44 285.06 387.37 284.32
  C 414.14 281.83 430.34 266.11 442.51 243.43
  A 0.82 0.80 14.0 0 1 443.25 243.00
  Q 448.40 243.10 453.43 243.25
  C 455.06 243.30 457.99 242.76 460.37 243.40
  A 0.41 0.40 -69.5 0 1 460.62 243.98
  Q 456.32 252.49 451.30 260.56
  C 438.24 281.59 412.50 299.01 387.93 302.13
  C 371.39 304.23 353.70 303.84 336.60 303.31
  Z"
/>
<path fill="#d36c1d" d="
  M 709.29 176.05
  A 1.00 0.89 18.8 0 1 710.00 175.75
  L 768.25 175.75
  A 0.50 0.41 2.0 0 1 768.76 176.20
  Q 767.81 188.61 757.77 195.76
  A 1.89 1.40 -55.1 0 1 756.76 196.10
  Q 729.65 195.22 702.59 194.73
  C 700.30 194.69 696.31 195.73 697.50 191.58
  C 698.76 187.23 705.99 179.71 709.29 176.05
  Z"
/>
<path fill="#d36c1d" d="
  M 1146.34 185.90
  C 1152.11 190.32 1151.92 197.84 1152.20 204.37
  A 1.36 1.34 -4.6 0 1 1151.00 205.76
  Q 1141.03 206.95 1131.00 206.24
  A 0.87 0.85 4.3 0 1 1130.19 205.32
  Q 1130.89 197.13 1127.55 189.59
  C 1126.77 187.82 1125.24 186.74 1124.03 185.20
  Q 1122.41 183.15 1125.69 182.90
  C 1131.80 182.42 1141.20 181.95 1146.34 185.90
  Z"
/>
<path fill="#d36c1d" d="
  M 1096.28 184.95
  C 1097.39 181.90 1109.46 182.99 1112.36 183.16
  C 1123.66 183.86 1127.97 196.54 1123.41 205.56
  A 0.86 0.66 -73.2 0 1 1122.75 206.03
  L 1101.49 205.68
  A 1.15 0.99 -89.2 0 1 1100.51 204.51
  C 1100.58 199.17 1101.07 192.35 1097.06 188.42
  Q 1095.55 186.94 1096.28 184.95
  Z"
/>
<path fill="#d36c1d" d="
  M 1160.40 207.04
  C 1155.08 207.26 1156.29 202.74 1157.43 199.45
  Q 1159.29 194.04 1160.49 188.51
  C 1161.24 185.09 1162.79 183.31 1166.31 183.33
  Q 1181.48 183.40 1186.73 184.27
  C 1198.52 186.21 1178.72 204.52 1176.06 206.61
  A 1.53 1.52 24.4 0 1 1175.17 206.94
  C 1170.24 207.12 1165.33 206.84 1160.40 207.04
  Z"
/>
<path fill="#d36c1d" d="
  M 1270.06 236.07
  Q 1294.12 225.43 1319.22 217.52
  A 0.68 0.63 -13.9 0 1 1320.09 218.00
  C 1321.48 226.64 1319.83 232.86 1315.89 240.52
  Q 1315.09 242.08 1313.38 242.46
  Q 1291.31 247.41 1271.04 256.52
  C 1262.54 260.35 1249.72 271.75 1253.90 282.18
  C 1257.55 291.31 1274.94 292.14 1282.76 291.76
  Q 1302.13 290.84 1320.54 284.02
  A 1.35 1.32 73.2 0 1 1322.30 284.99
  Q 1324.15 292.93 1323.34 301.07
  A 0.98 0.77 -12.5 0 1 1322.78 301.75
  Q 1289.49 316.65 1254.21 307.27
  Q 1235.27 302.24 1232.09 285.21
  C 1229.23 269.84 1237.40 255.70 1250.05 247.06
  A 0.97 0.95 -30.6 0 0 1250.38 245.84
  Q 1240.70 226.27 1231.99 206.26
  A 1.04 1.03 77.1 0 1 1232.89 204.81
  C 1244.90 204.31 1255.58 204.46 1261.59 216.70
  Q 1266.12 225.94 1269.22 235.77
  A 0.64 0.56 -21.4 0 0 1270.06 236.07
  Z"
/>
<path fill="#d36c1d" d="
  M 1098.69 235.56
  C 1094.64 235.56 1087.98 235.69 1085.14 234.82
  C 1078.77 232.87 1081.11 220.52 1082.12 215.52
  C 1083.42 209.07 1091.42 207.77 1096.81 207.80
  Q 1140.90 208.05 1185.00 208.77
  C 1195.40 208.94 1199.63 223.21 1198.44 231.36
  Q 1198.01 234.31 1195.00 234.49
  L 1183.00 235.22
  A 0.73 0.55 88.8 0 0 1182.48 235.94
  Q 1182.38 244.28 1181.08 247.77
  C 1176.40 260.35 1167.18 276.21 1155.56 283.59
  Q 1154.93 283.99 1155.65 284.20
  Q 1164.26 286.68 1173.23 286.79
  C 1178.30 286.84 1189.63 282.80 1189.88 291.16
  Q 1190.16 300.54 1189.06 306.50
  C 1188.08 311.85 1184.14 310.72 1179.69 310.04
  Q 1156.78 306.54 1136.18 295.88
  A 1.09 0.77 39.8 0 0 1135.30 295.81
  Q 1113.66 306.72 1089.72 310.91
  A 2.79 2.58 -28.5 0 1 1087.52 310.35
  C 1084.48 307.82 1083.92 300.45 1083.38 296.63
  C 1082.63 291.26 1086.35 290.19 1090.95 289.59
  Q 1104.39 287.85 1117.27 282.79
  A 0.88 0.88 57.3 0 0 1117.58 281.36
  C 1106.15 269.41 1097.36 253.57 1099.13 236.06
  A 0.45 0.44 -87.1 0 0 1098.69 235.56
  Z
  M 1105.76 221.99
  Q 1104.67 227.23 1105.71 232.45
  A 0.80 0.30 -5.1 0 0 1106.49 232.67
  Q 1136.63 230.62 1166.74 232.89
  A 2.13 1.83 9.5 0 0 1168.88 231.60
  Q 1170.33 226.77 1168.77 222.04
  A 0.89 0.37 -0.5 0 0 1168.00 221.73
  Q 1137.66 220.80 1107.31 221.04
  A 1.66 1.16 3.5 0 0 1105.76 221.99
  Z
  M 1121.69 246.64
  A 0.54 0.44 84.6 0 0 1121.27 247.26
  Q 1123.85 262.45 1135.41 272.61
  A 0.67 0.59 -39.2 0 0 1136.16 272.64
  Q 1150.29 263.80 1151.10 246.98
  A 0.41 0.36 -88.5 0 0 1150.74 246.55
  L 1121.69 246.64
  Z"
/>
<path fill="#ffe3b8" d="
  M 133.37 316.93
  C 132.30 316.29 133.59 316.18 134.01 316.30
  Q 139.42 317.92 146.73 317.62
  Q 167.00 316.76 184.65 310.09
  C 198.35 304.91 211.20 296.75 224.77 292.99
  Q 237.33 289.51 247.94 297.76
  Q 252.95 301.67 259.42 299.67
  Q 259.88 299.52 259.55 299.87
  C 226.11 334.86 174.95 341.69 133.37 316.93
  Z"
/>
<path fill="#d36c1d" d="
  M 168.18 459.17
  Q 162.55 458.97 147.56 459.14
  Q 101.09 459.65 82.75 460.36
  C 77.21 460.57 76.19 458.16 75.60 453.09
  C 75.13 449.07 73.26 440.77 77.99 438.72
  Q 80.78 437.51 90.75 436.50
  Q 95.52 436.02 121.31 435.73
  Q 165.38 435.22 209.43 434.43
  A 0.23 0.22 86.6 0 0 209.65 434.17
  Q 206.66 407.31 186.57 389.44
  A 0.86 0.71 32.0 0 1 186.29 388.60
  C 188.77 381.45 196.40 383.17 202.25 383.31
  Q 243.02 384.28 283.77 385.99
  C 288.41 386.18 292.33 385.24 294.36 390.62
  Q 301.64 409.93 304.76 430.80
  Q 305.12 433.16 307.50 433.17
  Q 337.85 433.30 369.32 433.26
  C 375.53 433.26 379.03 432.22 380.11 439.04
  Q 381.93 450.49 383.11 460.90
  A 1.70 1.69 -5.6 0 1 381.57 462.77
  Q 357.72 464.73 334.10 464.73
  C 333.06 464.73 331.65 465.00 330.72 465.11
  Q 328.50 465.37 330.72 465.66
  Q 352.92 468.54 374.74 467.46
  Q 380.07 467.19 380.67 472.19
  Q 383.64 496.87 384.33 508.74
  C 385.09 521.92 335.45 517.39 327.73 516.65
  Q 326.83 516.56 327.28 517.35
  Q 334.70 530.53 338.50 545.30
  C 345.14 571.12 349.21 597.71 353.54 624.00
  C 354.63 630.66 350.07 629.43 345.58 628.84
  Q 307.28 623.87 268.81 620.53
  C 253.07 619.17 235.55 619.99 219.99 622.70
  Q 211.04 624.26 204.81 628.04
  C 195.68 633.58 196.54 646.83 202.08 654.43
  C 215.34 672.62 244.45 679.26 264.71 683.70
  Q 304.66 692.47 338.93 695.59
  Q 343.26 695.98 342.67 699.92
  Q 341.83 705.51 332.16 735.30
  A 0.68 0.66 9.1 0 1 331.50 735.76
  Q 286.75 734.67 255.75 735.01
  Q 230.26 735.29 198.81 738.13
  Q 198.30 738.17 198.80 738.27
  Q 201.73 738.83 206.00 738.94
  C 248.32 739.97 293.85 741.31 337.80 742.23
  A 0.71 0.61 -3.2 0 1 338.48 742.75
  Q 340.10 753.07 340.43 763.50
  A 1.22 0.44 83.7 0 1 340.20 764.45
  L 335.55 768.05
  A 0.60 0.54 58.5 0 0 335.42 768.76
  C 336.84 771.52 338.54 773.38 338.90 776.56
  Q 339.65 783.24 339.97 789.90
  A 0.47 0.47 89.4 0 1 339.49 790.39
  Q 318.54 790.03 299.83 787.88
  C 255.35 782.77 209.42 773.63 167.30 759.22
  C 146.63 752.15 129.76 741.44 116.19 723.80
  C 108.87 714.29 101.99 704.78 97.42 694.34
  Q 85.91 668.06 89.07 637.74
  C 91.44 614.98 104.88 595.01 123.11 581.79
  A 1.55 1.52 26.6 0 1 124.01 581.50
  C 151.84 581.80 178.35 579.63 207.46 576.16
  Q 207.96 576.10 207.45 576.10
  L 129.49 576.52
  Q 129.14 576.52 129.36 576.26
  C 143.68 559.14 166.38 553.75 187.99 551.41
  Q 212.83 548.72 237.71 547.02
  A 0.63 0.62 -9.6 0 0 238.27 546.24
  L 230.65 517.91
  A 0.72 0.54 -6.0 0 0 229.97 517.50
  Q 198.23 517.90 166.57 518.52
  C 132.88 519.19 110.90 521.30 80.74 526.49
  C 72.99 527.83 73.43 522.24 73.51 516.45
  Q 73.80 496.44 74.13 476.43
  C 74.24 469.63 76.52 468.93 82.49 468.31
  Q 125.35 463.82 168.20 459.24
  Q 168.70 459.19 168.18 459.17
  Z"
/>
<path fill="#d36c1d" d="
  M 797.05 617.90
  Q 797.21 618.02 797.99 618.09
  Q 828.74 621.08 859.50 623.98
  C 864.78 624.48 863.00 636.97 863.00 640.82
  A 0.90 0.89 90.0 0 0 863.89 641.72
  C 895.16 641.74 925.61 649.26 955.48 658.08
  C 958.80 659.06 961.01 661.79 958.73 664.97
  C 945.25 683.75 935.31 702.95 921.48 727.71
  Q 918.81 732.49 913.03 731.76
  Q 891.38 729.04 869.64 729.06
  A 0.60 0.56 -85.2 0 0 869.08 729.57
  L 866.63 745.43
  A 1.27 1.12 8.7 0 1 865.21 746.34
  C 855.62 744.92 845.67 746.59 836.10 747.31
  A 0.31 0.19 -12.7 0 0 835.79 747.61
  L 835.88 747.75
  A 0.35 0.22 -8.7 0 0 836.16 747.87
  C 845.33 747.95 857.82 747.90 865.86 752.77
  A 0.54 0.53 -60.4 0 1 866.05 753.48
  C 863.53 758.18 861.04 763.66 857.64 767.38
  Q 851.00 774.65 841.28 779.08
  C 815.27 790.93 786.67 795.39 758.26 795.41
  C 733.18 795.44 712.47 787.77 692.19 773.46
  C 680.20 765.00 670.90 757.84 662.40 746.92
  A 0.30 0.29 -25.2 0 1 662.57 746.45
  Q 690.15 740.72 717.61 740.64
  C 717.78 740.64 719.42 740.39 717.74 740.03
  Q 706.77 737.72 703.93 737.42
  C 689.75 735.96 671.21 734.61 658.19 740.74
  A 0.94 0.94 -20.9 0 1 656.89 740.16
  C 652.05 723.69 648.43 709.03 652.56 692.81
  C 661.92 656.05 693.96 647.79 726.25 640.74
  Q 742.74 637.14 759.58 636.41
  A 0.98 0.98 -89.0 0 0 760.51 635.51
  Q 760.85 631.26 760.55 627.00
  Q 754.08 537.21 751.97 510.51
  C 751.65 506.47 752.99 504.45 757.26 504.28
  C 763.16 504.04 823.11 500.46 823.61 498.93
  A 0.61 0.39 12.3 0 0 823.06 498.39
  C 801.14 494.60 779.77 493.82 755.82 492.94
  Q 750.76 492.75 750.34 487.51
  Q 747.01 446.23 743.87 404.93
  C 743.41 398.79 743.68 394.26 751.50 394.74
  Q 798.05 397.61 844.56 401.17
  C 849.12 401.51 851.19 403.44 851.66 408.15
  Q 853.30 424.80 854.23 441.38
  A 1.48 1.47 87.1 0 0 855.77 442.78
  Q 901.54 440.62 946.81 438.32
  C 951.72 438.07 961.41 436.38 961.00 445.00
  Q 959.91 467.92 957.52 500.76
  C 956.82 510.42 954.21 511.06 945.55 511.46
  C 923.54 512.50 899.40 512.48 879.24 517.47
  Q 871.98 519.27 859.89 524.85
  A 0.71 0.70 -15.2 0 0 859.48 525.56
  Q 863.88 566.83 863.08 608.28
  C 862.96 614.40 860.33 615.05 855.01 615.14
  Q 826.11 615.67 797.23 617.25
  Q 796.20 617.31 797.05 617.90
  Z
  M 743.31 708.26
  C 739.00 715.36 745.37 721.02 752.07 721.91
  Q 762.01 723.23 772.67 721.76
  C 784.85 720.09 785.48 712.65 784.05 702.00
  A 0.73 0.72 2.4 0 0 783.49 701.40
  C 775.49 699.64 748.13 700.31 743.31 708.26
  Z"
/>
<path fill="#d36c1d" d="
  M 1289.06 459.53
  Q 1292.15 458.97 1289.02 458.74
  Q 1259.65 456.60 1230.34 453.79
  C 1226.72 453.44 1224.64 452.24 1224.57 448.45
  Q 1224.15 424.79 1225.76 410.99
  Q 1226.31 406.23 1232.04 405.20
  Q 1250.10 401.99 1268.44 401.30
  Q 1349.82 398.23 1431.25 396.87
  C 1437.11 396.78 1439.24 400.18 1439.47 405.77
  Q 1439.97 417.98 1439.46 430.20
  C 1439.20 436.39 1439.34 440.81 1432.07 440.77
  C 1424.90 440.73 1417.71 440.51 1410.68 441.35
  Q 1395.27 443.19 1383.01 445.94
  Q 1375.79 447.56 1383.18 447.18
  Q 1406.49 445.98 1429.38 445.07
  C 1437.17 444.76 1440.61 444.58 1441.52 452.95
  C 1442.31 460.24 1442.65 468.98 1434.42 471.44
  C 1421.52 475.31 1407.40 487.99 1397.03 496.78
  Q 1368.99 520.53 1342.59 546.01
  Q 1342.18 546.41 1342.73 546.24
  C 1358.94 541.26 1375.71 538.10 1392.99 538.88
  C 1426.09 540.38 1456.80 558.00 1474.06 586.32
  C 1476.20 589.84 1477.78 592.14 1476.24 595.76
  C 1474.80 599.14 1471.71 599.34 1468.19 598.92
  Q 1458.77 597.81 1453.25 597.95
  C 1450.62 598.02 1424.38 599.06 1424.15 599.65
  A 0.58 0.30 7.5 0 0 1424.75 600.07
  L 1475.50 603.16
  Q 1477.32 603.27 1478.81 603.77
  Q 1482.19 604.90 1482.26 609.25
  Q 1482.37 615.86 1480.51 631.34
  C 1477.68 654.95 1470.85 678.36 1459.46 698.54
  Q 1456.93 703.02 1450.49 702.75
  C 1425.56 701.70 1401.57 702.08 1376.98 706.86
  C 1373.34 707.56 1376.70 708.02 1377.15 708.04
  Q 1419.77 709.82 1441.93 710.04
  C 1448.95 710.12 1455.49 714.32 1449.52 721.57
  C 1432.41 742.32 1414.06 759.94 1390.48 772.58
  C 1351.53 793.47 1303.57 805.34 1260.10 796.07
  C 1231.32 789.93 1207.54 761.79 1206.35 732.57
  C 1206.08 725.69 1204.64 712.10 1210.03 708.58
  Q 1212.06 707.25 1216.71 707.17
  C 1234.73 706.83 1252.34 706.30 1270.22 703.74
  A 0.25 0.17 73.8 0 0 1270.32 703.43
  L 1270.25 703.25
  A 0.61 0.34 -1.5 0 0 1269.75 702.99
  Q 1251.68 701.83 1241.43 701.84
  Q 1223.04 701.88 1217.01 701.25
  C 1211.55 700.68 1206.03 695.47 1210.85 690.36
  C 1226.87 673.36 1246.66 662.45 1268.72 654.92
  C 1290.80 647.38 1313.34 648.44 1335.99 652.32
  Q 1354.42 655.48 1368.38 665.56
  A 0.70 0.69 44.5 0 0 1369.19 665.56
  C 1381.51 656.69 1396.21 645.61 1393.78 628.50
  C 1391.61 613.18 1367.36 609.93 1355.57 608.93
  C 1308.29 604.90 1266.01 619.36 1226.31 643.86
  C 1219.41 648.12 1211.17 654.00 1203.56 659.01
  C 1197.52 662.99 1194.68 665.02 1189.22 659.41
  Q 1175.68 645.53 1168.24 636.23
  Q 1164.66 631.75 1168.84 627.09
  Q 1186.92 606.93 1199.67 593.16
  Q 1202.39 590.22 1206.68 590.16
  C 1229.73 589.86 1253.45 590.10 1276.00 588.01
  Q 1281.14 587.53 1287.72 586.07
  Q 1288.22 585.96 1287.74 585.81
  Q 1286.13 585.30 1284.94 585.32
  C 1262.09 585.60 1239.12 586.31 1216.25 586.43
  Q 1210.83 586.46 1209.23 582.29
  Q 1208.47 580.33 1209.93 578.81
  Q 1213.41 575.16 1216.70 571.95
  Q 1261.79 527.95 1309.35 486.57
  Q 1311.01 485.13 1308.83 485.49
  Q 1302.05 486.63 1294.32 487.09
  Q 1258.19 489.26 1227.76 489.31
  C 1217.36 489.33 1221.35 473.54 1222.75 467.51
  C 1224.19 461.32 1228.46 462.10 1233.56 461.88
  Q 1259.16 460.77 1284.75 459.86
  Q 1287.87 459.75 1289.06 459.53
  Z
  M 1286.29 723.25
  C 1284.65 731.02 1298.31 732.02 1302.84 731.36
  C 1311.59 730.09 1319.83 726.24 1327.71 722.44
  A 0.75 0.73 -16.4 0 0 1328.12 721.71
  C 1327.03 710.65 1319.23 703.54 1308.23 703.45
  C 1296.78 703.36 1288.57 712.43 1286.29 723.25
  Z"
/>
<path fill="#d36c1d" d="
  M 618.62 501.82
  C 618.77 501.92 618.95 502.02 619.14 502.01
  C 640.34 501.57 661.70 500.46 682.89 500.77
  C 687.48 500.84 689.83 501.77 690.54 506.49
  Q 691.02 509.72 690.88 512.99
  Q 690.67 517.81 690.20 523.89
  C 689.59 531.76 690.52 536.60 681.45 536.93
  Q 633.35 538.63 585.60 539.74
  A 0.97 0.90 87.9 0 0 584.73 540.75
  L 585.66 562.76
  A 1.62 1.43 87.4 0 0 587.17 564.32
  Q 638.65 561.96 691.24 559.97
  C 695.70 559.80 697.62 562.72 697.07 567.02
  Q 693.24 597.14 688.42 627.10
  C 687.93 630.12 686.33 632.20 683.25 632.24
  Q 636.37 632.88 590.30 633.60
  Q 588.15 633.63 588.23 635.75
  L 589.74 681.25
  A 1.06 0.86 73.8 0 1 589.39 682.08
  C 589.15 682.28 584.11 685.58 584.21 685.89
  A 0.90 0.52 -2.6 0 0 584.98 686.29
  Q 608.48 687.36 632.00 687.67
  C 638.55 687.75 643.83 688.78 642.56 696.76
  Q 639.12 718.24 637.76 739.06
  A 1.44 1.43 4.7 0 1 636.19 740.39
  C 620.11 738.77 605.06 740.06 589.01 742.55
  Q 587.40 742.80 589.08 743.01
  Q 589.24 743.04 589.43 743.03
  Q 615.30 742.28 620.50 742.78
  Q 628.37 743.54 637.11 744.33
  Q 639.71 744.56 640.69 746.98
  C 641.26 748.37 641.99 750.16 642.27 751.74
  Q 647.53 781.73 659.22 808.96
  Q 659.80 810.32 658.36 810.05
  C 630.72 805.07 604.49 796.56 578.45 786.58
  A 1.27 1.25 43.9 0 0 577.52 786.59
  Q 538.40 803.21 505.45 813.95
  C 480.32 822.15 449.99 822.07 424.24 816.60
  C 403.78 812.26 384.80 802.44 370.55 787.24
  C 361.48 777.56 360.29 765.06 360.76 752.41
  C 360.88 749.25 362.19 747.37 365.44 747.35
  Q 391.85 747.16 418.25 746.10
  Q 422.67 745.92 419.43 745.10
  Q 419.04 745.00 418.56 744.94
  Q 392.41 741.47 366.22 738.10
  Q 363.34 737.73 363.53 734.83
  C 364.00 728.00 364.67 714.65 374.96 715.05
  C 389.69 715.62 404.39 715.50 419.13 715.65
  Q 427.57 715.74 435.95 714.58
  Q 436.76 714.47 435.94 714.45
  L 379.25 713.22
  A 1.84 0.83 -9.8 0 1 378.28 712.97
  Q 375.41 710.96 373.37 708.10
  Q 372.11 706.32 373.80 704.84
  C 397.63 684.02 422.60 680.72 453.31 680.39
  Q 473.90 680.18 494.49 680.75
  A 0.49 0.48 -88.3 0 0 494.99 680.27
  C 495.05 675.28 497.70 673.07 502.63 672.56
  Q 518.92 670.89 535.24 669.98
  Q 540.96 669.66 546.53 668.45
  Q 547.02 668.34 546.53 668.22
  C 531.45 664.65 519.14 665.17 504.88 665.46
  C 499.28 665.57 496.69 665.75 496.82 659.40
  Q 496.99 651.16 497.22 642.45
  A 1.67 1.67 -89.0 0 0 495.56 640.73
  Q 472.40 640.66 448.44 641.20
  C 425.39 641.72 402.31 641.57 379.25 641.79
  C 372.84 641.86 373.00 634.01 372.79 628.51
  Q 371.56 596.56 371.54 577.56
  C 371.53 571.98 375.50 570.21 380.67 570.02
  C 427.44 568.36 458.05 568.81 496.63 567.31
  A 1.48 1.48 87.3 0 0 498.05 565.75
  L 496.85 543.24
  A 0.85 0.75 -0.2 0 0 496.04 542.53
  Q 492.24 542.39 488.06 542.58
  Q 445.53 544.60 403.00 546.37
  Q 395.70 546.67 395.57 539.49
  Q 395.06 509.96 395.29 480.40
  C 395.33 475.37 395.08 470.94 401.41 470.63
  C 431.82 469.13 462.31 468.66 492.74 467.64
  C 496.42 467.52 496.99 466.22 496.92 462.81
  Q 496.73 453.09 497.52 426.40
  C 497.77 417.80 501.77 417.16 509.32 418.12
  Q 541.47 422.23 573.53 427.05
  C 580.48 428.10 585.25 427.89 585.22 435.47
  Q 585.16 448.61 585.54 461.85
  A 0.52 0.52 89.4 0 0 586.06 462.36
  Q 636.37 462.26 686.69 462.59
  C 690.85 462.62 692.69 465.00 692.49 469.14
  Q 691.84 482.75 690.07 492.03
  Q 689.05 497.33 682.99 497.38
  C 660.14 497.53 640.33 498.04 618.71 501.50
  Q 618.24 501.57 618.62 501.82
  Z
  M 458.08 742.06
  C 454.19 748.84 460.44 751.64 465.74 753.00
  Q 482.34 757.28 498.31 754.59
  Q 511.96 752.30 512.71 738.56
  A 0.57 0.55 6.3 0 0 512.23 737.98
  C 501.33 736.34 464.44 730.96 458.08 742.06
  Z"
/>
<path fill="#d36c1d" d="
  M 1076.32 465.13
  Q 1078.65 465.40 1081.01 465.28
  Q 1121.97 463.17 1162.86 463.90
  A 0.58 0.58 -86.8 0 1 1163.43 464.54
  Q 1161.64 482.72 1159.06 500.78
  C 1158.36 505.66 1156.39 509.41 1151.00 508.73
  Q 1134.11 506.62 1124.18 506.48
  Q 1086.68 505.93 1056.00 508.98
  Q 1018.53 512.69 995.94 514.20
  Q 987.33 514.77 976.92 513.65
  C 971.68 513.08 968.38 510.68 968.48 505.24
  Q 968.97 479.69 970.98 446.12
  C 971.28 441.17 973.26 437.38 978.33 436.85
  Q 987.37 435.92 1018.18 433.78
  C 1064.30 430.58 1110.01 431.47 1156.16 433.40
  C 1161.71 433.64 1165.66 433.27 1166.35 439.48
  C 1167.01 445.36 1167.11 452.90 1159.74 454.47
  Q 1155.35 455.40 1137.25 456.75
  Q 1112.88 458.56 1076.30 464.98
  Q 1075.80 465.07 1076.32 465.13
  Z"
/>
<path fill="#d36c1d" d="
  M 1111.81 593.44
  L 1112.06 593.70
  A 0.84 0.56 61.1 0 0 1112.56 593.96
  Q 1128.52 594.50 1144.50 594.42
  C 1148.49 594.39 1157.62 593.37 1156.28 600.33
  C 1155.63 603.70 1150.87 608.42 1148.25 610.99
  Q 1123.20 635.56 1102.79 663.05
  Q 1100.95 665.52 1103.98 664.99
  C 1113.85 663.26 1124.20 661.61 1133.74 664.51
  C 1140.37 666.53 1142.24 671.40 1143.19 678.26
  C 1145.03 691.70 1144.76 706.24 1148.52 719.23
  C 1150.78 727.03 1153.95 731.61 1161.76 734.68
  Q 1169.72 737.81 1178.37 737.63
  C 1181.20 737.58 1185.12 736.57 1188.41 737.95
  Q 1191.14 739.09 1191.75 741.98
  C 1192.75 746.79 1193.22 751.67 1195.15 756.08
  Q 1205.46 779.53 1224.29 793.96
  Q 1227.13 796.14 1241.48 805.29
  C 1243.61 806.66 1246.34 809.04 1244.06 811.41
  C 1242.43 813.12 1239.33 812.86 1237.06 812.99
  Q 1195.83 815.45 1154.57 817.01
  Q 1128.69 817.99 1107.82 815.90
  C 1094.07 814.52 1076.31 809.58 1067.64 798.22
  C 1057.93 785.49 1072.57 785.61 1080.57 785.29
  Q 1110.81 784.07 1151.00 782.00
  Q 1158.43 781.62 1163.71 780.96
  Q 1164.22 780.90 1163.72 780.79
  Q 1158.26 779.60 1152.69 779.50
  Q 1112.96 778.79 1097.25 779.30
  Q 1078.56 779.90 1067.17 779.10
  Q 1061.32 778.70 1059.83 772.48
  Q 1053.35 745.41 1052.19 739.81
  Q 1050.89 733.51 1048.62 727.86
  Q 1047.12 724.12 1045.16 727.65
  C 1037.67 741.19 1031.23 754.36 1021.66 766.68
  Q 1017.43 772.12 1013.57 777.83
  Q 1012.04 780.11 1009.23 780.38
  Q 992.75 781.98 976.20 782.87
  C 974.46 782.96 976.35 783.52 976.46 783.52
  Q 994.01 784.54 1006.93 787.05
  Q 1010.05 787.66 1009.70 790.93
  A 1.24 1.04 -18.6 0 1 1009.22 791.72
  Q 1003.34 796.06 1002.31 803.23
  C 1001.75 807.13 1000.90 809.66 996.70 809.68
  C 959.34 809.81 921.81 810.99 884.48 809.64
  Q 881.83 809.54 880.42 808.27
  C 876.85 805.06 878.77 801.43 881.46 798.22
  Q 897.00 779.64 913.27 761.71
  C 918.37 756.10 920.01 753.67 928.38 752.90
  Q 957.71 750.21 986.47 743.91
  Q 987.82 743.62 986.44 743.55
  Q 984.48 743.45 982.50 743.57
  Q 951.10 745.49 934.00 746.00
  Q 925.61 746.25 926.80 739.37
  C 927.38 736.03 930.02 733.08 931.99 730.18
  Q 964.69 682.10 997.80 634.29
  Q 1007.76 619.91 1020.62 608.77
  Q 1021.77 607.78 1020.27 608.01
  C 1010.26 609.53 999.41 611.45 990.21 612.43
  Q 965.15 615.12 939.94 613.98
  C 934.99 613.75 931.38 611.59 931.35 606.37
  Q 931.19 577.15 931.68 547.93
  C 931.76 542.82 934.49 540.12 939.59 539.53
  Q 982.69 534.51 1026.06 535.22
  C 1077.35 536.05 1128.50 532.52 1179.69 530.04
  C 1185.15 529.78 1194.12 530.22 1191.33 538.40
  Q 1185.23 556.31 1177.85 573.73
  C 1175.64 578.94 1174.86 582.58 1168.27 583.54
  Q 1137.81 587.97 1112.04 592.97
  Q 1111.48 593.08 1111.81 593.44
  Z"
/>
<path fill="#d36c1d" d="
  M 2024.75 757.54
  L 2024.75 757.71
  Q 2015.86 758.16 2024.75 757.54
  Z"
/>
</svg>
