<?xml version="1.0" encoding="UTF-8" standalone="no"?>
<!DOCTYPE svg PUBLIC "-//W3C//DTD SVG 1.1//EN" "http://www.w3.org/Graphics/SVG/1.1/DTD/svg11.dtd">
<svg xmlns="http://www.w3.org/2000/svg" version="1.1" viewBox="0 0 1800 800">
<g stroke-width="2.00" fill="none" stroke-linecap="butt">
<path stroke="#6ec9ef" vector-effect="non-scaling-stroke" d="
  M 320.08 287.06
  Q 319.96 287.27 319.97 287.50
  Q 319.98 288.31 320.50 287.59
  Q 337.88 263.17 335.20 234.13
  C 331.08 189.39 289.49 158.08 245.76 165.34
  C 204.77 172.16 176.24 210.43 181.83 251.72
  C 184.22 269.42 197.24 301.82 219.75 301.37
  C 235.37 301.06 249.35 298.52 262.94 290.43
  C 279.37 280.66 296.81 264.79 316.54 279.21
  Q 320.17 281.87 320.25 286.33
  A 1.46 0.92 70.7 0 1 320.08 287.06"
/>
<path stroke="#6ec9ef" vector-effect="non-scaling-stroke" d="
  M 314.68 294.14
  C 307.38 295.94 304.52 289.96 298.11 288.62
  C 284.87 285.84 266.95 298.88 254.48 303.14
  C 244.33 306.61 229.65 309.54 219.00 307.21
  Q 218.70 307.14 218.45 307.20
  Q 217.84 307.34 218.45 307.69
  C 250.33 326.31 289.23 321.06 314.82 294.38
  Q 315.16 294.03 314.68 294.14"
/>
<path stroke="#6ec9ef" vector-effect="non-scaling-stroke" d="
  M 204.94 291.06
  C 214.21 298.81 223.18 298.67 235.34 296.57
  Q 245.44 294.84 254.78 290.50
  C 259.24 288.44 263.52 285.04 267.84 282.19
  C 278.57 275.13 287.38 269.69 300.50 267.85
  A 0.62 0.60 86.3 0 0 301.02 267.24
  C 300.61 241.38 302.84 216.55 312.84 193.44
  A 0.62 0.61 29.2 0 0 312.62 192.69
  Q 299.56 183.69 296.97 182.46
  C 272.15 170.68 240.47 169.88 216.67 184.99
  A 0.74 0.74 69.5 0 0 216.33 185.74
  Q 222.18 218.45 223.00 228.25
  Q 225.04 252.69 221.79 277.02
  Q 221.59 278.54 220.51 277.57
  Q 213.46 271.22 204.01 271.60
  Q 201.28 271.71 200.04 274.30
  C 196.94 280.80 199.83 286.79 204.94 291.06"
/>
<path stroke="#6ec9ef" vector-effect="non-scaling-stroke" d="
  M 236.36 201.33
  C 239.35 203.98 240.70 205.52 240.86 209.50
  Q 241.58 226.53 240.82 243.57
  Q 240.54 250.02 239.25 254.61
  C 238.36 257.80 235.70 259.96 233.58 262.56
  A 1.39 0.45 -46.5 0 0 233.10 263.56
  Q 234.01 267.32 237.54 268.97
  A 1.07 0.42 -35.2 0 0 238.39 268.76
  C 243.58 265.68 251.77 261.96 256.19 264.53
  C 262.59 268.27 270.35 270.21 277.30 266.97
  C 286.22 262.82 289.75 251.93 285.33 243.21
  C 282.02 236.66 273.91 232.64 266.77 234.97
  C 260.95 236.87 258.46 241.64 259.90 247.57
  C 261.36 253.61 270.17 254.38 271.10 247.92
  A 0.48 0.34 -86.2 0 0 270.76 247.37
  Q 265.50 247.80 266.39 242.45
  A 1.43 0.85 -24.6 0 1 266.90 241.71
  C 278.01 233.10 289.05 253.89 280.04 260.84
  C 273.72 265.70 268.30 263.83 262.34 259.79
  C 254.22 254.28 247.50 257.21 240.26 262.26
  Q 239.88 262.52 239.74 262.10
  A 0.74 0.57 -34.8 0 1 239.96 261.42
  C 250.96 250.69 251.85 239.02 248.48 224.62
  Q 245.96 213.85 245.50 202.75
  A 1.26 0.61 80.5 0 1 245.78 201.79
  L 251.72 197.21
  Q 253.07 196.17 257.26 196.47
  Q 260.91 196.73 261.33 200.19
  A 0.72 0.52 84.1 0 0 261.91 200.84
  C 266.87 200.43 264.32 193.85 262.14 191.90
  C 259.30 189.36 255.16 188.82 251.46 189.58
  C 245.61 190.78 243.08 197.88 237.22 197.93
  A 1.01 0.47 2.1 0 0 236.31 198.31
  L 235.74 200.49
  A 1.16 0.28 39.8 0 0 236.36 201.33"
/>
</g>
<path fill="#0fa0df" d="
  M 310.48 315.69
  Q 465.62 315.32 621.44 315.56
  C 817.64 315.86 1013.86 315.59 1210.06 315.71
  A 1.18 0.96 -15.8 0 1 1210.92 316.08
  L 1221.22 329.02
  Q 1223.46 331.83 1219.88 331.82
  Q 743.58 331.57 266.00 331.46
  Q 252.31 331.45 246.05 330.58
  C 186.04 322.22 150.74 257.54 177.96 202.36
  C 193.91 170.02 225.67 151.08 261.58 151.82
  Q 270.01 151.99 270.05 151.99
  Q 505.52 152.01 741.00 152.00
  Q 741.20 152.00 741.34 152.05
  Q 741.82 152.25 742.00 152.25
  L 1209.75 152.25
  A 1.33 1.26 -18.2 0 1 1210.77 152.73
  L 1221.80 166.47
  Q 1223.43 168.50 1220.94 168.50
  L 311.56 168.50
  Q 310.46 168.50 311.43 169.22
  C 361.01 206.03 360.09 278.55 310.26 315.02
  Q 309.35 315.69 310.48 315.69
  Z
  M 320.08 287.06
  Q 319.96 287.27 319.97 287.50
  Q 319.98 288.31 320.50 287.59
  Q 337.88 263.17 335.20 234.13
  C 331.08 189.39 289.49 158.08 245.76 165.34
  C 204.77 172.16 176.24 210.43 181.83 251.72
  C 184.22 269.42 197.24 301.82 219.75 301.37
  C 235.37 301.06 249.35 298.52 262.94 290.43
  C 279.37 280.66 296.81 264.79 316.54 279.21
  Q 320.17 281.87 320.25 286.33
  A 1.46 0.92 70.7 0 1 320.08 287.06
  Z
  M 314.68 294.14
  C 307.38 295.94 304.52 289.96 298.11 288.62
  C 284.87 285.84 266.95 298.88 254.48 303.14
  C 244.33 306.61 229.65 309.54 219.00 307.21
  Q 218.70 307.14 218.45 307.20
  Q 217.84 307.34 218.45 307.69
  C 250.33 326.31 289.23 321.06 314.82 294.38
  Q 315.16 294.03 314.68 294.14
  Z"
/>
<path fill="#cdf1ff" d="
  M 320.25 286.33
  Q 320.17 281.87 316.54 279.21
  C 296.81 264.79 279.37 280.66 262.94 290.43
  C 249.35 298.52 235.37 301.06 219.75 301.37
  C 197.24 301.82 184.22 269.42 181.83 251.72
  C 176.24 210.43 204.77 172.16 245.76 165.34
  C 289.49 158.08 331.08 189.39 335.20 234.13
  Q 337.88 263.17 320.50 287.59
  Q 319.98 288.31 319.97 287.50
  Q 319.96 287.27 320.08 287.06
  A 1.46 0.92 70.7 0 0 320.25 286.33
  Z
  M 204.94 291.06
  C 214.21 298.81 223.18 298.67 235.34 296.57
  Q 245.44 294.84 254.78 290.50
  C 259.24 288.44 263.52 285.04 267.84 282.19
  C 278.57 275.13 287.38 269.69 300.50 267.85
  A 0.62 0.60 86.3 0 0 301.02 267.24
  C 300.61 241.38 302.84 216.55 312.84 193.44
  A 0.62 0.61 29.2 0 0 312.62 192.69
  Q 299.56 183.69 296.97 182.46
  C 272.15 170.68 240.47 169.88 216.67 184.99
  A 0.74 0.74 69.5 0 0 216.33 185.74
  Q 222.18 218.45 223.00 228.25
  Q 225.04 252.69 221.79 277.02
  Q 221.59 278.54 220.51 277.57
  Q 213.46 271.22 204.01 271.60
  Q 201.28 271.71 200.04 274.30
  C 196.94 280.80 199.83 286.79 204.94 291.06
  Z"
/>
<path fill="#0fa0df" d="
  M 204.94 291.06
  C 199.83 286.79 196.94 280.80 200.04 274.30
  Q 201.28 271.71 204.01 271.60
  Q 213.46 271.22 220.51 277.57
  Q 221.59 278.54 221.79 277.02
  Q 225.04 252.69 223.00 228.25
  Q 222.18 218.45 216.33 185.74
  A 0.74 0.74 69.5 0 1 216.67 184.99
  C 240.47 169.88 272.15 170.68 296.97 182.46
  Q 299.56 183.69 312.62 192.69
  A 0.62 0.61 29.2 0 1 312.84 193.44
  C 302.84 216.55 300.61 241.38 301.02 267.24
  A 0.62 0.60 86.3 0 1 300.50 267.85
  C 287.38 269.69 278.57 275.13 267.84 282.19
  C 263.52 285.04 259.24 288.44 254.78 290.50
  Q 245.44 294.84 235.34 296.57
  C 223.18 298.67 214.21 298.81 204.94 291.06
  Z
  M 236.36 201.33
  C 239.35 203.98 240.70 205.52 240.86 209.50
  Q 241.58 226.53 240.82 243.57
  Q 240.54 250.02 239.25 254.61
  C 238.36 257.80 235.70 259.96 233.58 262.56
  A 1.39 0.45 -46.5 0 0 233.10 263.56
  Q 234.01 267.32 237.54 268.97
  A 1.07 0.42 -35.2 0 0 238.39 268.76
  C 243.58 265.68 251.77 261.96 256.19 264.53
  C 262.59 268.27 270.35 270.21 277.30 266.97
  C 286.22 262.82 289.75 251.93 285.33 243.21
  C 282.02 236.66 273.91 232.64 266.77 234.97
  C 260.95 236.87 258.46 241.64 259.90 247.57
  C 261.36 253.61 270.17 254.38 271.10 247.92
  A 0.48 0.34 -86.2 0 0 270.76 247.37
  Q 265.50 247.80 266.39 242.45
  A 1.43 0.85 -24.6 0 1 266.90 241.71
  C 278.01 233.10 289.05 253.89 280.04 260.84
  C 273.72 265.70 268.30 263.83 262.34 259.79
  C 254.22 254.28 247.50 257.21 240.26 262.26
  Q 239.88 262.52 239.74 262.10
  A 0.74 0.57 -34.8 0 1 239.96 261.42
  C 250.96 250.69 251.85 239.02 248.48 224.62
  Q 245.96 213.85 245.50 202.75
  A 1.26 0.61 80.5 0 1 245.78 201.79
  L 251.72 197.21
  Q 253.07 196.17 257.26 196.47
  Q 260.91 196.73 261.33 200.19
  A 0.72 0.52 84.1 0 0 261.91 200.84
  C 266.87 200.43 264.32 193.85 262.14 191.90
  C 259.30 189.36 255.16 188.82 251.46 189.58
  C 245.61 190.78 243.08 197.88 237.22 197.93
  A 1.01 0.47 2.1 0 0 236.31 198.31
  L 235.74 200.49
  A 1.16 0.28 39.8 0 0 236.36 201.33
  Z"
/>
<path fill="#0fa0df" d="
  M 852.31 203.66
  C 866.51 202.95 881.14 201.82 895.34 202.84
  A 0.61 0.60 -0.5 0 1 895.90 203.38
  Q 896.67 212.26 888.97 216.39
  Q 887.67 217.08 886.23 216.48
  A 1.28 1.28 14.5 0 0 884.46 217.52
  C 882.49 234.84 878.26 254.68 868.53 269.31
  A 0.70 0.67 -48.5 0 0 868.56 270.12
  C 874.22 276.95 882.14 283.99 891.53 284.23
  A 0.71 0.70 -86.9 0 1 892.21 285.00
  Q 891.44 293.35 891.82 301.75
  A 0.66 0.65 -84.8 0 1 891.02 302.43
  Q 870.83 297.72 856.26 282.98
  A 0.69 0.54 -40.2 0 0 855.43 283.01
  Q 840.56 294.78 821.95 298.84
  A 1.15 0.86 -25.4 0 1 821.06 298.66
  Q 816.42 294.69 818.71 288.69
  A 1.02 0.97 -85.7 0 1 819.41 288.06
  C 829.62 285.61 839.51 279.21 847.58 272.53
  A 0.56 0.41 -33.5 0 0 847.78 271.99
  Q 841.55 257.16 839.11 241.22
  Q 838.98 240.35 838.33 241.08
  L 829.34 251.10
  A 1.09 1.07 20.7 0 1 828.50 251.47
  L 816.74 251.39
  Q 814.15 251.37 816.04 249.61
  C 823.32 242.85 828.29 237.93 831.00 227.89
  Q 836.19 208.59 834.00 188.53
  A 0.62 0.44 82.3 0 1 834.34 187.87
  Q 843.51 186.39 851.50 191.07
  A 0.90 0.67 20.0 0 1 851.95 191.75
  L 851.65 203.31
  A 0.62 0.36 -2.2 0 0 852.31 203.66
  Z
  M 849.50 215.96
  C 849.03 217.75 848.61 219.13 848.89 221.02
  C 850.67 233.26 852.97 244.53 858.15 254.84
  Q 858.66 255.84 859.02 254.80
  Q 865.47 236.08 865.80 216.25
  A 0.59 0.50 2.9 0 0 865.25 215.73
  Q 857.50 215.17 849.75 215.77
  A 0.28 0.26 5.7 0 0 849.50 215.96
  Z"
/>
<path fill="#0fa0df" d="
  M 808.26 199.45
  L 814.00 200.75
  A 0.89 0.76 14.7 0 0 815.01 200.26
  L 817.88 191.34
  A 0.79 0.73 17.1 0 1 818.83 190.89
  L 832.25 194.74
  A 1.02 1.01 16.0 0 1 832.95 195.99
  Q 829.43 208.20 822.02 218.54
  A 0.55 0.48 -57.2 0 0 822.13 219.30
  Q 823.01 219.78 824.00 219.51
  Q 826.54 218.82 826.69 220.28
  L 827.53 228.23
  A 1.11 0.96 88.7 0 1 826.52 229.46
  C 822.36 229.15 812.96 227.92 810.27 231.78
  Q 809.78 232.49 810.74 232.43
  Q 814.89 232.20 818.72 230.71
  A 0.97 0.96 -36.8 0 1 819.66 230.84
  L 824.35 234.39
  A 0.67 0.61 -56.3 0 1 824.48 235.23
  Q 819.40 243.93 811.04 249.55
  A 1.24 0.83 -24.7 0 0 810.46 250.50
  L 811.04 257.75
  A 0.73 0.56 -1.1 0 0 811.75 258.27
  L 827.75 258.45
  A 1.51 0.86 56.4 0 1 828.62 258.89
  Q 833.89 263.96 834.58 271.29
  A 0.46 0.34 86.9 0 1 834.25 271.79
  L 813.00 270.99
  A 1.06 1.01 -87.5 0 0 811.95 272.00
  L 810.93 296.00
  A 1.28 0.37 88.9 0 1 810.68 296.93
  L 803.81 303.05
  A 1.39 0.61 12.7 0 1 802.83 303.24
  C 791.26 302.27 779.29 302.09 770.31 297.12
  A 1.01 0.54 20.9 0 1 769.77 296.50
  L 769.05 288.74
  A 0.78 0.71 3.8 0 1 769.99 287.99
  C 776.10 289.24 785.17 290.73 790.33 288.85
  A 1.65 1.63 79.3 0 0 791.41 287.25
  L 790.86 271.00
  A 0.61 0.47 -0.5 0 0 790.25 270.54
  L 766.75 270.78
  A 1.35 1.24 -10.5 0 1 765.51 270.00
  Q 763.44 264.95 763.22 259.50
  A 0.96 0.79 88.6 0 1 764.00 258.50
  L 790.75 258.50
  A 1.37 1.22 -86.9 0 0 791.98 257.26
  L 792.64 250.18
  A 1.17 0.42 -28.2 0 1 793.25 249.50
  L 805.33 241.60
  Q 806.25 241.00 805.25 241.00
  L 799.00 240.99
  A 1.81 0.83 12.1 0 0 798.06 241.20
  C 785.38 249.19 777.61 253.44 763.90 252.81
  A 1.11 0.75 -3.9 0 1 762.96 252.26
  Q 762.45 250.75 763.02 249.25
  A 1.38 0.77 54.1 0 0 762.91 248.30
  C 762.40 247.15 762.82 246.51 763.91 246.02
  Q 779.34 239.16 792.95 229.38
  Q 793.85 228.74 792.75 228.77
  L 772.51 229.32
  A 2.46 2.36 -15.6 0 1 770.36 228.17
  L 765.57 220.19
  A 0.70 0.61 71.1 0 1 765.99 219.15
  L 787.00 217.99
  A 0.80 0.47 -2.8 0 0 787.75 217.50
  L 787.75 209.75
  A 1.07 0.96 89.0 0 0 786.75 208.68
  L 769.49 209.36
  A 0.57 0.30 -1.1 0 1 768.90 209.06
  L 768.98 200.50
  A 0.88 0.62 -4.1 0 1 769.76 199.86
  L 786.74 197.93
  A 0.82 0.64 -5.0 0 0 787.47 197.25
  L 787.25 189.75
  A 1.40 1.10 87.3 0 1 788.26 188.33
  Q 797.92 187.52 807.57 188.68
  A 0.81 0.77 5.4 0 1 808.29 189.50
  L 807.73 199.00
  A 0.65 0.38 10.1 0 0 808.26 199.45
  Z
  M 810.38 209.76
  C 806.37 207.59 806.59 213.01 807.17 215.01
  Q 807.38 215.70 807.70 215.19
  L 810.65 210.42
  A 0.55 0.42 30.1 0 0 810.38 209.76
  Z"
/>
<path fill="#0fa0df" d="
  M 942.25 201.94
  L 949.24 202.27
  Q 951.53 202.38 952.75 204.22
  C 954.78 207.28 960.23 214.68 953.50 216.23
  Q 951.38 216.72 942.03 216.54
  A 0.52 0.46 0.6 0 0 941.50 217.00
  L 941.50 244.50
  A 0.62 0.60 -88.0 0 0 942.06 245.12
  C 951.40 245.77 955.46 245.04 956.51 256.01
  Q 956.80 259.02 953.77 259.54
  Q 948.63 260.41 943.51 259.69
  Q 941.29 259.38 941.41 261.60
  Q 942.10 274.27 941.92 286.83
  C 941.79 295.70 939.29 302.42 929.58 302.87
  C 921.10 303.26 908.01 303.24 902.25 296.87
  A 1.07 0.68 39.5 0 1 901.96 295.98
  Q 903.61 291.12 906.95 287.18
  A 0.75 0.72 37.0 0 1 907.93 287.06
  C 911.20 289.35 920.79 292.63 920.79 285.25
  Q 920.79 274.04 919.78 259.78
  A 0.56 0.55 89.4 0 0 919.25 259.25
  L 909.00 258.77
  Q 906.55 258.66 905.16 256.33
  Q 902.92 252.56 901.89 248.27
  Q 901.00 244.56 904.83 244.57
  L 919.26 244.62
  A 0.61 0.44 89.4 0 0 919.70 244.00
  L 919.49 216.56
  A 0.59 0.56 -1.0 0 0 918.89 216.01
  Q 914.21 216.09 909.49 215.73
  C 904.30 215.33 897.28 200.64 906.19 201.37
  Q 910.02 201.68 918.62 201.42
  A 0.54 0.52 0.5 0 0 919.15 200.92
  C 919.31 196.67 917.35 187.69 925.01 187.92
  Q 931.79 188.12 938.52 189.17
  Q 941.11 189.58 941.24 192.00
  L 941.73 201.50
  A 0.55 0.46 0.2 0 0 942.25 201.94
  Z"
/>
<path fill="#cdf1ff" d="
  M 240.86 209.50
  C 240.70 205.52 239.35 203.98 236.36 201.33
  A 1.16 0.28 39.8 0 1 235.74 200.49
  L 236.31 198.31
  A 1.01 0.47 2.1 0 1 237.22 197.93
  C 243.08 197.88 245.61 190.78 251.46 189.58
  C 255.16 188.82 259.30 189.36 262.14 191.90
  C 264.32 193.85 266.87 200.43 261.91 200.84
  A 0.72 0.52 84.1 0 1 261.33 200.19
  Q 260.91 196.73 257.26 196.47
  Q 253.07 196.17 251.72 197.21
  L 245.78 201.79
  A 1.26 0.61 80.5 0 0 245.50 202.75
  Q 245.96 213.85 248.48 224.62
  C 251.85 239.02 250.96 250.69 239.96 261.42
  A 0.74 0.57 -34.8 0 0 239.74 262.10
  Q 239.88 262.52 240.26 262.26
  C 247.50 257.21 254.22 254.28 262.34 259.79
  C 268.30 263.83 273.72 265.70 280.04 260.84
  C 289.05 253.89 278.01 233.10 266.90 241.71
  A 1.43 0.85 -24.6 0 0 266.39 242.45
  Q 265.50 247.80 270.76 247.37
  A 0.48 0.34 -86.2 0 1 271.10 247.92
  C 270.17 254.38 261.36 253.61 259.90 247.57
  C 258.46 241.64 260.95 236.87 266.77 234.97
  C 273.91 232.64 282.02 236.66 285.33 243.21
  C 289.75 251.93 286.22 262.82 277.30 266.97
  C 270.35 270.21 262.59 268.27 256.19 264.53
  C 251.77 261.96 243.58 265.68 238.39 268.76
  A 1.07 0.42 -35.2 0 1 237.54 268.97
  Q 234.01 267.32 233.10 263.56
  A 1.39 0.45 -46.5 0 1 233.58 262.56
  C 235.70 259.96 238.36 257.80 239.25 254.61
  Q 240.54 250.02 240.82 243.57
  Q 241.58 226.53 240.86 209.50
  Z"
/>
<path fill="#0fa0df" d="
  M 1029.16 191.91
  C 1038.02 192.00 1031.32 200.15 1028.48 202.38
  A 1.55 1.34 22.6 0 1 1027.57 202.68
  Q 996.26 202.79 964.95 202.62
  C 959.58 202.59 956.29 202.23 955.84 196.25
  C 955.49 191.51 957.89 191.06 961.98 191.12
  Q 995.57 191.59 1029.16 191.91
  Z"
/>
<path fill="#0fa0df" d="
  M 508.01 242.88
  Q 488.19 245.33 468.25 244.06
  A 0.59 0.57 1.7 0 1 467.70 243.50
  L 467.61 234.68
  A 0.67 0.39 -2.7 0 1 468.24 234.27
  Q 476.64 233.86 478.23 233.87
  Q 497.94 234.02 515.45 225.23
  C 529.38 218.24 533.11 206.74 537.36 192.77
  A 0.69 0.66 7.5 0 1 538.00 192.30
  L 559.50 191.58
  A 0.78 0.74 -87.6 0 1 560.26 192.45
  C 558.36 209.30 546.05 225.03 532.69 234.54
  A 1.02 0.71 -23.3 0 0 532.25 235.25
  L 532.25 297.00
  A 0.50 0.50 0.0 0 1 531.75 297.50
  L 510.26 297.49
  A 1.63 1.49 -0.0 0 1 508.63 296.00
  L 508.51 243.25
  A 0.44 0.38 -4.5 0 0 508.01 242.88
  Z"
/>
<path fill="#0fa0df" d="
  M 596.50 296.78
  Q 587.99 296.59 579.49 297.02
  A 1.02 0.94 88.7 0 1 578.50 296.00
  L 578.50 192.00
  A 0.51 0.49 -89.4 0 1 579.00 191.49
  L 603.50 191.99
  A 0.62 0.48 -89.0 0 1 603.97 192.62
  Q 603.74 215.38 603.88 237.98
  Q 603.90 240.05 604.28 243.07
  Q 604.57 245.26 606.78 245.31
  C 621.87 245.65 637.26 244.82 652.26 245.95
  Q 654.92 246.15 654.33 248.75
  C 653.00 254.59 649.49 258.13 643.35 258.60
  C 630.87 259.55 617.97 258.52 605.56 258.91
  Q 603.51 258.97 603.50 261.00
  L 603.30 295.75
  A 1.22 1.22 -4.1 0 1 602.25 296.96
  C 600.41 297.23 598.00 296.81 596.50 296.78
  Z"
/>
<path fill="#0fa0df" d="
  M 656.99 297.33
  Q 654.28 296.42 654.31 293.57
  Q 654.38 287.57 656.13 282.09
  C 658.01 276.19 664.41 276.36 669.49 276.50
  C 683.11 276.90 697.22 277.07 707.43 270.34
  C 720.40 261.80 727.94 249.88 731.58 234.96
  C 734.05 224.88 735.09 209.56 736.49 201.51
  Q 737.49 195.86 742.85 192.02
  A 1.67 1.31 -57.4 0 1 743.74 191.71
  Q 748.76 191.67 753.07 194.15
  Q 755.47 195.53 753.71 197.65
  C 751.85 199.92 751.21 202.52 750.96 205.72
  Q 749.07 230.10 741.76 254.76
  C 734.78 278.28 714.53 294.46 690.24 296.60
  Q 676.05 297.85 661.75 297.95
  Q 658.90 297.97 656.99 297.33
  Z"
/>
<path fill="#0fa0df" d="
  M 425.77 292.95
  C 409.54 298.82 391.35 296.86 374.38 296.99
  A 0.80 0.80 0.0 0 1 373.57 296.20
  C 373.34 286.07 373.69 274.61 373.63 265.85
  Q 373.39 229.17 373.53 192.48
  A 0.49 0.47 -89.4 0 1 374.00 192.00
  L 396.75 192.00
  A 0.75 0.50 90.0 0 1 397.25 192.75
  L 397.25 278.50
  A 1.00 1.00 -70.2 0 0 397.61 279.27
  Q 401.45 282.45 406.50 282.53
  C 430.73 282.91 444.41 270.90 455.76 250.94
  A 0.87 0.84 -74.7 0 1 456.50 250.50
  L 469.25 250.50
  A 0.56 0.55 13.6 0 1 469.75 251.31
  C 466.46 257.59 462.89 264.34 458.60 269.60
  Q 445.32 285.89 425.77 292.95
  Z"
/>
<path fill="#0fa0df" d="
  M 654.75 213.42
  C 647.17 213.44 659.37 200.65 660.95 199.09
  A 1.24 1.01 -63.4 0 1 661.75 198.73
  L 706.00 198.42
  A 0.98 0.94 -87.2 0 1 706.93 199.49
  Q 706.13 208.58 698.82 213.80
  A 1.89 1.00 -50.1 0 1 697.91 214.17
  Q 693.27 214.39 688.56 214.17
  Q 671.67 213.38 654.75 213.42
  Z"
/>
<path fill="#0fa0df" d="
  M 985.26 221.50
  Q 986.20 213.47 981.64 206.89
  Q 979.74 204.14 982.83 204.05
  C 996.87 203.63 1002.15 205.69 1002.13 220.89
  A 0.67 0.43 87.8 0 1 1001.75 221.53
  Q 993.77 222.62 985.76 221.97
  A 0.53 0.42 5.1 0 1 985.26 221.50
  Z"
/>
<path fill="#0fa0df" d="
  M 959.18 205.70
  Q 959.89 204.51 961.27 204.44
  C 970.25 203.94 977.31 202.67 980.73 211.77
  Q 982.56 216.62 979.96 221.58
  A 0.90 0.70 -72.5 0 1 979.25 222.07
  L 963.25 221.72
  A 0.56 0.55 88.3 0 1 962.71 221.20
  C 962.21 215.94 962.96 212.06 959.34 207.73
  A 1.76 1.76 40.6 0 1 959.18 205.70
  Z"
/>
<path fill="#0fa0df" d="
  M 1019.49 222.78
  L 1007.47 222.56
  Q 1004.45 222.50 1005.46 219.49
  Q 1007.30 213.99 1008.65 208.35
  C 1009.29 205.72 1010.59 204.53 1013.26 204.55
  Q 1020.66 204.61 1028.07 205.09
  C 1038.70 205.78 1022.74 220.66 1020.62 222.32
  A 2.03 1.16 -51.9 0 1 1019.49 222.78
  Z"
/>
<path fill="#0fa0df" d="
  M 1085.31 266.56
  C 1081.83 269.50 1077.84 277.75 1081.39 282.44
  C 1084.50 286.55 1093.97 288.01 1098.75 288.01
  Q 1115.83 288.01 1131.87 282.02
  A 0.96 0.85 -17.5 0 1 1133.10 282.57
  Q 1134.67 288.72 1133.95 295.00
  A 0.97 0.69 -14.1 0 1 1133.41 295.63
  C 1116.70 303.61 1094.10 305.31 1076.31 298.48
  C 1068.28 295.39 1064.27 288.39 1063.36 280.18
  C 1062.17 269.60 1069.26 259.19 1077.65 253.33
  A 0.57 0.56 -30.5 0 0 1077.84 252.61
  Q 1070.24 237.49 1063.56 221.94
  A 0.72 0.65 -11.0 0 1 1064.24 221.03
  C 1073.01 220.79 1080.79 220.35 1085.69 229.04
  Q 1089.05 235.00 1092.40 244.79
  A 0.49 0.38 69.7 0 0 1092.95 245.14
  Q 1111.37 236.96 1130.59 230.90
  A 0.75 0.74 77.1 0 1 1131.55 231.51
  Q 1132.95 241.17 1127.72 249.25
  A 1.38 1.29 -78.7 0 1 1126.91 249.83
  C 1113.40 252.95 1096.10 257.46 1085.31 266.56
  Z"
/>
<path fill="#0fa0df" d="
  M 1005.30 282.33
  Q 1015.38 285.16 1026.24 283.51
  C 1033.67 282.39 1031.15 294.00 1030.70 298.48
  Q 1030.23 303.07 1025.76 302.47
  Q 1007.09 299.96 990.12 291.34
  A 1.50 1.40 -43.5 0 0 988.82 291.35
  Q 972.49 299.40 954.53 302.73
  Q 952.29 303.14 951.39 301.05
  Q 949.25 296.05 949.28 290.48
  Q 949.29 286.99 952.73 286.63
  Q 964.50 285.41 975.46 281.01
  A 0.56 0.54 -31.8 0 0 975.68 280.13
  C 966.26 269.99 960.86 259.71 961.10 244.97
  A 0.40 0.36 -88.5 0 0 960.75 244.56
  L 950.75 244.23
  Q 947.84 244.13 947.59 240.70
  C 946.80 229.83 947.26 223.47 960.31 223.54
  Q 992.53 223.70 1024.75 224.03
  C 1028.23 224.07 1031.03 224.10 1033.44 226.89
  Q 1038.38 232.60 1038.00 240.59
  Q 1037.85 243.72 1034.95 243.92
  L 1026.01 244.52
  A 0.63 0.43 -88.9 0 0 1025.59 245.11
  C 1024.95 259.59 1015.86 272.73 1005.20 281.86
  Q 1004.81 282.19 1005.30 282.33
  Z
  M 966.52 234.26
  Q 965.57 238.14 966.42 242.07
  A 0.83 0.59 -6.8 0 0 967.25 242.52
  Q 990.25 240.86 1013.25 242.64
  A 1.90 1.54 7.5 0 0 1015.18 241.46
  Q 1015.95 237.90 1015.10 234.44
  A 0.93 0.42 -1.6 0 0 1014.25 234.08
  L 967.50 233.51
  A 1.00 0.99 7.3 0 0 966.52 234.26
  Z
  M 989.03 272.98
  A 1.10 0.90 -39.0 0 0 990.26 272.99
  Q 1000.67 266.26 1001.37 253.73
  A 0.56 0.38 -88.0 0 0 1001.00 253.14
  L 979.25 253.21
  A 0.89 0.79 84.0 0 0 978.50 254.26
  Q 980.59 265.43 989.03 272.98
  Z"
/>
<path fill="#cdf1ff" d="
  M 298.11 288.62
  C 304.52 289.96 307.38 295.94 314.68 294.14
  Q 315.16 294.03 314.82 294.38
  C 289.23 321.06 250.33 326.31 218.45 307.69
  Q 217.84 307.34 218.45 307.20
  Q 218.70 307.14 219.00 307.21
  C 229.65 309.54 244.33 306.61 254.48 303.14
  C 266.95 298.88 284.87 285.84 298.11 288.62
  Z"
/>
<path fill="#ffa61e" d="
  M 1647.52 400.60
  C 1644.46 400.53 1643.66 399.34 1643.58 396.43
  Q 1642.45 354.48 1641.73 312.50
  C 1641.68 309.14 1642.85 307.40 1646.46 307.65
  Q 1662.22 308.73 1677.45 310.10
  Q 1680.09 310.34 1680.30 312.98
  Q 1683.58 354.23 1686.48 395.49
  C 1686.73 399.13 1684.64 400.38 1681.23 400.49
  Q 1664.36 401.01 1647.52 400.60
  Z"
/>
<path fill="#ffa61e" d="
  M 1694.70 400.82
  C 1692.71 399.75 1692.38 398.11 1692.61 395.84
  Q 1696.91 353.56 1701.70 311.31
  A 0.60 0.56 -87.0 0 1 1702.25 310.78
  L 1734.01 310.02
  Q 1737.21 309.94 1737.29 313.16
  Q 1738.21 354.25 1739.01 395.75
  Q 1739.10 400.89 1733.69 400.98
  Q 1714.96 401.29 1696.35 401.24
  Q 1695.48 401.24 1694.70 400.82
  Z"
/>
<path fill="#ffa61e" d="
  M 1404.95 384.21
  Q 1374.06 377.74 1364.99 375.57
  C 1362.05 374.87 1361.61 372.28 1361.69 369.44
  Q 1362.20 352.96 1363.81 337.61
  Q 1364.19 334.00 1367.81 334.25
  C 1437.39 339.02 1506.90 339.37 1576.60 339.92
  C 1581.99 339.97 1585.04 341.76 1584.86 347.38
  Q 1583.62 386.36 1585.30 426.34
  Q 1585.42 429.19 1588.27 429.41
  C 1596.23 430.04 1605.04 429.07 1613.27 430.38
  A 1.77 0.65 0.5 0 1 1614.25 430.75
  Q 1618.10 434.47 1621.09 438.92
  A 0.78 0.74 46.4 0 0 1622.34 438.99
  C 1628.06 431.06 1630.40 427.76 1641.27 430.09
  A 0.88 0.55 4.7 0 1 1641.91 430.57
  L 1643.09 435.43
  Q 1643.40 436.68 1644.17 435.68
  L 1649.53 428.77
  A 1.18 0.65 -61.1 0 1 1650.31 428.28
  Q 1692.77 429.25 1735.25 429.68
  C 1738.24 429.71 1739.00 432.61 1738.91 435.27
  Q 1737.25 486.99 1735.15 538.70
  Q 1735.06 540.91 1733.30 541.79
  L 1729.31 543.80
  Q 1728.79 544.06 1729.44 544.40
  C 1732.73 546.12 1737.48 547.78 1736.58 552.45
  A 1.91 1.22 -28.7 0 1 1736.12 553.29
  Q 1734.57 554.94 1734.53 556.50
  Q 1733.93 581.49 1733.25 594.50
  C 1733.06 598.10 1730.57 598.91 1727.27 599.05
  Q 1712.85 599.68 1698.44 599.94
  Q 1646.45 600.89 1594.49 602.78
  Q 1592.05 602.87 1590.64 603.18
  A 1.70 1.70 -5.9 0 0 1589.30 604.83
  Q 1589.20 619.23 1588.75 633.20
  C 1588.65 636.08 1589.30 639.81 1587.18 642.43
  Q 1584.78 645.39 1582.02 648.04
  A 0.42 0.38 -52.4 0 0 1582.07 648.68
  Q 1586.16 650.82 1589.60 653.90
  Q 1591.69 655.77 1590.70 658.42
  C 1589.80 660.84 1589.30 662.95 1589.29 665.68
  Q 1589.23 680.63 1588.62 702.69
  Q 1588.46 708.17 1583.00 708.13
  Q 1535.77 707.73 1461.50 706.72
  Q 1457.03 706.66 1453.80 706.44
  C 1449.89 706.17 1446.67 702.04 1444.58 699.09
  A 0.49 0.40 51.9 0 0 1443.93 698.94
  L 1434.60 707.34
  A 1.28 0.41 -47.3 0 1 1433.81 707.79
  L 1409.25 707.04
  Q 1406.45 706.95 1406.43 704.06
  Q 1405.55 572.63 1405.23 440.50
  C 1405.21 435.67 1410.85 431.89 1414.25 429.02
  A 0.59 0.57 -41.3 0 0 1414.32 428.18
  L 1405.49 418.77
  Q 1403.94 417.13 1404.05 415.01
  L 1405.60 384.76
  A 0.78 0.46 9.7 0 0 1404.95 384.21
  Z"
/>
<path fill="#ffa61e" d="
  M 1149.48 437.34
  C 1145.86 437.29 1145.21 435.90 1145.12 432.56
  Q 1143.39 368.32 1143.27 347.75
  C 1143.26 344.99 1145.95 344.23 1148.40 344.30
  Q 1163.16 344.74 1177.91 345.55
  C 1183.41 345.86 1185.43 347.31 1185.45 352.94
  Q 1185.55 391.10 1185.49 429.27
  C 1185.48 431.06 1185.18 433.20 1185.22 435.21
  A 1.46 1.46 -2.0 0 1 1183.84 436.69
  Q 1166.74 437.59 1149.48 437.34
  Z"
/>
<path fill="#ffa61e" d="
  M 1101.01 438.71
  C 1094.55 438.63 1093.78 437.52 1094.33 431.13
  Q 1097.88 389.60 1101.78 348.04
  A 0.59 0.46 -86.7 0 1 1102.25 347.50
  L 1132.75 347.51
  Q 1135.49 347.51 1135.68 350.40
  Q 1138.28 391.27 1140.50 432.00
  C 1140.77 437.01 1138.86 438.49 1133.97 438.58
  Q 1117.47 438.90 1101.01 438.71
  Z"
/>
<path fill="#0fa0df" d="
  M 300.95 461.57
  Q 288.16 452.12 274.87 443.42
  Q 269.83 440.12 264.05 438.46
  Q 262.19 437.93 262.23 435.99
  Q 262.52 421.87 263.25 407.51
  Q 263.41 404.23 266.57 403.92
  Q 308.26 399.80 327.31 398.33
  Q 331.80 397.99 331.16 402.74
  Q 330.22 409.64 329.24 416.54
  A 1.05 1.03 -64.3 0 0 329.55 417.45
  L 346.11 433.40
  A 0.72 0.70 -45.9 0 0 347.11 433.37
  L 363.55 416.31
  A 1.20 0.18 -44.5 0 0 364.15 415.51
  L 364.72 399.75
  A 0.81 0.47 4.3 0 0 363.97 399.24
  Q 320.09 395.33 276.12 394.08
  Q 274.19 394.02 272.11 393.05
  Q 265.72 390.05 258.48 390.61
  Q 255.06 390.88 254.88 387.46
  Q 254.09 373.01 253.97 357.25
  Q 253.94 353.73 255.60 352.06
  A 1.53 1.24 14.9 0 1 256.50 351.66
  Q 266.12 350.80 275.76 351.66
  Q 277.50 351.82 278.22 353.55
  L 284.19 368.03
  A 0.98 0.80 -7.8 0 0 285.03 368.54
  C 328.73 370.46 352.95 370.63 402.97 370.47
  A 1.33 0.51 -7.6 0 1 403.82 370.67
  L 414.70 380.05
  A 0.56 0.54 39.5 0 0 415.50 379.99
  L 421.60 372.11
  A 1.30 1.06 13.4 0 1 422.51 371.67
  Q 443.65 370.53 451.74 370.52
  Q 457.09 370.52 457.50 375.98
  Q 459.01 395.98 460.34 417.25
  Q 460.48 419.44 458.95 421.19
  L 449.97 431.47
  A 0.60 0.50 -50.6 0 0 449.97 432.28
  L 459.79 439.48
  Q 461.66 440.86 461.71 443.00
  L 462.07 459.25
  A 2.22 1.92 -21.6 0 1 461.19 460.93
  Q 443.88 474.02 425.43 485.42
  A 0.51 0.48 -35.5 0 0 425.28 486.15
  Q 429.60 491.30 436.01 490.52
  Q 447.91 489.06 459.51 485.98
  Q 461.86 485.35 462.23 487.76
  Q 462.52 489.61 462.28 492.28
  Q 460.64 510.89 457.89 529.37
  C 457.33 533.13 456.09 535.04 452.19 535.16
  Q 432.47 535.80 412.75 536.27
  C 407.48 536.40 405.70 534.68 401.15 531.11
  Q 389.30 521.82 377.45 512.52
  A 0.88 0.88 47.6 0 0 376.44 512.47
  Q 362.64 520.94 348.80 529.46
  Q 346.99 530.58 344.86 530.70
  C 317.01 532.40 289.71 533.40 262.10 537.90
  C 257.51 538.65 255.24 538.07 254.98 533.00
  Q 254.23 518.28 252.73 478.25
  Q 252.55 473.43 257.08 473.04
  Q 272.67 471.69 277.00 471.95
  Q 280.09 472.14 282.22 471.39
  A 1.41 1.16 -80.6 0 0 282.92 470.78
  C 284.63 467.69 297.15 463.72 300.87 462.18
  Q 301.45 461.94 300.95 461.57
  Z"
/>
<path fill="#ffa61e" d="
  M 875.12 475.78
  Q 869.35 489.44 866.68 496.69
  Q 865.55 499.77 862.52 500.09
  C 852.66 501.12 838.29 502.73 828.76 500.35
  A 1.68 1.41 -8.9 0 1 827.93 499.85
  Q 826.22 497.79 826.11 494.44
  Q 824.20 436.05 822.54 377.65
  C 822.29 368.95 824.84 368.72 832.69 368.61
  Q 852.69 368.35 917.75 367.68
  C 921.17 367.65 922.29 367.94 924.87 370.35
  Q 928.76 373.98 932.76 377.46
  A 0.51 0.49 40.6 0 0 933.47 377.42
  C 937.33 372.95 938.76 369.54 945.06 369.36
  Q 1011.32 367.51 1077.60 366.27
  C 1086.13 366.11 1086.89 366.18 1086.47 374.83
  Q 1084.55 414.17 1085.16 453.53
  A 0.89 0.54 -89.3 0 0 1085.67 454.39
  L 1092.25 454.92
  A 2.10 1.46 -16.5 0 1 1093.25 455.25
  L 1105.68 464.07
  A 0.60 0.51 34.1 0 0 1106.49 463.98
  L 1110.56 457.32
  A 1.05 0.54 -65.8 0 1 1111.25 456.77
  L 1128.26 456.48
  Q 1131.79 456.42 1131.92 460.44
  L 1135.50 570.50
  Q 1135.55 572.27 1134.20 573.70
  L 1124.36 584.11
  A 1.02 0.85 42.2 0 0 1124.55 585.45
  L 1133.72 593.53
  Q 1134.97 594.62 1135.00 596.49
  Q 1136.12 663.91 1136.73 731.32
  C 1136.79 737.43 1137.84 741.54 1130.44 741.67
  Q 1021.94 743.61 886.75 745.09
  C 880.05 745.16 877.46 742.36 872.68 738.32
  A 1.34 1.30 42.3 0 0 870.88 738.38
  L 864.74 744.74
  Q 863.04 746.50 860.51 746.50
  L 825.07 746.47
  Q 822.29 746.47 822.26 743.51
  Q 822.24 740.74 822.38 738.01
  C 825.14 686.57 825.83 635.20 827.47 583.74
  C 827.67 577.35 832.02 576.96 837.52 577.10
  Q 885.74 578.29 934.00 577.45
  Q 940.95 577.32 940.84 583.62
  Q 940.82 584.79 941.70 583.93
  L 947.92 577.91
  A 1.23 0.99 19.9 0 1 948.76 577.62
  L 969.76 578.56
  Q 971.82 578.65 971.80 576.50
  L 970.74 476.75
  Q 970.72 474.63 968.50 474.66
  L 905.50 475.49
  Q 903.35 475.52 901.82 474.20
  L 891.32 465.18
  A 0.55 0.54 -51.3 0 0 890.53 465.27
  L 883.50 474.52
  A 1.15 0.63 -62.4 0 1 882.75 475.02
  L 875.68 475.09
  A 0.97 0.33 -69.6 0 0 875.12 475.78
  Z"
/>
<path fill="#0fa0df" d="
  M 220.58 541.73
  Q 223.13 597.56 226.77 653.75
  Q 227.54 665.49 228.02 677.25
  C 228.17 681.08 227.34 683.17 223.11 683.39
  Q 190.08 685.06 170.50 685.00
  Q 166.43 684.98 166.18 680.43
  Q 165.47 667.32 165.89 653.28
  Q 165.96 651.11 167.74 649.76
  L 179.53 640.77
  A 1.06 0.84 -25.4 0 0 179.94 639.93
  Q 177.99 622.64 179.50 605.29
  C 180.09 598.44 181.06 598.21 186.16 594.33
  A 0.50 0.38 -39.2 0 0 186.32 593.68
  L 180.95 588.30
  Q 179.06 586.42 179.22 584.00
  L 181.85 543.01
  A 1.24 1.24 -11.1 0 0 180.07 541.82
  L 159.00 552.01
  A 1.24 0.51 -29.4 0 1 157.88 552.15
  L 151.90 547.10
  A 1.23 0.88 -76.8 0 1 151.55 546.25
  Q 149.95 489.17 150.63 432.06
  A 2.21 2.14 -7.6 0 1 152.25 430.01
  Q 166.65 425.98 180.73 420.94
  A 0.88 0.87 76.2 0 0 181.30 419.99
  Q 177.81 396.12 176.90 372.01
  Q 176.82 369.85 179.07 369.92
  Q 198.03 370.52 218.01 371.75
  Q 223.37 372.07 223.20 377.75
  Q 222.99 384.62 224.15 416.74
  A 1.23 1.16 -71.1 0 0 224.53 417.58
  Q 233.31 425.49 241.56 431.17
  C 244.05 432.88 245.04 434.45 245.11 437.67
  Q 246.21 493.72 248.31 549.75
  Q 248.46 553.68 244.79 552.00
  L 221.25 541.27
  A 0.48 0.48 -79.4 0 0 220.58 541.73
  Z"
/>
<path fill="#0fa0df" d="
  M 650.33 659.18
  A 0.84 0.78 49.0 0 0 649.06 659.04
  Q 643.39 665.60 638.45 672.72
  Q 628.81 686.61 604.54 727.50
  C 603.65 728.99 600.57 730.23 598.58 730.55
  Q 573.49 734.59 547.14 738.34
  A 3.36 2.97 59.9 0 1 544.54 737.47
  L 538.56 731.94
  A 0.62 0.62 -46.0 0 0 537.71 731.96
  L 528.27 741.03
  A 4.11 3.38 15.9 0 1 526.00 742.02
  L 484.99 746.20
  Q 481.79 746.52 481.66 743.16
  Q 479.17 681.29 476.98 619.50
  Q 476.77 613.49 483.25 613.97
  Q 494.38 614.80 505.63 615.75
  A 1.07 1.06 15.6 0 0 506.67 615.17
  Q 527.17 573.71 548.82 532.82
  Q 549.93 530.73 549.92 528.50
  L 549.68 477.75
  A 0.85 0.83 13.1 0 0 549.21 477.02
  Q 540.14 472.58 532.57 465.93
  A 2.51 2.21 24.6 0 1 531.71 464.01
  L 533.81 429.50
  A 1.23 1.03 -88.7 0 1 534.82 428.35
  L 563.50 427.42
  Q 565.37 427.35 566.72 428.51
  L 575.34 435.91
  A 0.70 0.60 -49.6 0 0 576.26 435.76
  L 583.77 426.78
  Q 585.22 425.04 586.58 426.93
  L 590.65 432.58
  A 0.56 0.48 49.3 0 0 591.45 432.70
  L 597.66 425.92
  A 4.09 3.19 -64.8 0 1 600.23 424.62
  Q 645.00 423.13 690.31 421.60
  Q 694.78 421.44 699.24 421.50
  A 1.37 0.85 -11.3 0 1 700.17 421.85
  Q 702.84 425.11 704.61 428.95
  A 1.37 1.10 -50.2 0 1 704.59 429.96
  Q 702.96 433.96 702.96 435.75
  C 703.06 473.01 705.07 510.01 706.28 547.22
  A 1.51 0.45 -86.2 0 0 706.51 548.23
  L 716.76 560.73
  A 3.37 2.54 34.3 0 1 717.53 563.00
  L 715.87 576.27
  A 0.44 0.33 89.2 0 0 716.26 576.77
  L 722.76 575.22
  Q 724.93 574.71 725.94 576.31
  Q 747.53 610.53 770.18 644.06
  A 2.06 1.77 72.8 0 0 771.57 644.93
  L 788.26 646.37
  A 1.38 1.11 -13.4 0 1 789.12 646.78
  C 790.55 648.46 790.19 649.80 790.26 651.81
  Q 791.82 694.90 793.19 738.00
  Q 793.37 743.58 787.74 743.61
  Q 771.86 743.70 755.98 742.90
  A 1.26 1.13 66.0 0 1 755.20 742.55
  L 743.58 731.68
  A 0.60 0.58 -47.4 0 0 742.74 731.73
  L 734.21 740.95
  Q 732.95 742.32 731.26 742.16
  L 700.49 739.29
  Q 698.10 739.06 697.51 736.75
  L 694.49 725.00
  Q 694.25 724.10 693.61 723.11
  Q 672.44 690.83 650.33 659.18
  Z"
/>
<path fill="#ffa61e" d="
  M 1287.30 608.75
  L 1287.13 597.00
  A 1.81 1.24 -35.8 0 1 1287.49 596.01
  Q 1290.66 591.82 1294.64 588.40
  A 0.53 0.38 42.6 0 0 1294.49 587.71
  Q 1291.08 584.99 1287.96 582.35
  C 1284.67 579.57 1285.92 578.53 1286.08 575.14
  Q 1286.62 563.60 1286.66 556.82
  Q 1286.91 510.65 1287.60 464.50
  C 1287.67 459.67 1286.36 455.30 1293.00 455.41
  Q 1331.35 456.07 1369.68 457.39
  C 1380.06 457.74 1382.80 457.11 1382.94 468.28
  Q 1384.06 561.26 1384.31 654.25
  C 1384.31 655.74 1382.37 659.07 1381.16 660.66
  Q 1364.92 682.14 1348.47 703.46
  Q 1344.97 708.00 1340.00 707.65
  Q 1322.49 706.38 1304.96 705.87
  A 1.70 0.86 -9.0 0 1 1303.96 705.55
  Q 1299.53 701.52 1296.25 696.51
  A 1.31 1.25 52.3 0 0 1294.31 696.21
  C 1290.41 699.83 1285.92 705.14 1279.96 705.22
  C 1252.72 705.59 1225.17 704.06 1198.04 703.05
  Q 1196.42 702.99 1195.21 701.79
  L 1187.94 694.56
  A 0.60 0.59 -45.7 0 0 1187.08 694.58
  L 1179.18 703.17
  A 1.20 0.91 18.9 0 1 1178.27 703.47
  Q 1173.86 703.12 1169.58 702.73
  C 1165.33 702.34 1164.32 701.18 1164.34 697.00
  Q 1164.46 660.34 1165.28 623.67
  C 1165.35 620.72 1165.00 616.68 1165.87 613.17
  Q 1166.63 610.06 1169.75 610.15
  Q 1228.27 611.76 1286.74 609.02
  A 0.58 0.24 -2.9 0 0 1287.30 608.75
  Z"
/>
<path fill="#ffa61e" d="
  M 1168.26 595.90
  Q 1165.80 594.46 1165.73 592.24
  Q 1163.74 528.06 1162.56 463.86
  C 1162.48 459.26 1164.01 456.16 1168.93 456.24
  Q 1200.82 456.74 1213.75 457.69
  C 1217.78 457.98 1218.28 461.76 1218.24 465.33
  Q 1217.03 562.23 1216.05 592.50
  C 1215.96 594.97 1213.18 596.25 1210.78 596.31
  Q 1189.80 596.82 1169.19 596.16
  Q 1168.69 596.15 1168.26 595.90
  Z"
/>
<path fill="#ffa61e" d="
  M 1235.14 595.18
  Q 1233.06 593.94 1233.00 591.68
  Q 1231.18 526.98 1230.21 462.25
  C 1230.16 458.93 1232.24 457.99 1235.30 457.91
  Q 1259.79 457.19 1269.99 457.23
  C 1272.91 457.24 1274.46 459.16 1274.49 462.11
  Q 1274.57 471.29 1274.39 480.43
  Q 1273.38 533.50 1272.01 588.71
  Q 1271.98 590.10 1271.67 591.46
  C 1271.15 593.71 1269.54 594.62 1267.22 594.77
  Q 1251.52 595.75 1236.14 595.47
  Q 1235.60 595.46 1235.14 595.18
  Z"
/>
<path fill="#0fa0df" d="
  M 325.47 678.27
  Q 324.80 678.67 324.57 679.47
  A 0.97 0.78 -87.6 0 1 324.01 680.11
  C 315.96 682.74 312.43 676.71 307.83 671.65
  A 0.82 0.81 -50.7 0 0 306.53 671.79
  Q 303.67 676.61 299.35 680.10
  A 1.74 0.99 15.4 0 1 298.28 680.37
  Q 278.19 679.57 258.21 678.17
  C 255.99 678.01 253.68 676.34 253.56 674.04
  Q 251.43 634.81 251.02 613.25
  Q 250.93 608.58 256.01 609.48
  Q 277.23 613.26 298.79 612.27
  A 0.72 0.45 -1.1 0 0 299.47 611.83
  L 300.36 590.50
  A 0.50 0.48 87.1 0 0 299.81 589.99
  Q 276.90 593.06 257.50 594.00
  C 253.39 594.20 251.72 591.56 251.52 587.66
  Q 250.87 575.10 251.51 562.57
  C 251.65 559.90 252.87 557.83 255.75 558.23
  Q 275.94 561.00 296.32 562.51
  A 0.85 0.85 2.2 0 0 297.23 561.67
  Q 297.28 554.23 297.24 546.59
  C 297.22 541.34 298.86 541.05 303.54 541.29
  Q 357.09 544.06 411.25 545.61
  Q 413.68 545.68 413.57 547.99
  L 412.67 567.24
  Q 412.57 569.51 414.57 568.86
  Q 433.43 562.70 454.51 563.07
  C 457.93 563.13 459.30 564.28 459.20 567.76
  Q 458.62 587.88 458.03 591.52
  C 457.48 594.89 454.81 594.83 451.95 594.77
  Q 434.56 594.39 415.44 593.97
  A 1.14 1.09 -86.4 0 0 414.32 595.00
  Q 413.60 603.25 414.05 611.50
  A 1.05 0.97 89.9 0 0 414.97 612.49
  C 428.32 613.18 442.23 612.06 455.50 613.45
  Q 457.23 613.63 457.24 615.50
  Q 457.41 645.22 458.03 674.93
  C 458.14 679.82 458.51 683.21 452.80 683.27
  C 405.93 683.81 372.39 683.88 329.64 681.05
  C 327.76 680.92 326.88 680.12 326.13 678.52
  A 0.51 0.45 62.1 0 0 325.47 678.27
  Z"
/>
</svg>
