<?xml version="1.0" encoding="UTF-8" standalone="no"?>
<!DOCTYPE svg PUBLIC "-//W3C//DTD SVG 1.1//EN" "http://www.w3.org/Graphics/SVG/1.1/DTD/svg11.dtd">
<svg xmlns="http://www.w3.org/2000/svg" version="1.1" viewBox="0 0 2171 965">
<path fill="#94bf32" d="
  M 1653.06 189.94
  C 1700.94 190.49 1749.44 191.42 1797.25 189.00
  C 1811.06 188.31 1824.35 186.65 1837.82 179.88
  C 1841.79 177.88 1845.35 174.87 1849.13 172.21
  A 0.60 0.59 52.6 0 1 1849.92 172.32
  L 1886.05 215.19
  Q 1886.44 215.65 1885.88 215.75
  Q 1883.42 216.17 1877.75 216.12
  Q 1815.35 215.49 1653.16 215.46
  A 0.50 0.50 0.0 0 0 1652.66 215.96
  C 1651.87 283.88 1652.23 351.83 1652.26 419.76
  A 0.51 0.49 -0.0 0 1 1651.75 420.25
  L 1542.25 420.25
  A 0.81 0.75 -90.0 0 1 1541.50 419.44
  L 1541.50 215.75
  A 0.46 0.44 -89.4 0 0 1541.07 215.29
  Q 1464.34 214.02 1387.50 215.46
  C 1365.94 215.86 1346.30 220.08 1327.37 229.28
  A 1.85 1.84 56.5 0 1 1325.17 228.83
  L 1292.85 191.14
  Q 1291.88 190.01 1293.35 190.01
  Q 1397.80 189.99 1503.20 190.01
  C 1512.25 190.01 1528.30 190.57 1540.92 189.90
  A 0.65 0.62 88.1 0 0 1541.50 189.25
  L 1541.50 140.75
  A 1.85 1.75 18.3 0 0 1540.71 139.28
  L 1529.87 131.66
  A 1.09 1.02 -72.6 0 1 1529.43 130.75
  L 1529.73 119.24
  A 1.05 1.00 -88.8 0 1 1530.74 118.22
  C 1569.46 118.62 1608.25 117.34 1647.00 117.49
  C 1651.97 117.51 1652.50 121.46 1652.49 125.31
  Q 1652.46 157.37 1652.56 189.43
  A 0.51 0.50 90.0 0 0 1653.06 189.94
  Z"
/>
<path fill="#ffd140" d="
  M 289.50 303.00
  L 1294.94 303.00
  A 1.34 1.07 67.4 0 1 1295.89 303.52
  C 1299.47 308.20 1305.51 314.04 1307.85 319.21
  A 1.33 1.33 77.8 0 1 1306.64 321.09
  Q 805.88 320.70 305.00 320.73
  C 282.66 320.74 260.35 320.36 238.00 320.66
  C 204.91 321.12 177.27 311.17 155.31 286.25
  C 100.79 224.36 141.84 125.52 224.31 120.17
  Q 227.92 119.93 244.31 119.95
  Q 700.16 120.44 1156.00 120.17
  Q 1156.20 120.17 1156.34 120.26
  A 1.34 0.59 42.9 0 0 1157.00 120.49
  L 1295.00 120.50
  A 0.91 0.83 68.9 0 1 1295.67 120.83
  L 1307.20 135.04
  A 5.03 3.67 31.7 0 1 1308.30 137.74
  Q 1308.32 138.56 1306.44 138.56
  Q 798.00 138.50 289.57 138.50
  Q 289.11 138.50 289.48 138.77
  C 345.37 179.68 345.10 261.15 289.25 302.13
  Q 288.06 303.00 289.50 303.00
  Z
  M 300.23 271.17
  Q 300.27 271.79 300.63 271.28
  Q 319.92 244.20 316.86 211.70
  C 311.66 156.69 256.30 120.95 203.86 138.10
  C 149.37 155.91 128.26 220.08 158.80 267.72
  C 166.49 279.71 174.56 287.24 189.69 287.04
  C 214.75 286.70 232.58 278.52 252.95 264.26
  C 266.27 254.94 283.67 252.19 296.87 263.24
  C 299.48 265.42 300.05 267.93 300.23 271.17
  Z
  M 293.95 278.94
  C 286.02 281.23 283.77 275.09 277.20 273.30
  C 264.14 269.76 248.86 279.00 237.26 284.44
  C 223.53 290.88 211.22 293.90 196.57 294.45
  C 192.61 294.60 189.05 294.09 185.40 293.05
  Q 183.79 292.59 185.22 293.46
  C 220.94 315.11 265.27 309.40 294.09 279.16
  Q 294.43 278.80 293.95 278.94
  Z"
/>
<path fill="#ffd140" d="
  M 189.76 261.01
  A 0.12 0.11 -67.9 0 0 189.94 260.93
  Q 194.19 230.38 190.75 199.76
  Q 189.74 190.81 183.91 157.30
  A 0.68 0.67 -18.9 0 1 184.27 156.58
  C 196.02 150.62 204.66 146.34 217.00 145.02
  C 237.11 142.86 259.08 145.85 276.27 155.46
  Q 280.23 157.67 291.64 165.54
  A 0.62 0.59 -61.0 0 1 291.84 166.29
  C 280.25 192.92 278.58 220.25 278.45 248.61
  A 1.18 1.18 -3.3 0 1 277.40 249.78
  C 260.41 251.78 247.89 261.46 234.04 270.69
  C 217.01 282.05 181.23 291.29 167.18 271.35
  C 163.50 266.13 162.20 254.96 170.84 253.94
  C 177.81 253.11 184.45 256.93 189.76 261.01
  Z
  M 210.51 242.92
  C 216.37 235.04 221.58 229.08 221.81 218.75
  C 222.12 204.27 216.84 192.15 216.75 176.57
  A 1.21 1.19 67.8 0 1 217.10 175.72
  C 221.07 171.67 231.82 164.35 234.58 174.50
  A 0.46 0.45 72.1 0 0 235.18 174.81
  C 244.94 171.00 229.72 154.71 217.85 164.93
  Q 214.78 167.57 211.69 170.21
  Q 210.24 171.44 208.52 171.31
  Q 205.52 171.07 205.74 173.98
  A 1.27 1.25 -70.4 0 0 206.13 174.82
  C 209.11 177.74 210.95 179.27 211.15 183.81
  Q 211.89 200.77 211.35 220.01
  C 211.07 230.15 210.98 236.23 204.03 242.49
  Q 201.73 244.56 203.20 246.75
  Q 204.91 249.28 207.45 250.81
  A 1.18 0.67 -35.4 0 0 208.45 250.71
  C 217.58 245.94 221.73 242.97 231.27 247.35
  C 239.08 250.94 247.77 252.27 254.87 247.24
  C 264.01 240.76 265.92 227.96 259.00 219.02
  C 252.20 210.24 233.11 208.30 232.31 222.70
  Q 232.05 227.38 233.90 229.83
  C 236.93 233.85 244.90 232.99 245.23 227.00
  A 0.47 0.38 85.8 0 0 244.76 226.50
  Q 241.04 227.49 239.84 223.91
  Q 239.11 221.74 240.88 220.22
  C 248.77 213.42 257.58 223.36 258.71 230.97
  C 260.18 240.87 250.61 247.24 241.83 244.28
  Q 240.77 243.93 235.54 240.62
  Q 223.16 232.79 211.11 243.17
  A 0.42 0.38 -60.0 0 1 210.80 243.27
  L 210.64 243.26
  Q 210.29 243.22 210.51 242.92
  Z"
/>
<path fill="#ffd140" d="
  M 879.51 219.49
  L 869.30 230.80
  A 1.19 0.85 -62.5 0 1 868.50 231.21
  L 853.49 231.08
  Q 852.43 231.07 853.26 230.29
  C 861.48 222.57 868.42 216.23 871.37 204.78
  Q 876.95 183.16 874.47 160.95
  A 0.67 0.64 -8.4 0 1 875.02 160.24
  Q 885.20 158.50 894.01 163.80
  A 0.97 0.59 23.0 0 1 894.51 164.50
  L 894.05 177.18
  A 0.71 0.65 89.4 0 0 894.74 177.92
  Q 915.26 176.61 936.00 176.43
  Q 938.12 176.42 943.08 176.92
  A 0.63 0.62 0.6 0 1 943.65 177.49
  Q 944.47 187.59 935.77 192.23
  A 1.92 0.72 -36.8 0 1 934.74 192.53
  L 931.50 192.25
  A 0.85 0.49 -83.4 0 0 930.92 193.03
  C 928.72 212.13 924.03 234.66 913.05 251.15
  A 0.70 0.69 -47.2 0 0 913.07 251.96
  C 919.47 260.11 928.33 267.35 939.00 268.01
  A 0.54 0.44 4.5 0 1 939.51 268.50
  Q 938.69 277.86 939.06 287.24
  A 0.93 0.86 -85.3 0 1 938.01 288.20
  Q 915.51 282.89 899.30 266.45
  A 0.70 0.58 -41.2 0 0 898.44 266.47
  Q 881.89 279.65 861.11 284.20
  A 1.26 0.40 -16.5 0 1 860.06 284.18
  Q 854.91 279.64 857.24 272.93
  A 1.03 0.31 -14.7 0 1 857.96 272.49
  Q 875.58 266.88 889.60 254.80
  A 0.73 0.59 -33.0 0 0 889.84 254.06
  Q 882.82 237.49 880.21 219.65
  Q 880.09 218.85 879.51 219.49
  Z
  M 891.85 191.78
  C 890.55 195.04 890.98 196.71 891.62 200.71
  C 893.51 212.52 896.24 223.89 901.20 234.80
  Q 901.91 236.34 902.47 234.74
  Q 909.72 213.88 910.01 191.75
  A 0.55 0.40 2.9 0 0 909.50 191.34
  Q 901.00 190.65 892.50 191.29
  A 0.79 0.76 -81.1 0 0 891.85 191.78
  Z"
/>
<path fill="#ffd140" d="
  M 822.00 183.44
  L 802.25 184.23
  A 0.48 0.48 -1.1 0 1 801.75 183.75
  L 801.75 174.25
  A 0.57 0.47 -4.0 0 1 802.25 173.77
  L 821.75 171.45
  A 0.83 0.38 -5.8 0 0 822.51 171.00
  L 822.18 161.50
  A 0.60 0.57 85.8 0 1 822.68 160.89
  Q 833.73 159.55 844.73 161.15
  A 0.91 0.53 7.0 0 1 845.54 161.76
  L 844.98 171.50
  A 1.73 1.66 -81.7 0 0 846.24 173.26
  L 852.50 174.77
  A 0.46 0.38 -72.7 0 0 852.98 174.45
  L 856.46 163.99
  A 0.70 0.62 -72.8 0 1 857.24 163.52
  L 873.20 168.02
  A 0.60 0.51 -73.6 0 1 873.52 168.75
  Q 869.32 182.75 860.92 194.70
  Q 860.58 195.19 861.17 195.24
  L 865.43 195.61
  A 0.77 0.37 3.0 0 1 866.11 195.98
  L 867.43 205.93
  A 0.61 0.39 -3.9 0 1 866.83 206.37
  Q 860.44 206.61 854.16 206.49
  C 851.24 206.43 849.51 207.21 847.91 209.45
  Q 847.49 210.03 848.25 209.99
  Q 852.80 209.75 857.02 208.05
  A 1.21 0.48 -26.0 0 1 858.02 207.97
  L 863.93 212.32
  A 0.77 0.37 -58.9 0 1 863.85 213.13
  Q 858.24 222.77 848.97 228.95
  A 1.13 0.33 -30.9 0 0 848.29 229.68
  L 848.95 238.51
  A 0.87 0.40 3.1 0 0 849.75 238.93
  Q 858.50 239.59 867.25 238.93
  A 1.40 0.83 54.7 0 1 868.17 239.34
  Q 874.41 245.02 875.11 253.53
  A 0.49 0.36 87.6 0 1 874.75 254.07
  L 851.00 253.20
  A 1.14 1.10 2.3 0 0 849.82 254.25
  L 848.61 281.24
  A 1.45 1.15 75.4 0 1 848.19 282.19
  L 840.93 288.67
  A 1.36 0.87 -55.9 0 1 840.06 289.04
  C 828.75 288.42 813.34 287.87 803.29 282.35
  A 1.19 0.93 -83.1 0 1 802.77 281.49
  L 801.89 273.31
  A 1.10 1.07 3.2 0 1 803.22 272.16
  Q 812.82 274.20 822.16 273.92
  C 825.48 273.83 827.14 272.45 826.73 269.01
  Q 826.41 266.37 826.05 253.21
  A 0.57 0.55 88.9 0 0 825.50 252.66
  L 798.75 252.87
  A 0.76 0.59 74.2 0 1 798.14 252.42
  Q 795.28 246.27 795.47 239.50
  A 0.62 0.58 1.4 0 1 796.10 238.94
  C 806.28 239.10 816.69 239.69 826.88 238.90
  A 0.71 0.62 -89.7 0 0 827.46 238.24
  L 828.08 230.26
  A 1.30 0.99 80.6 0 1 828.57 229.33
  L 841.92 220.63
  Q 843.44 219.64 841.78 219.55
  C 838.42 219.38 835.38 218.94 832.38 220.85
  C 820.31 228.52 810.76 233.75 795.79 232.67
  A 0.66 0.66 -4.0 0 1 795.18 232.14
  Q 794.62 229.12 795.15 226.01
  A 1.10 0.87 -10.9 0 1 795.77 225.29
  Q 813.16 217.66 828.56 206.57
  Q 829.31 206.03 828.32 206.01
  Q 816.39 205.75 804.50 206.51
  A 0.96 0.77 69.9 0 1 803.72 206.04
  L 797.92 196.32
  A 0.75 0.74 72.6 0 1 798.50 195.19
  L 821.81 193.87
  A 0.96 0.83 -2.4 0 0 822.72 193.01
  L 822.50 184.00
  A 0.58 0.48 87.9 0 0 822.00 183.44
  Z
  M 844.39 189.99
  Q 844.35 191.79 845.31 190.30
  L 848.55 185.30
  A 0.54 0.40 -62.8 0 0 848.43 184.55
  Q 846.76 184.07 845.00 184.27
  A 0.80 0.54 88.3 0 0 844.52 185.03
  L 844.39 189.99
  Z"
/>
<path fill="#ffd140" d="
  M 995.07 224.21
  C 1000.07 224.45 1007.06 223.22 1009.58 228.96
  C 1015.63 242.78 1004.33 241.42 995.58 240.52
  A 0.81 0.81 -87.5 0 0 994.69 241.34
  Q 994.90 255.75 995.31 270.00
  C 995.57 278.93 992.58 287.90 982.32 288.59
  C 973.00 289.22 958.77 289.31 951.32 282.63
  A 2.20 2.20 31.2 0 1 950.73 280.23
  Q 952.59 275.30 955.97 271.21
  A 0.63 0.52 33.6 0 1 956.71 271.13
  C 962.22 274.18 971.70 277.63 971.51 267.35
  Q 971.26 253.99 970.36 240.63
  A 0.55 0.54 -0.6 0 0 969.83 240.12
  Q 960.05 239.71 958.00 239.47
  C 953.29 238.92 945.49 222.86 954.64 223.42
  C 959.69 223.72 964.90 223.48 970.00 223.50
  A 0.49 0.46 90.0 0 0 970.47 223.00
  L 970.16 193.99
  Q 970.13 191.87 968.12 191.76
  C 956.98 191.13 954.63 192.50 950.62 180.83
  Q 948.81 175.55 954.25 175.27
  Q 958.04 175.07 969.13 175.35
  A 0.51 0.50 -88.3 0 0 969.64 174.86
  C 969.77 170.59 967.58 160.20 975.75 160.40
  Q 982.29 160.56 988.81 161.13
  C 996.51 161.80 994.68 170.23 994.84 175.36
  A 0.59 0.43 89.8 0 0 995.26 175.94
  L 1003.24 176.29
  Q 1005.52 176.39 1006.75 177.93
  C 1008.95 180.70 1016.37 191.88 1007.23 192.00
  Q 998.19 192.12 995.14 192.39
  A 0.60 0.41 -3.5 0 0 994.59 192.82
  L 994.52 223.75
  A 0.57 0.46 1.3 0 0 995.07 224.21
  Z"
/>
<path fill="#ffd140" d="
  M 1010.82 166.97
  Q 1011.40 163.81 1014.80 163.85
  Q 1053.53 164.26 1092.25 164.77
  Q 1094.39 164.80 1096.45 165.32
  Q 1098.81 165.90 1097.44 168.94
  Q 1095.45 173.36 1091.63 176.38
  A 1.60 0.94 -53.3 0 1 1090.75 176.75
  Q 1056.88 176.75 1023.00 176.75
  Q 1020.24 176.75 1014.45 176.10
  A 1.65 0.62 -1.4 0 1 1013.44 175.75
  Q 1009.85 172.24 1010.82 166.97
  Z"
/>
<path fill="#ffd140" d="
  M 675.66 282.10
  Q 673.53 280.81 673.57 278.33
  Q 673.68 270.68 676.24 263.53
  C 677.96 258.73 689.72 259.20 694.28 259.29
  Q 706.70 259.53 717.24 258.23
  C 736.59 255.85 752.50 236.83 758.05 219.32
  C 761.59 208.17 762.62 196.69 764.11 185.16
  C 765.22 176.51 765.44 172.09 770.24 166.50
  Q 772.48 163.90 775.49 164.37
  Q 779.98 165.07 783.92 167.06
  Q 787.03 168.63 785.00 170.97
  Q 781.73 174.75 781.54 179.68
  C 780.99 194.25 777.95 209.50 773.96 225.25
  C 771.37 235.45 768.84 244.35 763.08 252.77
  C 742.73 282.53 713.30 283.04 679.50 283.00
  Q 677.15 283.00 675.66 282.10
  Z"
/>
<path fill="#ffd140" d="
  M 511.18 282.72
  A 0.47 0.43 -90.0 0 1 510.75 282.25
  L 510.75 222.75
  A 1.06 0.89 87.1 0 0 509.75 221.68
  Q 487.65 224.45 465.43 222.88
  A 0.79 0.62 2.4 0 1 464.69 222.25
  L 464.67 212.76
  A 0.69 0.65 -0.9 0 1 465.34 212.11
  C 470.28 211.92 473.88 211.76 480.10 211.58
  C 500.65 211.01 528.45 203.11 537.16 182.20
  Q 539.65 176.23 542.89 165.51
  A 0.67 0.64 -81.9 0 1 543.50 165.03
  L 567.25 164.41
  A 1.10 1.08 1.6 0 1 568.38 165.58
  C 566.87 183.77 551.75 202.28 537.45 212.50
  A 1.09 0.77 -23.9 0 0 537.00 213.25
  L 537.00 282.25
  A 0.50 0.49 -0.0 0 1 536.50 282.74
  L 511.18 282.72
  Z"
/>
<path fill="#ffd140" d="
  M 617.00 241.24
  C 615.49 254.12 616.43 268.37 616.17 281.44
  A 0.57 0.42 -89.3 0 1 615.75 282.00
  L 589.25 282.00
  A 0.75 0.50 90.0 0 1 588.75 281.25
  L 588.75 165.25
  A 0.98 0.79 0.7 0 1 589.75 164.46
  L 616.75 165.04
  A 0.52 0.52 0.6 0 1 617.26 165.56
  C 617.17 184.22 616.67 202.86 617.45 221.52
  Q 617.55 223.75 619.73 224.23
  Q 620.80 224.47 623.07 224.52
  C 639.09 224.90 655.47 223.91 671.29 225.07
  Q 674.79 225.32 673.65 228.64
  C 671.20 235.80 667.33 239.42 659.44 239.45
  Q 639.12 239.53 618.95 239.50
  A 1.98 1.96 -86.5 0 0 617.00 241.24
  Z"
/>
<path fill="#ffd140" d="
  M 360.33 282.04
  A 0.62 0.54 1.7 0 1 359.74 281.50
  L 359.70 165.50
  A 0.80 0.75 -0.0 0 1 360.50 164.75
  L 385.50 164.75
  A 0.75 0.75 0.0 0 1 386.25 165.50
  L 386.25 261.75
  A 0.94 0.91 17.8 0 0 386.66 262.51
  Q 392.00 266.22 400.00 265.95
  C 425.12 265.11 440.09 251.72 451.56 230.73
  A 0.91 0.70 -72.2 0 1 452.25 230.25
  L 467.00 230.25
  A 0.36 0.31 -75.5 0 1 467.25 230.76
  C 453.19 260.93 427.64 281.00 393.75 282.16
  Q 377.35 282.73 360.33 282.04
  Z"
/>
<path fill="#ffd140" d="
  M 673.25 188.69
  C 665.49 188.64 681.24 172.26 681.87 172.26
  Q 706.89 172.22 731.95 172.28
  A 0.49 0.41 2.1 0 1 732.45 172.73
  Q 731.53 183.46 722.86 189.59
  A 1.49 1.23 24.6 0 1 722.01 189.82
  Q 697.62 188.85 673.25 188.69
  Z"
/>
<path fill="#ffd140" d="
  M 1038.40 179.24
  Q 1038.90 178.46 1039.82 178.41
  C 1048.89 177.89 1060.38 177.17 1061.75 189.35
  Q 1062.21 193.40 1062.51 197.14
  A 0.86 0.79 86.6 0 1 1061.76 198.06
  L 1045.57 198.70
  A 1.69 1.57 0.2 0 1 1043.81 197.05
  C 1044.06 192.19 1042.77 184.43 1038.65 180.88
  A 1.27 1.27 -53.8 0 1 1038.40 179.24
  Z"
/>
<path fill="#ffd140" d="
  M 1014.70 179.68
  A 2.66 2.65 16.9 0 1 1016.81 178.56
  C 1022.21 178.44 1031.29 177.11 1035.30 181.53
  Q 1041.64 188.51 1037.83 197.67
  A 0.86 0.48 -73.0 0 1 1037.25 198.23
  L 1019.43 198.18
  A 1.41 1.36 0.4 0 1 1018.03 196.81
  Q 1018.07 192.10 1017.45 186.80
  C 1017.22 184.75 1012.74 182.41 1014.70 179.68
  Z"
/>
<path fill="#ffd140" d="
  M 1069.79 182.78
  C 1070.46 180.13 1071.75 178.73 1074.51 178.75
  Q 1089.92 178.88 1093.01 179.70
  C 1101.52 181.95 1085.15 197.15 1082.83 198.93
  A 1.44 0.59 -46.0 0 1 1082.00 199.29
  L 1068.30 198.97
  Q 1065.10 198.90 1065.88 196.46
  Q 1068.06 189.69 1069.79 182.78
  Z"
/>
<path fill="#ffd140" d="
  M 1147.16 232.80
  L 1131.12 198.41
  A 0.78 0.77 77.0 0 1 1131.80 197.30
  C 1137.08 197.20 1142.38 196.76 1147.43 198.61
  C 1156.31 201.85 1160.34 215.68 1163.40 223.82
  A 0.51 0.39 68.2 0 0 1163.97 224.16
  Q 1184.42 215.07 1205.78 208.34
  A 1.06 1.04 77.3 0 1 1207.12 209.21
  Q 1208.68 219.89 1202.76 228.84
  A 1.29 1.21 -78.4 0 1 1202.01 229.37
  Q 1186.29 233.13 1171.17 238.87
  C 1161.39 242.58 1149.64 249.69 1149.30 261.17
  C 1149.08 268.63 1161.64 271.88 1167.01 272.05
  Q 1188.22 272.74 1207.78 265.31
  A 0.84 0.76 -17.2 0 1 1208.88 265.82
  Q 1210.36 272.58 1209.96 279.49
  A 1.58 1.56 79.6 0 1 1209.05 280.82
  C 1189.78 289.54 1164.30 291.81 1144.42 283.38
  C 1131.76 278.00 1127.90 262.35 1132.76 250.55
  Q 1137.02 240.22 1146.78 233.47
  A 0.74 0.39 -32.4 0 0 1147.16 232.80
  Z"
/>
<path fill="#ffd140" d="
  M 1016.25 223.74
  Q 1010.34 223.88 1004.50 223.02
  Q 1001.93 222.63 1001.66 220.15
  C 1001.15 215.54 1000.82 207.31 1003.49 203.66
  C 1006.00 200.23 1012.69 199.76 1016.82 199.80
  Q 1054.16 200.17 1091.52 200.62
  Q 1094.62 200.66 1096.76 202.90
  C 1100.10 206.40 1104.18 215.25 1102.18 220.32
  Q 1101.19 222.85 1098.47 222.94
  L 1089.55 223.26
  A 1.29 1.14 88.6 0 0 1088.45 224.56
  C 1088.75 239.74 1076.76 255.89 1065.81 265.31
  Q 1065.36 265.70 1065.94 265.84
  Q 1072.05 267.31 1078.30 267.82
  C 1082.37 268.15 1086.83 267.13 1091.04 267.21
  Q 1094.82 267.28 1094.94 271.06
  Q 1095.14 277.92 1094.24 284.74
  Q 1093.70 288.80 1089.28 288.23
  Q 1067.88 285.50 1048.70 275.69
  A 1.16 0.97 -41.8 0 0 1047.73 275.72
  Q 1028.83 285.20 1007.92 288.76
  A 1.07 0.80 57.1 0 1 1007.09 288.45
  C 1004.02 285.49 1003.36 278.75 1003.28 274.73
  Q 1003.22 271.47 1006.42 270.89
  C 1015.53 269.21 1023.75 267.76 1032.38 264.39
  A 0.75 0.75 58.1 0 0 1032.66 263.18
  C 1022.91 252.50 1015.60 239.90 1016.65 224.31
  A 0.53 0.39 -88.4 0 0 1016.25 223.74
  Z
  M 1022.51 212.07
  Q 1021.57 216.41 1022.45 220.82
  A 0.53 0.49 -6.8 0 0 1023.00 221.22
  Q 1049.00 219.59 1075.00 221.38
  A 1.90 1.89 -79.9 0 0 1076.94 220.02
  Q 1078.03 216.36 1076.99 212.74
  A 1.41 1.26 -6.8 0 0 1075.68 211.82
  L 1023.75 211.28
  A 1.31 1.00 5.1 0 0 1022.51 212.07
  Z
  M 1048.87 255.58
  C 1057.31 249.96 1059.93 244.15 1061.56 234.49
  A 1.12 1.12 6.1 0 0 1060.50 233.18
  Q 1048.63 232.70 1036.75 233.28
  A 0.85 0.84 -6.6 0 0 1035.96 234.27
  Q 1038.28 247.02 1048.00 255.50
  A 0.74 0.68 48.0 0 0 1048.87 255.58
  Z"
/>
<path fill="#94bf32" d="
  M 1275.95 412.80
  C 1332.43 383.83 1372.87 333.98 1390.68 273.13
  Q 1392.69 266.26 1393.69 256.77
  C 1394.89 245.37 1389.01 242.51 1380.70 236.99
  A 0.98 0.66 23.4 0 1 1380.23 236.25
  L 1380.78 226.43
  A 0.72 0.52 1.7 0 1 1381.50 225.94
  L 1514.00 226.86
  A 0.78 0.68 2.4 0 1 1514.78 227.60
  C 1513.93 238.94 1513.56 252.02 1511.81 261.73
  C 1503.67 306.91 1462.96 347.29 1425.79 370.87
  C 1375.23 402.96 1318.03 421.64 1259.54 433.05
  A 0.98 0.79 -23.4 0 1 1258.68 432.81
  L 1250.71 423.79
  A 0.88 0.86 59.9 0 1 1251.07 422.39
  C 1259.47 419.59 1268.20 416.77 1275.95 412.80
  Z"
/>
<path fill="#94bf32" d="
  M 1708.06 226.25
  Q 1760.55 225.80 1813.07 226.08
  A 0.67 0.45 -1.3 0 1 1813.73 226.50
  L 1814.30 236.50
  A 0.93 0.63 -21.1 0 1 1813.81 237.20
  C 1805.64 241.93 1800.24 245.47 1800.81 255.26
  C 1801.29 263.49 1802.96 269.59 1805.69 278.42
  C 1823.08 334.68 1861.42 381.64 1913.08 409.90
  Q 1927.71 417.91 1943.85 422.26
  A 0.70 0.68 -61.7 0 1 1944.17 423.39
  L 1935.98 432.74
  A 0.91 0.75 -60.9 0 1 1935.19 433.05
  C 1875.50 421.46 1817.65 402.11 1765.94 369.57
  C 1724.86 343.71 1686.63 300.95 1681.24 251.68
  Q 1679.92 239.59 1678.68 227.03
  A 0.86 0.86 87.9 0 1 1679.55 226.09
  Q 1693.56 226.38 1708.06 226.25
  Z"
/>
<path fill="#f5a009" d="
  M 126.44 507.00
  Q 125.31 507.59 126.52 508.00
  C 144.26 513.90 162.65 521.83 176.44 534.29
  A 0.49 0.49 28.9 0 0 177.24 534.06
  Q 179.59 525.29 180.82 516.32
  C 181.99 507.76 179.91 504.28 172.80 499.32
  A 1.23 0.53 30.2 0 1 172.19 498.50
  L 172.88 486.93
  A 0.89 0.46 0.8 0 1 173.75 486.50
  L 276.25 486.50
  A 0.46 0.39 -84.4 0 1 276.62 487.03
  Q 271.90 515.16 270.28 522.51
  C 264.99 546.46 253.49 567.31 237.16 585.70
  C 213.74 612.06 185.00 635.13 154.76 653.23
  Q 154.25 653.53 154.75 653.54
  L 256.75 653.85
  A 0.74 0.73 -11.3 0 0 257.44 652.84
  C 256.80 651.33 256.78 649.61 256.57 648.29
  C 253.71 629.91 249.29 609.00 240.08 592.65
  A 0.82 0.80 52.3 0 1 240.19 591.69
  L 248.52 582.78
  A 1.06 1.01 -49.2 0 1 249.92 582.64
  C 274.48 602.17 340.03 660.82 301.76 695.65
  Q 300.91 696.43 302.06 696.43
  Q 340.72 696.63 379.19 696.81
  C 387.02 696.85 393.90 690.80 393.93 682.75
  Q 394.37 566.00 394.21 446.21
  A 1.53 1.53 0.4 0 0 392.70 444.68
  C 370.37 444.35 347.59 443.67 325.23 444.88
  C 307.16 445.86 293.69 447.54 278.47 455.28
  A 1.10 1.08 53.9 0 1 277.19 455.07
  Q 268.05 445.70 259.00 436.00
  C 249.47 425.78 255.65 424.09 265.75 424.03
  Q 336.75 423.56 406.52 423.80
  Q 408.84 423.81 410.64 422.15
  L 447.56 388.31
  A 0.45 0.41 46.4 0 1 448.15 388.35
  L 486.46 426.29
  A 1.41 1.19 -70.3 0 1 486.82 427.25
  L 486.50 444.00
  A 0.55 0.48 -88.4 0 1 486.00 444.54
  L 472.25 443.92
  A 0.61 0.55 -89.2 0 0 471.67 444.54
  C 472.09 529.85 473.36 615.20 472.18 700.50
  Q 472.05 709.93 470.00 719.07
  C 465.32 739.97 440.26 749.87 421.95 753.76
  C 397.84 758.88 377.27 760.59 348.80 762.82
  C 345.20 763.10 343.06 760.87 341.66 757.91
  A 2.04 1.42 -63.4 0 1 341.52 756.96
  Q 341.76 754.38 340.43 750.76
  C 333.01 730.47 318.00 715.70 299.72 705.28
  Q 295.90 703.10 297.27 699.22
  Q 297.43 698.77 296.99 698.96
  C 281.09 706.08 264.31 697.26 260.34 680.42
  Q 259.87 678.43 259.02 672.74
  A 0.58 0.58 85.3 0 0 258.45 672.25
  Q 188.58 672.77 118.73 672.33
  Q 115.82 672.31 113.06 673.30
  Q 88.09 682.21 62.69 689.82
  A 1.22 0.59 -23.4 0 1 61.71 689.78
  L 52.34 682.15
  A 0.72 0.63 -37.6 0 1 52.56 681.04
  Q 66.34 673.93 79.69 666.43
  C 110.24 649.26 135.96 617.72 153.88 587.32
  A 0.44 0.44 -59.5 0 0 153.73 586.73
  C 146.63 582.46 143.01 577.60 138.45 569.67
  Q 122.53 541.96 100.14 519.03
  A 0.96 0.84 58.1 0 0 99.25 518.76
  L 71.79 526.74
  A 0.89 0.83 -30.2 0 1 70.94 526.55
  L 64.14 520.09
  A 1.16 1.09 50.8 0 1 64.27 518.31
  C 74.79 511.86 85.78 505.19 94.51 497.27
  C 129.18 465.83 144.36 423.91 147.79 378.05
  Q 148.39 370.03 147.88 366.57
  C 146.98 360.29 143.47 358.65 139.30 355.11
  A 1.23 1.10 -70.5 0 1 138.92 354.18
  L 139.31 344.18
  A 0.70 0.45 0.8 0 1 140.00 343.75
  L 232.00 343.75
  A 0.81 0.78 -85.8 0 1 232.77 344.67
  Q 230.92 358.63 228.99 372.50
  C 222.35 420.11 194.30 463.03 154.76 489.94
  Q 141.05 499.27 126.44 507.00
  Z"
/>
<path fill="#f5a009" d="
  M 753.57 467.07
  C 753.66 471.82 753.17 476.98 753.23 481.32
  Q 753.79 522.00 753.18 562.09
  Q 753.13 565.24 750.00 565.27
  L 674.25 565.99
  A 1.01 1.01 -0.3 0 0 673.25 567.00
  L 673.25 592.75
  A 0.75 0.56 0.0 0 0 674.00 593.31
  L 709.75 593.27
  A 3.51 3.07 -64.3 0 0 712.04 592.29
  L 738.33 566.59
  A 0.80 0.71 43.8 0 1 739.37 566.63
  L 757.29 582.71
  A 0.50 0.44 -50.4 0 0 757.97 582.60
  Q 763.87 575.24 769.63 567.92
  Q 795.95 534.51 804.87 493.31
  C 810.31 468.16 813.59 441.63 811.58 416.25
  A 1.67 0.69 -85.2 0 0 811.26 415.24
  Q 807.24 411.06 802.44 407.80
  A 1.02 0.91 18.3 0 1 801.98 407.00
  L 801.94 395.30
  A 1.34 1.29 -89.6 0 1 803.25 393.96
  L 914.50 395.75
  A 0.69 0.57 -86.4 0 1 915.05 396.50
  C 913.81 410.95 912.96 426.70 910.36 439.88
  C 898.89 497.93 857.98 544.14 811.23 577.73
  C 797.15 587.84 784.64 593.18 770.05 599.40
  A 0.78 0.76 -11.5 0 0 769.58 600.09
  C 769.53 605.24 770.78 613.65 765.44 613.66
  Q 660.94 613.75 556.43 613.76
  Q 553.81 613.76 551.40 614.78
  Q 540.68 619.35 529.97 623.84
  A 0.78 0.71 56.7 0 1 529.13 623.63
  L 506.40 597.85
  Q 505.31 596.61 505.17 595.03
  C 505.03 593.40 507.12 592.65 508.60 592.66
  Q 555.03 593.01 602.02 594.13
  A 0.71 0.63 0.9 0 0 602.75 593.50
  L 602.75 566.50
  A 0.50 0.49 89.4 0 0 602.25 566.00
  Q 570.50 566.42 538.75 566.24
  Q 532.99 566.21 527.89 565.85
  Q 524.95 565.64 524.83 562.69
  Q 524.68 558.98 524.80 555.25
  Q 525.72 527.35 525.98 499.44
  C 526.06 490.88 526.69 485.14 519.31 481.34
  C 518.06 480.70 516.00 480.37 514.50 479.68
  A 0.86 0.69 15.0 0 1 514.00 479.00
  L 514.00 468.50
  A 0.87 0.71 -8.8 0 1 514.65 467.78
  Q 550.93 458.56 587.19 449.43
  Q 590.99 448.47 594.92 448.51
  Q 641.31 448.96 689.81 449.56
  A 3.45 3.31 21.6 0 0 692.29 448.55
  L 729.15 410.40
  A 1.00 0.99 -44.0 0 1 730.59 410.41
  Q 748.85 430.26 767.95 449.30
  A 1.41 0.28 42.6 0 1 768.64 450.25
  L 768.34 465.76
  A 0.61 0.46 -1.2 0 1 767.75 466.23
  L 754.00 466.57
  A 0.49 0.44 88.8 0 0 753.57 467.07
  Z
  M 591.25 499.19
  L 675.00 499.23
  A 0.48 0.48 0.0 0 0 675.48 498.75
  L 675.43 472.57
  Q 675.42 469.68 672.84 468.62
  Q 671.60 468.11 668.50 468.14
  Q 630.63 468.50 592.15 468.62
  A 1.14 1.13 -0.3 0 0 591.02 469.75
  L 591.09 498.75
  A 0.44 0.16 90.0 0 0 591.25 499.19
  Z
  M 675.5257 518.3337
  A 0.51 0.51 0.0 0 0 675.0166 517.8229
  L 591.5567 517.6772
  A 0.51 0.51 0.0 0 0 591.0458 518.1863
  L 590.9943 547.7263
  A 0.51 0.51 0.0 0 0 591.5034 548.2371
  L 674.9633 548.3828
  A 0.51 0.51 0.0 0 0 675.4742 547.8737
  L 675.5257 518.3337
  Z"
/>
<path fill="#94bf32" d="
  M 1386.32 487.04
  C 1355.63 486.37 1324.99 486.02 1294.33 487.56
  Q 1286.71 487.95 1279.75 489.42
  A 1.94 1.89 -26.4 0 1 1277.92 488.83
  L 1254.94 462.81
  Q 1254.20 461.97 1255.25 461.98
  L 1386.75 463.36
  A 0.74 0.61 0.5 0 0 1387.50 462.75
  L 1387.50 440.25
  A 1.26 0.62 33.5 0 0 1387.04 439.47
  L 1377.27 430.73
  A 1.36 1.26 -70.4 0 1 1376.85 429.75
  L 1376.73 412.75
  A 0.69 0.39 -0.6 0 1 1377.41 412.35
  Q 1429.52 411.95 1481.56 412.60
  C 1485.03 412.64 1488.06 413.67 1488.13 417.48
  Q 1488.36 429.67 1488.26 462.01
  A 0.48 0.48 -1.1 0 0 1488.76 462.49
  C 1510.07 461.69 1529.83 459.30 1548.26 447.68
  A 1.26 1.24 52.8 0 1 1549.85 447.91
  L 1585.77 487.48
  Q 1586.26 488.01 1585.50 488.01
  L 1488.75 487.47
  A 0.41 0.34 0.0 0 0 1488.34 487.81
  L 1488.01 757.75
  A 0.57 0.50 -0.0 0 1 1487.44 758.25
  L 1388.25 758.25
  A 0.51 0.50 0.0 0 1 1387.74 757.75
  L 1387.73 488.50
  A 1.46 1.44 -89.4 0 0 1386.32 487.04
  Z"
/>
<path fill="#94bf32" d="
  M 1679.70 487.04
  Q 1648.60 485.75 1617.50 487.31
  Q 1607.35 487.81 1597.27 489.62
  A 0.99 0.88 -24.3 0 1 1596.41 489.35
  L 1571.72 463.03
  Q 1570.73 461.98 1572.20 462.00
  Q 1615.56 462.59 1659.59 462.98
  C 1664.28 463.02 1673.06 463.46 1679.84 463.13
  A 0.64 0.50 89.1 0 0 1680.32 462.50
  L 1680.27 441.50
  A 1.39 0.76 -79.9 0 0 1679.95 440.54
  L 1670.06 431.69
  A 1.51 0.76 32.7 0 1 1669.50 430.75
  L 1669.50 413.50
  A 0.68 0.40 -0.6 0 1 1670.17 413.10
  Q 1734.99 412.59 1775.99 413.41
  C 1781.46 413.52 1780.95 420.33 1780.96 423.56
  Q 1781.01 443.12 1781.03 462.68
  A 0.51 0.51 0.6 0 0 1781.53 463.19
  Q 1802.07 463.59 1822.50 462.60
  C 1843.46 461.59 1865.99 458.89 1884.11 447.77
  A 1.34 1.25 51.8 0 1 1885.72 448.02
  L 1923.85 487.40
  Q 1924.48 488.06 1923.50 488.05
  L 1783.00 487.20
  Q 1780.72 487.19 1780.72 489.50
  L 1780.47 758.50
  A 0.50 0.47 -90.0 0 1 1780.00 759.00
  L 1681.00 759.00
  A 0.55 0.50 -0.0 0 1 1680.45 758.50
  L 1680.26 487.50
  A 0.58 0.46 1.3 0 0 1679.70 487.04
  Z"
/>
<circle fill="#94bf32" cx="1537.23" cy="541.79" r="45.35"/>
<path fill="#94bf32" d="
  M 1299.52 529.64
  C 1299.90 521.16 1297.15 517.47 1291.02 512.18
  A 0.91 0.77 24.6 0 1 1290.70 511.50
  L 1291.29 501.50
  A 0.64 0.45 0.7 0 1 1291.91 501.08
  C 1316.72 500.58 1339.93 501.58 1380.75 502.08
  A 0.48 0.47 1.1 0 1 1381.23 502.57
  Q 1380.82 517.17 1379.41 531.74
  C 1375.14 575.87 1351.27 617.45 1318.42 646.41
  C 1300.79 661.95 1281.16 675.83 1259.86 684.74
  C 1251.57 688.22 1241.11 691.21 1231.74 694.26
  A 0.82 0.77 64.1 0 1 1230.84 693.92
  L 1225.08 685.42
  A 1.20 1.12 -34.2 0 1 1225.44 683.83
  C 1237.79 675.50 1250.61 667.32 1260.68 655.85
  C 1280.93 632.78 1291.75 600.77 1295.54 570.78
  C 1297.26 557.11 1298.92 543.41 1299.52 529.64
  Z"
/>
<path fill="#94bf32" d="
  M 1584.23 512.50
  A 2.08 1.64 24.6 0 1 1583.43 510.94
  L 1584.00 501.50
  A 0.75 0.63 1.6 0 1 1584.75 500.90
  L 1673.00 502.08
  A 1.12 1.04 2.0 0 1 1674.10 503.18
  C 1672.88 523.03 1672.35 540.97 1666.32 560.65
  Q 1650.70 611.73 1610.60 646.84
  C 1595.59 659.97 1578.40 672.62 1560.43 681.32
  C 1548.66 687.01 1536.57 690.36 1524.51 694.23
  A 0.79 0.58 -23.8 0 1 1523.70 694.05
  L 1517.55 684.95
  A 0.67 0.54 -33.8 0 1 1517.80 684.13
  Q 1533.87 673.00 1537.42 670.41
  C 1566.50 649.13 1582.94 609.95 1587.69 575.44
  Q 1589.95 558.94 1592.18 534.18
  C 1593.02 524.85 1591.73 518.45 1584.23 512.50
  Z"
/>
<path fill="#94bf32" d="
  M 1859.16 656.72
  C 1828.10 626.49 1799.97 584.79 1791.78 541.78
  C 1789.54 530.00 1788.84 515.43 1787.85 502.43
  A 1.15 1.07 -2.1 0 1 1789.00 501.28
  L 1891.25 501.04
  A 0.50 0.49 -1.2 0 1 1891.75 501.51
  L 1892.08 509.79
  Q 1892.18 512.29 1890.32 513.58
  C 1880.97 520.04 1881.21 527.11 1882.72 537.55
  C 1885.96 559.92 1891.89 583.30 1902.67 603.32
  Q 1922.85 640.78 1952.69 669.30
  C 1987.97 703.02 2030.11 730.43 2077.23 745.44
  Q 2097.72 751.96 2118.31 758.14
  A 0.43 0.43 -65.7 0 1 2118.55 758.78
  L 2112.61 768.39
  A 0.97 0.75 15.2 0 1 2111.77 768.74
  C 2085.57 766.55 2066.84 764.92 2044.23 758.59
  Q 1989.79 743.37 1941.06 717.93
  C 1910.42 701.94 1884.12 681.03 1859.16 656.72
  Z"
/>
<path fill="#f5a009" d="
  M 1043.96 727.94
  C 1015.97 750.76 965.46 745.28 946.87 712.15
  C 928.68 679.73 926.81 646.57 933.32 610.57
  Q 942.05 562.33 980.94 532.90
  C 1003.55 515.78 1032.98 508.61 1060.76 506.54
  Q 1070.86 505.79 1080.74 506.45
  C 1117.88 508.91 1157.33 518.86 1183.04 547.95
  C 1192.41 558.55 1197.79 570.96 1202.34 585.12
  C 1215.34 625.62 1212.95 681.31 1182.75 714.25
  C 1161.02 737.94 1130.79 751.53 1099.50 757.00
  Q 1092.26 758.27 1072.20 760.51
  A 1.23 0.79 55.9 0 1 1071.35 760.15
  L 1065.92 755.07
  A 0.81 0.79 -32.5 0 1 1066.23 753.73
  C 1088.93 746.31 1113.94 737.95 1128.46 718.26
  C 1153.47 684.34 1160.02 639.00 1152.93 598.27
  C 1148.36 572.08 1141.88 549.62 1117.68 534.91
  C 1092.05 519.33 1062.37 517.80 1034.34 528.74
  C 1007.59 539.18 994.10 558.76 987.78 585.69
  Q 975.56 637.71 985.68 690.76
  Q 988.27 704.27 996.59 715.16
  C 1015.22 739.52 1027.07 696.87 1029.67 686.18
  Q 1033.47 670.55 1035.82 647.09
  Q 1038.26 622.83 1039.71 598.49
  C 1040.73 581.46 1041.69 570.95 1040.54 558.26
  C 1040.15 553.84 1034.80 552.17 1031.34 550.58
  A 0.87 0.84 14.6 0 1 1030.83 549.75
  L 1031.40 541.74
  A 0.78 0.66 1.1 0 1 1032.16 541.12
  Q 1060.32 540.47 1088.42 540.90
  C 1091.55 540.94 1094.56 541.62 1095.31 544.79
  Q 1095.74 546.60 1095.67 548.46
  C 1094.36 585.60 1091.38 622.39 1084.17 658.18
  C 1078.60 685.88 1065.98 710.00 1043.96 727.94
  Z"
/>
<path fill="#f5a009" d="
  M 812.36 596.18
  A 1.01 1.00 -78.6 0 1 811.75 595.25
  L 811.75 585.25
  A 0.67 0.46 0.0 0 1 812.42 584.79
  Q 844.12 584.70 875.78 584.77
  C 883.94 584.79 899.59 585.22 911.48 584.84
  A 0.51 0.51 -83.6 0 1 911.99 585.48
  C 908.98 596.73 905.30 607.74 899.74 617.92
  C 887.60 640.16 871.36 659.39 849.19 671.99
  C 831.95 681.80 810.43 690.14 791.75 693.51
  Q 787.80 694.22 769.82 696.67
  A 0.99 0.62 63.9 0 1 769.06 696.20
  L 764.56 689.41
  A 1.57 1.45 56.5 0 1 764.90 687.29
  Q 787.32 672.48 805.03 652.60
  C 816.37 639.88 823.09 626.28 826.13 609.83
  C 827.56 602.11 818.11 598.59 812.36 596.18
  Z"
/>
<path fill="#f5a009" d="
  M 600.94 715.07
  Q 564.85 715.71 528.75 715.84
  C 525.19 715.85 524.18 713.52 524.24 710.24
  C 524.51 696.78 525.37 682.42 523.95 669.06
  C 523.32 663.05 516.41 660.59 510.85 659.95
  A 0.70 0.42 4.9 0 1 510.21 659.49
  L 510.47 650.00
  A 0.94 0.77 -8.9 0 1 511.14 649.25
  Q 548.18 638.52 585.46 628.80
  Q 589.48 627.76 593.66 627.73
  Q 646.96 627.39 700.25 627.61
  C 709.27 627.65 719.23 627.54 727.17 631.04
  C 736.02 634.95 746.90 647.01 748.63 656.57
  Q 749.90 663.60 749.99 670.75
  Q 750.25 690.48 749.65 710.20
  C 749.56 713.19 748.37 715.21 745.25 715.23
  Q 717.25 715.40 677.78 714.93
  A 0.55 0.54 2.2 0 0 677.23 715.43
  Q 676.96 718.39 677.13 724.81
  Q 677.92 754.15 678.03 783.50
  C 678.07 795.41 678.29 812.90 672.88 822.67
  Q 662.11 842.13 641.82 847.22
  C 628.74 850.50 613.73 847.54 600.68 843.30
  C 589.45 839.66 581.20 832.82 572.74 823.68
  A 0.56 0.44 48.3 0 1 572.70 822.95
  L 581.67 815.41
  A 0.80 0.51 41.3 0 1 582.50 815.54
  C 586.94 819.01 593.11 824.48 599.19 822.70
  Q 601.45 822.04 601.51 819.69
  C 602.43 785.01 601.58 750.26 601.44 715.56
  A 0.49 0.49 -0.6 0 0 600.94 715.07
  Z
  M 594.94 697.49
  L 676.50 697.50
  A 0.63 0.39 -88.6 0 0 676.90 696.89
  Q 677.61 677.17 677.16 657.43
  C 676.88 644.90 663.38 645.31 654.62 645.28
  Q 626.06 645.16 595.52 645.66
  A 1.37 1.33 -0.6 0 0 594.17 647.00
  L 594.51 697.00
  A 0.49 0.43 -90.0 0 0 594.94 697.49
  Z"
/>
<path fill="#f5a009" d="
  M 810.58 702.94
  A 0.47 0.42 11.2 0 1 810.25 702.50
  L 810.99 692.01
  A 0.86 0.84 2.2 0 1 811.85 691.23
  Q 849.11 691.27 884.52 691.24
  C 891.11 691.23 902.43 690.78 911.40 691.13
  A 0.45 0.45 5.6 0 1 911.83 691.65
  C 909.89 704.63 907.44 716.42 901.43 727.85
  C 878.73 770.97 839.96 793.69 793.96 805.49
  Q 787.22 807.22 765.45 810.00
  A 1.09 0.66 -14.8 0 1 764.51 809.72
  L 759.51 802.24
  A 1.28 1.18 -34.7 0 1 759.88 800.57
  Q 766.08 796.10 771.63 792.16
  Q 797.39 773.85 814.32 747.49
  C 820.63 737.68 823.49 729.76 825.11 718.59
  C 826.83 706.74 819.40 705.82 810.58 702.94
  Z"
/>
<path fill="#f5a009" d="
  M 714.44 833.06
  C 706.27 826.62 704.85 815.12 704.27 805.50
  Q 702.34 773.02 693.39 741.72
  Q 692.44 738.42 688.01 730.49
  A 0.80 0.41 58.5 0 1 687.95 729.70
  L 696.67 721.17
  A 0.80 0.47 42.0 0 1 697.54 721.35
  Q 720.70 741.35 737.76 762.97
  Q 748.22 776.21 754.12 793.79
  Q 761.59 816.07 746.75 831.74
  C 737.81 841.18 724.49 840.98 714.44 833.06
  Z"
/>
<path fill="#f5a009" d="
  M 519.71 736.83
  A 1.70 1.57 21.6 0 1 518.95 735.25
  Q 519.58 730.62 518.95 726.00
  A 0.54 0.44 -3.2 0 1 519.50 725.50
  L 590.50 725.50
  A 0.49 0.44 -88.8 0 1 590.94 726.01
  Q 590.51 737.27 590.03 741.75
  C 587.49 765.23 571.46 787.02 553.10 800.82
  C 499.96 840.77 434.47 839.92 371.05 840.64
  A 1.03 0.52 -5.3 0 1 370.19 840.30
  L 368.32 836.19
  A 1.00 1.00 -16.6 0 1 369.08 834.79
  Q 382.76 832.72 396.66 830.29
  Q 422.52 825.77 446.23 814.51
  C 472.61 801.98 497.55 785.69 517.52 764.52
  C 524.86 756.73 531.64 744.67 519.71 736.83
  Z"
/>
</svg>
