<?xml version="1.0" standalone="yes"?>
<svg viewBox="0 0 7200 50" width="7200px" height="50px" xmlns="http://www.w3.org/2000/svg" xmlns:xlink="http://www.w3.org/1999/xlink">
<style>*{--midd:63,121,99}</style>
<path d="M0 20 0 50 7200 50 7200 20" fill="none" stroke="rgb(var(--midd))" stroke-width="1" />
<text x="0" y="15" font-family="Candara" font-size="20px" fill="rgb(var(--midd))">00:00</text>
<text x="300" dx="-5" y="15" font-family="Candara" font-size="20px" fill="rgb(var(--midd))">01:00</text>
<text x="600" dx="-5" y="15" font-family="Candara" font-size="20px" fill="rgb(var(--midd))">02:00</text>
<text x="900" dx="-5" y="15" font-family="Candara" font-size="20px" fill="rgb(var(--midd))">03:00</text>
<text x="1200" dx="-5" y="15" font-family="Candara" font-size="20px" fill="rgb(var(--midd))">04:00</text>
<text x="1500" dx="-5" y="15" font-family="Candara" font-size="20px" fill="rgb(var(--midd))">05:00</text>
<text x="1800" dx="-5" y="15" font-family="Candara" font-size="20px" fill="rgb(var(--midd))">06:00</text>
<text x="2100" dx="-5" y="15" font-family="Candara" font-size="20px" fill="rgb(var(--midd))">07:00</text>
<text x="2400" dx="-5" y="15" font-family="Candara" font-size="20px" fill="rgb(var(--midd))">08:00</text>
<text x="2700" dx="-5" y="15" font-family="Candara" font-size="20px" fill="rgb(var(--midd))">09:00</text>
<text x="3000" dx="-5" y="15" font-family="Candara" font-size="20px" fill="rgb(var(--midd))">10:00</text>
<text x="3300" dx="-5" y="15" font-family="Candara" font-size="20px" fill="rgb(var(--midd))">11:00</text>
<text x="3600" dx="-5" y="15" font-family="Candara" font-size="20px" fill="rgb(var(--midd))">12:00</text>
<text x="3900" dx="-5" y="15" font-family="Candara" font-size="20px" fill="rgb(var(--midd))">13:00</text>
<text x="4200" dx="-5" y="15" font-family="Candara" font-size="20px" fill="rgb(var(--midd))">14:00</text>
<text x="4500" dx="-5" y="15" font-family="Candara" font-size="20px" fill="rgb(var(--midd))">15:00</text>
<text x="4800" dx="-5" y="15" font-family="Candara" font-size="20px" fill="rgb(var(--midd))">16:00</text>
<text x="5100" dx="-5" y="15" font-family="Candara" font-size="20px" fill="rgb(var(--midd))">17:00</text>
<text x="5400" dx="-5" y="15" font-family="Candara" font-size="20px" fill="rgb(var(--midd))">18:00</text>
<text x="5700" dx="-5" y="15" font-family="Candara" font-size="20px" fill="rgb(var(--midd))">19:00</text>
<text x="6000" dx="-5" y="15" font-family="Candara" font-size="20px" fill="rgb(var(--midd))">20:00</text>
<text x="6300" dx="-5" y="15" font-family="Candara" font-size="20px" fill="rgb(var(--midd))">21:00</text>
<text x="6600" dx="-5" y="15" font-family="Candara" font-size="20px" fill="rgb(var(--midd))">22:00</text>
<text x="6900" dx="-5" y="15" font-family="Candara" font-size="20px" fill="rgb(var(--midd))">23:00</text>
<path d="M0 20 0 50M300 20 300 50M600 20 600 50M900 20 900 50M1200 20 1200 50M1500 20 1500 50M1800 20 1800 50M2100 20 2100 50M2400 20 2400 50M2700 20 2700 50M3000 20 3000 50M3300 20 3300 50M3600 20 3600 50M3900 20 3900 50M4200 20 4200 50M4500 20 4500 50M4800 20 4800 50M5100 20 5100 50M5400 20 5400 50M5700 20 5700 50M6000 20 6000 50M6300 20 6300 50M6600 20 6600 50M6900 20 6900 50M7200 20 7200 50M150 30 150 50M450 30 450 50M750 30 750 50M1050 30 1050 50M1350 30 1350 50M1650 30 1650 50M1950 30 1950 50M2250 30 2250 50M2550 30 2550 50M2850 30 2850 50M3150 30 3150 50M3450 30 3450 50M3750 30 3750 50M4050 30 4050 50M4350 30 4350 50M4650 30 4650 50M4950 30 4950 50M5250 30 5250 50M5550 30 5550 50M5850 30 5850 50M6150 30 6150 50M6450 30 6450 50M6750 30 6750 50M7050 30 7050 50M75 35 75 50M225 35 225 50M375 35 375 50M525 35 525 50M675 35 675 50M825 35 825 50M975 35 975 50M1125 35 1125 50M1275 35 1275 50M1425 35 1425 50M1575 35 1575 50M1725 35 1725 50M1875 35 1875 50M2025 35 2025 50M2175 35 2175 50M2325 35 2325 50M2475 35 2475 50M2625 35 2625 50M2775 35 2775 50M2925 35 2925 50M3075 35 3075 50M3225 35 3225 50M3375 35 3375 50M3525 35 3525 50M3675 35 3675 50M3825 35 3825 50M3975 35 3975 50M4125 35 4125 50M4275 35 4275 50M4425 35 4425 50M4575 35 4575 50M4725 35 4725 50M4875 35 4875 50M5025 35 5025 50M5175 35 5175 50M5325 35 5325 50M5475 35 5475 50M5625 35 5625 50M5775 35 5775 50M5925 35 5925 50M6075 35 6075 50M6225 35 6225 50M6375 35 6375 50M6525 35 6525 50M6675 35 6675 50M6825 35 6825 50M6975 35 6975 50M7125 35 7125 50" fill="none" stroke="rgb(var(--midd))" stroke-width="1" />
<path d="M25 40 25 50M50 40 50 50M100 40 100 50M125 40 125 50M175 40 175 50M200 40 200 50M250 40 250 50M275 40 275 50M325 40 325 50M350 40 350 50M400 40 400 50M425 40 425 50M475 40 475 50M500 40 500 50M550 40 550 50M575 40 575 50M625 40 625 50M650 40 650 50M700 40 700 50M725 40 725 50M775 40 775 50M800 40 800 50M850 40 850 50M875 40 875 50M925 40 925 50M950 40 950 50M1000 40 1000 50M1025 40 1025 50M1075 40 1075 50M1100 40 1100 50M1150 40 1150 50M1175 40 1175 50M1225 40 1225 50M1250 40 1250 50M1300 40 1300 50M1325 40 1325 50M1375 40 1375 50M1400 40 1400 50M1450 40 1450 50M1475 40 1475 50M1525 40 1525 50M1550 40 1550 50M1600 40 1600 50M1625 40 1625 50M1675 40 1675 50M1700 40 1700 50M1750 40 1750 50M1775 40 1775 50M1825 40 1825 50M1850 40 1850 50M1900 40 1900 50M1925 40 1925 50M1975 40 1975 50M2000 40 2000 50M2050 40 2050 50M2075 40 2075 50M2125 40 2125 50M2150 40 2150 50M2200 40 2200 50M2225 40 2225 50M2275 40 2275 50M2300 40 2300 50M2350 40 2350 50M2375 40 2375 50M2425 40 2425 50M2450 40 2450 50M2500 40 2500 50M2525 40 2525 50M2575 40 2575 50M2600 40 2600 50M2650 40 2650 50M2675 40 2675 50M2725 40 2725 50M2750 40 2750 50M2800 40 2800 50M2825 40 2825 50M2875 40 2875 50M2900 40 2900 50M2950 40 2950 50M2975 40 2975 50M3025 40 3025 50M3050 40 3050 50M3100 40 3100 50M3125 40 3125 50M3175 40 3175 50M3200 40 3200 50M3250 40 3250 50M3275 40 3275 50M3325 40 3325 50M3350 40 3350 50M3400 40 3400 50M3425 40 3425 50M3475 40 3475 50M3500 40 3500 50M3550 40 3550 50M3575 40 3575 50M3625 40 3625 50M3650 40 3650 50M3700 40 3700 50M3725 40 3725 50M3775 40 3775 50M3800 40 3800 50M3850 40 3850 50M3875 40 3875 50M3925 40 3925 50M3950 40 3950 50M4000 40 4000 50M4025 40 4025 50M4075 40 4075 50M4100 40 4100 50M4150 40 4150 50M4175 40 4175 50M4225 40 4225 50M4250 40 4250 50M4300 40 4300 50M4325 40 4325 50M4375 40 4375 50M4400 40 4400 50M4450 40 4450 50M4475 40 4475 50M4525 40 4525 50M4550 40 4550 50M4600 40 4600 50M4625 40 4625 50M4675 40 4675 50M4700 40 4700 50M4750 40 4750 50M4775 40 4775 50M4825 40 4825 50M4850 40 4850 50M4900 40 4900 50M4925 40 4925 50M4975 40 4975 50M5000 40 5000 50M5050 40 5050 50M5075 40 5075 50M5125 40 5125 50M5150 40 5150 50M5200 40 5200 50M5225 40 5225 50M5275 40 5275 50M5300 40 5300 50M5350 40 5350 50M5375 40 5375 50M5425 40 5425 50M5450 40 5450 50M5500 40 5500 50M5525 40 5525 50M5575 40 5575 50M5600 40 5600 50M5650 40 5650 50M5675 40 5675 50M5725 40 5725 50M5750 40 5750 50M5800 40 5800 50M5825 40 5825 50M5875 40 5875 50M5900 40 5900 50M5950 40 5950 50M5975 40 5975 50M6025 40 6025 50M6050 40 6050 50M6100 40 6100 50M6125 40 6125 50M6175 40 6175 50M6200 40 6200 50M6250 40 6250 50M6275 40 6275 50M6325 40 6325 50M6350 40 6350 50M6400 40 6400 50M6425 40 6425 50M6475 40 6475 50M6500 40 6500 50M6550 40 6550 50M6575 40 6575 50M6625 40 6625 50M6650 40 6650 50M6700 40 6700 50M6725 40 6725 50M6775 40 6775 50M6800 40 6800 50M6850 40 6850 50M6875 40 6875 50M6925 40 6925 50M6950 40 6950 50M7000 40 7000 50M7025 40 7025 50M7075 40 7075 50M7100 40 7100 50M7150 40 7150 50M7175 40 7175 50" fill="none" stroke="rgb(var(--midd))" stroke-width="1" />
<path d="M5 40 5 50M10 40 10 50M15 40 15 50M20 40 20 50M30 40 30 50M35 40 35 50M40 40 40 50M45 40 45 50M55 40 55 50M60 40 60 50M65 40 65 50M70 40 70 50M80 40 80 50M85 40 85 50M90 40 90 50M95 40 95 50M105 40 105 50M110 40 110 50M115 40 115 50M120 40 120 50M130 40 130 50M135 40 135 50M140 40 140 50M145 40 145 50M155 40 155 50M160 40 160 50M165 40 165 50M170 40 170 50M180 40 180 50M185 40 185 50M190 40 190 50M195 40 195 50M205 40 205 50M210 40 210 50M215 40 215 50M220 40 220 50M230 40 230 50M235 40 235 50M240 40 240 50M245 40 245 50M255 40 255 50M260 40 260 50M265 40 265 50M270 40 270 50M280 40 280 50M285 40 285 50M290 40 290 50M295 40 295 50M305 40 305 50M310 40 310 50M315 40 315 50M320 40 320 50M330 40 330 50M335 40 335 50M340 40 340 50M345 40 345 50M355 40 355 50M360 40 360 50M365 40 365 50M370 40 370 50M380 40 380 50M385 40 385 50M390 40 390 50M395 40 395 50M405 40 405 50M410 40 410 50M415 40 415 50M420 40 420 50M430 40 430 50M435 40 435 50M440 40 440 50M445 40 445 50M455 40 455 50M460 40 460 50M465 40 465 50M470 40 470 50M480 40 480 50M485 40 485 50M490 40 490 50M495 40 495 50M505 40 505 50M510 40 510 50M515 40 515 50M520 40 520 50M530 40 530 50M535 40 535 50M540 40 540 50M545 40 545 50M555 40 555 50M560 40 560 50M565 40 565 50M570 40 570 50M580 40 580 50M585 40 585 50M590 40 590 50M595 40 595 50M605 40 605 50M610 40 610 50M615 40 615 50M620 40 620 50M630 40 630 50M635 40 635 50M640 40 640 50M645 40 645 50M655 40 655 50M660 40 660 50M665 40 665 50M670 40 670 50M680 40 680 50M685 40 685 50M690 40 690 50M695 40 695 50M705 40 705 50M710 40 710 50M715 40 715 50M720 40 720 50M730 40 730 50M735 40 735 50M740 40 740 50M745 40 745 50M755 40 755 50M760 40 760 50M765 40 765 50M770 40 770 50M780 40 780 50M785 40 785 50M790 40 790 50M795 40 795 50M805 40 805 50M810 40 810 50M815 40 815 50M820 40 820 50M830 40 830 50M835 40 835 50M840 40 840 50M845 40 845 50M855 40 855 50M860 40 860 50M865 40 865 50M870 40 870 50M880 40 880 50M885 40 885 50M890 40 890 50M895 40 895 50M905 40 905 50M910 40 910 50M915 40 915 50M920 40 920 50M930 40 930 50M935 40 935 50M940 40 940 50M945 40 945 50M955 40 955 50M960 40 960 50M965 40 965 50M970 40 970 50M980 40 980 50M985 40 985 50M990 40 990 50M995 40 995 50M1005 40 1005 50M1010 40 1010 50M1015 40 1015 50M1020 40 1020 50M1030 40 1030 50M1035 40 1035 50M1040 40 1040 50M1045 40 1045 50M1055 40 1055 50M1060 40 1060 50M1065 40 1065 50M1070 40 1070 50M1080 40 1080 50M1085 40 1085 50M1090 40 1090 50M1095 40 1095 50M1105 40 1105 50M1110 40 1110 50M1115 40 1115 50M1120 40 1120 50M1130 40 1130 50M1135 40 1135 50M1140 40 1140 50M1145 40 1145 50M1155 40 1155 50M1160 40 1160 50M1165 40 1165 50M1170 40 1170 50M1180 40 1180 50M1185 40 1185 50M1190 40 1190 50M1195 40 1195 50M1205 40 1205 50M1210 40 1210 50M1215 40 1215 50M1220 40 1220 50M1230 40 1230 50M1235 40 1235 50M1240 40 1240 50M1245 40 1245 50M1255 40 1255 50M1260 40 1260 50M1265 40 1265 50M1270 40 1270 50M1280 40 1280 50M1285 40 1285 50M1290 40 1290 50M1295 40 1295 50M1305 40 1305 50M1310 40 1310 50M1315 40 1315 50M1320 40 1320 50M1330 40 1330 50M1335 40 1335 50M1340 40 1340 50M1345 40 1345 50M1355 40 1355 50M1360 40 1360 50M1365 40 1365 50M1370 40 1370 50M1380 40 1380 50M1385 40 1385 50M1390 40 1390 50M1395 40 1395 50M1405 40 1405 50M1410 40 1410 50M1415 40 1415 50M1420 40 1420 50M1430 40 1430 50M1435 40 1435 50M1440 40 1440 50M1445 40 1445 50M1455 40 1455 50M1460 40 1460 50M1465 40 1465 50M1470 40 1470 50M1480 40 1480 50M1485 40 1485 50M1490 40 1490 50M1495 40 1495 50M1505 40 1505 50M1510 40 1510 50M1515 40 1515 50M1520 40 1520 50M1530 40 1530 50M1535 40 1535 50M1540 40 1540 50M1545 40 1545 50M1555 40 1555 50M1560 40 1560 50M1565 40 1565 50M1570 40 1570 50M1580 40 1580 50M1585 40 1585 50M1590 40 1590 50M1595 40 1595 50M1605 40 1605 50M1610 40 1610 50M1615 40 1615 50M1620 40 1620 50M1630 40 1630 50M1635 40 1635 50M1640 40 1640 50M1645 40 1645 50M1655 40 1655 50M1660 40 1660 50M1665 40 1665 50M1670 40 1670 50M1680 40 1680 50M1685 40 1685 50M1690 40 1690 50M1695 40 1695 50M1705 40 1705 50M1710 40 1710 50M1715 40 1715 50M1720 40 1720 50M1730 40 1730 50M1735 40 1735 50M1740 40 1740 50M1745 40 1745 50M1755 40 1755 50M1760 40 1760 50M1765 40 1765 50M1770 40 1770 50M1780 40 1780 50M1785 40 1785 50M1790 40 1790 50M1795 40 1795 50M1805 40 1805 50M1810 40 1810 50M1815 40 1815 50M1820 40 1820 50M1830 40 1830 50M1835 40 1835 50M1840 40 1840 50M1845 40 1845 50M1855 40 1855 50M1860 40 1860 50M1865 40 1865 50M1870 40 1870 50M1880 40 1880 50M1885 40 1885 50M1890 40 1890 50M1895 40 1895 50M1905 40 1905 50M1910 40 1910 50M1915 40 1915 50M1920 40 1920 50M1930 40 1930 50M1935 40 1935 50M1940 40 1940 50M1945 40 1945 50M1955 40 1955 50M1960 40 1960 50M1965 40 1965 50M1970 40 1970 50M1980 40 1980 50M1985 40 1985 50M1990 40 1990 50M1995 40 1995 50M2005 40 2005 50M2010 40 2010 50M2015 40 2015 50M2020 40 2020 50M2030 40 2030 50M2035 40 2035 50M2040 40 2040 50M2045 40 2045 50M2055 40 2055 50M2060 40 2060 50M2065 40 2065 50M2070 40 2070 50M2080 40 2080 50M2085 40 2085 50M2090 40 2090 50M2095 40 2095 50M2105 40 2105 50M2110 40 2110 50M2115 40 2115 50M2120 40 2120 50M2130 40 2130 50M2135 40 2135 50M2140 40 2140 50M2145 40 2145 50M2155 40 2155 50M2160 40 2160 50M2165 40 2165 50M2170 40 2170 50M2180 40 2180 50M2185 40 2185 50M2190 40 2190 50M2195 40 2195 50M2205 40 2205 50M2210 40 2210 50M2215 40 2215 50M2220 40 2220 50M2230 40 2230 50M2235 40 2235 50M2240 40 2240 50M2245 40 2245 50M2255 40 2255 50M2260 40 2260 50M2265 40 2265 50M2270 40 2270 50M2280 40 2280 50M2285 40 2285 50M2290 40 2290 50M2295 40 2295 50M2305 40 2305 50M2310 40 2310 50M2315 40 2315 50M2320 40 2320 50M2330 40 2330 50M2335 40 2335 50M2340 40 2340 50M2345 40 2345 50M2355 40 2355 50M2360 40 2360 50M2365 40 2365 50M2370 40 2370 50M2380 40 2380 50M2385 40 2385 50M2390 40 2390 50M2395 40 2395 50M2405 40 2405 50M2410 40 2410 50M2415 40 2415 50M2420 40 2420 50M2430 40 2430 50M2435 40 2435 50M2440 40 2440 50M2445 40 2445 50M2455 40 2455 50M2460 40 2460 50M2465 40 2465 50M2470 40 2470 50M2480 40 2480 50M2485 40 2485 50M2490 40 2490 50M2495 40 2495 50M2505 40 2505 50M2510 40 2510 50M2515 40 2515 50M2520 40 2520 50M2530 40 2530 50M2535 40 2535 50M2540 40 2540 50M2545 40 2545 50M2555 40 2555 50M2560 40 2560 50M2565 40 2565 50M2570 40 2570 50M2580 40 2580 50M2585 40 2585 50M2590 40 2590 50M2595 40 2595 50M2605 40 2605 50M2610 40 2610 50M2615 40 2615 50M2620 40 2620 50M2630 40 2630 50M2635 40 2635 50M2640 40 2640 50M2645 40 2645 50M2655 40 2655 50M2660 40 2660 50M2665 40 2665 50M2670 40 2670 50M2680 40 2680 50M2685 40 2685 50M2690 40 2690 50M2695 40 2695 50M2705 40 2705 50M2710 40 2710 50M2715 40 2715 50M2720 40 2720 50M2730 40 2730 50M2735 40 2735 50M2740 40 2740 50M2745 40 2745 50M2755 40 2755 50M2760 40 2760 50M2765 40 2765 50M2770 40 2770 50M2780 40 2780 50M2785 40 2785 50M2790 40 2790 50M2795 40 2795 50M2805 40 2805 50M2810 40 2810 50M2815 40 2815 50M2820 40 2820 50M2830 40 2830 50M2835 40 2835 50M2840 40 2840 50M2845 40 2845 50M2855 40 2855 50M2860 40 2860 50M2865 40 2865 50M2870 40 2870 50M2880 40 2880 50M2885 40 2885 50M2890 40 2890 50M2895 40 2895 50M2905 40 2905 50M2910 40 2910 50M2915 40 2915 50M2920 40 2920 50M2930 40 2930 50M2935 40 2935 50M2940 40 2940 50M2945 40 2945 50M2955 40 2955 50M2960 40 2960 50M2965 40 2965 50M2970 40 2970 50M2980 40 2980 50M2985 40 2985 50M2990 40 2990 50M2995 40 2995 50M3005 40 3005 50M3010 40 3010 50M3015 40 3015 50M3020 40 3020 50M3030 40 3030 50M3035 40 3035 50M3040 40 3040 50M3045 40 3045 50M3055 40 3055 50M3060 40 3060 50M3065 40 3065 50M3070 40 3070 50M3080 40 3080 50M3085 40 3085 50M3090 40 3090 50M3095 40 3095 50M3105 40 3105 50M3110 40 3110 50M3115 40 3115 50M3120 40 3120 50M3130 40 3130 50M3135 40 3135 50M3140 40 3140 50M3145 40 3145 50M3155 40 3155 50M3160 40 3160 50M3165 40 3165 50M3170 40 3170 50M3180 40 3180 50M3185 40 3185 50M3190 40 3190 50M3195 40 3195 50M3205 40 3205 50M3210 40 3210 50M3215 40 3215 50M3220 40 3220 50M3230 40 3230 50M3235 40 3235 50M3240 40 3240 50M3245 40 3245 50M3255 40 3255 50M3260 40 3260 50M3265 40 3265 50M3270 40 3270 50M3280 40 3280 50M3285 40 3285 50M3290 40 3290 50M3295 40 3295 50M3305 40 3305 50M3310 40 3310 50M3315 40 3315 50M3320 40 3320 50M3330 40 3330 50M3335 40 3335 50M3340 40 3340 50M3345 40 3345 50M3355 40 3355 50M3360 40 3360 50M3365 40 3365 50M3370 40 3370 50M3380 40 3380 50M3385 40 3385 50M3390 40 3390 50M3395 40 3395 50M3405 40 3405 50M3410 40 3410 50M3415 40 3415 50M3420 40 3420 50M3430 40 3430 50M3435 40 3435 50M3440 40 3440 50M3445 40 3445 50M3455 40 3455 50M3460 40 3460 50M3465 40 3465 50M3470 40 3470 50M3480 40 3480 50M3485 40 3485 50M3490 40 3490 50M3495 40 3495 50M3505 40 3505 50M3510 40 3510 50M3515 40 3515 50M3520 40 3520 50M3530 40 3530 50M3535 40 3535 50M3540 40 3540 50M3545 40 3545 50M3555 40 3555 50M3560 40 3560 50M3565 40 3565 50M3570 40 3570 50M3580 40 3580 50M3585 40 3585 50M3590 40 3590 50M3595 40 3595 50M3605 40 3605 50M3610 40 3610 50M3615 40 3615 50M3620 40 3620 50M3630 40 3630 50M3635 40 3635 50M3640 40 3640 50M3645 40 3645 50M3655 40 3655 50M3660 40 3660 50M3665 40 3665 50M3670 40 3670 50M3680 40 3680 50M3685 40 3685 50M3690 40 3690 50M3695 40 3695 50M3705 40 3705 50M3710 40 3710 50M3715 40 3715 50M3720 40 3720 50M3730 40 3730 50M3735 40 3735 50M3740 40 3740 50M3745 40 3745 50M3755 40 3755 50M3760 40 3760 50M3765 40 3765 50M3770 40 3770 50M3780 40 3780 50M3785 40 3785 50M3790 40 3790 50M3795 40 3795 50M3805 40 3805 50M3810 40 3810 50M3815 40 3815 50M3820 40 3820 50M3830 40 3830 50M3835 40 3835 50M3840 40 3840 50M3845 40 3845 50M3855 40 3855 50M3860 40 3860 50M3865 40 3865 50M3870 40 3870 50M3880 40 3880 50M3885 40 3885 50M3890 40 3890 50M3895 40 3895 50M3905 40 3905 50M3910 40 3910 50M3915 40 3915 50M3920 40 3920 50M3930 40 3930 50M3935 40 3935 50M3940 40 3940 50M3945 40 3945 50M3955 40 3955 50M3960 40 3960 50M3965 40 3965 50M3970 40 3970 50M3980 40 3980 50M3985 40 3985 50M3990 40 3990 50M3995 40 3995 50M4005 40 4005 50M4010 40 4010 50M4015 40 4015 50M4020 40 4020 50M4030 40 4030 50M4035 40 4035 50M4040 40 4040 50M4045 40 4045 50M4055 40 4055 50M4060 40 4060 50M4065 40 4065 50M4070 40 4070 50M4080 40 4080 50M4085 40 4085 50M4090 40 4090 50M4095 40 4095 50M4105 40 4105 50M4110 40 4110 50M4115 40 4115 50M4120 40 4120 50M4130 40 4130 50M4135 40 4135 50M4140 40 4140 50M4145 40 4145 50M4155 40 4155 50M4160 40 4160 50M4165 40 4165 50M4170 40 4170 50M4180 40 4180 50M4185 40 4185 50M4190 40 4190 50M4195 40 4195 50M4205 40 4205 50M4210 40 4210 50M4215 40 4215 50M4220 40 4220 50M4230 40 4230 50M4235 40 4235 50M4240 40 4240 50M4245 40 4245 50M4255 40 4255 50M4260 40 4260 50M4265 40 4265 50M4270 40 4270 50M4280 40 4280 50M4285 40 4285 50M4290 40 4290 50M4295 40 4295 50M4305 40 4305 50M4310 40 4310 50M4315 40 4315 50M4320 40 4320 50M4330 40 4330 50M4335 40 4335 50M4340 40 4340 50M4345 40 4345 50M4355 40 4355 50M4360 40 4360 50M4365 40 4365 50M4370 40 4370 50M4380 40 4380 50M4385 40 4385 50M4390 40 4390 50M4395 40 4395 50M4405 40 4405 50M4410 40 4410 50M4415 40 4415 50M4420 40 4420 50M4430 40 4430 50M4435 40 4435 50M4440 40 4440 50M4445 40 4445 50M4455 40 4455 50M4460 40 4460 50M4465 40 4465 50M4470 40 4470 50M4480 40 4480 50M4485 40 4485 50M4490 40 4490 50M4495 40 4495 50M4505 40 4505 50M4510 40 4510 50M4515 40 4515 50M4520 40 4520 50M4530 40 4530 50M4535 40 4535 50M4540 40 4540 50M4545 40 4545 50M4555 40 4555 50M4560 40 4560 50M4565 40 4565 50M4570 40 4570 50M4580 40 4580 50M4585 40 4585 50M4590 40 4590 50M4595 40 4595 50M4605 40 4605 50M4610 40 4610 50M4615 40 4615 50M4620 40 4620 50M4630 40 4630 50M4635 40 4635 50M4640 40 4640 50M4645 40 4645 50M4655 40 4655 50M4660 40 4660 50M4665 40 4665 50M4670 40 4670 50M4680 40 4680 50M4685 40 4685 50M4690 40 4690 50M4695 40 4695 50M4705 40 4705 50M4710 40 4710 50M4715 40 4715 50M4720 40 4720 50M4730 40 4730 50M4735 40 4735 50M4740 40 4740 50M4745 40 4745 50M4755 40 4755 50M4760 40 4760 50M4765 40 4765 50M4770 40 4770 50M4780 40 4780 50M4785 40 4785 50M4790 40 4790 50M4795 40 4795 50M4805 40 4805 50M4810 40 4810 50M4815 40 4815 50M4820 40 4820 50M4830 40 4830 50M4835 40 4835 50M4840 40 4840 50M4845 40 4845 50M4855 40 4855 50M4860 40 4860 50M4865 40 4865 50M4870 40 4870 50M4880 40 4880 50M4885 40 4885 50M4890 40 4890 50M4895 40 4895 50M4905 40 4905 50M4910 40 4910 50M4915 40 4915 50M4920 40 4920 50M4930 40 4930 50M4935 40 4935 50M4940 40 4940 50M4945 40 4945 50M4955 40 4955 50M4960 40 4960 50M4965 40 4965 50M4970 40 4970 50M4980 40 4980 50M4985 40 4985 50M4990 40 4990 50M4995 40 4995 50M5005 40 5005 50M5010 40 5010 50M5015 40 5015 50M5020 40 5020 50M5030 40 5030 50M5035 40 5035 50M5040 40 5040 50M5045 40 5045 50M5055 40 5055 50M5060 40 5060 50M5065 40 5065 50M5070 40 5070 50M5080 40 5080 50M5085 40 5085 50M5090 40 5090 50M5095 40 5095 50M5105 40 5105 50M5110 40 5110 50M5115 40 5115 50M5120 40 5120 50M5130 40 5130 50M5135 40 5135 50M5140 40 5140 50M5145 40 5145 50M5155 40 5155 50M5160 40 5160 50M5165 40 5165 50M5170 40 5170 50M5180 40 5180 50M5185 40 5185 50M5190 40 5190 50M5195 40 5195 50M5205 40 5205 50M5210 40 5210 50M5215 40 5215 50M5220 40 5220 50M5230 40 5230 50M5235 40 5235 50M5240 40 5240 50M5245 40 5245 50M5255 40 5255 50M5260 40 5260 50M5265 40 5265 50M5270 40 5270 50M5280 40 5280 50M5285 40 5285 50M5290 40 5290 50M5295 40 5295 50M5305 40 5305 50M5310 40 5310 50M5315 40 5315 50M5320 40 5320 50M5330 40 5330 50M5335 40 5335 50M5340 40 5340 50M5345 40 5345 50M5355 40 5355 50M5360 40 5360 50M5365 40 5365 50M5370 40 5370 50M5380 40 5380 50M5385 40 5385 50M5390 40 5390 50M5395 40 5395 50M5405 40 5405 50M5410 40 5410 50M5415 40 5415 50M5420 40 5420 50M5430 40 5430 50M5435 40 5435 50M5440 40 5440 50M5445 40 5445 50M5455 40 5455 50M5460 40 5460 50M5465 40 5465 50M5470 40 5470 50M5480 40 5480 50M5485 40 5485 50M5490 40 5490 50M5495 40 5495 50M5505 40 5505 50M5510 40 5510 50M5515 40 5515 50M5520 40 5520 50M5530 40 5530 50M5535 40 5535 50M5540 40 5540 50M5545 40 5545 50M5555 40 5555 50M5560 40 5560 50M5565 40 5565 50M5570 40 5570 50M5580 40 5580 50M5585 40 5585 50M5590 40 5590 50M5595 40 5595 50M5605 40 5605 50M5610 40 5610 50M5615 40 5615 50M5620 40 5620 50M5630 40 5630 50M5635 40 5635 50M5640 40 5640 50M5645 40 5645 50M5655 40 5655 50M5660 40 5660 50M5665 40 5665 50M5670 40 5670 50M5680 40 5680 50M5685 40 5685 50M5690 40 5690 50M5695 40 5695 50M5705 40 5705 50M5710 40 5710 50M5715 40 5715 50M5720 40 5720 50M5730 40 5730 50M5735 40 5735 50M5740 40 5740 50M5745 40 5745 50M5755 40 5755 50M5760 40 5760 50M5765 40 5765 50M5770 40 5770 50M5780 40 5780 50M5785 40 5785 50M5790 40 5790 50M5795 40 5795 50M5805 40 5805 50M5810 40 5810 50M5815 40 5815 50M5820 40 5820 50M5830 40 5830 50M5835 40 5835 50M5840 40 5840 50M5845 40 5845 50M5855 40 5855 50M5860 40 5860 50M5865 40 5865 50M5870 40 5870 50M5880 40 5880 50M5885 40 5885 50M5890 40 5890 50M5895 40 5895 50M5905 40 5905 50M5910 40 5910 50M5915 40 5915 50M5920 40 5920 50M5930 40 5930 50M5935 40 5935 50M5940 40 5940 50M5945 40 5945 50M5955 40 5955 50M5960 40 5960 50M5965 40 5965 50M5970 40 5970 50M5980 40 5980 50M5985 40 5985 50M5990 40 5990 50M5995 40 5995 50M6005 40 6005 50M6010 40 6010 50M6015 40 6015 50M6020 40 6020 50M6030 40 6030 50M6035 40 6035 50M6040 40 6040 50M6045 40 6045 50M6055 40 6055 50M6060 40 6060 50M6065 40 6065 50M6070 40 6070 50M6080 40 6080 50M6085 40 6085 50M6090 40 6090 50M6095 40 6095 50M6105 40 6105 50M6110 40 6110 50M6115 40 6115 50M6120 40 6120 50M6130 40 6130 50M6135 40 6135 50M6140 40 6140 50M6145 40 6145 50M6155 40 6155 50M6160 40 6160 50M6165 40 6165 50M6170 40 6170 50M6180 40 6180 50M6185 40 6185 50M6190 40 6190 50M6195 40 6195 50M6205 40 6205 50M6210 40 6210 50M6215 40 6215 50M6220 40 6220 50M6230 40 6230 50M6235 40 6235 50M6240 40 6240 50M6245 40 6245 50M6255 40 6255 50M6260 40 6260 50M6265 40 6265 50M6270 40 6270 50M6280 40 6280 50M6285 40 6285 50M6290 40 6290 50M6295 40 6295 50M6305 40 6305 50M6310 40 6310 50M6315 40 6315 50M6320 40 6320 50M6330 40 6330 50M6335 40 6335 50M6340 40 6340 50M6345 40 6345 50M6355 40 6355 50M6360 40 6360 50M6365 40 6365 50M6370 40 6370 50M6380 40 6380 50M6385 40 6385 50M6390 40 6390 50M6395 40 6395 50M6405 40 6405 50M6410 40 6410 50M6415 40 6415 50M6420 40 6420 50M6430 40 6430 50M6435 40 6435 50M6440 40 6440 50M6445 40 6445 50M6455 40 6455 50M6460 40 6460 50M6465 40 6465 50M6470 40 6470 50M6480 40 6480 50M6485 40 6485 50M6490 40 6490 50M6495 40 6495 50M6505 40 6505 50M6510 40 6510 50M6515 40 6515 50M6520 40 6520 50M6530 40 6530 50M6535 40 6535 50M6540 40 6540 50M6545 40 6545 50M6555 40 6555 50M6560 40 6560 50M6565 40 6565 50M6570 40 6570 50M6580 40 6580 50M6585 40 6585 50M6590 40 6590 50M6595 40 6595 50M6605 40 6605 50M6610 40 6610 50M6615 40 6615 50M6620 40 6620 50M6630 40 6630 50M6635 40 6635 50M6640 40 6640 50M6645 40 6645 50M6655 40 6655 50M6660 40 6660 50M6665 40 6665 50M6670 40 6670 50M6680 40 6680 50M6685 40 6685 50M6690 40 6690 50M6695 40 6695 50M6705 40 6705 50M6710 40 6710 50M6715 40 6715 50M6720 40 6720 50M6730 40 6730 50M6735 40 6735 50M6740 40 6740 50M6745 40 6745 50M6755 40 6755 50M6760 40 6760 50M6765 40 6765 50M6770 40 6770 50M6780 40 6780 50M6785 40 6785 50M6790 40 6790 50M6795 40 6795 50M6805 40 6805 50M6810 40 6810 50M6815 40 6815 50M6820 40 6820 50M6830 40 6830 50M6835 40 6835 50M6840 40 6840 50M6845 40 6845 50M6855 40 6855 50M6860 40 6860 50M6865 40 6865 50M6870 40 6870 50M6880 40 6880 50M6885 40 6885 50M6890 40 6890 50M6895 40 6895 50M6905 40 6905 50M6910 40 6910 50M6915 40 6915 50M6920 40 6920 50M6930 40 6930 50M6935 40 6935 50M6940 40 6940 50M6945 40 6945 50M6955 40 6955 50M6960 40 6960 50M6965 40 6965 50M6970 40 6970 50M6980 40 6980 50M6985 40 6985 50M6990 40 6990 50M6995 40 6995 50M7005 40 7005 50M7010 40 7010 50M7015 40 7015 50M7020 40 7020 50M7030 40 7030 50M7035 40 7035 50M7040 40 7040 50M7045 40 7045 50M7055 40 7055 50M7060 40 7060 50M7065 40 7065 50M7070 40 7070 50M7080 40 7080 50M7085 40 7085 50M7090 40 7090 50M7095 40 7095 50M7105 40 7105 50M7110 40 7110 50M7115 40 7115 50M7120 40 7120 50M7130 40 7130 50M7135 40 7135 50M7140 40 7140 50M7145 40 7145 50M7155 40 7155 50M7160 40 7160 50M7165 40 7165 50M7170 40 7170 50M7180 40 7180 50M7185 40 7185 50M7190 40 7190 50M7195 40 7195 50" fill="none" stroke="rgb(var(--midd))" stroke-width="0.5" />
</svg>