<svg xmlns="http://www.w3.org/2000/svg" width="20px" height="20px">
    <path d="M0 2C0 .8.8 0 2 0H6.5C7.5 0 8.2 1 10 3H8A1 1 0 007 2L1 2A1 1 0 002 3L18 3C19.2 3 20 3.8 20 5V16A2 2 0 0118 18H2A2 2 0 010 16Z" style="fill:#BB5E23;stroke:none"/>
    <path d="m10.4 9.92c-.1-.09-.33-.3-.42-.41-.07-.1-.2-.36-.22-.5-.03-.25.02-1.24.02-1.25 0-.16-.04-.49-.09-.64-.05-.15-.22-.43-.28-.47-.09-.07-.19-.1-.31-.09-.03 0-.07.01-.1.01.2.15.32.27.39.4.06.13.14.35.16.52.02.25-.05 1.12-.05 1.26 0 .13.03.44.08.59.05.15.28.4.34.46.02.02.03.04.05.06-.09 0-.24-.01-.3-.03-.06-.02-.18-.1-.26-.16.03.12.1.45.14.56.07.14.22.34.25.38-.1 0-.36.01-.49-.03-.05-.01-.16-.07-.22-.1-.07-.05-.16-.14-.2-.21-.07-.12-.17-.43-.2-.56-.02-.08-.09-.49-.15-.64-.05-.15-.2-.43-.3-.54-.09-.12-.33-.33-.45-.41-.12-.07-.4-.19-.56-.21-.22-.04-.79.03-.9.05-.02-.04-.07-.16-.07-.19-.02-.12.1-.34.22-.52.01-.02.03-.05.05-.07-.07-.01-.18.02-.24.05-.04.03-.15.17-.18.23-.07.14-.07.35-.05.58-.04.11-.16.38-.23.54-.09.2-.26.49-.35.58-.06.07-.19.16-.26.19-.11.04-.42.04-.53.01-.14-.03-.35-.17-.44-.28-.08-.1-.13-.35-.13-.54 0-.05.01-.07.01-.07.02-.02.13.12.17.15.05.04.18.06.27.06-.06-.07-.16-.19-.19-.24-.05-.09-.08-.23-.05-.25.02-.02.16.06.21.08.07.03.22.05.3.04.09-.01.22-.07.27-.12.07-.07.12-.32.1-.48-.01-.12-.09-.42-.1-.52-.03-.14-.05-.46-.05-.58 0-.17.07-.45.14-.56.07-.12.26-.33.38-.42.13-.1.37-.22.52-.27.24-.08.89-.19 1.19-.2.33-.01.96.04 1.16.11.21.07.36.19.53.35.02.02.04.03.06.05.06-.02.36-.18.54-.2.09-.01.36 0 .5.02.27.05.88.27 1.17.41.26.12.85.44 1.08.66.04.04.11.1.14.13.11.03.47.11.57.15.16.06.44.24.55.36.11.11.3.39.36.52.07.15.15.44.17.61 0 .02.01.3.02.34-.05.03-.31.22-.46.29-.16.06-.6.16-.64.17.03.01.31.08.45.06.21-.05.77-.28 1.22-.49.33-.16.8-.37.84-.39.07-.03.18-.05.24-.03.07.01.14.14.16.23.05.27-.15 1.35-.26 1.78-.05.19-.15.42-.23.54-.08.12-.34.31-.51.38-.05.01-.43.12-.54.15.04.06.15.12.26.13.07.01.8-.14.88-.14.11 0 .24.05.26.1.02.06.02.19.01.26-.07.29-.3.85-.47 1.09-.09.13-.28.35-.39.45-.1.09-.32.27-.45.34-.14.09-.55.24-.59.25.03.04.12.08.2.08.05.01.55-.11.62-.09.07.02.11.1.1.18-.02.06-.1.17-.15.22-.12.11-.37.28-.56.36-.22.1-.85.27-1.14.3-.32.04-1.04-.02-1.26-.08-.08-.03-.26-.12-.31-.14-.07-.22-.12-.39-.13-.53 0-.14.09-.46.11-.52.08-.07.28-.27.37-.41.07-.1.22-.41.26-.56.04-.15.06-.46.04-.59-.01-.07-.05-.2-.08-.25-.04-.06-.13-.15-.2-.18-.06-.03-.2-.07-.25-.07-.13 0-.35.08-.4.1 0 0 .01-.49.01-.49-.14.27-.45.9-.55 1.15-.05.16-.2.77-.26 1.06-.09.38-.22.81-.36 1.15-.04-.09-.16-.34-.2-.46-.07-.25-.14-.87-.15-1.18-.01-.45.13-1.47.25-2.08 0 0 .32-.11.32-.11-.17-.15-.32-.29-.38-.43-.01-.04-.06-.18-.08-.22.16.01.32 0 .45-.04.04-.02.17-.08.21-.09z" style="fill:#FFFF3C;stroke:none"/>
    <path d="m10.02 14.9c.19-.37.34-.7.43-1.05.03-.11.2-.95.27-1.19.06-.18.13-.39.19-.51.04-.06.12-.17.18-.22.05-.04.19-.11.26-.12.08-.02.19 0 .25.02.06.03.16.12.19.17.03.06.06.19.06.26 0 .14-.08.49-.13.61-.07.17-.26.41-.37.49-.1.07-.35.17-.44.2 0 0 .24.15.24.15-.04.21-.06.38-.05.51.01.13.05.28.12.47-.27.36-.48.63-.77.78-.24.13-.88.31-1.21.36-.28.05-.97.11-1.23.09-.16-.02-.45-.09-.6-.16-.19-.08-.68-.44-.69-.44 0-.02-.01-.06-.02-.14 0 0 .19-.03.19-.03-.08-.01-.21-.05-.28-.09-.07-.04-.25-.24-.33-.39-.05-.09-.18-.37-.23-.5-.11-.31-.13-.83-.13-.88-.12-.11-.25-.3-.29-.46-.01-.06-.01-.2 0-.27.02-.08.07-.17.12-.2.08-.03.33.02.38.03.01-.12.05-.44.04-.58-.01-.29-.19-.96-.24-1.26-.05-.27-.1-.92-.08-1.2.03-.35.16-.69.35-1.13.11-.02.46-.1.56-.11.17-.02.48.01.63.07.13.06.41.24.51.35.11.11.29.36.37.52.14.28.28.97.34 1.1.07.13.24.35.35.45.11.1.33.22.47.23.01 0 .14.01.19.01-.03.22-.12.9-.14 1.11-.03.34-.03 1.03 0 1.36.03.35.16 1.01.28 1.22.04.08.17.25.26.37z" style="fill:#FFFF3C;stroke:none"/>
    <path d="m7.46 9.45c.12-.02.42.03.51.08.08.03.16.11.21.17.02.04.01.06-.03.04-.19-.09-.35-.14-.49-.15-.13 0-.49.04-.54.04-.04.01-.04-.02.02-.05.09-.06.23-.11.32-.13z" style="fill:#BB5E23;stroke:none"/>
    <path d="m7.83 10.47c.14.04.42.24.51.36.09.11.2.41.21.5 0 .13-.05.26-.1.26-.04 0-.2-.24-.24-.29-.01.14-.06.48-.08.61-.04.17-.12.4-.2.47-.04.03-.16.06-.22.07-.07 0-.19-.03-.24-.05-.11-.07-.27-.34-.32-.51-.04-.12-.07-.45-.07-.63 0-.16.07-.51.14-.62.03-.06.13-.14.19-.17.12-.04.36-.02.42 0z" style="fill:#BB5E23;stroke:none"/>
</svg>
